<svg width="425" height="287" viewBox="0 0 425 287" fill="none" xmlns="http://www.w3.org/2000/svg">
<g clip-path="url(#clip0_3_1693)">
<path d="M130.081 133.096H75.374V194.182H130.081V133.096Z" fill="#CCCCCC"/>
<path d="M47.5237 286.058H19.673L16.689 262.22H50.5077L47.5237 286.058Z" fill="#E6E6E6"/>
<path d="M103.449 268.791L102.509 281.622C102.466 282.202 102.549 282.785 102.75 283.332C102.952 283.878 103.268 284.375 103.678 284.79C104.088 285.204 104.582 285.526 105.126 285.734C105.671 285.942 106.254 286.032 106.836 285.996L113.435 285.597C113.741 285.579 114.039 285.493 114.308 285.347C114.577 285.2 114.81 284.996 114.991 284.75C115.172 284.503 115.297 284.219 115.356 283.919C115.415 283.619 115.407 283.309 115.333 283.013L111.669 268.381L103.449 268.791Z" fill="#E6E6E6"/>
<path d="M158.651 276.378C166.418 278.193 171.966 280.772 175.611 284.262C176.909 285.495 178.608 286.222 180.398 286.311C182.684 286.431 184.553 286.175 185.957 285.548C186.317 285.39 186.628 285.138 186.858 284.819C187.087 284.501 187.227 284.126 187.263 283.735C187.306 283.338 187.241 282.937 187.076 282.573C186.911 282.209 186.651 281.896 186.324 281.666L167.903 268.577L160.078 271.703L158.253 273.526C158.055 273.723 157.906 273.964 157.817 274.228C157.729 274.493 157.702 274.775 157.741 275.051C157.779 275.327 157.882 275.591 158.04 275.821C158.197 276.052 158.407 276.242 158.651 276.378Z" fill="#E6E6E6"/>
<path d="M134.748 66.8931L82.0933 66.4062C82.2257 58.7479 84.01 51.2276 87.9104 44.4981C90.4721 40.0784 90.4167 35.2684 89.7994 31.2161C88.8467 24.9625 91.062 18.5642 95.9848 14.5834C99.7467 11.5359 104.495 9.9672 109.335 10.1727L110.357 10.2152C113.687 10.3534 116.93 11.3249 119.786 13.0404C122.642 14.756 125.021 17.1606 126.705 20.0335C128.415 23.1004 129.105 26.6312 128.675 30.1154C128.341 33.3938 129.14 36.7056 131.007 40.0489C134.23 47.3903 134.928 56.7847 134.748 66.8931Z" fill="#2F2E41"/>
<path d="M169.976 269.26L159.642 271.952L109.32 162.477L112.465 269.26H102.131C91.0887 219.022 71.1521 161.041 80.1154 142.736L133.583 139.595L169.976 269.26Z" fill="#72BAFD"/>
<path d="M108.871 48.5162C116.563 48.5162 122.799 42.289 122.799 34.6075C122.799 26.926 116.563 20.6989 108.871 20.6989C101.178 20.6989 94.9424 26.926 94.9424 34.6075C94.9424 42.289 101.178 48.5162 108.871 48.5162Z" fill="#FFB9B9"/>
<path d="M121.002 60.1815L98.0874 58.8355C100.333 53.6886 101.23 48.7323 100.334 44.0295H117.407C117.369 47.6403 119.168 53.8863 121.002 60.1815Z" fill="#FFB9B9"/>
<path d="M135.38 143.633L85.0581 147.223L90.2249 58.1627L98.9864 55.6949L108.871 57.9382L118.755 53.0027L125.046 55.2465L135.38 143.633Z" fill="#72BAFD"/>
<path d="M93.5944 207.793L59.2227 199.941C69.4432 166.097 87.8559 88.671 81.9125 61.0789L99.8847 53.0029L93.5944 207.793Z" fill="#E6E6E6"/>
<path d="M76.9702 109.983L63.9404 101.907L75.0526 69.4084C76.2919 66.0549 78.6658 63.2393 81.7637 61.4483L85.507 59.2842L83.2605 92.0368L76.9702 109.983Z" fill="#E6E6E6"/>
<path d="M165.259 200.39C154.41 206.657 127.292 210.151 115.386 205.774C114.51 175.195 112.791 88.6992 118.306 52.1056L138.076 60.1816L136.278 84.4096C126.827 105.135 154.272 177.323 165.259 200.39Z" fill="#E6E6E6"/>
<path d="M163.686 105.946L151.555 101.908L135.38 83.512L138.076 60.1814L165.034 97.8695L163.686 105.946Z" fill="#E6E6E6"/>
<path d="M125.667 123.409C125.866 124.279 126.401 125.035 127.157 125.511C127.913 125.986 128.827 126.144 129.698 125.948L139.996 123.619L138.508 117.055L128.21 119.384C127.338 119.581 126.58 120.116 126.104 120.871C125.627 121.626 125.47 122.539 125.667 123.409Z" fill="#FFB9B9"/>
<path d="M121.002 31.0182C113.266 27.8416 105.625 27.6117 98.0875 30.5696L94.9424 19.3529H123.698L121.002 31.0182Z" fill="#2F2E41"/>
<path d="M134.931 115.816L140.772 126.584C150.596 123.848 159.11 115.222 167.281 105.048L165.034 97.8695L151.106 101.459L134.931 115.816Z" fill="#E6E6E6"/>
<path d="M130.662 93.6072H128.865C128.865 68.2243 123.631 50.5353 118.531 50.5353L118.082 48.7406C122.656 48.7406 125.572 56.1026 127.212 62.2788C129.437 70.6516 130.662 81.7776 130.662 93.6072Z" fill="#3F3D56"/>
<path d="M89.326 87.3259H87.5288C87.5288 64.0792 92.7987 49.6379 100.559 49.6379L100.109 51.4326C94.7418 51.4326 89.326 62.5312 89.326 87.3259Z" fill="#3F3D56"/>
<path d="M129.764 98.5425C132.245 98.5425 134.257 96.5338 134.257 94.0559C134.257 91.578 132.245 89.5692 129.764 89.5692C127.282 89.5692 125.271 91.578 125.271 94.0559C125.271 96.5338 127.282 98.5425 129.764 98.5425Z" fill="#3F3D56"/>
<path d="M82.1376 98.0938H80.3403C80.3403 91.6615 83.9683 86.4285 88.4278 86.4285V88.2231C84.9593 88.2231 82.1376 92.6511 82.1376 98.0938Z" fill="#3F3D56"/>
<path d="M96.5152 98.0938H94.718C94.718 92.6511 91.8962 88.2232 88.4277 88.2232V86.4285C92.8872 86.4285 96.5152 91.6615 96.5152 98.0938Z" fill="#3F3D56"/>
<path d="M95.6166 100.337C96.6091 100.337 97.4138 99.5336 97.4138 98.5425C97.4138 97.5513 96.6091 96.7478 95.6166 96.7478C94.624 96.7478 93.8193 97.5513 93.8193 98.5425C93.8193 99.5336 94.624 100.337 95.6166 100.337Z" fill="#3F3D56"/>
<path d="M81.2386 100.337C82.2312 100.337 83.0358 99.5336 83.0358 98.5425C83.0358 97.5513 82.2312 96.7478 81.2386 96.7478C80.246 96.7478 79.4414 97.5513 79.4414 98.5425C79.4414 99.5336 80.246 100.337 81.2386 100.337Z" fill="#3F3D56"/>
<path d="M58.7734 82.0394L69.9868 84.0389L95.6164 120.43L82.0004 117.23L58.7734 82.0394Z" fill="#72BAFD"/>
<path d="M56.7846 81.594C56.6137 81.5966 56.4467 81.6449 56.3009 81.734C56.1552 81.8231 56.0361 81.9497 55.9561 82.1005C55.8762 82.2513 55.8382 82.4208 55.8463 82.5913C55.8544 82.7617 55.9082 82.9269 56.002 83.0695L79.9593 119.367C80.093 119.57 80.2995 119.714 80.5363 119.769L91.6829 122.388C91.8708 122.432 92.0677 122.418 92.2476 122.348C92.4274 122.278 92.5816 122.155 92.6897 121.995C92.7979 121.836 92.8548 121.647 92.8531 121.454C92.8513 121.261 92.7908 121.074 92.6798 120.916L66.3762 83.5685C66.3048 83.4668 66.2141 83.3801 66.1092 83.3133C66.0043 83.2466 65.8872 83.2012 65.7647 83.1797L56.9643 81.6102C56.905 81.5996 56.8448 81.5942 56.7846 81.594Z" fill="#3F3D56"/>
<path d="M71.729 107.546L72.3948 114.243L82.9017 113.202C83.7911 113.114 84.6089 112.676 85.1754 111.986C85.7418 111.296 86.0105 110.409 85.9222 109.521C85.834 108.633 85.396 107.816 84.7047 107.251C84.0134 106.685 83.1255 106.417 82.2361 106.505L71.729 107.546Z" fill="#FFB9B9"/>
<path d="M62.5928 106.771C62.608 109.054 63.5265 111.239 65.148 112.849C66.7695 114.46 68.9627 115.365 71.2496 115.368H72.9772L74.235 104.901L63.8209 101.157L62.5928 106.771Z" fill="#E6E6E6"/>
<path d="M425 0H220.099V107.768H425V0Z" fill="#E6E6E6"/>
<path d="M226.066 101.809H419.032V5.95959H226.066V101.809Z" fill="white"/>
<path d="M309.618 19.8651H240.986V88.3998H309.618V19.8651Z" fill="#3F3D56"/>
<path d="M293.207 51.1527C294.305 51.1527 295.196 50.2633 295.196 49.1662C295.196 48.0691 294.305 47.1797 293.207 47.1797C292.108 47.1797 291.217 48.0691 291.217 49.1662C291.217 50.2633 292.108 51.1527 293.207 51.1527Z" fill="#72BAFD"/>
<path d="M285.747 44.2C286.845 44.2 287.736 43.3106 287.736 42.2134C287.736 41.1163 286.845 40.2269 285.747 40.2269C284.648 40.2269 283.757 41.1163 283.757 42.2134C283.757 43.3106 284.648 44.2 285.747 44.2Z" fill="#72BAFD"/>
<path d="M284.752 49.1662C284.02 49.1663 283.302 49.3694 282.679 49.7527C282.13 48.9284 281.485 48.1722 280.757 47.5001C280.765 47.3941 280.773 47.2879 280.773 47.1797C280.774 46.4002 280.544 45.6377 280.114 44.9874C279.683 44.3371 279.071 43.8278 278.352 43.5229C277.634 43.218 276.841 43.1311 276.074 43.273C275.306 43.4148 274.597 43.7792 274.036 44.3207C272.97 44.1697 271.89 44.1603 270.822 44.2927C270.822 44.2615 270.826 44.2312 270.826 44.1999C270.827 43.5349 270.661 42.8803 270.343 42.2962C270.024 41.712 269.564 41.217 269.005 40.8565C268.445 40.4959 267.804 40.2814 267.14 40.2326C266.475 40.1838 265.81 40.3023 265.203 40.5771C264.597 40.852 264.069 41.2744 263.669 41.8058C263.268 42.3371 263.008 42.9603 262.911 43.6183C262.814 44.2762 262.885 44.9479 263.116 45.5717C263.346 46.1955 263.73 46.7515 264.232 47.1887C263.566 47.7584 262.962 48.3966 262.429 49.0926C261.938 48.6845 261.356 48.4005 260.732 48.2647C260.108 48.1288 259.46 48.1451 258.843 48.3121C258.227 48.4791 257.659 48.792 257.189 49.2242C256.719 49.6565 256.361 50.1953 256.143 50.7953C255.926 51.3953 255.857 52.0387 255.941 52.6711C256.026 53.3034 256.261 53.9062 256.628 54.4285C256.995 54.9507 257.483 55.3769 258.05 55.6712C258.617 55.9655 259.246 56.119 259.885 56.119L259.898 56.1184C259.891 56.2835 259.885 56.4489 259.885 56.6156C259.885 57.6153 260.006 58.6112 260.245 59.582C259.062 60.0263 258.012 60.7633 257.193 61.7239C256.374 62.6845 255.813 63.8371 255.562 65.0736C255.312 66.3101 255.38 67.59 255.76 68.793C256.14 69.9961 256.821 71.0829 257.737 71.9516C258.653 72.8202 259.775 73.4421 260.998 73.759C262.221 74.0758 263.505 74.0772 264.728 73.763C265.952 73.4488 267.075 72.8293 267.993 71.9627C268.912 71.0961 269.594 70.0107 269.977 68.8084C272.745 69.3396 275.611 68.915 278.105 67.6045C278.359 68.2032 278.757 68.7303 279.264 69.1395C279.77 69.5488 280.369 69.8276 281.008 69.9517C281.648 70.0757 282.308 70.0411 282.931 69.8509C283.554 69.6607 284.12 69.3207 284.581 68.8608C285.041 68.4009 285.382 67.8351 285.572 67.2131C285.763 66.5911 285.798 65.9319 285.673 65.2934C285.549 64.6549 285.27 64.0566 284.86 63.551C284.45 63.0455 283.922 62.6481 283.323 62.3939C284.184 60.761 284.668 58.956 284.739 57.1116L284.752 57.1123C285.807 57.1123 286.819 56.6937 287.565 55.9486C288.311 55.2035 288.73 54.193 288.73 53.1392C288.73 52.0855 288.311 51.075 287.565 50.3299C286.819 49.5848 285.807 49.1662 284.752 49.1662Z" fill="#72BAFD"/>
<path d="M283.757 18.3752H263.864V21.355H283.757V18.3752Z" fill="#E6E6E6"/>
<path d="M397.149 19.8651H328.517V88.3998H397.149V19.8651Z" fill="#3F3D56"/>
<path d="M375.863 66.3495C376.358 66.3495 376.759 65.9493 376.759 65.4556C376.759 64.9619 376.358 64.5616 375.863 64.5616C375.369 64.5616 374.968 64.9619 374.968 65.4556C374.968 65.9493 375.369 66.3495 375.863 66.3495Z" fill="#72BAFD"/>
<path d="M372.507 63.2207C373.001 63.2207 373.402 62.8205 373.402 62.3268C373.402 61.8331 373.001 61.4329 372.507 61.4329C372.012 61.4329 371.611 61.8331 371.611 62.3268C371.611 62.8205 372.012 63.2207 372.507 63.2207Z" fill="#72BAFD"/>
<path d="M372.059 65.4556C371.729 65.4556 371.407 65.547 371.126 65.7195C370.879 65.3485 370.589 65.0083 370.261 64.7058C370.265 64.6581 370.268 64.6103 370.268 64.5616C370.269 64.2109 370.166 63.8677 369.972 63.5751C369.778 63.2825 369.502 63.0533 369.179 62.9161C368.856 62.7789 368.499 62.7398 368.154 62.8036C367.808 62.8674 367.489 63.0314 367.237 63.2751C366.757 63.2071 366.271 63.2029 365.79 63.2625C365.791 63.2485 365.792 63.2348 365.792 63.2208C365.793 62.9215 365.718 62.6269 365.575 62.3641C365.432 62.1012 365.225 61.8784 364.973 61.7162C364.721 61.554 364.432 61.4574 364.133 61.4355C363.835 61.4135 363.535 61.4668 363.262 61.5905C362.989 61.7142 362.752 61.9043 362.572 62.1434C362.391 62.3825 362.274 62.6629 362.231 62.959C362.187 63.2551 362.219 63.5573 362.323 63.8381C362.426 64.1188 362.599 64.369 362.825 64.5657C362.525 64.8221 362.253 65.1093 362.014 65.4225C361.793 65.2388 361.531 65.111 361.25 65.0499C360.969 64.9888 360.677 64.9961 360.4 65.0712C360.123 65.1464 359.867 65.2872 359.656 65.4817C359.444 65.6762 359.283 65.9187 359.185 66.1887C359.087 66.4587 359.056 66.7482 359.094 67.0328C359.132 67.3173 359.238 67.5886 359.403 67.8236C359.568 68.0586 359.788 68.2504 360.043 68.3828C360.298 68.5152 360.581 68.5844 360.869 68.5843L360.875 68.584C360.872 68.6584 360.869 68.7328 360.869 68.8078C360.869 69.2577 360.923 69.7058 361.031 70.1427C360.499 70.3426 360.026 70.6743 359.658 71.1065C359.289 71.5388 359.036 72.0575 358.924 72.6139C358.811 73.1703 358.841 73.7463 359.013 74.2876C359.184 74.829 359.49 75.3181 359.902 75.709C360.314 76.0999 360.82 76.3797 361.37 76.5223C361.92 76.6649 362.498 76.6655 363.048 76.5241C363.599 76.3827 364.104 76.104 364.518 75.714C364.931 75.324 365.238 74.8356 365.41 74.2946C366.656 74.5336 367.945 74.3426 369.068 73.7528C369.182 74.0222 369.361 74.2594 369.589 74.4436C369.817 74.6277 370.087 74.7532 370.374 74.809C370.662 74.8649 370.959 74.8493 371.239 74.7637C371.52 74.6781 371.775 74.5251 371.982 74.3181C372.189 74.1112 372.342 73.8566 372.428 73.5767C372.514 73.2968 372.529 73.0001 372.474 72.7128C372.418 72.4255 372.292 72.1563 372.108 71.9288C371.923 71.7013 371.686 71.5224 371.416 71.408C371.804 70.6732 372.021 69.861 372.053 69.031L372.059 69.0313C372.534 69.0313 372.989 68.843 373.325 68.5077C373.661 68.1724 373.849 67.7176 373.849 67.2434C373.849 66.7693 373.661 66.3145 373.325 65.9792C372.989 65.6439 372.534 65.4556 372.059 65.4556Z" fill="#72BAFD"/>
<path d="M382.887 49.3855C383.381 49.3855 383.782 48.9853 383.782 48.4916C383.782 47.9979 383.381 47.5977 382.887 47.5977C382.392 47.5977 381.992 47.9979 381.992 48.4916C381.992 48.9853 382.392 49.3855 382.887 49.3855Z" fill="#72BAFD"/>
<path d="M384.992 45.3107C385.487 45.3107 385.888 44.9105 385.888 44.4168C385.888 43.9231 385.487 43.5228 384.992 43.5228C384.498 43.5228 384.097 43.9231 384.097 44.4168C384.097 44.9105 384.498 45.3107 384.992 45.3107Z" fill="#72BAFD"/>
<path d="M381.855 44.8346C381.766 44.518 381.59 44.2324 381.348 44.0096C381.639 43.6716 381.888 43.3003 382.091 42.9035C382.138 42.8942 382.185 42.8846 382.232 42.8714C382.57 42.7765 382.873 42.5844 383.102 42.3189C383.332 42.0533 383.478 41.7262 383.523 41.3783C383.567 41.0303 383.508 40.6769 383.353 40.3622C383.198 40.0475 382.953 39.7854 382.65 39.6085C382.586 39.1293 382.458 38.6606 382.27 38.2149C382.284 38.2114 382.297 38.2094 382.311 38.2056C382.599 38.1249 382.863 37.9731 383.078 37.7641C383.292 37.5552 383.451 37.2959 383.539 37.0098C383.627 36.7238 383.642 36.4203 383.582 36.1271C383.522 35.8338 383.39 35.5603 383.196 35.3315C383.003 35.1028 382.756 34.9261 382.476 34.8177C382.197 34.7093 381.895 34.6726 381.598 34.711C381.3 34.7495 381.018 34.8618 380.775 35.0377C380.533 35.2136 380.338 35.4475 380.21 35.7179C379.882 35.4993 379.531 35.3158 379.164 35.1705C379.281 34.9083 379.334 34.6218 379.316 34.3352C379.299 34.0486 379.213 33.7704 379.065 33.5241C378.918 33.2777 378.713 33.0705 378.468 32.92C378.223 32.7695 377.946 32.68 377.659 32.6592C377.372 32.6384 377.085 32.6869 376.821 32.8006C376.557 32.9142 376.324 33.0897 376.142 33.3121C375.96 33.5346 375.835 33.7975 375.776 34.0786C375.718 34.3596 375.728 34.6507 375.806 34.927L375.808 34.9324C375.735 34.9497 375.663 34.9672 375.591 34.9876C375.157 35.1096 374.74 35.2833 374.348 35.5051C374.011 35.0478 373.563 34.6836 373.047 34.4465C372.53 34.2094 371.962 34.1072 371.395 34.1496C370.828 34.192 370.281 34.3776 369.805 34.6888C369.33 35.0001 368.941 35.4269 368.676 35.9292C368.411 36.4314 368.279 36.9927 368.29 37.5603C368.302 38.1279 368.458 38.6832 368.744 39.1741C369.029 39.665 369.435 40.0755 369.923 40.3669C370.411 40.6583 370.965 40.8211 371.533 40.8401C371.64 42.102 372.174 43.2899 373.047 44.2087C372.818 44.3919 372.638 44.6283 372.522 44.8972C372.406 45.1661 372.358 45.4593 372.383 45.751C372.407 46.0427 372.502 46.324 372.661 46.5702C372.819 46.8164 373.036 47.02 373.292 47.1632C373.547 47.3063 373.834 47.3845 374.127 47.391C374.42 47.3975 374.711 47.3321 374.972 47.2005C375.234 47.0689 375.46 46.8751 375.629 46.6362C375.798 46.3972 375.906 46.1205 375.943 45.8301C376.757 46.0036 377.599 45.9928 378.407 45.7984L378.409 45.8039C378.472 46.03 378.58 46.2415 378.725 46.4261C378.871 46.6107 379.051 46.7649 379.256 46.8798C379.461 46.9947 379.687 47.0681 379.921 47.0959C380.154 47.1236 380.391 47.1051 380.618 47.0415C380.844 46.9778 381.056 46.8702 381.24 46.7248C381.425 46.5794 381.579 46.3991 381.694 46.1941C381.809 45.9892 381.883 45.7636 381.91 45.5304C381.938 45.2971 381.919 45.0607 381.855 44.8346Z" fill="#72BAFD"/>
<path d="M348.214 37.2379C348.708 37.2379 349.109 36.8377 349.109 36.344C349.109 35.8503 348.708 35.4501 348.214 35.4501C347.72 35.4501 347.319 35.8503 347.319 36.344C347.319 36.8377 347.72 37.2379 348.214 37.2379Z" fill="#72BAFD"/>
<path d="M343.637 37.6041C344.131 37.6041 344.532 37.2039 344.532 36.7102C344.532 36.2165 344.131 35.8163 343.637 35.8163C343.142 35.8163 342.742 36.2165 342.742 36.7102C342.742 37.2039 343.142 37.6041 343.637 37.6041Z" fill="#72BAFD"/>
<path d="M345.649 39.1497C345.427 39.3927 345.277 39.6924 345.215 40.0156C344.774 39.9476 344.327 39.9323 343.882 39.97C343.85 39.935 343.817 39.9002 343.781 39.8674C343.521 39.6307 343.198 39.4754 342.851 39.421C342.504 39.3666 342.149 39.4153 341.829 39.5613C341.51 39.7072 341.24 39.9438 341.055 40.2416C340.869 40.5394 340.775 40.8851 340.785 41.2358C340.412 41.5436 340.081 41.8994 339.801 42.2939C339.79 42.2843 339.782 42.2737 339.771 42.2643C339.55 42.0622 339.282 41.9188 338.991 41.8472C338.7 41.7756 338.396 41.7781 338.106 41.8544C337.816 41.9307 337.55 42.0784 337.332 42.284C337.115 42.4896 336.952 42.7465 336.859 43.0312C336.767 43.3158 336.747 43.6191 336.803 43.9132C336.858 44.2073 336.986 44.4828 337.176 44.7145C337.366 44.9462 337.611 45.1267 337.888 45.2394C338.166 45.3521 338.467 45.3934 338.765 45.3595C338.753 45.7534 338.782 46.1475 338.852 46.5353C338.567 46.5745 338.296 46.6816 338.061 46.8475C337.827 47.0134 337.636 47.2334 337.504 47.4887C337.373 47.744 337.305 48.0272 337.306 48.3142C337.307 48.6013 337.378 48.8839 337.511 49.138C337.645 49.3922 337.838 49.6104 338.074 49.7742C338.31 49.9381 338.582 50.0428 338.868 50.0794C339.153 50.1161 339.442 50.0836 339.712 49.9848C339.982 49.8859 340.224 49.7236 340.418 49.5116L340.422 49.5072C340.475 49.5595 340.528 49.6116 340.584 49.6622C340.916 49.9655 341.284 50.2276 341.68 50.4428C341.469 50.97 341.396 51.5421 341.467 52.1054C341.538 52.6686 341.752 53.2046 342.087 53.6629C342.422 54.1213 342.869 54.487 343.385 54.7258C343.901 54.9646 344.469 55.0686 345.036 55.0281C345.603 54.9876 346.15 54.8038 346.627 54.4941C347.103 54.1844 347.493 53.7589 347.76 53.2575C348.026 52.7561 348.161 52.1953 348.151 51.6277C348.141 51.0601 347.987 50.5042 347.703 50.0124C348.72 49.2551 349.448 48.1751 349.769 46.9498C350.045 47.047 350.341 47.0748 350.631 47.031C350.921 46.9871 351.196 46.8729 351.431 46.6984C351.666 46.5238 351.855 46.2942 351.981 46.0298C352.106 45.7654 352.165 45.4742 352.152 45.1818C352.138 44.8894 352.053 44.6048 351.904 44.3528C351.755 44.1009 351.546 43.8894 351.296 43.7369C351.046 43.5844 350.762 43.4956 350.469 43.4782C350.177 43.4608 349.884 43.5154 349.618 43.6372C349.336 42.8559 348.882 42.1476 348.289 41.5646L348.293 41.5606C348.452 41.3873 348.576 41.1844 348.656 40.9635C348.736 40.7426 348.772 40.508 348.762 40.2733C348.751 40.0385 348.694 39.8081 348.594 39.5953C348.495 39.3825 348.354 39.1914 348.18 39.0329C348.006 38.8745 347.803 38.7518 347.582 38.6719C347.36 38.592 347.125 38.5565 346.89 38.5673C346.655 38.5782 346.425 38.6352 346.212 38.7351C345.999 38.8351 345.807 38.976 345.649 39.1497Z" fill="#72BAFD"/>
<path d="M371.288 18.3752H351.395V21.355H371.288V18.3752Z" fill="#E6E6E6"/>
<path d="M12.5212 253.401C19.6926 262.991 34.5789 264.001 34.5789 264.001C34.5789 264.001 37.8382 249.461 30.6668 239.871C23.4955 230.28 8.60908 229.271 8.60908 229.271C8.60908 229.271 5.34979 243.811 12.5212 253.401Z" fill="#E6E6E6"/>
<path d="M49.0536 257.006C44.3214 263.335 34.4984 264.001 34.4984 264.001C34.4984 264.001 32.3477 254.407 37.0798 248.078C41.812 241.75 51.6351 241.084 51.6351 241.084C51.6351 241.084 53.7858 250.678 49.0536 257.006Z" fill="#E6E6E6"/>
<path d="M258.393 285.887H0V287H258.393V285.887Z" fill="#3F3D56"/>
</g>
<defs>
<clipPath id="clip0_3_1693">
<rect width="425" height="287" fill="white"/>
</clipPath>
</defs>
</svg>
