<svg width="254" height="225" viewBox="0 0 254 225" fill="none" xmlns="http://www.w3.org/2000/svg">
<g clip-path="url(#clip0_2_624)">
<path d="M220.709 134.789H6.95805C5.23392 134.787 3.58096 134.099 2.36182 132.876C1.14267 131.653 0.456903 129.995 0.454956 128.265V7.35498H227.212V128.265C227.21 129.995 226.524 131.653 225.305 132.876C224.086 134.099 222.433 134.787 220.709 134.789Z" fill="#E6E6E6"/>
<path d="M212.202 122.301H15.4643C14.5761 122.3 13.7246 121.946 13.0966 121.316C12.4685 120.686 12.1153 119.831 12.1143 118.94V23.2031C12.1153 22.3121 12.4685 21.4578 13.0966 20.8278C13.7246 20.1977 14.5761 19.8433 15.4643 19.8423H212.202C213.091 19.8433 213.942 20.1977 214.57 20.8277C215.198 21.4578 215.551 22.3121 215.552 23.2031V118.94C215.551 119.831 215.198 120.686 214.57 121.316C213.942 121.946 213.091 122.3 212.202 122.301Z" fill="white"/>
<path d="M227.667 11.7619H0V6.52394C0.00194757 4.79428 0.687718 3.13603 1.90686 1.91298C3.12601 0.689923 4.77896 0.00195382 6.50309 0H221.164C222.888 0.00195382 224.541 0.689923 225.76 1.91298C226.979 3.13603 227.665 4.79428 227.667 6.52394V11.7619Z" fill="#72BAFD"/>
<path d="M62.0006 85.6452H26.9842C26.096 85.6442 25.2445 85.2898 24.6165 84.6597C23.9884 84.0296 23.6352 83.1754 23.6342 82.2843V59.1909C23.6352 58.2999 23.9884 57.4456 24.6165 56.8155C25.2445 56.1855 26.096 55.8311 26.9842 55.8301H62.0006C62.8888 55.8311 63.7403 56.1855 64.3684 56.8155C64.9964 57.4456 65.3497 58.2999 65.3507 59.1909V82.2843C65.3497 83.1754 64.9964 84.0296 64.3684 84.6597C63.7403 85.2898 62.8888 85.6442 62.0006 85.6452Z" fill="#E6E6E6"/>
<path d="M202.169 59.5687H91.5322C91.038 59.5687 90.564 59.3718 90.2146 59.0212C89.8651 58.6706 89.6688 58.1952 89.6688 57.6994C89.6688 57.2036 89.8651 56.7282 90.2146 56.3776C90.564 56.027 91.038 55.8301 91.5322 55.8301H202.169C202.664 55.8301 203.138 56.027 203.487 56.3776C203.836 56.7282 204.033 57.2036 204.033 57.6994C204.033 58.1952 203.836 58.6706 203.487 59.0212C203.138 59.3718 202.664 59.5687 202.169 59.5687Z" fill="#E6E6E6"/>
<path d="M202.169 72.9411H91.5322C91.038 72.9411 90.5641 72.7441 90.2147 72.3936C89.8653 72.043 89.6689 71.5676 89.6689 71.0719C89.6689 70.5761 89.8653 70.1007 90.2147 69.7501C90.5641 69.3996 91.038 69.2026 91.5322 69.2026H202.169C202.664 69.2026 203.138 69.3996 203.487 69.7501C203.836 70.1007 204.033 70.5761 204.033 71.0719C204.033 71.5676 203.836 72.043 203.487 72.3936C203.138 72.7441 202.664 72.9411 202.169 72.9411Z" fill="#E6E6E6"/>
<path d="M202.169 86.3138H91.5322C91.038 86.3138 90.564 86.1169 90.2146 85.7663C89.8651 85.4158 89.6688 84.9403 89.6688 84.4445C89.6688 83.9487 89.8651 83.4733 90.2146 83.1227C90.564 82.7721 91.038 82.5752 91.5322 82.5752H202.169C202.664 82.5752 203.138 82.7721 203.487 83.1227C203.836 83.4733 204.033 83.9487 204.033 84.4445C204.033 84.9403 203.836 85.4158 203.487 85.7663C203.138 86.1169 202.664 86.3138 202.169 86.3138Z" fill="#E6E6E6"/>
<path d="M165.355 219.96H160.523L158.224 201.263H165.356L165.355 219.96Z" fill="#A0616A"/>
<path d="M157.072 218.575H166.39V224.461H151.204C151.204 223.688 151.356 222.922 151.651 222.208C151.946 221.494 152.378 220.845 152.923 220.299C153.468 219.752 154.114 219.319 154.826 219.023C155.538 218.727 156.301 218.575 157.072 218.575Z" fill="#2F2E41"/>
<path d="M185.455 219.96H180.623L178.325 201.263H185.456L185.455 219.96Z" fill="#A0616A"/>
<path d="M177.172 218.575H186.491V224.461H171.305C171.305 223.688 171.457 222.922 171.751 222.208C172.046 221.494 172.478 220.845 173.023 220.299C173.568 219.752 174.215 219.319 174.927 219.023C175.639 218.727 176.402 218.575 177.172 218.575Z" fill="#2F2E41"/>
<path d="M184.84 215.662H179.922C179.477 215.66 179.05 215.491 178.723 215.19C178.396 214.888 178.193 214.474 178.154 214.03L173.986 163.658C173.974 163.512 173.908 163.375 173.801 163.275C173.694 163.174 173.554 163.117 173.407 163.115C173.261 163.112 173.119 163.164 173.008 163.261C172.898 163.357 172.827 163.491 172.81 163.637L166.823 214.094C166.772 214.526 166.564 214.924 166.24 215.213C165.915 215.503 165.496 215.662 165.062 215.662H159.023C158.554 215.662 158.105 215.475 157.773 215.144C157.441 214.812 157.253 214.363 157.25 213.893C157.237 210.724 157.215 207.531 157.193 204.338C157.002 175.901 156.804 146.496 162.722 134.976L162.776 134.871L184.135 134.504L184.189 134.622C190.651 148.789 188.69 180.438 186.793 211.044L186.61 213.994C186.582 214.445 186.383 214.869 186.054 215.179C185.725 215.489 185.291 215.662 184.84 215.662Z" fill="#2F2E41"/>
<path d="M174.722 96.6431C180.068 96.6431 184.402 92.2952 184.402 86.9319C184.402 81.5686 180.068 77.2207 174.722 77.2207C169.375 77.2207 165.042 81.5686 165.042 86.9319C165.042 92.2952 169.375 96.6431 174.722 96.6431Z" fill="#A0616A"/>
<path d="M161.524 136.656L161.791 125.522L159.871 116.834C159.386 114.683 159.414 112.447 159.953 110.309C160.493 108.171 161.528 106.191 162.975 104.53C164.382 102.878 166.159 101.583 168.16 100.75C170.162 99.9178 172.331 99.5717 174.491 99.7402C174.63 99.751 174.77 99.7628 174.91 99.7754C176.756 99.942 178.549 100.48 180.183 101.357C181.817 102.233 183.258 103.431 184.421 104.879C185.608 106.334 186.491 108.015 187.016 109.82C187.542 111.625 187.7 113.518 187.481 115.386L185.158 135.755L161.524 136.656Z" fill="#72BAFD"/>
<path d="M153.301 156.611C153.758 156.254 154.131 155.8 154.394 155.282C154.657 154.764 154.803 154.194 154.823 153.613C154.843 153.032 154.736 152.454 154.509 151.919C154.282 151.385 153.94 150.906 153.509 150.518L158.959 137.49L151.766 138.845L147.694 151.009C147.092 151.779 146.792 152.744 146.852 153.721C146.911 154.698 147.326 155.619 148.017 156.309C148.708 157 149.628 157.412 150.602 157.467C151.576 157.523 152.536 157.219 153.301 156.611Z" fill="#A0616A"/>
<path d="M194.426 158.173C193.99 157.79 193.644 157.315 193.41 156.783C193.177 156.251 193.063 155.674 193.077 155.093C193.09 154.512 193.23 153.941 193.487 153.42C193.744 152.899 194.111 152.441 194.564 152.078L189.862 138.759L196.966 140.523L200.342 152.9C200.9 153.703 201.144 154.683 201.029 155.655C200.914 156.627 200.448 157.523 199.719 158.173C198.989 158.823 198.048 159.182 197.072 159.182C196.097 159.182 195.155 158.823 194.426 158.173Z" fill="#A0616A"/>
<path d="M154.167 150.227C153.917 150.227 153.67 150.174 153.442 150.072L149.295 148.209C148.896 148.03 148.577 147.71 148.399 147.309C148.222 146.909 148.198 146.457 148.332 146.04L155.287 124.365L157.975 108.035C158.071 107.455 158.282 106.9 158.595 106.403C158.909 105.906 159.319 105.478 159.801 105.143C160.283 104.809 160.828 104.575 161.402 104.456C161.976 104.337 162.568 104.334 163.143 104.449C163.718 104.564 164.264 104.794 164.748 105.125C165.233 105.456 165.646 105.882 165.963 106.376C166.281 106.87 166.496 107.424 166.595 108.003C166.695 108.583 166.678 109.177 166.544 109.749L162.459 127.262L155.863 148.967C155.752 149.332 155.528 149.651 155.222 149.878C154.917 150.105 154.547 150.227 154.167 150.227Z" fill="#72BAFD"/>
<path d="M193.722 150.227C193.342 150.228 192.972 150.105 192.666 149.878C192.361 149.651 192.136 149.332 192.025 148.967L185.433 127.274L181.345 109.749C181.211 109.177 181.193 108.583 181.293 108.003C181.393 107.424 181.608 106.87 181.925 106.376C182.243 105.882 182.656 105.456 183.14 105.125C183.625 104.794 184.171 104.564 184.746 104.449C185.321 104.334 185.913 104.337 186.487 104.456C187.061 104.575 187.605 104.809 188.087 105.143C188.569 105.478 188.979 105.906 189.293 106.403C189.607 106.9 189.818 107.455 189.913 108.035L192.608 124.393L199.557 146.04C199.691 146.457 199.667 146.909 199.489 147.309C199.311 147.71 198.992 148.03 198.593 148.209L194.447 150.072C194.219 150.175 193.972 150.227 193.722 150.227Z" fill="#72BAFD"/>
<path d="M174.921 76.1976C172.23 75.0285 168.716 76.4833 167.63 79.2154C166.955 80.9158 167.161 82.8336 167.533 84.6256C167.906 86.4175 168.437 88.2058 168.38 90.0355C168.323 91.8651 167.537 93.8069 165.919 94.6534C164.953 95.1591 163.822 95.2154 162.774 95.517C161.726 95.8187 160.644 96.5239 160.493 97.6071C160.265 99.2458 162.246 100.494 162.233 102.149C162.219 103.902 160.035 104.943 159.752 106.673C159.704 107.179 159.784 107.69 159.986 108.157C160.188 108.624 160.505 109.031 160.907 109.342C161.718 109.953 162.639 110.4 163.62 110.659C171.167 113.079 179.202 113.539 186.974 111.994C188.518 111.685 190.108 111.267 191.308 110.244C192.508 109.221 193.194 107.431 192.504 106.01C191.47 103.881 188.187 103.76 187.043 101.688C186.357 100.446 186.673 98.9202 186.817 97.507C187.19 93.8573 188.051 89.5937 187.148 86.0386C186.331 82.8268 184.558 78.6764 182.024 76.5493C180.206 75.023 176.734 75.7184 174.41 76.1892L174.921 76.1976Z" fill="#2F2E41"/>
<path d="M253.606 225H115.662C115.557 225 115.457 224.958 115.383 224.884C115.309 224.81 115.267 224.709 115.267 224.604C115.267 224.5 115.309 224.399 115.383 224.325C115.457 224.251 115.557 224.209 115.662 224.209H253.606C253.71 224.209 253.811 224.251 253.885 224.325C253.958 224.399 254 224.5 254 224.604C254 224.709 253.958 224.81 253.885 224.884C253.811 224.958 253.71 225 253.606 225Z" fill="#CCCCCC"/>
<path d="M239.081 215.996C233.398 223.632 221.601 224.435 221.601 224.435C221.601 224.435 219.018 212.86 224.701 205.224C230.384 197.589 242.181 196.785 242.181 196.785C242.181 196.785 244.764 208.361 239.081 215.996Z" fill="#E6E6E6"/>
<path d="M210.13 218.867C213.88 223.905 221.664 224.435 221.664 224.435C221.664 224.435 223.369 216.797 219.619 211.759C215.868 206.72 208.084 206.19 208.084 206.19C208.084 206.19 206.379 213.828 210.13 218.867Z" fill="#E6E6E6"/>
</g>
<defs>
<clipPath id="clip0_2_624">
<rect width="254" height="225" fill="white"/>
</clipPath>
</defs>
</svg>
