<svg width="471" height="334" viewBox="0 0 471 334" fill="none" xmlns="http://www.w3.org/2000/svg">
<g clip-path="url(#clip0_3_1513)">
<path opacity="0.1" d="M156.588 333.439C179.525 333.439 198.12 330.453 198.12 326.769C198.12 323.085 179.525 320.098 156.588 320.098C133.651 320.098 115.056 323.085 115.056 326.769C115.056 330.453 133.651 333.439 156.588 333.439Z" fill="#72BAFD"/>
<path opacity="0.1" d="M382.349 333.627C410.971 333.627 434.174 330.64 434.174 326.956C434.174 323.272 410.971 320.286 382.349 320.286C353.727 320.286 330.524 323.272 330.524 326.956C330.524 330.64 353.727 333.627 382.349 333.627Z" fill="#72BAFD"/>
<path opacity="0.1" d="M5.89925 144.151H49.1573V203.111H9.06614C8.95958 203.716 8.85729 204.326 8.74647 204.935H49.1573V252.486C49.0848 252.464 49.0209 252.439 48.9527 252.413C47.8104 251.961 46.6766 251.484 45.5428 250.972L44.8183 250.644C43.6816 250.107 42.545 249.539 41.4084 248.939C41.012 248.731 40.6156 248.513 40.2235 248.291C33.9135 244.757 28.1813 240.278 23.2255 235.01C23.0806 234.87 22.9442 234.72 22.7992 234.584C22.1088 233.834 21.4311 233.075 20.7747 232.299L20.0501 231.447C19.2743 230.496 18.5242 229.52 17.7953 228.532C17.6888 228.387 17.5865 228.242 17.4756 228.105C14.5114 223.995 12.0502 219.545 10.1445 214.85C10.0848 214.709 10.0337 214.555 9.97827 214.423C9.39291 212.917 8.87433 211.397 8.42253 209.863C8.22646 209.219 8.03892 208.584 7.87696 207.915C7.81729 207.719 7.76614 207.527 7.71925 207.335C5.29827 197.886 5.0127 188.07 5.0127 178.322C5.0127 177.184 5.0127 176.041 5.0127 174.912C5.0127 170.969 5.05958 167.001 5.12778 163.037C5.12778 162.01 5.1704 160.987 5.19171 159.955C5.25138 157.338 5.33663 154.721 5.44745 152.104C5.47302 151.375 5.50712 150.651 5.54548 149.926C5.54548 149.509 5.56679 149.091 5.60942 148.673C5.71171 147.156 5.79696 145.651 5.89925 144.151Z" fill="#72BAFD"/>
<path opacity="0.1" d="M49.1569 78.5029H25.4287C29.2859 72.4657 33.5002 66.6643 38.0494 61.1298C41.5743 56.7993 45.2953 52.5797 49.1569 48.5134V78.5029Z" fill="#72BAFD"/>
<path opacity="0.1" d="M49.1573 80.3271V142.326H6.03564C6.03564 142.147 6.06548 141.964 6.07827 141.785C6.11663 141.295 6.15499 140.805 6.19761 140.319C6.2445 139.748 6.29564 139.172 6.35105 138.614C6.40646 138.056 6.46614 137.374 6.53007 136.756C6.594 136.138 6.65368 135.511 6.72614 134.893C6.79859 134.275 6.86253 133.657 6.93925 133.043C7.01597 132.429 7.08417 131.807 7.16515 131.193C7.22909 130.682 7.29728 130.175 7.36548 129.663C7.46351 128.943 7.56581 128.218 7.67663 127.502C7.67663 127.396 7.70646 127.285 7.72351 127.183C8.50146 121.941 9.56147 116.744 10.8989 111.617C12.2989 106.238 14.0866 100.967 16.2481 95.8462C18.5453 90.4892 21.235 85.3092 24.2953 80.3485L49.1573 80.3271Z" fill="#72BAFD"/>
<path opacity="0.1" d="M59.4844 144.147V203.111H151.878V144.147H59.4844ZM59.4844 204.931V255.567C60.0129 255.678 60.5372 255.785 61.0572 255.874C61.7647 256.01 62.468 256.134 63.1883 256.241C63.3247 256.262 63.4654 256.283 63.6145 256.296C63.8959 256.343 64.1857 256.381 64.467 256.42C65.1788 256.518 65.8863 256.599 66.5981 256.663C66.9349 256.697 67.2758 256.727 67.6168 256.752L68.4395 256.816C68.887 256.85 69.3303 256.876 69.7693 256.888C70.0421 256.888 70.3149 256.914 70.5962 256.923C70.8093 256.923 71.0224 256.923 71.244 256.923C71.4657 256.923 71.7811 256.923 72.0496 256.923C72.4162 256.923 72.7827 256.923 73.145 256.923H73.6352C74.0017 256.923 74.3683 256.923 74.7306 256.888H74.7562C75.0077 256.888 75.2634 256.888 75.5191 256.854C75.5901 256.859 75.6613 256.859 75.7322 256.854C75.9454 256.854 76.1585 256.854 76.3631 256.825H76.5122L77.9401 256.714C78.409 256.671 78.8821 256.616 79.3594 256.565L80.3313 256.449C84.2849 255.895 88.1945 255.064 92.0312 253.96C100.65 251.556 109.08 248.193 117.695 245.73C128.832 242.554 141.137 240.994 151.899 244.877V204.931H59.4844ZM151.878 78.5029V0.00428494C141.763 -0.105309 131.674 1.07782 121.859 3.52494C98.4631 9.40264 77.4713 22.1512 59.4844 38.4331V78.4987H64.1217V80.3187H59.4844V142.327H151.878V80.3229H83.1614V78.5029H151.878ZM270.553 51.9872C264.765 51.7826 259.011 49.9498 253.807 47.1197C243.854 41.7066 235.905 33.3482 227.022 26.2941C208.567 11.602 185.678 2.73642 162.197 0.537072V78.5029H294.094L294.422 78.1577L270.553 51.9872ZM282.569 49.8561L295.309 63.8364V46.1905C291.042 46.719 287.304 47.9764 282.586 49.839L282.569 49.8561ZM295.309 268.141V204.931H268.162C268.09 204.663 268.017 204.39 267.932 204.117C268.013 204.39 268.081 204.663 268.158 204.931H162.214V250.644C163.22 251.39 164.213 252.174 165.198 252.971C166.259 253.824 167.308 254.723 168.36 255.605L169.422 256.484C169.929 256.91 170.44 257.336 170.956 257.737C171.979 258.566 173.012 259.385 174.055 260.192C174.571 260.618 175.099 261.002 175.623 261.402C183.946 267.766 192.726 273.508 201.892 278.584C203.946 279.72 206.019 280.83 208.111 281.912C209.504 282.624 210.907 283.332 212.313 284.018C214.427 285.049 216.558 286.044 218.707 287.002C238.512 295.892 259.455 301.993 280.936 305.129C285.707 305.834 290.496 306.388 295.304 306.791V268.137H295.731L295.309 268.141ZM162.214 80.3229V142.327H295.326V80.3229H162.214ZM162.214 144.147V203.111H295.326V144.147H162.214ZM305.657 46.1138V65.7971L321.918 47.9551C316.531 47.0856 311.11 46.4647 305.657 46.0925V46.1138ZM305.657 144.168V203.111H435.125V144.147L305.657 144.168ZM434.651 272.821L435.108 204.931H305.657V307.469C313.997 307.819 322.349 307.72 330.677 307.171H330.822C334.8 306.921 338.76 306.557 342.701 306.08H342.791C363.817 303.633 384.376 298.147 403.827 289.793M460.089 153.856C459.603 152.709 459.096 151.571 458.58 150.446C457.617 148.315 456.598 146.244 455.55 144.172H445.448V203.111H470.988C470.975 186.42 466.751 169.371 460.102 153.835L460.089 153.856ZM445.448 204.952V263.346C452.643 256.449 458.721 248.56 463.098 239.541C468.362 228.681 470.77 216.921 470.966 204.944L445.448 204.952ZM445.448 126.987V142.331H454.603C451.834 137.049 448.782 131.919 445.461 126.965L445.448 126.987ZM357.645 57.6816C356.971 57.4259 356.298 57.1659 355.62 56.9144C348.473 54.2749 341.169 52.0799 333.75 50.342L308.867 77.6505L308.39 78.1577L308.709 78.5072H397.271C384.937 70.0169 371.64 63.0191 357.657 57.6603L357.645 57.6816ZM399.867 80.3443H307.473L305.657 82.0066V142.327H321.573H321.598H435.142V113.109C424.87 100.686 413.016 89.664 399.88 80.3229L399.867 80.3443Z" fill="#72BAFD"/>
<path opacity="0.1" d="M49.1573 111.6V142.326H6.03564C6.03564 142.147 6.06548 141.964 6.07827 141.785C6.11663 141.295 6.15499 140.805 6.19761 140.319C6.2445 139.748 6.29564 139.172 6.35105 138.614C6.40646 138.056 6.46614 137.374 6.53007 136.756C6.594 136.138 6.65368 135.511 6.72614 134.893C6.79859 134.275 6.86253 133.657 6.93925 133.043C7.01597 132.429 7.08417 131.807 7.16515 131.193C7.22909 130.682 7.29728 130.175 7.36548 129.663C7.46351 128.943 7.56581 128.218 7.67663 127.502C7.67663 127.396 7.70646 127.285 7.72351 127.183C8.50146 121.941 9.56147 116.744 10.8989 111.617L49.1573 111.6Z" fill="#72BAFD"/>
<path opacity="0.1" d="M5.89925 144.151H49.1573V203.111H9.06614C8.95958 203.716 8.85729 204.326 8.74647 204.935H49.1573V252.486C49.0848 252.464 49.0209 252.439 48.9527 252.413C47.8104 251.961 46.6766 251.484 45.5428 250.972L44.8183 250.644C43.6816 250.107 42.545 249.539 41.4084 248.939C41.012 248.731 40.6156 248.513 40.2235 248.291C33.9135 244.757 28.1813 240.278 23.2255 235.01C23.0806 234.87 22.9442 234.72 22.7992 234.584C22.1088 233.834 21.4311 233.075 20.7747 232.299L20.0501 231.447C19.2743 230.496 18.5242 229.52 17.7953 228.532C17.6888 228.387 17.5865 228.242 17.4756 228.105C14.5114 223.995 12.0502 219.545 10.1445 214.85C10.0848 214.709 10.0337 214.555 9.97827 214.423C9.39291 212.917 8.87433 211.397 8.42253 209.863C8.22646 209.219 8.03892 208.584 7.87696 207.915C7.81729 207.719 7.76614 207.527 7.71925 207.335C5.29827 197.886 5.0127 188.07 5.0127 178.322C5.0127 177.184 5.0127 176.041 5.0127 174.912C5.0127 170.969 5.05958 167.001 5.12778 163.037C5.12778 162.01 5.1704 160.987 5.19171 159.955C5.25138 157.338 5.33663 154.721 5.44745 152.104C5.47302 151.375 5.50712 150.651 5.54548 149.926C5.54548 149.509 5.56679 149.091 5.60942 148.673C5.71171 147.156 5.79696 145.651 5.89925 144.151Z" fill="#72BAFD"/>
<path opacity="0.1" d="M92.0099 89.2012V142.326H59.4844V89.2012H64.1218V71.2144H83.1572V89.2012H92.0099Z" fill="#72BAFD"/>
<path opacity="0.1" d="M92.0101 144.146H59.4888V203.107H92.0101V144.146Z" fill="#72BAFD"/>
<path opacity="0.1" d="M59.4844 204.935H92.0099V253.952C88.1732 255.054 84.2635 255.885 80.3099 256.437L79.3381 256.556C78.8608 256.611 78.3876 256.658 77.9188 256.705C77.4499 256.752 76.964 256.786 76.4909 256.816H76.3417C76.1372 256.816 75.9155 256.842 75.7152 256.846H75.4978C75.2421 256.846 74.9863 256.871 74.7306 256.88C74.3683 256.901 74.006 256.905 73.6352 256.91C73.4775 256.91 73.3283 256.91 73.1706 256.91C72.804 256.91 72.4417 256.91 72.0752 256.91H71.2696C71.0522 256.91 70.8434 256.91 70.6175 256.91L69.7949 256.88C69.3686 256.88 68.9083 256.833 68.465 256.803L67.6467 256.743L66.628 256.65C65.9119 256.586 65.2001 256.505 64.4968 256.407L63.6444 256.287L63.2181 256.228C62.5063 256.117 61.8031 255.998 61.087 255.861C60.5627 255.772 60.0427 255.661 59.5142 255.554L59.4844 204.935Z" fill="#72BAFD"/>
<path opacity="0.1" d="M295.326 82.9272H268.507V142.322H295.326V82.9272Z" fill="#72BAFD"/>
<path opacity="0.1" d="M295.33 144.146V203.111H162.214V177.678H233.118V192.681H268.507V144.146H295.33Z" fill="#72BAFD"/>
<path opacity="0.1" d="M295.752 268.154H295.326V306.834C290.524 306.428 285.736 305.875 280.962 305.176C259.47 302.03 238.518 295.916 218.707 287.01C212.987 284.436 207.383 281.625 201.896 278.579C192.731 273.502 183.95 267.759 175.624 261.398C173.532 259.795 171.468 258.156 169.43 256.479C168.02 255.316 166.617 254.122 165.198 252.963C164.213 252.166 163.22 251.382 162.214 250.631V204.935H268.154C268.081 204.663 268.009 204.39 267.932 204.121C268.013 204.39 268.09 204.663 268.162 204.935H295.326V268.128C295.471 268.132 295.611 268.145 295.752 268.154Z" fill="#72BAFD"/>
<path opacity="0.1" d="M365.27 78.503H347.794V73.0729H355.629V56.8975C356.308 57.1447 356.984 57.399 357.657 57.6604V73.0729H365.27V78.503Z" fill="#72BAFD"/>
<path opacity="0.1" d="M407.373 142.326H321.582C321.582 142.326 321.582 142.326 321.611 142.348L321.573 142.326H305.658V82.9314H310.167V126.833H330.775V100.833H347.799V80.3271H365.274V100.85H382.298V126.85H407.373V142.326Z" fill="#72BAFD"/>
<path opacity="0.1" d="M305.658 144.146V203.111H407.373V144.146H305.658ZM434.984 272.518L435.125 225.846H407.373V204.961H305.658V307.469C313.997 307.819 322.349 307.72 330.677 307.171H330.822C334.8 306.921 338.76 306.557 342.701 306.08H342.791C363.817 303.632 384.377 298.147 403.827 289.793" fill="#72BAFD"/>
<path opacity="0.1" d="M447.255 204.935H470.984C470.775 216.908 468.371 228.668 463.111 239.528C458.734 248.551 452.652 256.441 445.465 263.333V225.825H447.255V204.935Z" fill="#72BAFD"/>
<path opacity="0.1" d="M470.996 203.111H447.255V153.835H460.102C466.751 169.371 470.975 186.42 470.996 203.111Z" fill="#72BAFD"/>
<path opacity="0.1" d="M295.33 99.4392H280.962V118.061H295.33V99.4392Z" fill="#72BAFD"/>
<path opacity="0.1" d="M295.33 138.039H280.962V142.326H295.33V138.039Z" fill="#72BAFD"/>
<path opacity="0.1" d="M295.33 144.146H280.962V156.656H295.33V144.146Z" fill="#72BAFD"/>
<path opacity="0.1" d="M295.33 176.638H280.962V195.26H295.33V176.638Z" fill="#72BAFD"/>
<path opacity="0.1" d="M295.33 215.237H280.962V233.859H295.33V215.237Z" fill="#72BAFD"/>
<path opacity="0.1" d="M295.326 268.128C295.471 268.128 295.611 268.128 295.752 268.154H295.326V272.48H280.962V253.837H295.326V268.128Z" fill="#72BAFD"/>
<path opacity="0.1" d="M295.326 292.427V306.813C290.524 306.406 285.736 305.854 280.962 305.155V292.427H295.326Z" fill="#72BAFD"/>
<path opacity="0.1" d="M223.792 201.743H162.214V203.111H223.792V201.743Z" fill="#72BAFD"/>
<path opacity="0.1" d="M223.792 204.931H162.214V210.174H223.792V204.931Z" fill="#72BAFD"/>
<path opacity="0.1" d="M223.792 227.359H162.214V235.79H223.792V227.359Z" fill="#72BAFD"/>
<path opacity="0.1" d="M223.788 252.976V261.406H175.624C173.532 259.809 171.467 258.17 169.426 256.488C168.015 255.324 166.617 254.131 165.194 252.976H223.788Z" fill="#72BAFD"/>
<path opacity="0.1" d="M223.788 278.588V287.01H218.703C212.988 284.433 207.386 281.621 201.896 278.575L223.788 278.588Z" fill="#72BAFD"/>
<path opacity="0.1" d="M342.804 149.862H330.682V161.984H342.804V149.862Z" fill="#72BAFD"/>
<path opacity="0.1" d="M80.3397 93.3826H68.2178V105.505H80.3397V93.3826Z" fill="#72BAFD"/>
<path opacity="0.1" d="M80.3397 121.539H68.2178V133.661H80.3397V121.539Z" fill="#72BAFD"/>
<path opacity="0.1" d="M80.3397 149.696H68.2178V161.818H80.3397V149.696Z" fill="#72BAFD"/>
<path opacity="0.1" d="M80.3397 177.848H68.2178V189.97H80.3397V177.848Z" fill="#72BAFD"/>
<path opacity="0.1" d="M80.3397 206.005H68.2178V218.127H80.3397V206.005Z" fill="#72BAFD"/>
<path opacity="0.1" d="M80.3397 234.162H68.2178V246.284H80.3397V234.162Z" fill="#72BAFD"/>
<path opacity="0.1" d="M389.079 149.862H376.957V161.984H389.079V149.862Z" fill="#72BAFD"/>
<path opacity="0.1" d="M342.804 179.762H330.682V191.884H342.804V179.762Z" fill="#72BAFD"/>
<path opacity="0.1" d="M389.079 179.762H376.957V191.884H389.079V179.762Z" fill="#72BAFD"/>
<path opacity="0.1" d="M342.804 209.658H330.682V221.78H342.804V209.658Z" fill="#72BAFD"/>
<path opacity="0.1" d="M389.079 209.658H376.957V221.78H389.079V209.658Z" fill="#72BAFD"/>
<path opacity="0.1" d="M342.804 239.558H330.682V251.68H342.804V239.558Z" fill="#72BAFD"/>
<path opacity="0.1" d="M389.079 239.558H376.957V251.68H389.079V239.558Z" fill="#72BAFD"/>
<path opacity="0.1" d="M342.804 269.458H330.682V281.58H342.804V269.458Z" fill="#72BAFD"/>
<path opacity="0.1" d="M389.079 269.458H376.957V281.58H389.079V269.458Z" fill="#72BAFD"/>
<path opacity="0.1" d="M330.682 307.171V299.354H342.799V306.058L330.682 307.171Z" fill="#72BAFD"/>
<path opacity="0.1" d="M7.67236 127.174V134.109H49.1573V127.174H7.67236ZM11.8068 133.674H8.42253V127.6H11.8324L11.8068 133.674ZM15.937 133.674H12.5271V127.6H15.937V133.674ZM20.0586 133.674H16.6488V127.6H20.0586V133.674ZM24.1888 133.674H20.7832V127.6H24.193L24.1888 133.674ZM28.3147 133.674H24.9048V127.6H28.3147V133.674ZM32.4448 133.674H29.035V127.6H32.4448V133.674ZM36.575 133.674H33.1651V127.6H36.575V133.674ZM40.7009 133.674H37.291V127.6H40.7009V133.674ZM44.8268 133.674H41.4169V127.6H44.8268V133.674ZM48.9527 133.674H45.5428V127.6H48.9527V133.674Z" fill="#72BAFD"/>
<path opacity="0.1" d="M7.67236 147.352V154.287H49.1573V147.352H7.67236ZM11.8068 153.848H8.42253V147.791H11.8324L11.8068 153.848ZM15.937 153.848H12.5271V147.791H15.937V153.848ZM20.0586 153.848H16.6488V147.791H20.0586V153.848ZM24.1888 153.848H20.7832V147.791H24.193L24.1888 153.848ZM28.3147 153.848H24.9048V147.791H28.3147V153.848ZM32.4448 153.848H29.035V147.791H32.4448V153.848ZM36.575 153.848H33.1651V147.791H36.575V153.848ZM40.7009 153.848H37.291V147.791H40.7009V153.848ZM44.8268 153.848H41.4169V147.791H44.8268V153.848ZM48.9527 153.848H45.5428V147.791H48.9527V153.848Z" fill="#72BAFD"/>
<path opacity="0.1" d="M7.67236 167.538V174.486H49.1573V167.538H7.67236ZM11.8068 174.034H8.42253V167.973H11.8324L11.8068 174.034ZM15.937 174.034H12.5271V167.973H15.937V174.034ZM20.0586 174.034H16.6488V167.973H20.0586V174.034ZM24.1888 174.034H20.7832V167.973H24.193L24.1888 174.034ZM28.3147 174.034H24.9048V167.973H28.3147V174.034ZM32.4448 174.034H29.035V167.973H32.4448V174.034ZM36.575 174.034H33.1651V167.973H36.575V174.034ZM40.7009 174.034H37.291V167.973H40.7009V174.034ZM44.8268 174.034H41.4169V167.973H44.8268V174.034ZM48.9527 174.034H45.5428V167.973H48.9527V174.034Z" fill="#72BAFD"/>
<path opacity="0.1" d="M7.67236 187.724V194.65H49.1573V187.724H7.67236ZM11.8068 194.22H8.42253V188.155H11.8324L11.8068 194.22ZM15.937 194.22H12.5271V188.155H15.937V194.22ZM20.0586 194.22H16.6488V188.155H20.0586V194.22ZM24.1888 194.22H20.7832V188.155H24.193L24.1888 194.22ZM28.3147 194.22H24.9048V188.155H28.3147V194.22ZM32.4448 194.22H29.035V188.155H32.4448V194.22ZM36.575 194.22H33.1651V188.155H36.575V194.22ZM40.7009 194.22H37.291V188.155H40.7009V194.22ZM44.8268 194.22H41.4169V188.155H44.8268V194.22ZM48.9527 194.22H45.5428V188.155H48.9527V194.22Z" fill="#72BAFD"/>
<path opacity="0.1" d="M7.85107 207.906C8.0173 208.558 8.20484 209.211 8.40091 209.854V208.341H11.8107V214.402H9.98648C10.0419 214.543 10.0973 214.696 10.1527 214.828H49.157V207.906H7.85107ZM15.9494 214.402H12.5396V208.341H15.9494V214.402ZM20.0711 214.402H16.6612V208.341H20.0711V214.402ZM24.2012 214.402H20.7829V208.341H24.1927L24.2012 214.402ZM28.3271 214.402H24.9173V208.341H28.3271V214.402ZM32.4573 214.402H29.0475V208.341H32.4573V214.402ZM36.5875 214.402H33.1776V208.341H36.5875V214.402ZM40.7134 214.402H37.3035V208.341H40.7134V214.402ZM44.8393 214.402H41.4294V208.341H44.8393V214.402ZM48.9652 214.402H45.5553V208.341H48.9652V214.402Z" fill="#72BAFD"/>
<path opacity="0.1" d="M17.4839 228.092C17.5904 228.229 17.6927 228.382 17.8036 228.519H20.0583V231.43C20.3013 231.719 20.54 232.009 20.7872 232.282V228.501H24.197V234.584H22.816C22.9524 234.724 23.0845 234.874 23.2422 235.01H49.1698V228.092H17.4839ZM28.3144 234.584H24.9045V228.527H28.3144V234.584ZM32.4445 234.584H29.0347V228.527H32.4445V234.584ZM36.5747 234.584H33.1649V228.527H36.5747V234.584ZM40.7006 234.584H37.2908V228.527H40.7006V234.584ZM44.8265 234.584H41.4167V228.527H44.8265V234.584ZM48.9524 234.584H45.5426V228.527H48.9524V234.584Z" fill="#72BAFD"/>
<path opacity="0.1" d="M40.2402 248.274C40.6281 248.496 41.0245 248.701 41.4252 248.922V248.709H44.835V250.627L45.5596 250.964V248.709H48.9694V252.396C49.0348 252.429 49.1034 252.454 49.174 252.473V248.274H40.2402Z" fill="#72BAFD"/>
<path opacity="0.1" d="M267.932 204.117C268.013 204.39 268.081 204.663 268.158 204.931C268.09 204.663 268.017 204.39 267.932 204.117ZM64.1392 78.4902V80.3102H83.1788V78.4902H64.1392ZM267.932 204.117C268.013 204.39 268.081 204.663 268.158 204.931C268.09 204.663 268.017 204.39 267.932 204.117ZM267.932 204.117C268.013 204.39 268.081 204.663 268.158 204.931C268.09 204.663 268.017 204.39 267.932 204.117Z" fill="#72BAFD"/>
<path d="M196.747 161.826C196.747 161.826 195.068 161.592 195.068 159.145C195.068 156.699 193.866 152.13 193.866 152.13C193.866 152.108 192.826 144.172 191.39 142.91C189.953 141.649 188.108 134.241 188.108 134.241C188.108 134.241 187.792 130.222 187.149 129.356C186.505 128.491 185.636 126.373 184.353 123.351C183.07 120.329 177.72 118.236 177.72 118.236C177.72 118.236 168.049 112.627 165.309 110.798C165.06 110.648 164.827 110.472 164.614 110.274C164.137 109.647 162.057 109.635 162.057 109.635C161.839 108.262 161.63 106.685 161.562 105.257C161.562 105.104 161.562 104.95 161.541 104.797C164.597 102.991 166.899 100.142 168.024 96.7753C168.075 96.6134 168.118 96.4429 168.164 96.2809C168.348 96.2206 168.516 96.1227 168.659 95.9935C168.802 95.8644 168.917 95.7067 168.996 95.5307C169.243 94.9809 169.247 94.3373 169.554 93.8258C169.912 93.2206 170.594 92.8966 171.131 92.4406C172.486 91.2898 172.836 89.3504 172.772 87.5858C172.729 86.158 172.499 84.7173 172.589 83.298L172.614 82.9399C172.64 82.7268 172.67 82.5137 172.708 82.3091C172.917 81.2521 173.373 80.2547 173.629 79.2062C173.884 78.1576 173.91 76.977 173.313 76.0734C172.439 74.7478 170.619 74.4835 169.021 74.3471C167.21 74.1937 165.59 74.394 164.431 72.8894C163.888 72.1031 163.278 71.3657 162.606 70.6858C162.368 70.4642 160.049 69.0491 160.049 68.9553C157.786 67.9072 155.221 67.7105 152.824 68.4012C151.622 68.7507 150.489 69.3219 149.27 69.6075C146.64 70.2298 143.614 69.5563 141.38 71.0609C140.136 71.9134 139.39 73.2688 138.691 74.5901C138.122 75.6784 137.545 76.7653 136.96 77.8507C136.018 79.6366 135.059 81.4524 134.663 83.4301C134.579 83.8604 134.528 84.2964 134.509 84.7343V84.7557C134.509 84.9134 134.509 85.0711 134.509 85.2288V85.4291C134.509 85.5783 134.509 85.7232 134.535 85.8553C134.56 85.9875 134.556 86.0301 134.569 86.1196C134.582 86.2091 134.603 86.4094 134.629 86.5458C134.654 86.6822 134.705 86.9209 134.757 87.1084C134.778 87.1894 134.808 87.2661 134.833 87.3429C134.876 87.4878 134.927 87.6284 134.982 87.7691C135.012 87.8416 135.042 87.9183 135.076 87.9907C135.14 88.1399 135.217 88.2848 135.294 88.417C135.328 88.4766 135.353 88.5321 135.387 88.5875C135.506 88.7857 135.637 88.9764 135.779 89.1586C136.692 90.2966 138.034 91.0212 139.027 92.0868C139.027 92.1294 139.027 92.1721 139.027 92.2104C139.027 92.3298 139.027 92.4448 139.027 92.5642C139.08 94.9406 139.713 97.2682 140.87 99.3445C142.027 101.421 143.674 103.183 145.668 104.477C145.668 104.639 145.689 104.805 145.698 104.967C145.781 106.233 145.765 107.502 145.651 108.765C145.477 108.561 145.26 108.398 145.015 108.289C144.77 108.18 144.504 108.127 144.236 108.134C144.053 108.125 143.869 108.141 143.69 108.181L143.652 108.151V108.19C142.714 108.42 141.559 109.396 140.455 112.171C140.455 112.171 137.097 115.956 134.539 115.798C131.982 115.64 125.507 119.736 125.507 119.736C125.507 119.736 119.191 123.837 117.835 128.014C117.078 130.382 116.169 132.7 115.116 134.953L107.307 151.043L105.867 163.808C105.867 163.808 106.664 169.486 106.506 170.351C106.348 171.216 109.784 179.021 109.784 179.021C109.784 179.021 121.134 198.964 125.772 199.987L126.104 199.752C126.302 199.856 126.513 199.935 126.731 199.987L127.685 199.313C127.743 200.064 127.718 200.818 127.613 201.564C126.974 203.533 127.852 216.384 128.968 218.903C130.085 221.422 129.689 254.45 129.689 254.45L129.531 257.366C129.531 257.366 129.531 257.46 129.569 257.622L129.531 258.312L129.646 258.372C129.766 259.296 129.727 260.235 129.531 261.146C129.13 262.425 128.968 266.04 128.968 266.04C128.968 266.04 125.776 286.447 127.289 290.548C128.802 294.648 130.089 299.141 130.089 299.141C130.089 299.141 131.688 304.255 130.166 305.129C128.644 306.003 124.318 307.469 125.209 309.6C126.019 311.569 129.092 316.846 129.548 317.618L129.51 318.022L128.883 324.812C128.985 325.709 129.228 326.584 129.603 327.404C130.29 328.883 131.624 330.417 134.16 330.251C134.586 330.221 135.08 330.17 135.558 330.106C140.199 329.484 145.915 327.412 145.915 327.412C145.618 327.224 145.346 326.999 145.105 326.743C144.877 326.522 144.696 326.257 144.574 325.964C144.452 325.671 144.39 325.356 144.394 325.038C144.462 323.802 142.147 317.912 141.572 316.462C141.482 316.254 141.436 316.134 141.436 316.134C141.436 316.134 146.712 310.619 145.834 305.73C145.834 305.73 139.995 302.32 141.917 300.449C143.839 298.578 147.275 293.203 147.275 293.203C147.275 293.203 147.433 273.106 147.275 270.106C147.11 268.023 147.209 265.928 147.569 263.87C147.633 263.559 147.71 263.256 147.791 262.958C150.449 263.355 153.133 263.558 155.821 263.567C156.801 263.567 157.798 263.567 158.804 263.508C158.804 263.792 158.817 264.099 158.843 264.428C159.064 269.407 159.478 278.136 159.815 281.38C160.292 286.03 162.93 298.561 162.93 298.561C162.93 298.561 157.897 301.792 163.808 309.754C163.808 309.754 163.808 312.639 163.416 313.057C162.998 314.422 162.66 315.812 162.406 317.217C162.159 318.717 162.057 320.235 162.457 321.023C163.416 322.907 169.17 322.754 169.17 322.754L169.311 322.728C170.397 322.616 171.495 322.72 172.541 323.036C173.586 323.351 174.559 323.871 175.402 324.565C177.588 326.321 185.887 325.55 190.379 324.991C192.14 324.77 193.316 324.565 193.316 324.565C193.373 324.366 193.393 324.158 193.376 323.951C193.329 322.847 192.464 320.426 186.599 318.265C186.599 318.265 181.083 314.557 181.16 311.326H181.045H180.406C180.87 311.301 181.169 311.326 181.169 311.326C181.169 311.326 179.008 303.441 179.89 302.802C180.772 302.162 178.13 293.425 178.13 293.425C178.13 293.425 176.617 278.762 176.536 277.735C176.539 276.854 176.673 275.978 176.932 275.135L176.536 267.097C176.536 267.097 176.459 264.424 176.536 263.555C176.523 262.8 176.461 262.047 176.352 261.3C176.314 261.002 176.276 260.69 176.233 260.383C178.3 259.859 179.643 259.373 179.643 259.373L179.404 231.391C181.16 227.982 181.484 220.501 181.476 215.195C181.476 211.785 181.322 209.262 181.322 209.262L183.722 205.344C183.722 205.344 184.276 200.656 183.398 199.629C183.01 199.164 183.185 198.683 183.504 198.286C183.67 198.154 183.846 198.035 184.029 197.928C184.029 197.928 184.003 197.89 183.973 197.834C184.141 197.694 184.319 197.568 184.506 197.455C184.506 197.455 183.654 196.134 184.417 195.575C185.133 196.061 185.772 196.428 186.258 196.726C186.224 197.037 186.19 197.216 186.19 197.216L186.394 196.79C186.863 197.054 187.149 197.216 187.149 197.216C187.149 197.216 190.908 189.727 190.827 188.624C190.746 187.52 193.384 182.869 193.384 182.869C193.384 182.869 193.704 180.427 195.145 179.404C196.585 178.381 196.261 170.969 196.261 170.969C196.261 170.969 196.662 167.107 197.621 165.53C198.58 163.953 196.747 161.826 196.747 161.826ZM124.817 158.54L124.889 160.326C124.463 159.64 124.156 159.145 124.156 159.145L124.817 158.54Z" fill="url(#paint0_linear_3_1513)"/>
<path d="M187.353 193.981L186.433 197.902C186.433 197.902 179.059 194.139 177.729 189.357C176.399 184.574 179.954 182.759 179.954 182.759L186.825 185.67L187.353 193.981Z" fill="white"/>
<path opacity="0.1" d="M187.353 193.981L186.433 197.902C186.433 197.902 179.059 194.139 177.729 189.357C176.399 184.574 179.954 182.759 179.954 182.759L186.825 185.67L187.353 193.981Z" fill="black"/>
<path d="M145.971 327.438C145.971 327.438 139.151 329.944 134.463 330.26C131.973 330.426 130.665 328.9 129.991 327.429C129.623 326.612 129.386 325.742 129.288 324.851L129.898 318.095L130.222 314.498L140.183 311.91L141.593 316.224L141.725 316.552C142.292 317.993 144.564 323.853 144.496 325.077C144.493 325.39 144.554 325.7 144.674 325.99C144.794 326.279 144.971 326.541 145.195 326.76C145.424 327.018 145.684 327.246 145.971 327.438Z" fill="white"/>
<path d="M192.553 324.003C192.57 324.208 192.55 324.414 192.494 324.612C192.494 324.612 177.908 327.046 174.924 324.612C174.083 323.901 173.103 323.374 172.046 323.064C170.989 322.754 169.879 322.669 168.787 322.813C168.787 322.813 163.143 322.967 162.202 321.108C161.809 320.328 161.912 318.815 162.155 317.324C162.402 315.926 162.733 314.544 163.143 313.185L163.369 313.006L164.712 311.927L180.431 311.463H180.551C180.474 314.677 185.887 318.364 185.887 318.364C191.637 320.495 192.485 322.903 192.553 324.003Z" fill="white"/>
<path opacity="0.1" d="M192.553 324.002C192.568 324.208 192.547 324.414 192.49 324.612C192.49 324.612 177.908 327.046 174.925 324.612C174.084 323.902 173.104 323.375 172.048 323.065C170.992 322.755 169.882 322.669 168.791 322.813C168.791 322.813 163.144 322.967 162.206 321.108C161.814 320.324 161.912 318.815 162.155 317.323C164.329 317.541 167.76 318.082 169.107 319.374C171.144 321.339 174.596 323.299 176.715 323.453C178.373 323.559 188.291 323.875 192.553 324.002Z" fill="black"/>
<path opacity="0.1" d="M145.971 327.438C145.971 327.438 139.151 329.944 134.462 330.26C131.973 330.426 130.665 328.9 129.996 327.425C131.73 328.009 134.139 328.623 135.404 328.06C136.905 327.395 142.224 326.965 145.208 326.781C145.435 327.03 145.691 327.25 145.971 327.438Z" fill="black"/>
<path d="M156.089 125.469C150.463 123.282 143.226 116.058 145.033 112.682C145.434 111.83 145.673 110.911 145.736 109.971C145.853 108.696 145.87 107.413 145.787 106.135C145.661 104.042 145.409 101.958 145.033 99.8953C145.033 99.8953 162.598 100.292 161.575 102.879C161.277 103.638 161.23 104.955 161.311 106.429C161.392 107.904 161.605 109.571 161.826 110.981C162.133 112.917 162.44 114.391 162.44 114.391C162.44 114.391 161.366 115.896 160.735 115.977C160.104 116.058 164.162 128.585 156.089 125.469Z" fill="#CF6F80"/>
<path opacity="0.1" d="M141.713 316.552L141.581 316.697C136.329 310.346 129.979 318.261 129.979 318.261L129.885 318.095L130.209 314.498L140.17 311.91L141.581 316.224L141.713 316.552Z" fill="black"/>
<path opacity="0.1" d="M180.555 311.91C180.555 311.91 176.719 311.829 174.673 313.637C172.627 315.444 162.739 314.029 163.165 313.637C163.291 313.442 163.367 313.22 163.386 312.989L164.729 311.91L180.448 311.446C180.508 311.731 180.555 311.91 180.555 311.91Z" fill="black"/>
<path d="M148.247 262.037C147.961 262.744 147.744 263.476 147.599 264.224C147.243 266.272 147.145 268.357 147.305 270.43C147.462 273.413 147.305 293.408 147.305 293.408C147.305 293.408 143.933 298.74 142.054 300.619C140.174 302.499 145.89 305.875 145.89 305.875C146.742 310.734 141.576 316.224 141.576 316.224C136.325 309.873 129.974 317.792 129.974 317.792C129.974 317.792 126.522 311.825 125.661 309.694C124.8 307.563 129.032 306.088 130.52 305.223C132.007 304.357 130.447 299.256 130.447 299.256C130.447 299.256 129.19 294.784 127.698 290.705C126.206 286.626 129.343 266.321 129.343 266.321C129.343 266.321 129.505 262.715 129.893 261.458C130.089 260.55 130.128 259.616 130.008 258.696C129.983 258.384 129.953 258.124 129.932 257.95C129.91 257.775 129.893 257.694 129.893 257.694L129.953 257.592L132.084 253.619C132.084 253.619 149.27 259.535 148.247 262.037Z" fill="#72BAFD"/>
<path d="M180.555 311.442C180.555 311.442 176.719 311.361 174.673 313.147C172.627 314.932 162.739 313.539 163.165 313.147C163.591 312.754 163.557 309.852 163.557 309.852C157.756 301.932 162.704 298.719 162.704 298.719C162.704 298.719 160.113 286.251 159.644 281.627C159.316 278.396 158.911 269.714 158.694 264.757C158.6 262.626 158.544 261.159 158.544 261.159L163.284 260.205L163.894 260.081L175.325 257.788C175.325 257.788 175.641 259.919 175.854 261.662C175.96 262.407 176.02 263.157 176.033 263.908C175.956 264.761 176.033 267.429 176.033 267.429L176.42 275.429C176.167 276.269 176.036 277.14 176.033 278.017C176.109 279.035 177.597 293.621 177.597 293.621C177.597 293.621 180.184 302.325 179.302 302.951C178.42 303.578 180.555 311.442 180.555 311.442Z" fill="#72BAFD"/>
<path opacity="0.1" d="M161.575 102.879C161.277 103.638 161.23 104.955 161.311 106.429C158.958 107.846 156.253 108.571 153.508 108.519C150.762 108.468 148.086 107.643 145.788 106.14C145.661 104.045 145.409 101.96 145.033 99.8953C145.033 99.8953 162.598 100.283 161.575 102.879Z" fill="black"/>
<path d="M168.365 93.4594C168.368 94.9953 168.127 96.522 167.649 97.9817C166.581 101.252 164.391 104.04 161.467 105.853C158.542 107.665 155.071 108.385 151.667 107.886C148.263 107.387 145.144 105.7 142.864 103.124C140.583 100.548 139.286 97.2485 139.202 93.8089C139.202 93.6896 139.202 93.5787 139.202 93.4594C139.169 91.5233 139.522 89.6 140.24 87.8017C140.958 86.0033 142.027 84.3659 143.384 82.9851C144.742 81.6042 146.361 80.5074 148.147 79.7587C149.932 79.0101 151.849 78.6245 153.786 78.6245C155.722 78.6245 157.639 79.0101 159.425 79.7587C161.211 80.5074 162.83 81.6042 164.187 82.9851C165.545 84.3659 166.613 86.0033 167.332 87.8017C168.05 89.6 168.402 91.5233 168.369 93.4594H168.365Z" fill="#CF6F80"/>
<path opacity="0.1" d="M156.089 125.469C150.463 123.283 143.226 116.058 145.033 112.682C145.434 111.83 145.673 110.911 145.736 109.971L153.438 116.301L158.203 120.209L161.826 110.986C162.133 112.921 162.44 114.396 162.44 114.396C162.44 114.396 161.366 115.9 160.735 115.981C160.104 116.062 164.162 128.585 156.089 125.469Z" fill="black"/>
<path d="M176.007 153.443L169.575 261.492L161.187 262.042L139.466 199.39L143.03 125.009L143.78 109.294L153.438 117.226L158.208 121.134L161.937 111.642L168.872 117.686L176.007 153.443Z" fill="#72BAFD"/>
<path opacity="0.1" d="M148.247 262.037C147.961 262.744 147.744 263.476 147.599 264.224C141.495 263.281 135.567 261.429 130.013 258.73L129.897 258.67L129.936 257.984L129.957 257.626L132.088 253.653C132.088 253.653 149.27 259.535 148.247 262.037Z" fill="black"/>
<path opacity="0.1" d="M163.382 264.241C161.822 264.506 160.248 264.686 158.668 264.778C158.574 262.647 158.519 261.181 158.519 261.181L163.259 260.226L163.382 264.241Z" fill="black"/>
<path opacity="0.1" d="M175.828 261.684C172.798 262.472 168.118 263.359 163.928 262.805L163.868 260.102L175.3 257.809C175.3 257.809 175.615 259.919 175.828 261.684Z" fill="black"/>
<path opacity="0.1" d="M163.851 263.299C146.376 266.282 130.371 257.728 130.371 257.728L130.524 254.83C130.524 254.83 130.921 221.972 129.821 219.453C128.722 216.934 127.865 204.16 128.487 202.199C129.109 200.238 126.215 170.837 126.215 170.837L125.746 158.902L108.586 151.951L116.259 135.959C117.295 133.716 118.186 131.41 118.927 129.054C120.261 124.902 126.454 120.823 126.454 120.823C126.454 120.823 132.805 116.748 135.315 116.902C137.826 117.055 141.116 113.296 141.116 113.296C143.546 107.103 145.745 109.907 145.745 109.907C145.745 110.202 145.745 109.907 145.626 110.824C144.773 117.622 159.41 139.104 159.619 139.483L161.013 173.437L162.423 216.405L163.851 263.299Z" fill="black"/>
<path d="M163.382 263.299C145.907 266.283 129.898 257.728 129.898 257.728L130.055 254.83C130.055 254.83 130.452 221.972 129.348 219.453C128.244 216.934 127.391 204.16 128.018 202.199C128.644 200.238 125.746 170.837 125.746 170.837L125.273 158.903L108.104 151.925L115.777 135.933C116.811 133.69 117.702 131.384 118.445 129.028C119.775 124.877 125.972 120.798 125.972 120.798C125.972 120.798 132.323 116.723 134.829 116.876C137.335 117.03 140.63 113.271 140.63 113.271C143.064 107.077 145.745 109.882 145.745 109.882C145.745 110.176 145.489 110.308 145.625 110.798C147.501 117.392 158.941 139.079 159.15 139.458L160.561 173.412L161.971 216.38L163.382 263.299Z" fill="white"/>
<path opacity="0.1" d="M158.672 140.425C156.793 139.641 146.836 128.274 146.836 128.274V125.686C146.474 124.834 144.321 125.354 142.574 125.951L143.324 110.236L144.176 110.943C146.043 117.533 158.455 140.046 158.672 140.425Z" fill="black"/>
<path d="M159.145 139.484C157.261 138.699 147.305 127.332 147.305 127.332V124.745C146.942 123.892 144.79 124.412 143.042 125.009L143.797 109.294L144.649 110.001C146.521 116.591 158.937 139.108 159.145 139.484Z" fill="white"/>
<path opacity="0.1" d="M130.371 196.176C130.605 196.176 142.522 194.923 142.522 194.923C142.522 194.923 149.739 209.113 149.265 212.565C148.792 216.017 147.936 219.074 145.033 218.532C142.13 217.991 129.412 218.958 129.412 218.958L130.371 196.176Z" fill="black"/>
<path d="M129.897 195.234C130.132 195.234 142.049 193.981 142.049 193.981C142.049 193.981 149.261 208.175 148.792 211.623C148.323 215.071 147.458 218.131 144.56 217.59C141.661 217.049 128.938 218.016 128.938 218.016L129.897 195.234Z" fill="white"/>
<path d="M138.878 188.572C138.878 188.572 149.815 194.45 150.05 196.244C150.284 198.039 144.483 195.46 143.23 195.149C142.405 194.95 141.566 194.819 140.72 194.757L132.361 194.983L138.878 188.572Z" fill="#CF6F80"/>
<path opacity="0.1" d="M155.621 141.159C156.256 141.159 156.771 140.643 156.771 140.008C156.771 139.372 156.256 138.857 155.621 138.857C154.985 138.857 154.47 139.372 154.47 140.008C154.47 140.643 154.985 141.159 155.621 141.159Z" fill="black"/>
<path d="M155.621 140.69C156.256 140.69 156.771 140.175 156.771 139.539C156.771 138.903 156.256 138.388 155.621 138.388C154.985 138.388 154.47 138.903 154.47 139.539C154.47 140.175 154.985 140.69 155.621 140.69Z" fill="#3F3D56"/>
<path opacity="0.1" d="M157.739 190.976C158.375 190.976 158.89 190.461 158.89 189.826C158.89 189.19 158.375 188.675 157.739 188.675C157.104 188.675 156.588 189.19 156.588 189.826C156.588 190.461 157.104 190.976 157.739 190.976Z" fill="black"/>
<path d="M157.739 190.503C158.375 190.503 158.89 189.988 158.89 189.352C158.89 188.717 158.375 188.202 157.739 188.202C157.104 188.202 156.588 188.717 156.588 189.352C156.588 189.988 157.104 190.503 157.739 190.503Z" fill="#3F3D56"/>
<path opacity="0.1" d="M156.767 166.068C157.403 166.068 157.918 165.552 157.918 164.917C157.918 164.281 157.403 163.766 156.767 163.766C156.131 163.766 155.616 164.281 155.616 164.917C155.616 165.552 156.131 166.068 156.767 166.068Z" fill="black"/>
<path d="M156.767 165.599C157.403 165.599 157.918 165.083 157.918 164.448C157.918 163.812 157.403 163.297 156.767 163.297C156.131 163.297 155.616 163.812 155.616 164.448C155.616 165.083 156.131 165.599 156.767 165.599Z" fill="#3F3D56"/>
<path d="M183.296 194.518C183.296 194.518 184.08 195.695 183.296 196.244C182.511 196.794 183.372 198.124 183.372 198.124C183.372 198.124 181.416 199.271 182.277 200.302C183.138 201.334 182.592 205.992 182.592 205.992L180.24 209.888C180.24 209.888 180.38 212.399 180.389 215.791C180.389 221.085 180.078 228.527 178.356 231.92L178.594 259.757C178.594 259.757 170.355 262.766 163.459 261.85L162.436 217.181C162.436 217.181 163.928 191.85 164.478 186.991C164.799 184.468 164.931 181.925 164.87 179.383C164.87 179.383 164.635 171.779 163.847 168.25C163.847 168.25 162.994 152.961 162.909 148.728C162.871 146.704 162.977 140.796 163.097 135.179C163.229 129.037 163.378 123.244 163.378 123.244L161.822 110.935C161.822 110.935 163.378 110.777 163.847 111.404C164.057 111.6 164.285 111.775 164.529 111.928C167.214 113.744 176.702 119.327 176.702 119.327C176.702 119.327 181.953 121.416 183.21 124.408C184.468 127.4 185.342 129.523 185.951 130.375C186.561 131.227 186.893 135.234 186.893 135.234C186.893 135.234 188.7 142.608 190.111 143.857C191.522 145.105 192.553 153.05 192.553 153.05L180.086 162.854C180.086 162.854 178.991 179.161 178.756 179.792C178.522 180.423 183.296 194.518 183.296 194.518Z" fill="white"/>
<path d="M183.769 194.518C183.769 194.518 184.549 195.695 183.769 196.244C182.989 196.794 183.841 198.124 183.841 198.124C183.841 198.124 181.898 199.284 182.75 200.315C183.603 201.346 183.066 206.005 183.066 206.005L180.713 209.901C180.713 209.901 180.853 212.411 180.866 215.804C180.866 221.098 180.555 228.54 178.833 231.933L179.068 259.77C179.068 259.77 170.816 262.779 163.928 261.863L162.909 217.194C162.909 217.194 164.401 191.863 164.951 187.004C165.273 184.481 165.403 181.938 165.339 179.396C165.339 179.396 165.104 171.792 164.32 168.263C164.32 168.263 163.468 152.974 163.378 148.741C163.34 146.717 163.451 140.809 163.566 135.191C163.698 129.049 163.847 123.257 163.847 123.257L161.792 110.781C161.792 110.781 163.847 110.781 164.32 111.416C164.528 111.615 164.757 111.791 165.002 111.941C167.687 113.756 177.179 119.34 177.179 119.34C177.179 119.34 182.426 121.428 183.684 124.421C184.941 127.413 185.815 129.535 186.429 130.388C187.042 131.24 187.366 135.247 187.366 135.247C187.366 135.247 189.173 142.621 190.584 143.869C191.995 145.118 193.014 153.046 193.014 153.046L180.547 162.849C180.547 162.849 179.451 179.157 179.212 179.788C178.974 180.419 183.769 194.518 183.769 194.518Z" fill="white"/>
<path opacity="0.1" d="M168.838 126.876L169.963 130.158L164.039 136.125C164.171 129.987 164.32 124.19 164.32 124.19L162.266 111.715C162.266 111.715 164.32 111.715 164.793 112.35C165.001 112.548 165.229 112.722 165.475 112.87L170.513 127.404L168.838 126.876Z" fill="black"/>
<path d="M168.365 125.934L169.494 129.216L163.57 135.183C163.702 129.041 163.851 123.248 163.851 123.248L161.792 110.773C161.792 110.773 163.851 110.773 164.32 111.408C164.529 111.605 164.758 111.781 165.002 111.932L170.044 126.462L168.365 125.934Z" fill="white"/>
<path opacity="0.1" d="M168.365 93.4594C168.368 94.9953 168.127 96.522 167.649 97.9817C167.568 97.9943 167.486 97.9906 167.407 97.9708C167.328 97.951 167.254 97.9156 167.189 97.8666C167.078 94.0305 165.19 90.4289 162.867 87.3643C162.214 86.439 161.424 85.6196 160.522 84.9348C159.611 84.2504 158.477 83.9297 157.343 84.0355C156.064 84.2102 154.934 85.0797 153.643 85.1906C151.938 85.3312 150.412 84.1506 148.72 84.0909C148.032 84.0974 147.354 84.2506 146.73 84.5402C146.106 84.8298 145.55 85.2491 145.101 85.7702C144.212 86.8219 143.552 88.0469 143.162 89.3676C142.492 91.3702 142.127 93.4623 142.079 95.5735C142.058 96.7669 141.943 98.263 140.835 98.6978C140.918 97.8201 140.818 96.9346 140.542 96.0975C140.265 95.2603 139.818 94.4897 139.228 93.8345L139.202 93.8089C139.202 93.6896 139.202 93.5787 139.202 93.4594C139.169 91.5233 139.522 89.6 140.24 87.8017C140.958 86.0033 142.027 84.3659 143.384 82.9851C144.742 81.6042 146.361 80.5074 148.147 79.7587C149.932 79.0101 151.849 78.6245 153.786 78.6245C155.722 78.6245 157.639 79.0101 159.425 79.7587C161.211 80.5074 162.83 81.6042 164.187 82.9851C165.545 84.3659 166.613 86.0033 167.332 87.8017C168.05 89.6 168.402 91.5233 168.369 93.4594H168.365Z" fill="black"/>
<path d="M159.823 70.3023C157.608 69.2604 155.089 69.0634 152.739 69.7482C151.559 70.0977 150.446 70.6646 149.249 70.9502C146.691 71.5682 143.708 70.899 141.512 72.3951C140.293 73.2475 139.56 74.5944 138.878 75.903L137.173 79.1508C136.244 80.9282 135.307 82.7354 134.919 84.6918C134.531 86.6482 134.765 88.839 136.006 90.4118C136.909 91.5584 138.243 92.2787 139.224 93.357C139.811 94.013 140.256 94.7831 140.532 95.6192C140.808 96.4554 140.908 97.3394 140.826 98.2161C141.939 97.7898 142.045 96.2895 142.071 95.0961C142.118 92.9848 142.483 90.8928 143.153 88.8902C143.542 87.5691 144.203 86.3439 145.093 85.2928C145.542 84.7721 146.097 84.353 146.721 84.0635C147.345 83.7739 148.024 83.6205 148.711 83.6134C150.416 83.6731 151.947 84.8495 153.634 84.7089C154.913 84.6023 156.047 83.7285 157.334 83.558C158.469 83.4506 159.603 83.7714 160.514 84.4574C161.415 85.1411 162.204 85.9607 162.854 86.8869C165.181 89.9515 167.069 93.5446 167.18 97.3892C167.662 97.7429 168.356 97.2826 168.595 96.737C168.834 96.1915 168.842 95.5521 169.145 95.0321C169.494 94.4311 170.164 94.1115 170.688 93.6597C172.018 92.5131 172.35 90.5823 172.299 88.8305C172.248 87.0787 171.907 85.3013 172.239 83.5793C172.44 82.5223 172.891 81.5334 173.139 80.4892C173.386 79.4449 173.416 78.2728 172.832 77.3734C171.979 76.0521 170.185 75.7921 168.621 75.6685C166.843 75.5151 165.253 75.7112 164.12 74.2151C163.587 73.4344 162.988 72.7014 162.329 72.0243C162.104 71.8026 159.823 70.3961 159.823 70.3023Z" fill="#512E4E"/>
<path opacity="0.1" d="M113.496 160.185L109.042 151.951L107.631 164.657C107.631 164.657 108.416 170.3 108.258 171.165C108.1 172.03 111.472 179.788 111.472 179.788C111.472 179.788 122.609 199.624 127.157 200.647L142.522 189.668L138.448 184.493C138.448 184.493 137.037 183.943 136.683 184.493C136.683 184.493 129.118 171.476 128.333 170.534C127.549 169.592 127.702 167.713 127.702 167.713C127.702 167.713 126.526 166.46 126.918 165.283C127.31 164.107 124.646 160.028 124.646 160.028L127.076 157.756L113.496 160.185Z" fill="black"/>
<path d="M109.277 151.013L108.1 151.951L106.689 164.657C106.689 164.657 107.474 170.3 107.316 171.165C107.158 172.031 110.534 179.788 110.534 179.788C110.534 179.788 121.667 199.625 126.215 200.648L141.585 189.668L137.506 184.494C137.506 184.494 136.095 183.944 135.741 184.494C135.741 184.494 128.176 171.476 127.391 170.534C126.607 169.593 126.765 167.713 126.765 167.713C126.765 167.713 125.588 166.46 125.981 165.283C126.373 164.107 123.705 160.028 123.705 160.028L126.134 157.756L109.277 151.013Z" fill="white"/>
<path opacity="0.1" d="M182.277 200.788C183.13 201.824 182.592 206.474 182.592 206.474L180.24 210.37C180.24 210.37 180.38 212.885 180.389 216.273L176.433 217.509C176.076 217.621 175.697 217.645 175.328 217.581C174.959 217.516 174.611 217.364 174.313 217.138C174.015 216.911 173.775 216.617 173.614 216.279C173.452 215.941 173.374 215.569 173.386 215.195L174.068 193.197L183.296 196.726C182.511 197.272 183.372 198.61 183.372 198.61C183.372 198.61 181.416 199.752 182.277 200.788Z" fill="black"/>
<path d="M182.75 200.315C183.602 201.351 183.065 206.005 183.065 206.005L180.713 209.901C180.713 209.901 180.853 212.411 180.866 215.804L176.838 217.061C176.488 217.17 176.117 217.194 175.756 217.13C175.395 217.067 175.054 216.918 174.762 216.696C174.471 216.474 174.236 216.186 174.078 215.855C173.92 215.524 173.843 215.16 173.855 214.794L174.541 192.728L183.773 196.257C182.984 196.803 183.845 198.137 183.845 198.137C183.845 198.137 181.898 199.283 182.75 200.315Z" fill="white"/>
<path d="M185.806 189.83C185.806 189.83 185.18 193.832 183.611 194.067C182.043 194.301 181.339 200.541 179.775 200.319C178.211 200.098 179.246 194.518 179.302 193.436C179.357 192.353 177.597 187.869 178.914 186.85C180.231 185.832 184.4 186.85 184.4 186.85L185.806 189.83Z" fill="#CF6F80"/>
<path opacity="0.1" d="M189.143 159.009L192.101 153.042C192.101 153.042 193.278 157.59 193.278 160.019C193.278 162.449 194.923 162.688 194.923 162.688C194.923 162.688 196.726 164.819 195.776 166.37C194.825 167.922 194.441 171.783 194.441 171.783C194.441 171.783 194.753 179.153 193.342 180.171C191.931 181.19 191.637 183.624 191.637 183.624C191.637 183.624 189.045 188.249 189.126 189.348C189.207 190.448 185.52 197.894 185.52 197.894C185.52 197.894 187.323 188.641 176.817 184.643C176.817 184.643 176.736 181.501 177.52 180.64C178.304 179.779 179.528 179.387 178.76 175.035C177.993 170.684 178.539 165.484 178.539 164.439C178.539 163.395 180.892 156.882 180.892 156.882L189.143 159.009Z" fill="black"/>
<path d="M190.422 152.189L193.005 153.042C193.005 153.042 194.186 157.59 194.186 160.019C194.186 162.449 195.831 162.687 195.831 162.687C195.831 162.687 197.634 164.819 196.683 166.37C195.733 167.922 195.354 171.783 195.354 171.783C195.354 171.783 195.665 179.153 194.254 180.171C192.843 181.19 192.528 183.624 192.528 183.624C192.528 183.624 189.94 188.248 190.021 189.348C190.102 190.448 186.411 197.894 186.411 197.894C186.411 197.894 188.218 188.641 177.708 184.643C177.708 184.643 177.631 181.501 178.415 180.64C179.199 179.779 180.423 179.387 179.655 175.035C178.888 170.684 179.434 165.484 179.434 164.439C179.434 163.395 181.787 156.882 181.787 156.882L190.422 152.189Z" fill="white"/>
<path opacity="0.1" d="M133.372 306.855C133.372 306.855 137.489 304.268 140.191 306.148C142.894 308.027 133.372 306.855 133.372 306.855Z" fill="black"/>
<path opacity="0.1" d="M165.364 298.855C165.364 298.855 169.009 298.386 172.069 301.681C175.129 304.976 165.364 298.855 165.364 298.855Z" fill="black"/>
<g opacity="0.1">
<path d="M170.696 92.726C170.172 93.1778 169.499 93.5018 169.149 94.1028C168.851 94.6185 168.842 95.2536 168.604 95.8077C168.365 96.3618 167.67 96.8136 167.188 96.4641C167.078 92.628 165.185 89.0264 162.862 85.9575C162.213 85.0314 161.423 84.2118 160.522 83.528C159.61 82.8422 158.475 82.5214 157.338 82.6287C156.06 82.8034 154.934 83.6729 153.643 83.7795C151.938 83.9244 150.408 82.7438 148.716 82.6841C148.028 82.6909 147.35 82.8447 146.726 83.1351C146.103 83.4254 145.549 83.8457 145.101 84.3677C144.212 85.4172 143.551 86.641 143.162 87.9608C142.492 89.9635 142.127 92.0555 142.079 94.1667C142.054 95.3559 141.943 96.8392 140.843 97.2824C140.869 97.5973 140.869 97.9138 140.843 98.2287C141.951 97.8024 142.062 96.3021 142.088 95.1087C142.135 92.9974 142.5 90.9054 143.17 88.9028C143.559 87.5817 144.22 86.3565 145.11 85.3054C145.558 84.7848 146.113 84.3658 146.736 84.0762C147.359 83.7866 148.037 83.6332 148.724 83.626C150.429 83.6857 151.964 84.8621 153.651 84.7215C154.93 84.6149 156.064 83.7411 157.347 83.5706C158.483 83.4634 159.619 83.7841 160.531 84.47C161.432 85.1537 162.221 85.9734 162.871 86.8995C165.194 89.9641 167.086 93.5572 167.197 97.4018C167.679 97.7555 168.373 97.2952 168.612 96.7496C168.851 96.2041 168.859 95.5647 169.158 95.0447C169.507 94.4437 170.181 94.1241 170.705 93.6723C172.035 92.5257 172.367 90.5949 172.316 88.8431C172.316 88.7877 172.316 88.7323 172.316 88.6811C172.235 90.1985 171.83 91.7457 170.696 92.726Z" fill="black"/>
<path d="M139.232 92.4235C138.252 91.3451 136.913 90.6248 136.014 89.4825C135.257 88.4713 134.824 87.254 134.774 85.9917C134.639 87.5691 135.08 89.1419 136.014 90.4202C136.913 91.5668 138.252 92.2871 139.232 93.3655C140.173 94.4203 140.738 95.7573 140.839 97.1674C140.904 96.3092 140.795 95.4467 140.519 94.6316C140.243 93.8164 139.805 93.0654 139.232 92.4235Z" fill="black"/>
<path d="M173.147 79.5556C172.896 80.5999 172.448 81.593 172.243 82.6458C172.122 83.3493 172.078 84.0638 172.111 84.7769C172.126 84.3707 172.17 83.9661 172.243 83.5664C172.448 82.5094 172.896 81.5205 173.147 80.4763C173.294 79.9003 173.341 79.3036 173.288 78.7117C173.261 78.996 173.214 79.278 173.147 79.5556Z" fill="black"/>
</g>
<path opacity="0.1" d="M56.5733 324.186C79.5107 324.186 98.1051 321.199 98.1051 317.515C98.1051 313.831 79.5107 310.845 56.5733 310.845C33.6359 310.845 15.0415 313.831 15.0415 317.515C15.0415 321.199 33.6359 324.186 56.5733 324.186Z" fill="#72BAFD"/>
<path d="M57.9117 189.732H55.2393V249.902H57.9117V189.732Z" fill="#535461"/>
<path d="M74.7052 249.719L74.539 252.43L74.3003 256.266L74.2023 257.86L73.9678 261.696L73.8655 263.29L73.6269 267.126L70.9331 310.632C70.816 312.504 69.9901 314.26 68.6233 315.545C67.2566 316.829 65.4519 317.544 63.5764 317.545H49.5705C47.6954 317.544 45.8911 316.829 44.5251 315.545C43.1591 314.26 42.334 312.503 42.218 310.632L39.537 267.097L39.2983 263.261L39.2003 261.666L38.9616 257.83L38.8636 256.236L38.6249 252.4L38.4544 249.689C38.4248 249.168 38.5021 248.645 38.6816 248.155C38.861 247.664 39.1389 247.215 39.4981 246.835C39.8573 246.456 40.2903 246.154 40.7705 245.947C41.2506 245.741 41.7679 245.635 42.2905 245.636H70.9373C71.458 245.64 71.9721 245.752 72.4481 245.963C72.9241 246.173 73.3519 246.48 73.7049 246.862C74.058 247.245 74.3289 247.696 74.5009 248.187C74.673 248.679 74.7425 249.2 74.7052 249.719Z" fill="#3F3D56"/>
<path d="M74.539 252.43L74.3004 256.253H38.8466L38.6079 252.43H74.539Z" fill="#9D9CB5"/>
<path d="M74.202 257.847L73.9676 261.675H39.183L38.9443 257.847H74.202Z" fill="#9D9CB5"/>
<path d="M73.8655 263.273L73.6311 267.097H39.5199L39.2812 263.273H73.8655Z" fill="#9D9CB5"/>
<path d="M34.5287 212.284C50.0904 223.545 56.5861 241.156 56.5861 241.156C56.5861 241.156 37.832 240.513 22.2661 229.252C6.70023 217.991 0.217285 200.383 0.217285 200.383C0.217285 200.383 18.9629 201.023 34.5287 212.284Z" fill="#72BAFD"/>
<path d="M0.20459 200.383C0.20459 200.383 19.6747 211.188 25.919 220.135C32.1633 229.081 56.5862 241.156 56.5862 241.156" stroke="#535461" stroke-width="2" stroke-miterlimit="10"/>
<path d="M44.5748 189.6C53.044 195.724 56.586 205.31 56.586 205.31C56.586 205.31 46.3778 204.961 37.9043 198.836C29.4309 192.711 25.8975 183.121 25.8975 183.121C25.8975 183.121 36.1014 183.47 44.5748 189.6Z" fill="#72BAFD"/>
<path d="M25.8975 183.121C25.8975 183.121 36.4935 189.003 39.8906 193.87C43.2876 198.738 56.586 205.31 56.586 205.31" stroke="#535461" stroke-width="2" stroke-miterlimit="10"/>
<path d="M68.8828 204.825C59.152 215.519 57.0933 229.495 57.0933 229.495C57.0933 229.495 70.8136 226.128 80.5359 215.429C90.2582 204.731 92.3254 190.759 92.3254 190.759C92.3254 190.759 78.6136 194.131 68.8828 204.825Z" fill="#72BAFD"/>
<path d="M92.3339 190.763C92.3339 190.763 79.6578 201.726 76.4356 209.279C73.2133 216.831 57.0933 229.495 57.0933 229.495" stroke="#535461" stroke-width="2" stroke-miterlimit="10"/>
<path d="M426.089 201.061C426.089 201.061 419.052 166.05 421.745 161.694C421.745 161.694 421.843 157.645 421.681 152.484C421.681 152.287 421.681 152.091 421.681 151.891C422.155 152.207 422.65 152.492 423.161 152.743C425.642 154.019 428.492 154.386 431.216 153.784L429.085 151.409C428.574 150.843 428.041 150.229 427.93 149.479C427.819 148.728 428.126 148.059 428.39 147.39C430.415 142.275 430.522 135.844 426.622 131.939C423.327 128.657 422.525 124.421 418.949 121.424C416.337 119.229 414.9 116.011 413.545 112.9C412.398 110.27 411.243 107.619 410.587 104.831C410.075 102.653 409.871 100.398 409.167 98.2714C408.464 96.1445 407.147 94.0773 405.088 93.1268C404.355 92.7901 403.541 92.5983 402.872 92.1507C401.994 91.5583 401.465 90.595 400.83 89.7511C397.604 85.4888 386.799 87.9993 381.684 89.7298C380.294 90.1655 379.006 90.879 377.899 91.8268L377.946 91.7501C377.984 91.6862 378.031 91.6222 378.074 91.5583C377.514 92.011 377.031 92.5506 376.642 93.1566C375.896 94.3373 375.585 95.714 374.963 96.9927C374.212 98.5058 370.04 102.73 371.834 104.43C371.96 104.545 372.104 104.637 372.26 104.703C372.934 104.984 373.676 105.058 374.391 104.916L374.315 105.1C373.702 106.6 373.388 108.206 373.39 109.826C373.39 116.829 379.165 122.507 386.296 122.507C387.636 122.508 388.969 122.302 390.247 121.897C390.277 122.059 390.303 122.221 390.332 122.383C390.332 122.447 390.354 122.511 390.362 122.575L390.136 122.89C390.125 122.871 390.112 122.852 390.098 122.835L383.406 132.186C382.383 132.907 376.493 137.169 376.16 140.366C375.811 143.865 375.461 147.961 375.461 147.961L375.414 148.839C375.122 149.084 374.78 149.262 374.412 149.361C374.044 149.46 373.659 149.479 373.283 149.415C371.195 149.074 371.195 157.087 371.195 157.087C371.195 157.087 369.805 158.365 368.85 157.257C367.896 156.149 365.372 159.904 365.372 159.904L349.559 160.586L349.197 160.607L348.344 157.969C348.253 157.691 348.055 157.46 347.794 157.327C347.533 157.193 347.23 157.168 346.951 157.257C346.885 157.279 346.821 157.306 346.759 157.338L346.699 157.372L346.588 157.449L346.533 157.5C346.502 157.528 346.474 157.558 346.448 157.59L346.397 157.649L346.371 157.675C346.273 157.811 346.207 157.968 346.181 158.134C346.154 158.3 346.167 158.47 346.218 158.63L346.951 160.893C343.899 161.507 340.779 163.237 343.323 168.003L330.426 165.62L334.599 169.124L356.14 173.569C355.855 174.081 356.042 174.822 356.933 175.866C360.769 180.372 367.759 181.595 370.572 181.91C371.315 183.572 372.243 185.145 373.339 186.599L373.096 191.087C373.096 191.087 365.973 225.296 364.669 227.031C365.327 226.285 365.93 225.491 366.472 224.657C364.405 231.685 361.515 241.305 360.756 242.746C359.537 245.048 358.408 254.361 359.797 254.958C360.223 255.141 361.443 255.051 363.182 254.919V255.691L363.105 284.926C363.105 284.926 363.454 302.857 362.495 304.566C361.536 306.276 361.281 309.86 361.281 309.86C361.281 309.86 357.444 316.931 354.405 319.774C354.385 319.796 354.362 319.816 354.337 319.834L354.243 319.169C354.243 319.169 350.591 323.781 342.509 323.521C342.509 323.521 337.646 326.683 344.858 326.854C352.07 327.024 361.281 326.598 361.281 326.598C361.281 326.598 367.712 316.795 373.1 318.074V325.503H374.749V317.954C375.514 317.451 376.169 316.797 376.674 316.033C377.179 315.269 377.523 314.41 377.686 313.509C377.827 312.58 377.724 311.63 377.386 310.753C377.048 309.877 376.488 309.103 375.76 308.509C375.432 308.213 375.17 307.853 374.989 307.451C374.808 307.049 374.712 306.614 374.707 306.173L374.647 306.224C374.647 306.075 374.609 305.922 374.592 305.764C374.119 301.928 373.526 294.013 375.619 288.157C378.487 280.126 379.357 268.942 377.268 262.284C376.595 260.156 376.041 257.992 375.61 255.802C375.559 255.524 375.512 255.26 375.47 255.013C376.897 255.206 378.311 255.491 379.702 255.865C384.54 257.2 395.123 257.447 404.159 257.374C404.181 257.621 404.206 257.882 404.236 258.142C404.397 259.949 404.734 261.736 405.242 263.478C406.376 266.888 406.896 281.921 406.896 281.921C406.896 281.921 408.358 294.281 407.561 299.311C407.134 302.107 406.708 304.916 406.465 307.738V307.793C406.465 307.793 404.07 314.613 402.318 318.317C402.275 318.41 402.228 318.504 402.186 318.594C401.719 318.636 401.259 318.738 400.818 318.896C400.818 318.896 398.469 323.585 396.129 324.361C393.789 325.136 394.565 327.689 399.863 326.752C405.161 325.814 413.161 325.047 413.161 325.047L413.506 320.264L415.135 318.227L414.708 322.997L416.443 322.656L416.213 316.855L418.877 313.521C418.877 313.521 422.095 310.657 417.313 305.022V305.146C417.261 305.065 417.215 304.98 417.159 304.899V304.873C416.366 303.646 415.736 301.357 416.891 297.295C418.979 289.955 420.194 283.293 420.194 283.293C420.194 283.293 424.857 265.447 419.252 257.003H419.499C418.925 255.815 418.519 254.553 418.293 253.253C418.265 253.099 418.239 252.942 418.216 252.78C422.363 252.541 426.434 251.791 429.754 250.171C429.742 250.154 427.742 207.804 426.089 201.061ZM373.437 171.523V171.608L372.584 171.651L373.437 171.523ZM370.513 171.928C370.373 171.959 370.241 172.022 370.129 172.111C369.763 172.63 369.532 173.232 369.46 173.863L368.13 173.565C368.13 173.565 367.197 173.364 365.854 173.139L365.219 172.499C366.966 172.354 368.782 172.141 370.513 171.928Z" fill="url(#paint1_linear_3_1513)"/>
<path d="M414.512 316.914L414.005 322.954L415.706 322.613L415.45 316.062L414.512 316.914Z" fill="#1D2366"/>
<path d="M375.713 288.238C373.663 294.077 374.242 301.958 374.703 305.785C374.873 307.201 375.031 308.062 375.031 308.062C375.031 308.062 371.966 315.043 371.71 315.307C371.455 315.572 362.691 320.921 362.691 320.921L356.566 324.497C356.566 324.497 350.352 321.773 353.331 320.836C353.94 320.591 354.488 320.218 354.938 319.74C357.922 316.906 361.668 309.86 361.668 309.86C361.668 309.86 361.924 306.284 362.862 304.583C363.8 302.883 363.459 285.011 363.459 285.011L363.531 255.878V252.081L375.188 252.166C375.262 253.455 375.43 254.737 375.691 256.002C376.11 258.185 376.652 260.342 377.315 262.464C379.37 269.108 378.517 280.237 375.713 288.238Z" fill="#FFB0B1"/>
<path opacity="0.1" d="M375.031 308.061C375.031 308.061 371.966 315.043 371.71 315.307C371.455 315.572 362.691 320.921 362.691 320.921L356.566 324.497C356.566 324.497 350.352 321.773 353.331 320.836C353.94 320.591 354.488 320.218 354.938 319.74L355.203 321.603L357.244 321.518L374.72 305.794C374.873 307.201 375.031 308.061 375.031 308.061Z" fill="black"/>
<path d="M374.818 306.19L357.244 322.021L355.203 322.106L354.777 319.122C354.777 319.122 351.205 323.717 343.268 323.461C343.268 323.461 338.503 326.611 345.566 326.782C352.628 326.952 361.647 326.526 361.647 326.526C361.647 326.526 367.947 316.723 373.219 318.001V325.405H374.839V317.933C375.592 317.426 376.235 316.772 376.729 316.01C377.222 315.248 377.557 314.395 377.712 313.5C377.852 312.579 377.753 311.637 377.424 310.765C377.095 309.893 376.546 309.121 375.832 308.522C375.513 308.223 375.259 307.862 375.084 307.461C374.91 307.06 374.819 306.628 374.818 306.19Z" fill="#1D2366"/>
<path d="M416.132 297.342C414.998 301.391 415.616 303.671 416.392 304.895V304.92C417.387 306.431 418.079 308.12 418.43 309.894L418.498 310.278L410.502 321.935L406.163 323.64C406.163 323.64 399.185 321.258 400.46 320.576C400.779 320.409 401.278 319.523 401.849 318.3C403.554 314.613 405.907 307.81 405.907 307.81V307.755C406.154 304.946 406.546 302.146 406.981 299.358C407.761 294.341 406.329 282.028 406.329 282.028C406.329 282.028 405.817 267.054 404.709 263.649C404.209 261.917 403.876 260.141 403.716 258.346C403.486 256.215 403.435 254.459 403.435 254.459C403.435 254.459 408.03 248.066 416.452 254.97C417.125 255.521 417.718 256.164 418.212 256.88C424.03 265.157 419.346 283.391 419.346 283.391C419.346 283.391 418.174 290.024 416.132 297.342Z" fill="#FFB0B1"/>
<path opacity="0.1" d="M418.51 310.278L410.514 321.935L406.175 323.64C406.175 323.64 399.198 321.258 400.472 320.576C400.792 320.41 401.291 319.523 401.862 318.3C404.816 318.274 406.346 321.087 406.346 321.087L410.088 320.491C410.088 320.491 415.024 310.79 416.132 310.197C417.24 309.605 416.303 305.769 416.303 305.769V304.792C416.332 304.827 416.358 304.865 416.392 304.899V304.925C417.387 306.435 418.079 308.124 418.429 309.899L418.51 310.278Z" fill="black"/>
<path d="M406.601 321.339C406.601 321.339 404.47 317.426 400.387 318.871C400.387 318.871 398.09 323.559 395.792 324.318C393.495 325.077 394.262 327.634 399.454 326.701C404.645 325.767 412.471 324.996 412.471 324.996L412.812 320.226L418.088 313.504C418.088 313.504 421.234 310.653 416.554 305.04V306.016C416.554 306.016 417.492 309.852 416.383 310.444C415.275 311.037 410.356 320.742 410.356 320.742L406.601 321.339Z" fill="#1D2366"/>
<path opacity="0.1" d="M375.201 252.157C375.275 253.447 375.443 254.729 375.704 255.993C370.905 255.29 366.451 255.64 363.531 255.87V252.072L375.201 252.157Z" fill="black"/>
<path opacity="0.1" d="M418.685 257.941C418.685 257.941 411.865 258.274 403.733 258.342C403.503 256.211 403.452 254.455 403.452 254.455C403.452 254.455 408.046 248.061 416.469 254.966C417.142 255.517 417.735 256.16 418.229 256.876C418.361 257.239 418.513 257.595 418.685 257.941Z" fill="black"/>
<path d="M418.685 257.174C418.685 257.174 388.815 258.619 379.71 256.066C370.606 253.513 361.583 255.725 360.223 255.132C358.864 254.54 359.968 245.261 361.161 242.964C362.354 240.666 368.901 217.432 368.901 217.432L375.201 184.587L381.837 182.759L382.306 182.627L393.87 179.438L402.343 177.098C402.343 177.098 419.192 242.878 417.747 247.729C417.222 249.586 417.138 251.54 417.5 253.436C417.721 254.731 418.119 255.989 418.685 257.174Z" fill="#1D2366"/>
<path d="M353.242 162.125C353.242 162.125 347.275 168.518 351.793 172.082C356.311 175.645 359.282 172.423 359.282 172.423L353.242 162.125Z" fill="#C7DAF5"/>
<path opacity="0.1" d="M353.242 162.125C353.242 162.125 347.275 168.518 351.793 172.082C356.311 175.645 359.282 172.423 359.282 172.423L353.242 162.125Z" fill="black"/>
<path d="M401.453 120.09C401.453 120.09 400.754 120.755 399.701 121.735C398.2 123.138 395.98 125.188 394.011 126.906C391.283 129.28 389.032 131.023 389.838 129.535C390.643 128.048 390.49 125.456 390.089 123.031C390.059 122.869 390.034 122.707 390.004 122.55C389.672 120.768 389.232 119.009 388.687 117.281C388.687 117.281 393.094 111.587 395.532 109.341C396.44 108.488 397.075 108.139 397.114 108.731C397.156 109.528 397.753 111.289 398.495 113.155C398.516 113.215 398.537 113.271 398.563 113.33C399.057 114.609 399.616 115.922 400.106 117.055C400.856 118.794 401.453 120.09 401.453 120.09Z" fill="#FFB0B1"/>
<path opacity="0.1" d="M398.563 113.33C398.149 115.558 397.144 117.633 395.653 119.34C394.163 121.046 392.241 122.321 390.089 123.031C389.75 121.085 389.282 119.164 388.687 117.281C388.687 117.281 396.986 106.562 397.114 108.731C397.143 109.554 397.791 111.378 398.563 113.33Z" fill="black"/>
<path opacity="0.1" d="M389.263 125.895L390.337 124.382C390.337 124.382 391.049 128.721 393.666 126.808C396.283 124.894 396.411 141.21 396.411 141.21L393.602 183.206L373.305 181.991L373.88 161.699L376.177 151.469L381.859 136.598L385.239 131.684L389.263 125.895Z" fill="black"/>
<path d="M396.411 141.47L393.853 179.442L393.585 183.466L382.268 182.788L381.842 182.763L373.317 182.251L373.893 161.954L376.19 151.725L381.872 136.854L385.252 131.939L389.275 126.13L390.35 124.621C390.35 124.621 391.061 128.96 393.678 127.046L393.734 127.008C396.291 125.388 396.411 141.47 396.411 141.47Z" fill="#1D2366"/>
<path d="M376.475 148.17C376.475 148.17 375.457 150.301 373.411 149.956C371.365 149.611 371.369 157.628 371.369 157.628C371.369 157.628 370.01 158.907 369.072 157.799C368.134 156.69 365.662 160.437 365.662 160.437L350.173 161.119C350.173 161.119 357.065 164.269 355.714 173.799C355.714 173.799 379.114 172.35 379.881 170.138C380.648 167.926 376.475 148.17 376.475 148.17Z" fill="white"/>
<path opacity="0.03" d="M376.475 148.17C376.475 148.17 375.457 150.301 373.411 149.956C371.365 149.611 371.369 157.628 371.369 157.628C371.369 157.628 370.01 158.907 369.072 157.799C368.134 156.69 365.662 160.437 365.662 160.437L350.173 161.119C350.173 161.119 357.065 164.269 355.714 173.799C355.714 173.799 379.114 172.35 379.881 170.138C380.648 167.926 376.475 148.17 376.475 148.17Z" fill="black"/>
<path d="M331.461 166.127L335.545 169.614L369.157 176.676L364.989 172.423L331.461 166.127Z" fill="white"/>
<path d="M389.327 127.238C388.768 128.09 387.17 132.455 385.836 136.265C384.723 139.441 383.794 142.233 383.794 142.233C383.794 142.233 381.625 156.358 380.516 158.911C379.408 161.464 380.009 171.421 380.009 171.421L375.879 196.01C375.879 196.01 374.008 208.69 371.118 216.264C368.267 223.719 365.091 227.214 364.993 227.325C366.272 225.595 373.241 191.522 373.241 191.522L375.542 148.549C375.542 148.549 375.879 144.466 376.22 140.975C376.561 137.484 383.466 132.719 383.466 132.719L390.124 123.253C390.793 124.148 390.345 125.708 389.327 127.238Z" fill="white"/>
<path d="M371.966 182.465C371.966 182.465 362.163 182.038 357.414 176.335C352.666 170.632 368.39 174.059 368.39 174.059L372.477 174.997L371.966 182.465Z" fill="#FFB0B1"/>
<path opacity="0.1" d="M417.747 247.733C417.222 249.59 417.138 251.544 417.5 253.44C406.806 254.199 395.366 251.309 395.366 251.309C393.235 253.27 387.621 256.16 387.621 256.16L384.561 218.225C382.605 213.11 381.837 186.313 381.837 186.313C381.837 186.313 382.012 184.911 382.264 182.81C382.264 182.759 382.264 182.703 382.285 182.652C383.048 176.783 384.561 165.765 385.303 164.277C386.326 162.231 382.157 156.788 382.157 156.788L384.054 140.613L384.284 138.661C388.282 136.875 391.347 131.172 391.347 131.172L393.699 127.05C396.257 125.409 396.389 141.491 396.389 141.491L393.831 179.464L402.305 177.124C402.305 177.124 419.192 242.883 417.747 247.733Z" fill="black"/>
<path d="M428.723 250.354C417.065 256.143 395.878 250.781 395.878 250.781C393.747 252.741 388.133 255.631 388.133 255.631L385.068 217.697C383.116 212.582 382.349 185.785 382.349 185.785C382.349 185.785 384.813 165.791 385.836 163.749C386.134 163.152 385.989 162.266 385.635 161.311C383.896 156.767 383.256 151.875 383.768 147.036L384.587 140.085L384.813 138.137C388.815 136.347 391.88 130.644 391.88 130.644L394.011 126.91L397.932 120.031L399.79 116.774L400.106 117.06L402.514 119.242C402.514 119.242 403.537 120.095 405.071 121.373C408.409 124.186 414.176 129.139 417.151 132.17C419.768 134.838 420.595 145.216 420.833 153.029C420.991 158.174 420.897 162.206 420.897 162.206C418.259 166.549 425.16 201.419 425.16 201.419C426.766 208.158 428.723 250.354 428.723 250.354Z" fill="white"/>
<path opacity="0.03" d="M406.346 130.558C406.346 130.558 398.346 145.787 399.275 151.576C400.204 157.364 402.847 163.915 401.572 165.445C401.134 166.025 400.568 166.495 399.918 166.82C399.268 167.145 398.552 167.314 397.826 167.316C396.547 167.401 393.137 169.784 393.137 170.04C393.137 170.296 389.987 170.296 387.17 171.489C384.352 172.682 380.192 173.36 380.192 173.36C380.192 173.36 372.094 173.104 371.34 173.872C370.585 174.639 369.809 179.229 371.425 182.891C373.04 186.552 374.835 189.284 376.19 189.783C377.546 190.281 386.147 187.4 393.124 186.718C400.102 186.036 407.676 180.508 407.676 180.508C407.676 180.508 416.017 177.524 417.479 172.508C418.941 167.491 415.693 139.918 415.693 139.918C415.693 139.918 413.238 127.067 406.346 130.558Z" fill="black"/>
<path opacity="0.03" d="M405.323 129.28C405.323 129.28 397.322 144.513 398.26 150.297C399.198 156.081 401.832 162.636 400.553 164.171C400.117 164.751 399.552 165.222 398.902 165.547C398.253 165.872 397.537 166.041 396.811 166.042C395.532 166.127 392.122 168.51 392.122 168.766C392.122 169.021 388.973 169.021 386.155 170.21C383.338 171.4 379.178 172.082 379.178 172.082C379.178 172.082 371.08 171.826 370.329 172.593C369.579 173.36 368.795 177.955 370.415 181.612C372.034 185.269 373.824 188.006 375.18 188.504C376.535 189.003 385.137 186.122 392.114 185.444C399.091 184.766 406.665 179.23 406.665 179.23C406.665 179.23 415.002 176.246 416.447 171.233C417.892 166.221 414.661 138.64 414.661 138.64C414.661 138.64 412.215 125.793 405.323 129.28Z" fill="black"/>
<path d="M406.094 129.791C406.094 129.791 398.094 145.025 399.032 150.808C399.969 156.592 402.603 163.148 401.329 164.678C400.893 165.26 400.327 165.732 399.677 166.057C399.027 166.383 398.31 166.553 397.582 166.553C396.304 166.639 392.894 169.021 392.894 169.273C392.894 169.524 389.748 169.528 386.927 170.722C384.105 171.915 379.949 172.593 379.949 172.593C379.949 172.593 371.851 172.337 371.097 173.104C370.342 173.872 369.566 178.466 371.182 182.124C372.797 185.781 374.592 188.517 375.947 189.016C377.302 189.514 385.904 186.633 392.881 185.951C399.858 185.269 407.433 179.741 407.433 179.741C407.433 179.741 415.774 176.757 417.236 171.741C418.698 166.724 415.471 139.151 415.471 139.151C415.471 139.151 412.982 126.322 406.094 129.791Z" fill="white"/>
<path opacity="0.1" d="M405.919 170.649C405.919 170.649 399.526 169.371 401.751 171.502C403.976 173.633 403.963 175.5 406.687 175.415C409.41 175.329 405.919 170.649 405.919 170.649Z" fill="black"/>
<path opacity="0.1" d="M416.725 216.503C416.725 216.503 413.835 218.46 419.363 222.969C424.891 227.479 416.725 216.503 416.725 216.503Z" fill="black"/>
<path opacity="0.1" d="M411.209 232.585C411.209 232.841 410.186 241.962 414.014 244.242C417.841 246.523 411.209 232.585 411.209 232.585Z" fill="black"/>
<path d="M350.437 161.098C347.351 161.204 340.685 162.146 344.142 168.595C347.198 174.302 352.334 170.487 355.224 167.593C354.519 164.895 352.806 162.57 350.437 161.098Z" fill="#FFB0B1"/>
<path opacity="0.1" d="M405.071 121.633C401.798 123.871 399.053 125.759 398.516 126.151C397.05 127.238 394.254 133.619 392.451 136.875C391.014 139.496 386.347 140.17 384.587 140.336L384.813 138.388C388.815 136.598 391.88 130.895 391.88 130.895L399.791 117.026L402.514 119.502C402.514 119.502 403.537 120.354 405.071 121.633Z" fill="black"/>
<path d="M405.071 121.377C401.798 123.615 399.053 125.503 398.516 125.9C397.05 126.982 394.254 133.363 392.451 136.619C391.014 139.241 386.347 139.914 384.587 140.08L384.813 138.132C388.815 136.342 391.88 130.639 391.88 130.639L399.791 116.77L402.514 119.238C402.514 119.238 403.537 120.082 405.071 121.377Z" fill="#DCE7FF"/>
<path d="M398.772 110.517C398.774 113.076 397.998 115.574 396.547 117.682C394.833 120.174 392.283 121.969 389.36 122.742C386.436 123.514 383.332 123.213 380.611 121.893C377.891 120.573 375.733 118.321 374.53 115.547C373.328 112.772 373.16 109.658 374.057 106.77C374.953 103.882 376.856 101.411 379.419 99.8057C381.981 98.2003 385.035 97.5668 388.025 98.02C391.015 98.4733 393.743 99.9834 395.715 102.276C397.687 104.569 398.771 107.493 398.772 110.517Z" fill="#FFB0B1"/>
<path opacity="0.1" d="M420.833 153.033C419.103 151.969 417.693 150.454 416.754 148.652C416.043 147.245 415.57 145.621 414.355 144.624C413.259 143.729 411.797 143.511 410.433 143.111C405.95 141.785 402.19 137.693 402.05 133.022C401.981 130.823 402.668 128.628 402.356 126.449C402.179 125.217 401.689 124.05 400.933 123.061C400.557 122.588 400.145 122.145 399.701 121.735C399.104 121.173 398.478 120.627 397.932 120.03C397.588 119.661 397.288 119.253 397.037 118.816C396.834 118.458 396.67 118.079 396.547 117.686C395.694 115.078 396.47 111.983 395.532 109.345L395.481 109.2C395.128 108.262 394.407 107.325 393.406 107.252C392.404 107.18 391.547 108.011 390.592 108.382C388.593 109.157 386.437 107.836 384.77 106.489C383.104 105.142 381.224 103.604 379.106 103.902C377.703 104.102 376.595 105.057 375.304 105.551C375.012 105.664 374.711 105.751 374.404 105.811C375.497 103.086 377.505 100.826 380.084 99.4198C382.662 98.0138 385.649 97.5496 388.532 98.1069C391.416 98.6642 394.015 100.208 395.883 102.474C397.752 104.739 398.773 107.585 398.772 110.521C398.773 111.408 398.68 112.293 398.495 113.16C398.516 113.219 398.537 113.275 398.563 113.334C399.057 114.613 399.616 115.926 400.106 117.06L402.514 119.242C402.514 119.242 403.537 120.094 405.071 121.373C408.409 124.186 414.176 129.139 417.151 132.169C419.768 134.846 420.586 145.221 420.833 153.033Z" fill="black"/>
<path d="M375.154 97.7642C375.764 96.5239 376.066 95.1344 376.795 93.958C377.865 92.2531 379.732 91.1619 381.65 90.5013C386.658 88.775 397.241 86.2688 400.404 90.5013C401.026 91.3537 401.542 92.3 402.403 92.8882C403.059 93.3357 403.852 93.5275 404.573 93.8642C406.589 94.8105 407.876 96.8734 408.562 98.979C409.248 101.085 409.453 103.344 409.956 105.513C410.599 108.296 411.729 110.935 412.854 113.556C414.18 116.65 415.586 119.86 418.144 122.047C421.634 125.03 422.406 129.254 425.645 132.527C429.481 136.415 429.358 142.829 427.38 147.923C427.12 148.592 426.826 149.291 426.928 150.003C427.031 150.715 427.559 151.363 428.058 151.929L430.155 154.295C425.193 155.493 419.58 152.901 417.27 148.353C416.558 146.947 416.085 145.327 414.866 144.326C413.775 143.43 412.309 143.217 410.949 142.817C406.465 141.487 402.706 137.391 402.565 132.719C402.497 130.524 403.183 128.329 402.872 126.155C402.699 124.914 402.207 123.74 401.444 122.746C400.272 121.215 398.503 120.188 397.548 118.483C395.933 115.632 397.16 111.928 395.997 108.867C395.639 107.93 394.923 106.992 393.921 106.92C392.919 106.847 392.063 107.678 391.104 108.049C389.109 108.825 386.952 107.508 385.286 106.157C383.619 104.806 381.739 103.271 379.617 103.574C378.214 103.77 377.111 104.725 375.819 105.223C374.864 105.59 372.929 105.918 372.094 105.112C370.329 103.488 374.417 99.2816 375.154 97.7642Z" fill="#591D4B"/>
<path opacity="0.1" d="M418.455 146.947C417.739 145.54 417.27 143.921 416.051 142.923C414.96 142.028 413.494 141.811 412.13 141.41C407.65 140.085 403.891 135.988 403.746 131.317C403.678 129.122 404.364 126.923 404.057 124.749C403.878 123.516 403.387 122.349 402.629 121.36C401.453 119.83 399.684 118.803 398.733 117.098C397.118 114.251 398.345 110.547 397.178 107.482C396.824 106.549 396.103 105.611 395.106 105.534C394.109 105.458 393.243 106.297 392.289 106.668C390.294 107.444 388.133 106.123 386.471 104.776C384.808 103.429 382.92 101.89 380.802 102.188C379.399 102.389 378.291 103.344 377.004 103.838C376.049 104.205 374.11 104.537 373.275 103.731C371.519 102.027 375.606 97.8282 376.339 96.3193C376.949 95.0747 377.251 93.6895 377.984 92.5131C378.023 92.4492 378.065 92.3852 378.108 92.3213C377.56 92.7756 377.086 93.3136 376.706 93.9154C375.977 95.0918 375.674 96.4728 375.065 97.7216C374.327 99.2305 370.24 103.442 372 105.134C372.853 105.944 374.771 105.611 375.725 105.245C377.004 104.746 378.121 103.791 379.523 103.595C381.654 103.292 383.53 104.831 385.192 106.178C386.854 107.525 389.028 108.846 391.014 108.07C391.969 107.7 392.804 106.864 393.827 106.941C394.85 107.018 395.532 107.951 395.903 108.889C397.067 111.949 395.839 115.653 397.455 118.505C398.409 120.18 400.178 121.228 401.35 122.767C402.113 123.761 402.605 124.936 402.778 126.177C403.089 128.35 402.403 130.546 402.471 132.741C402.612 137.429 406.371 141.508 410.855 142.838C412.206 143.239 413.681 143.452 414.772 144.347C415.996 145.348 416.477 146.968 417.176 148.375C419.486 152.923 425.1 155.514 430.061 154.316L429.072 153.2C424.772 153.264 420.42 150.817 418.455 146.947Z" fill="black"/>
<path opacity="0.1" d="M389.071 127.494C388.512 128.346 386.914 132.711 385.58 136.521C384.331 136.035 383.197 132.937 383.197 132.937L389.855 123.466C390.537 124.404 390.089 125.959 389.071 127.494Z" fill="black"/>
<path d="M389.327 127.238C388.768 128.09 387.17 132.455 385.836 136.265C384.587 135.784 383.453 132.681 383.453 132.681L390.111 123.214C390.793 124.148 390.345 125.708 389.327 127.238Z" fill="#DCE7FF"/>
<path d="M350.616 170.781L346.925 159.141C346.881 159.005 346.865 158.861 346.877 158.719C346.889 158.576 346.929 158.437 346.995 158.31C347.06 158.183 347.15 158.07 347.26 157.978C347.369 157.886 347.496 157.816 347.632 157.773C347.907 157.687 348.205 157.713 348.46 157.846C348.716 157.978 348.908 158.207 348.996 158.481L352.688 170.108L352.321 172.542L350.616 170.781Z" fill="#BE8B87"/>
<path opacity="0.1" d="M347.275 158.118C347.55 158.031 347.849 158.057 348.105 158.189C348.361 158.322 348.555 158.551 348.643 158.826L352.334 170.453L352.057 172.278L352.326 172.559L352.692 170.125L348.98 158.498C348.892 158.224 348.699 157.996 348.443 157.863C348.188 157.731 347.89 157.704 347.616 157.79C347.385 157.865 347.185 158.015 347.049 158.216C347.121 158.177 347.197 158.145 347.275 158.118Z" fill="white"/>
<path d="M350.616 170.782L352.688 170.125L352.385 172.12L352.321 172.559L351.716 171.928L350.616 170.782Z" fill="#EFC8C4"/>
<path d="M351.716 171.928C351.752 171.883 351.797 171.845 351.848 171.817C351.878 171.798 351.913 171.788 351.948 171.788C351.984 171.788 352.018 171.798 352.048 171.817C352.077 171.852 352.102 171.891 352.121 171.932C352.149 171.979 352.187 172.02 352.233 172.05C352.279 172.08 352.331 172.1 352.385 172.107L352.321 172.533L351.716 171.928Z" fill="#727A9C"/>
<path d="M346.904 163.276C346.904 163.276 354.307 163.233 352.564 166.383C350.821 169.533 348.097 169.912 348.097 169.912L346.904 163.276Z" fill="#FFB0B1"/>
<path d="M300.858 21.9167H300.538C287.82 21.9167 276.572 28.6469 270.101 38.5781C263.631 28.6469 252.383 21.9167 239.664 21.9167H239.345C229.8 22.0077 220.676 25.8619 213.957 32.6418C207.238 39.4218 203.466 48.5795 203.46 58.1249C203.46 69.9784 208.652 86.7974 218.775 100.637C238.062 127.008 270.101 150.08 270.101 150.08C270.101 150.08 302.141 127.012 321.424 100.637C331.551 86.7974 336.738 69.9784 336.738 58.1249C336.733 48.5802 332.961 39.4231 326.243 32.6433C319.525 25.8635 310.402 22.0088 300.858 21.9167ZM296.285 102.666C294.836 102.66 293.423 102.217 292.231 101.394C291.039 100.571 290.124 99.4067 289.606 98.0541H282.002C281.501 98.051 281.014 97.8916 280.608 97.5982C280.202 97.3047 279.898 96.8919 279.738 96.4174L277.403 89.3803L270.012 115.206C269.868 115.703 269.567 116.14 269.153 116.451C268.74 116.762 268.236 116.931 267.719 116.932H267.57C267.03 116.906 266.515 116.695 266.111 116.335C265.708 115.975 265.44 115.488 265.353 114.954L257.736 69.143L252.17 96.2512C252.042 96.7661 251.746 97.2235 251.328 97.5503C250.91 97.8771 250.395 98.0544 249.864 98.0541H239.153C238.832 98.0677 238.511 98.0162 238.211 97.9027C237.91 97.7892 237.635 97.616 237.403 97.3936C237.171 97.1712 236.987 96.9042 236.861 96.6086C236.735 96.313 236.67 95.995 236.67 95.6736C236.67 95.3522 236.735 95.0342 236.861 94.7386C236.987 94.443 237.171 94.176 237.403 93.9536C237.635 93.7312 237.91 93.558 238.211 93.4445C238.511 93.331 238.832 93.2795 239.153 93.2931H247.989L255.874 56.8462C256.003 56.3074 256.316 55.8302 256.758 55.4963C257.201 55.1624 257.745 54.9925 258.299 55.0157C258.852 55.0388 259.381 55.2536 259.794 55.6233C260.207 55.9929 260.478 56.4945 260.562 57.0423L268.341 103.774L274.965 80.6682C275.103 80.1816 275.394 79.7526 275.796 79.4453C276.198 79.138 276.688 78.9689 277.194 78.9633H277.241C277.742 78.9634 278.23 79.1218 278.635 79.4157C279.041 79.7096 279.344 80.1241 279.5 80.6L283.724 93.3059H289.512C289.923 92.0556 290.672 90.9433 291.676 90.0918C292.68 89.2403 293.899 88.6827 295.2 88.4805C296.501 88.2783 297.832 88.4394 299.047 88.9461C300.262 89.4527 301.313 90.2851 302.085 91.3515C302.856 92.4178 303.318 93.6766 303.42 94.989C303.521 96.3014 303.258 97.6162 302.659 98.7885C302.061 99.9607 301.15 100.945 300.027 101.632C298.904 102.319 297.614 102.683 296.297 102.683L296.285 102.666Z" fill="#72BAFD"/>
</g>
<defs>
<linearGradient id="paint0_linear_3_1513" x1="151.878" y1="330.272" x2="151.878" y2="67.9963" gradientUnits="userSpaceOnUse">
<stop stop-color="#808080" stop-opacity="0.25"/>
<stop offset="0.54" stop-color="#808080" stop-opacity="0.12"/>
<stop offset="1" stop-color="#808080" stop-opacity="0.1"/>
</linearGradient>
<linearGradient id="paint1_linear_3_1513" x1="380.806" y1="326.956" x2="380.806" y2="87.4153" gradientUnits="userSpaceOnUse">
<stop stop-color="#808080" stop-opacity="0.25"/>
<stop offset="0.54" stop-color="#808080" stop-opacity="0.12"/>
<stop offset="1" stop-color="#808080" stop-opacity="0.1"/>
</linearGradient>
<clipPath id="clip0_3_1513">
<rect width="471.001" height="333.627" fill="white"/>
</clipPath>
</defs>
</svg>
