<svg width="32" height="40" viewBox="0 0 32 40" fill="none" xmlns="http://www.w3.org/2000/svg">
<g clip-path="url(#clip0_1_969)">
<path d="M7.09185 33.4982C6.58627 33.0085 6.00278 32.6047 5.53694 32.0736C5.48447 32.0196 5.43201 31.9671 5.37954 31.9146V31.8765C5.37795 31.8638 5.37795 31.851 5.37795 31.8367C5.35251 31.8367 5.32707 31.8351 5.30004 31.8351C5.27461 31.8033 5.24758 31.7716 5.22214 31.7398C4.7563 31.169 4.28251 30.603 3.9391 29.9464C3.50347 29.1148 3.19503 28.242 3.06625 27.2992C2.8071 25.3738 3.38105 23.6313 4.12988 21.9079C4.31431 21.485 4.62752 21.1209 4.7245 20.6614C4.73404 20.6248 4.7404 20.5867 4.74517 20.5485V20.3863V20.2735C4.74517 18.7901 4.73881 17.3036 4.74676 15.8202C4.74994 15.4195 4.77697 15.0173 4.82149 14.6198C4.88826 14.0347 5.21101 13.6261 5.74998 13.3892C6.00278 12.8821 6.38435 12.5355 6.95671 12.4242C7.07436 12.351 7.26356 12.3701 7.32874 12.2286C7.33033 12.1968 7.33669 12.1618 7.351 12.1205C7.34146 11.0521 7.72781 10.1029 8.22067 9.18557C8.23498 9.16014 8.2477 9.1347 8.26201 9.10926C8.28268 9.10767 8.30335 9.10608 8.3256 9.10131C8.33832 9.07269 8.35104 9.04407 8.36376 9.01546C8.37489 8.99002 8.38602 8.96458 8.39715 8.93914C8.59907 8.7404 8.71513 8.46535 8.95997 8.30636C9.33041 7.81509 9.81692 7.4669 10.3495 7.17595C10.4751 7.10759 10.5928 7.02809 10.7136 6.95178C10.6739 6.58451 10.7613 6.21089 10.658 5.8468C10.2557 4.4159 8.79621 3.70363 7.38439 4.24578C6.61965 4.53832 5.85651 4.83722 5.08382 5.1091C4.47648 5.32373 3.96454 4.94693 3.95023 4.29984C3.94228 3.9294 3.96295 3.55736 3.94546 3.18851C3.92479 2.77037 4.03131 2.34428 3.87709 1.9325C3.84052 3.00567 3.4828 3.5351 2.63062 3.8038C2.48594 3.84831 2.34444 3.84831 2.19976 3.85308V3.93258C2.19976 5.60196 2.19976 7.27135 2.20135 8.94073H2.19976V8.94232V8.95822V9.09972H2.20135C2.21725 9.1188 2.23156 9.13788 2.24428 9.15696C2.3349 9.29846 2.32695 9.4638 2.32695 9.62597C2.32854 13.0395 2.32854 16.4514 2.32695 19.8633C2.32695 20.0223 2.33172 20.1828 2.25381 20.3291C2.2411 20.345 2.22679 20.3593 2.21248 20.3736C2.21248 20.3752 2.21407 20.3768 2.21407 20.3784C2.21566 20.3816 2.21725 20.3848 2.21884 20.3879C2.23951 20.4404 2.2411 20.4929 2.21884 20.5469C2.21725 20.5501 2.21566 20.5549 2.21407 20.5581C2.21407 20.5596 2.21407 20.5596 2.21248 20.5612C2.2252 20.5755 2.23951 20.5914 2.25381 20.6058C2.34762 20.7918 2.32695 20.9937 2.32695 21.1892C2.32854 24.5232 2.32854 27.8557 2.32695 31.1897C2.32695 31.4043 2.36034 31.6316 2.21248 31.8192C2.21407 31.8208 2.21407 31.8224 2.21407 31.8224C2.21725 31.8272 2.21884 31.8304 2.21884 31.8351C2.23474 31.8717 2.23951 31.9083 2.22679 31.9448C2.22679 31.9464 2.22679 31.9464 2.22679 31.9464C2.22202 31.9623 2.21248 31.9782 2.20135 31.9925L2.19976 31.9941C2.16796 33.2422 2.33967 34.4505 3.05989 35.5046C4.07106 36.9832 5.48447 37.7591 7.28741 37.7972C7.31125 36.2121 7.33669 34.6254 7.35577 33.0403C7.35736 32.8988 7.39234 32.7462 7.29536 32.6174C7.29218 32.8797 7.29059 33.1404 7.28423 33.4028C7.27946 33.5475 7.20791 33.6111 7.09185 33.4982Z" fill="#89BCE5"/>
<path d="M3.05989 35.5046C2.33967 34.4505 2.16796 33.2422 2.19976 31.9941C2.19022 31.9926 2.18068 31.9926 2.17114 31.9926C2.16955 31.9941 2.16955 31.9941 2.16796 31.9957C1.97876 32.576 2.10595 33.1675 2.2236 33.7192C2.71329 36.0134 4.4574 37.6208 6.83587 37.891C6.99486 37.9101 7.15544 37.9165 7.2874 37.7972C5.48447 37.7591 4.07106 36.9832 3.05989 35.5046Z" fill="#75ABDC"/>
<path d="M29.3201 36.5524C29.2978 36.5603 29.2756 36.5619 29.2517 36.5587C29.2422 36.5587 29.2326 36.5571 29.2231 36.5555C29.2183 36.5539 29.2152 36.5539 29.2104 36.5524C28.6778 36.1167 28.1945 35.635 27.7715 35.0912C27.6205 34.8973 27.541 34.6747 27.5426 34.4298C27.549 33.4012 27.0799 32.6714 26.1705 32.2088C26.0004 32.1213 25.9607 32.0927 26.0131 32.018C25.9972 32.01 25.9813 32.0037 25.9654 31.9973C25.8875 31.9941 25.8096 31.9925 25.7333 31.9894C25.63 31.8987 25.4646 31.9989 25.3485 31.9464H25.285C25.1927 31.9433 25.0973 31.948 25.0083 31.929H25.0067C24.9447 31.9162 24.8859 31.8924 24.8318 31.8463C24.8207 31.832 24.8128 31.8177 24.8048 31.8034C24.7682 31.7875 24.7333 31.7716 24.6983 31.7557C24.6824 31.7429 24.6681 31.727 24.6569 31.7111C24.6506 31.7048 24.6458 31.6968 24.641 31.6889C24.3103 31.7 24.277 31.417 24.2134 31.1865C24.1625 30.9973 24.1943 30.7938 24.1911 30.5966C24.1911 30.5044 24.1911 30.4122 24.1816 30.32C24.1212 29.7683 23.8159 29.4376 23.3882 29.4614C22.9574 29.4853 22.6394 29.8875 22.6712 30.4313C22.6918 30.7842 22.7348 31.1372 22.7602 31.4917C22.7682 31.5967 22.7936 31.7016 22.7395 31.797C22.7348 31.8097 22.7268 31.8208 22.7173 31.832L22.703 31.8383C22.7268 31.8908 22.7507 31.9401 22.7745 31.991L22.7904 31.9957C22.7904 32.0116 22.7904 32.0259 22.7936 32.0402C22.8047 32.1356 22.8667 32.2088 22.9271 32.274C23.1879 32.5554 23.0496 32.6889 22.7618 32.8082C22.3548 32.9751 21.9478 32.9989 21.5249 32.8845C21.2991 32.8225 21.0797 32.7064 20.838 32.7414C20.4342 32.8002 20.1703 33.0832 20.0971 33.5093C20.0431 33.8257 20.2577 34.2089 20.6139 34.3615C21.3309 34.6683 22.0718 34.7685 22.8477 34.5888C23.5774 34.4203 24.1625 34.0228 24.6856 33.5141C24.6887 33.5109 24.6919 33.5077 24.6951 33.5045L24.6983 33.5188C24.7269 33.5173 24.7555 33.5157 24.7841 33.5141C24.8064 33.5125 24.8287 33.5109 24.8509 33.5093C24.8541 33.5316 24.8573 33.5554 24.8605 33.5777C25.7285 33.5888 25.9352 33.8066 25.9734 34.6811C26.0036 35.3758 26.3406 35.9402 26.8001 36.4363C27.1769 36.8433 27.568 37.2376 27.9528 37.6382C28.2374 37.775 28.3471 38.1407 28.6889 38.2027C28.7128 38.1995 28.7366 38.1979 28.7605 38.1979C28.7827 38.174 28.7986 38.1486 28.8081 38.1184C29.0959 37.9626 29.2883 37.6859 29.549 37.4936C29.7128 37.4379 29.778 37.3012 29.8352 37.1565C29.8193 37.1565 29.8018 37.1549 29.7828 37.1517C29.7732 36.8433 29.4282 36.7892 29.3201 36.5524Z" fill="#C34761"/>
<path d="M26.1705 32.2088C27.0799 32.6714 27.549 33.4012 27.5426 34.4299C27.541 34.6747 27.6205 34.8973 27.7715 35.0913C28.1945 35.635 28.6778 36.1167 29.2104 36.5524C29.2152 36.554 29.2183 36.554 29.2231 36.5556C29.2263 36.5444 29.2295 36.5317 29.2311 36.519C28.9751 36.2535 28.7302 35.9752 28.4616 35.7224C27.9576 35.2487 27.5172 34.7542 27.6316 33.9863C27.6396 33.9386 27.6126 33.8845 27.5998 33.8337C27.3916 32.9433 26.8351 32.3614 26.0131 32.018C25.9607 32.0927 26.0004 32.1213 26.1705 32.2088Z" fill="#C34761"/>
<path d="M8.95996 8.30636C8.97586 8.32703 8.98858 8.34611 8.99812 8.36678C9.09192 8.54802 9.00448 8.75153 9.03628 8.94073C8.97268 8.9757 8.95678 9.03294 8.95837 9.09812C8.96791 9.09812 8.97904 9.09812 8.98858 9.09971C9.00448 9.09971 9.01879 9.1013 9.03469 9.10289C10.0681 9.10289 11.1 9.1013 12.1334 9.09971L12.135 9.09812C12.1366 9.09495 12.1382 9.09017 12.1413 9.087C12.1652 9.0393 12.189 8.9916 12.2129 8.9455C12.2129 8.9455 12.2129 8.9455 12.2113 8.9455L12.2176 8.93755C12.4943 8.48443 12.8123 8.06788 13.2463 7.75149C13.2479 7.72446 13.2479 7.69743 13.2495 7.6704C13.2797 7.6545 13.3115 7.63861 13.3433 7.62271C13.364 7.61158 13.3846 7.60045 13.4053 7.59091C13.4085 7.56547 13.4117 7.54162 13.4132 7.51777C13.8727 7.29996 14.2718 6.97244 14.7535 6.79755C14.8362 6.76894 14.9173 6.69898 15.0015 6.73555C15.0238 6.7435 15.0461 6.7594 15.0699 6.78643C15.2273 6.66559 15.3831 6.54476 15.5389 6.42393C14.8298 6.37782 14.1207 6.39531 13.4117 6.41439C13.4117 6.41439 13.4117 6.41439 13.4117 6.4128C13.3576 6.40326 13.302 6.39531 13.2479 6.38577C13.1128 6.41598 12.9585 6.36192 12.8377 6.46686H12.8361C12.0873 6.44778 11.402 6.71011 10.712 6.95177C10.5912 7.02809 10.4735 7.10758 10.3479 7.17595C9.81691 7.4669 9.33041 7.81508 8.95996 8.30636Z" fill="#F19C79"/>
<path d="M24.8525 37.7941L24.8568 37.7983L24.8539 37.7941H24.8525Z" fill="#D9596B"/>
<path d="M27.9528 37.6382C27.9242 37.6446 27.894 37.6494 27.8654 37.6541L27.8876 37.6764C28.0116 37.7941 28.1293 37.9165 28.2549 38.0309C28.3757 38.1407 28.4822 38.3028 28.6889 38.2027C28.3471 38.1407 28.2374 37.775 27.9528 37.6382Z" fill="#D9596B"/>
<path d="M6.83588 37.8909C4.45741 37.6206 2.7133 36.0132 2.22361 33.719C2.10596 33.1673 1.97877 32.5759 2.16796 31.9956C2.16955 31.994 2.16955 31.994 2.17114 31.9924C2.18068 31.9924 2.19022 31.9924 2.19976 31.994L2.20135 31.9924V31.9638C2.20135 31.9209 2.20135 31.8779 2.19976 31.835C1.92789 31.8541 1.96128 31.6617 1.96128 31.4916V29.0527C1.96128 26.3467 1.95969 23.6391 1.96287 20.9331C1.96287 20.7646 1.88814 20.5325 2.19976 20.5468V20.3878C1.92312 20.4069 1.96128 20.2097 1.96128 20.0412V9.1107C1.9581 9.10752 1.95492 9.10593 1.95174 9.10434C1.91517 9.12342 1.8786 9.14091 1.84045 9.15999C1.82773 9.16635 1.81501 9.17271 1.80229 9.17907C1.81024 9.16794 1.8166 9.1584 1.82614 9.14886C1.87066 9.09321 1.91199 9.08208 1.95174 9.10434C1.95492 9.10275 1.9581 9.10116 1.96128 9.09957C1.98831 9.0471 2.01375 8.99464 2.04077 8.94058H2.0837C2.08847 8.91514 2.08847 8.88812 2.0837 8.8595C2.0837 8.76251 2.08211 8.66553 2.08211 8.56855C2.0837 8.7021 2.09483 8.83247 2.18386 8.94058H2.19976H2.20135C2.19976 7.2712 2.19976 5.60181 2.19976 3.93243C2.13776 3.98172 2.10755 4.04054 2.09165 4.10414C2.09165 4.08188 2.09324 4.05803 2.09324 4.03577C2.09801 4.00079 2.10755 3.96741 2.12027 3.93402C2.12345 3.92289 2.12822 3.91335 2.13299 3.90222C2.13935 3.89268 2.14571 3.88314 2.15207 3.8736C2.15684 3.86724 2.1632 3.86088 2.16796 3.85452C2.24587 3.77026 2.36352 3.76072 2.47004 3.7321C3.2952 3.50316 3.672 3.06117 3.76898 2.21694C3.78011 2.112 3.78011 2.00389 3.8771 1.93235C3.8453 1.09448 2.84208 0.231165 1.79911 0.579351C1.08207 0.73675 0.539918 1.35681 0.535148 2.10723C0.525609 4.38396 0.538328 6.66068 0.541507 8.93899V31.8334V31.9956C0.538328 34.3868 0.536738 36.7796 0.525609 39.1707C0.524019 39.4235 0.619412 39.4887 0.851536 39.476C1.16792 39.4601 1.48431 39.4665 1.80229 39.4633C1.84045 39.414 1.86271 39.3615 1.87384 39.3075C1.89132 39.3631 1.91835 39.414 1.96128 39.4633C3.6402 39.4665 5.31913 39.4649 6.99646 39.4776C7.2572 39.4792 7.30331 39.3679 7.29695 39.1453C7.28423 38.6954 7.29059 38.247 7.28741 37.7971C7.15545 37.9163 6.99487 37.91 6.83588 37.8909ZM2.07893 6.21392C2.08052 6.93573 2.0837 7.65754 2.08211 8.37935C2.07734 7.65754 2.07893 6.93573 2.07893 6.21392ZM1.72121 1.546C1.77526 1.49513 1.83091 1.44266 1.88496 1.39019C1.89768 1.38701 1.90881 1.38383 1.92153 1.38066C2.42553 1.25982 2.91839 1.48718 3.05035 1.91168C3.19821 2.38865 2.96609 2.80838 2.45573 3.01029C2.27926 3.08025 2.12027 3.06435 1.95969 2.98008H1.95333C1.9422 2.98803 1.93266 2.99757 1.92312 3.01029C1.92312 2.99916 1.92312 2.98962 1.91994 2.97849C1.90722 2.9769 1.89609 2.9769 1.88337 2.9769C1.82932 2.92444 1.77526 2.87197 1.72121 2.8211C1.26332 2.42839 1.26332 1.93871 1.72121 1.546ZM1.88178 34.8908C1.87066 34.8908 1.85953 34.8892 1.8484 34.8844C1.8325 34.8796 1.8166 34.8701 1.80229 34.8558H1.8484H1.88178H1.96128C1.93584 34.8796 1.90881 34.8908 1.88178 34.8908Z" fill="#75ABDC"/>
<path d="M3.76897 2.21709C3.67199 3.06132 3.29519 3.50331 2.47003 3.73225C2.36351 3.76087 2.24586 3.77041 2.16795 3.85467C2.17749 3.85467 2.18862 3.85467 2.19975 3.85308C2.34443 3.84831 2.48593 3.84831 2.63061 3.8038C3.48279 3.5351 3.84052 3.00567 3.87709 1.9325C3.7801 2.00404 3.7801 2.11215 3.76897 2.21709Z" fill="#75ABDC"/>
<path d="M2.20053 20.5469H2.19975L2.20053 20.5477V20.5469Z" fill="#8AB6E1"/>
<path d="M27.0163 20.539C26.9877 20.4881 26.9575 20.4372 26.9289 20.3864C26.8892 20.4182 26.8478 20.4388 26.8049 20.4515C26.878 20.4674 26.9496 20.4929 27.0163 20.539Z" fill="#E98291"/>
<path d="M7.26991 32.0132C7.26991 32.0116 7.26832 32.01 7.26832 32.0085C7.24289 32.0069 7.21745 32.0037 7.19201 31.9989C7.17452 31.9719 7.15862 31.9433 7.14113 31.9147C7.12841 31.8924 7.1141 31.8717 7.10139 31.8495C7.05687 31.8256 7.01076 31.8002 6.96465 31.7763C6.94399 31.7557 6.92173 31.735 6.90106 31.7127C5.76429 30.5792 4.8024 29.3231 4.25071 27.7921C4.03608 27.1975 3.8755 26.5885 3.87232 25.9478C3.77693 25.3882 3.81349 24.8317 3.9375 24.28C4.19984 22.9906 4.64024 21.7616 5.22691 20.5851C5.22532 20.5819 5.22373 20.5787 5.22214 20.5756C5.22055 20.5772 5.21896 20.5787 5.21737 20.5803L5.16649 20.7091L5.01068 20.6503C4.93914 20.6598 4.866 20.6598 4.79287 20.6598C4.84851 20.8681 4.69111 21.0319 4.60208 21.202C4.03131 22.2831 3.58932 23.4103 3.31586 24.6043C2.75145 27.0639 3.35402 29.2325 4.90416 31.1785C5.05043 31.3598 5.26506 31.5076 5.29527 31.7636C5.31276 31.77 5.32866 31.7779 5.34456 31.7875C5.36364 31.8002 5.37794 31.8161 5.3843 31.832C5.38589 31.8336 5.38589 31.8352 5.38589 31.8368C5.39066 31.8495 5.39225 31.8622 5.39066 31.8781C5.45744 31.8924 5.51309 31.9321 5.56237 31.983C5.56714 31.9878 5.5735 31.9926 5.57827 31.9989C5.59417 32.0164 5.61166 32.0323 5.62915 32.0482C6.09816 32.5188 6.61647 32.937 7.12841 33.3869C7.2715 33.1246 7.08867 32.8288 7.29535 32.6174C7.29853 32.4632 7.3033 32.3105 7.30648 32.1563C7.25878 32.1086 7.24765 32.0609 7.26991 32.0132Z" fill="#75ABDC"/>
<path d="M7.12842 33.3869C6.61648 32.9369 6.09817 32.5188 5.62915 32.0482C5.59736 32.0561 5.56715 32.0641 5.53694 32.0736C6.00278 32.6046 6.58627 33.0085 7.09185 33.4982C7.20792 33.6111 7.27946 33.5475 7.28423 33.4028C7.29059 33.1404 7.29218 32.8797 7.29536 32.6174C7.08867 32.8288 7.27151 33.1245 7.12842 33.3869Z" fill="#75ABDC"/>
<path d="M7.30648 32.1563C7.29376 32.1086 7.28263 32.0609 7.26991 32.0132C7.24765 32.0609 7.25878 32.1086 7.30648 32.1563Z" fill="#75ABDC"/>
<path d="M1.82614 9.14902C1.8166 9.15855 1.81024 9.16809 1.80229 9.17922C1.81501 9.17286 1.82773 9.1665 1.84045 9.16014C1.87861 9.14107 1.91517 9.12358 1.95174 9.1045C1.91199 9.08224 1.87066 9.09337 1.82614 9.14902Z" fill="#84B3E0"/>
<path d="M1.92312 3.01044C1.93266 2.99772 1.9422 2.98818 1.95332 2.98023C1.9422 2.97864 1.93107 2.97864 1.91994 2.97864C1.92312 2.98977 1.92312 2.99931 1.92312 3.01044Z" fill="#84B3E0"/>
<path d="M2.15207 3.87376C2.14571 3.8833 2.13935 3.89284 2.13299 3.90237C2.12822 3.9135 2.12345 3.92304 2.12027 3.93417C2.14253 3.93099 2.16956 3.93099 2.19976 3.93258V3.85309C2.18864 3.85468 2.17751 3.85468 2.16797 3.85468C2.1632 3.86104 2.15684 3.8674 2.15207 3.87376Z" fill="#84B3E0"/>
<path d="M25.7333 31.9894C25.8096 31.9925 25.8875 31.9941 25.9654 31.9973H26.029C26.0402 31.983 26.0561 31.9655 26.0736 31.9464H25.9018C25.8367 31.9146 25.7603 31.9194 25.6872 31.9162C25.6554 31.9162 25.622 31.9146 25.5902 31.9162C25.6236 31.9194 25.657 31.929 25.6856 31.9464C25.7031 31.9576 25.719 31.9719 25.7333 31.9894Z" fill="#EC7987"/>
<path d="M31.2518 31.9242C31.3281 31.9385 31.3965 31.9767 31.441 32.0736C31.4474 31.9592 31.4585 31.8431 31.3854 31.7414C31.3583 31.8415 31.3106 31.8956 31.2518 31.9242Z" fill="#EC7987"/>
<path d="M1.8484 34.856H1.80229C1.8166 34.8703 1.8325 34.8798 1.8484 34.8846C1.85953 34.8893 1.87066 34.8909 1.88179 34.8909C1.90881 34.8909 1.93584 34.8798 1.96128 34.856H1.88179H1.8484Z" fill="#82B2E0"/>
<path d="M1.80229 39.4635H1.96128C1.91835 39.4142 1.89133 39.3633 1.87384 39.3076C1.86271 39.3617 1.84045 39.4142 1.80229 39.4635Z" fill="#82B2E0"/>
<path d="M13.162 35.9752C13.2463 36.0197 13.329 36.0658 13.4133 36.1104C13.3608 36.0452 13.3242 35.972 13.3099 35.8925C13.2876 35.9323 13.2431 35.9625 13.162 35.9752Z" fill="#DA7385"/>
<path d="M13.4053 33.503C13.3735 33.4855 13.3401 33.4696 13.3083 33.4537C13.321 33.4918 13.3274 33.53 13.3274 33.5697V33.6667C13.329 33.6492 13.3306 33.6302 13.3322 33.6127C13.3592 33.5713 13.3862 33.5411 13.4133 33.5204V33.5093V33.5077H13.4117C13.4117 33.5061 13.4053 33.503 13.4053 33.503Z" fill="#DA7385"/>
<path d="M8.96474 14.3559C8.96315 14.3559 8.96156 14.3543 8.95997 14.3543C8.95838 14.3607 8.95838 14.3686 8.95679 14.375C8.95679 14.3734 8.95679 14.3734 8.95679 14.3718C8.95997 14.367 8.96315 14.3607 8.96474 14.3559Z" fill="#F06977"/>
<path d="M31.441 32.0736C31.3965 31.9766 31.3281 31.9385 31.2518 31.9242C31.3106 31.8956 31.3583 31.8415 31.3854 31.7413C31.3854 31.5696 31.371 31.4011 31.3218 31.2326C30.6572 28.9574 29.8384 26.7364 28.9226 24.5519C28.3487 23.1846 27.7334 21.8379 27.0163 20.539C26.9496 20.4929 26.878 20.4674 26.8049 20.4515C26.8478 20.4388 26.8892 20.4181 26.9289 20.3863C26.3581 19.2432 25.6824 18.1637 24.9304 17.1318C24.9066 17.073 24.8827 17.0158 24.8589 16.957C24.8064 16.9061 24.7539 16.8536 24.7015 16.8027C24.6776 16.7503 24.6538 16.6978 24.6299 16.6469C24.6156 16.4911 24.5043 16.3894 24.4216 16.2717C23.8636 15.472 23.1418 14.8217 22.4422 14.1572C21.8556 13.5975 21.1687 13.1619 20.4262 12.8296C20.2975 12.7708 20.1432 12.6484 20.0017 12.7644C20.0033 12.7644 20.0033 12.766 20.0049 12.766C20.0065 13.4131 20.0272 14.0618 20.0033 14.7073C19.927 16.8059 20.4008 18.7297 21.7522 20.3848C21.7808 20.3863 21.8079 20.3879 21.8349 20.3911C21.8365 20.3911 21.8365 20.3911 21.8381 20.3911C21.8365 20.3927 21.8365 20.3927 21.8365 20.3943C21.8619 20.442 21.8874 20.4929 21.9128 20.5422L21.916 20.5501V20.5517C21.9319 20.5692 21.9446 20.5883 21.9589 20.6058C22.1465 20.8474 22.3278 21.0923 22.4867 21.3546C22.7364 21.7632 22.5472 22.0684 22.2196 22.3451C21.9223 22.5979 21.4947 22.5995 21.2037 22.3356C20.6345 21.8172 20.1687 21.2099 19.7728 20.5517C19.7442 20.5485 19.7156 20.5453 19.6885 20.5422C19.6695 20.5119 19.6583 20.4833 19.6567 20.4547C19.6218 20.4468 19.5852 20.442 19.5502 20.4404H19.5264C19.5502 20.4293 19.5725 20.4166 19.5947 20.3959C19.5868 20.3927 19.5804 20.3879 19.5725 20.3832C19.5661 20.38 19.5613 20.3752 19.555 20.3704C19.0192 19.6407 18.7759 18.7837 18.5518 17.9284C18.2735 16.86 18.2036 15.7645 18.2195 14.6627C18.229 14.0538 18.2179 13.4449 18.2227 12.836C18.2242 12.6674 18.1988 12.4878 18.3403 12.351C18.3387 12.1269 18.3355 11.9027 18.3371 11.6785C18.3435 10.9821 18.6281 10.6848 19.3149 10.6785C20.0669 10.6705 20.8205 10.6848 21.5726 10.6689C22.8445 10.6435 23.7253 10.0855 24.0766 9.10449C24.0973 9.10449 24.1164 9.1029 24.1355 9.09813C24.137 9.04566 24.137 8.99161 24.137 8.93914C24.7269 7.21411 23.517 5.58765 21.6377 5.58606C20.5805 5.58447 19.5232 5.59878 18.4659 5.59083C17.407 5.58129 16.4293 5.84044 15.5405 6.42234C15.3847 6.54318 15.2289 6.66401 15.0715 6.78484C14.3386 7.33653 13.8934 8.09332 13.5659 8.92801C13.5675 8.93278 13.5706 8.93596 13.5738 8.94073V8.94232C13.5786 8.95186 13.585 8.9614 13.5913 8.97094C13.612 9.01068 13.6152 9.05361 13.6072 9.09813C13.6056 9.10449 13.604 9.11085 13.6024 9.1188C13.6008 9.12198 13.5993 9.12357 13.5993 9.12675C13.4848 9.35569 13.5325 9.61166 13.4768 9.85015C13.4339 9.98688 13.4498 10.13 13.4276 10.2683C13.4196 10.3192 13.4196 10.378 13.4053 10.4273V9.81517C13.2193 10.0234 13.4355 10.3192 13.2558 10.5306H13.2543C13.2543 10.5322 13.2543 10.5322 13.2527 10.5338C13.2495 11.4575 13.2447 12.3813 13.2399 13.305V13.332C13.2463 13.6436 13.2527 13.9568 13.259 14.2669V14.2859C13.259 15.3861 13.259 16.4879 13.2606 17.5881V17.6072C13.2527 18.0826 13.2463 18.5596 13.2399 19.0365C13.2209 19.2273 13.1891 19.4117 13.135 19.5819C13.0476 19.8601 12.8981 20.1033 12.6326 20.2766C12.5786 20.3132 12.5181 20.345 12.4529 20.3752C12.4275 20.3816 12.4021 20.3879 12.3766 20.3927C12.3242 20.4436 12.2717 20.4945 12.2192 20.5437C12.2192 20.5453 12.2208 20.5469 12.2208 20.5469H12.2161C12.1843 20.5517 12.154 20.5565 12.1223 20.5612H12.1207C11.8567 20.8124 11.4863 20.7298 11.1858 20.8633C11.1842 20.8426 11.1826 20.8236 11.1794 20.8029C11.1794 20.7997 11.1779 20.7949 11.1779 20.7918C11.022 20.7902 10.8646 20.7886 10.7088 20.787C10.499 20.8124 10.3225 20.7218 10.1508 20.6232C10.0697 20.5962 9.99021 20.5692 9.91071 20.5422V20.4738V20.469C9.91071 20.4436 9.91071 20.4181 9.90912 20.3911C9.88369 20.3863 9.85666 20.38 9.82963 20.3752H9.74696C9.71834 20.3545 9.68972 20.3307 9.6611 20.3069H9.65951C9.20003 19.9205 8.93929 19.4245 8.92657 18.7885C8.92657 17.9586 8.9218 17.1271 8.92816 16.2987C8.9377 16.2844 8.94724 16.2701 8.95678 16.2542C8.95678 16.9903 8.9536 17.7281 8.95837 18.4642C8.95996 18.6025 8.9059 18.7567 9.0331 18.8744C9.0331 17.9745 9.0331 17.0762 9.0331 16.1763C9.03151 16.1779 9.02992 16.1795 9.02992 16.1795C9.03151 16.1779 9.03151 16.1763 9.0331 16.1747C9.03468 16.1223 9.03628 16.0682 9.03787 16.0157V15.8933V15.631V15.6199C8.83277 15.1969 9.05376 14.7709 9.02833 14.3464C9.02833 14.3464 9.02833 14.3464 9.02674 14.3464C9.00766 14.3464 8.98858 14.3448 8.97109 14.3432C8.9695 14.3479 8.96791 14.3511 8.96473 14.3559C8.96155 14.3607 8.95996 14.367 8.95837 14.3718C8.95837 14.375 8.95837 14.3766 8.95678 14.3797C8.93929 14.5276 8.90113 14.6755 8.87411 14.8233C8.87093 14.8392 8.86934 14.8535 8.86616 14.8694C8.86775 14.8631 8.86775 14.8567 8.86934 14.8504C8.87093 14.8424 8.87252 14.8345 8.87252 14.8281C8.78189 15.1508 8.60859 15.4227 8.22066 15.5642C8.1825 15.5547 8.15707 15.5356 8.1364 15.5086C8.1364 15.5102 8.13481 15.5102 8.13481 15.5117C8.13004 15.5213 8.12368 15.5292 8.11891 15.5372C8.11732 15.5404 8.11414 15.5451 8.11255 15.5483C8.11096 15.5515 8.10778 15.5547 8.10619 15.5563C8.10142 15.5626 8.09665 15.5706 8.09188 15.5769C8.09029 15.5801 8.08711 15.5833 8.08552 15.5865C8.07916 15.5928 8.0728 15.5992 8.06644 15.604C8.06167 15.6071 8.05849 15.6119 8.05372 15.6151C8.041 15.6262 8.0267 15.6342 8.0108 15.6389C7.96787 15.658 7.91381 15.6532 7.84545 15.6183C7.79139 15.6437 7.73733 15.6707 7.68328 15.6962C7.57676 15.8281 7.4289 15.7582 7.29852 15.7788C7.29535 15.7788 7.29217 15.7804 7.28899 15.7804C7.28899 16.0952 7.29058 16.4116 7.29058 16.728C7.29058 16.7296 7.29058 16.7296 7.29058 16.7312H7.2874C7.2874 16.7375 7.2874 16.7423 7.28899 16.7487C7.3033 16.7566 7.31919 16.7614 7.33509 16.7678C7.44321 17.4403 7.48136 18.108 7.12205 18.7265C6.82474 19.2353 6.71822 19.8299 6.4066 20.3307C6.39706 20.3466 6.38752 20.3609 6.37798 20.3768C6.37639 20.3784 6.3748 20.38 6.37321 20.38C6.343 20.4038 6.3112 20.4102 6.27623 20.4007C6.2953 20.4388 6.29689 20.4786 6.281 20.5215C6.281 20.5278 6.27941 20.5342 6.27623 20.5406C6.27464 20.5453 6.27305 20.5485 6.27146 20.5533C6.25079 20.5724 6.23012 20.5883 6.20627 20.6026C6.25715 20.7107 6.21581 20.822 6.17606 20.9237C5.73407 22.0732 5.57985 23.264 5.65935 24.4883C5.66253 24.5232 5.65935 24.5566 5.65299 24.5884C6.49881 24.8539 7.32555 25.1703 8.24133 25.1369C8.9536 25.1115 9.44488 24.8031 9.74219 24.1671C9.80419 24.0351 9.85825 23.9 9.93456 23.776C10.181 23.3785 10.677 23.202 11.1095 23.3563C11.5181 23.5025 11.7311 23.8952 11.6675 24.3801C11.6342 24.6329 11.534 24.8651 11.41 25.0829C11.2844 25.3055 11.3496 25.4136 11.5817 25.4867C11.9585 25.6044 12.3496 25.6839 12.701 25.8794C12.887 25.9828 13.0476 26.1036 13.1589 26.2737C13.1922 26.323 13.2193 26.3755 13.2431 26.4327C13.2447 26.4581 13.2495 26.4804 13.2574 26.5058C13.2717 26.4979 13.2845 26.4963 13.2956 26.4995C13.3306 26.5042 13.3512 26.5456 13.3624 26.6012C13.383 26.6998 13.3401 26.8095 13.4053 26.9017C13.2765 26.8175 13.3687 26.6521 13.2956 26.5472V27.199C13.2765 27.1704 13.2574 27.1513 13.2399 27.1402C13.2384 27.1386 13.2384 27.1386 13.2384 27.1386C12.86 27.6108 12.41 27.7221 11.8377 27.4836C11.2907 27.2547 10.7088 27.1068 10.1556 26.8906C9.76921 26.7395 9.42103 26.7189 9.01561 26.8604C8.26359 27.1211 7.50362 26.9637 6.75796 26.7634C6.62123 26.7284 6.48291 26.6982 6.34459 26.6648C6.4066 27.0623 6.63236 27.3914 6.83905 27.7221C7.64671 29.0099 8.71194 30.064 9.86779 31.0386C10.1397 31.266 10.4894 31.4202 10.6659 31.7525C10.7136 31.77 10.7534 31.797 10.7867 31.8367H10.7915C10.7899 31.8383 10.7899 31.8383 10.7899 31.8383V31.8399C10.8074 31.8558 10.8233 31.8733 10.8408 31.8892C10.8742 31.8908 10.9076 31.8956 10.941 31.9035C10.9934 31.9337 11.0443 31.9655 11.0968 31.9957C11.1254 32.0132 11.154 32.0291 11.181 32.0466H11.1826C11.1842 32.0482 11.1842 32.0482 11.1858 32.0482C11.8806 32.4616 12.5754 32.8733 13.2161 33.3694C13.2272 33.3757 13.2384 33.3853 13.2479 33.3932C13.2574 33.3996 13.267 33.4075 13.2765 33.4155C13.3178 33.4044 13.3528 33.4219 13.3846 33.4489C13.3878 33.4521 13.3894 33.4537 13.3926 33.4568C13.3958 33.468 13.4005 33.4775 13.4053 33.487C13.4069 33.4934 13.4101 33.4998 13.4132 33.5061V33.5077C13.4164 33.5093 13.4196 33.5109 13.4228 33.5125C13.5532 33.4234 13.6835 33.5538 13.8044 33.6158C15.2591 34.3774 16.725 35.1167 18.264 35.6906C20.2704 36.4395 22.2626 37.2439 24.3867 37.6255C24.5059 37.6462 24.6188 37.6828 24.6983 37.7686C24.7015 37.7718 24.7046 37.775 24.7078 37.7797C24.7476 37.7352 24.7714 37.6891 24.7857 37.6382C24.7937 37.6907 24.8112 37.74 24.8493 37.7861C24.8509 37.7845 24.8525 37.7829 24.8541 37.7813C24.9908 37.6684 25.1593 37.678 25.3215 37.6748C26.0735 37.6637 26.8271 37.7114 27.5728 37.5667C27.6428 37.5524 27.7111 37.5508 27.7779 37.5651C27.444 37.2281 27.1006 36.8989 26.7747 36.5555C26.2357 35.9832 25.8843 35.3297 25.8605 34.5173C25.843 33.9465 25.6602 33.77 25.0814 33.6778C25.0019 33.6651 24.9225 33.6556 24.8604 33.611C24.8541 33.6063 24.8477 33.6015 24.8414 33.5952C24.8143 33.6254 24.7984 33.6587 24.7889 33.6953C24.7746 33.6349 24.7492 33.5761 24.7031 33.5236C24.7015 33.522 24.6999 33.522 24.6983 33.5204C24.6935 33.5188 24.6903 33.5157 24.6856 33.5125C24.1625 34.0212 23.5774 34.4187 22.8476 34.5872C22.0718 34.7669 21.3309 34.6667 20.6139 34.3599C20.2577 34.2073 20.0431 33.8241 20.0971 33.5077C20.1703 33.0816 20.4342 32.7986 20.838 32.7398C21.0797 32.7048 21.2991 32.8209 21.5249 32.8829C21.9478 32.9974 22.3548 32.9735 22.7618 32.8066C23.0496 32.6873 23.1879 32.5538 22.9271 32.2724C22.8667 32.2072 22.8047 32.134 22.7936 32.0386C22.7888 32.0371 22.7841 32.0339 22.7793 32.0307C22.7634 32.018 22.7491 32.0037 22.7364 31.9894H22.7745C22.7507 31.9385 22.7268 31.8892 22.703 31.8367L22.7173 31.8304C22.7157 31.8272 22.7157 31.8224 22.7141 31.8192C22.5821 31.3773 22.6298 30.9162 22.5662 30.4662C22.5138 30.0958 22.6076 29.7174 22.9526 29.4932C23.5647 29.0974 24.234 29.4916 24.2929 30.2771C24.3119 30.5394 24.2944 30.8033 24.2992 31.0672C24.3024 31.3264 24.393 31.5362 24.6236 31.6555C24.6442 31.6666 24.6665 31.6762 24.6887 31.6857C24.6887 31.6936 24.6903 31.7032 24.6919 31.7111C24.7237 31.7159 24.7523 31.727 24.7778 31.7445H24.7794C24.808 31.7636 24.8318 31.789 24.8525 31.8224C24.986 31.8272 25.1196 31.8304 25.2532 31.8351C25.3072 31.9051 25.3803 31.913 25.4583 31.913C25.4932 31.913 25.5234 31.9099 25.5568 31.9146H25.5902C25.622 31.913 25.6554 31.9146 25.6872 31.9146C25.7603 31.9178 25.8366 31.913 25.9018 31.9448H26.0735C26.056 31.9639 26.0401 31.9814 26.029 31.9957C26.0227 32.0037 26.0163 32.01 26.0131 32.0164C26.8351 32.3598 27.3916 32.9417 27.5998 33.832C27.6125 33.8829 27.6396 33.937 27.6316 33.9847C27.5172 34.7526 27.9576 35.247 28.4616 35.7208C28.7302 35.9736 28.9751 36.2519 29.2311 36.5174C29.2565 36.5205 29.2819 36.5221 29.3074 36.5221C29.5856 36.0181 30.0657 36.1326 30.5093 36.131C30.4966 36.1517 30.4855 36.174 30.4728 36.1946C30.5109 36.1787 30.5427 36.1549 30.5666 36.1215C31.2486 34.8575 31.5889 33.5172 31.441 32.0736ZM21.1226 6.56543C21.749 6.34126 22.3866 6.40327 22.889 6.89454C23.3024 7.29837 23.509 7.80078 23.3803 8.39858C23.3405 8.57823 23.3024 8.7563 23.2626 8.93596H23.2578C23.2356 8.93914 23.2117 8.94232 23.1879 8.9455C23.1879 8.99638 23.1863 9.04725 23.1863 9.09813H23.1672C23.145 9.09972 23.1243 9.09972 23.1036 9.10131C22.3945 9.99165 21.2307 10.0568 20.4533 9.24758C20.4199 9.21419 20.4199 9.15059 20.404 9.10131C20.3785 9.09972 20.3515 9.09813 20.3261 9.09654H20.3213C20.2959 9.04566 20.2704 8.99479 20.245 8.94232V8.93914H20.2243C20.2291 8.93278 20.2339 8.92801 20.2371 8.92165C19.7633 7.85801 20.1989 6.89772 21.1226 6.56543ZM8.90908 15.4799C8.90749 15.4752 8.90431 15.4688 8.90113 15.464C8.90431 15.4688 8.90749 15.4736 8.90908 15.4799ZM8.86298 15.3432C8.86139 15.3353 8.8598 15.3273 8.85821 15.321C8.8598 15.3289 8.86139 15.3353 8.86298 15.3432ZM13.4053 30.4042H13.2527V30.3899C13.2574 30.3852 13.2622 30.3836 13.2686 30.382C13.2972 30.3391 13.3115 30.2945 13.3194 30.2468C13.3337 30.2945 13.3544 30.3406 13.3894 30.3836C13.3958 30.3852 13.4005 30.3883 13.4053 30.3915V30.4042ZM13.2956 23.5979C13.2813 23.5947 13.267 23.59 13.2543 23.582C13.2511 23.5804 13.2479 23.5773 13.2447 23.5757C13.2479 23.5725 13.2511 23.5693 13.2543 23.5661H13.2956H13.4037C13.3655 23.5932 13.329 23.6043 13.2956 23.5979ZM15.7933 20.5422V20.4674V20.434V20.3927C15.806 20.4054 15.8156 20.4197 15.8203 20.434C15.8251 20.4452 15.8283 20.4563 15.8283 20.4674C15.8283 20.4929 15.8156 20.5183 15.7933 20.5422ZM26.5775 28.2197C26.3295 28.5059 25.8128 28.5377 25.4726 28.2801C25.2659 28.1212 25.0655 27.9558 24.862 27.7921C24.8589 27.7921 24.8573 27.7936 24.8541 27.7952V27.7857C24.8509 27.7825 24.8477 27.7793 24.8446 27.7746H24.843C24.7969 27.7523 24.7492 27.7316 24.7031 27.7094C24.7031 27.7094 24.7015 27.7094 24.6999 27.711C24.6999 27.7094 24.6999 27.7094 24.6999 27.7078L24.6935 27.6919C24.6872 27.6887 24.6824 27.6871 24.676 27.6839C23.8461 27.2881 22.9383 27.2276 22.0559 27.0671C21.5773 26.9796 21.0956 26.9065 20.6377 26.7348C20.2386 26.5853 19.9684 26.199 20.0208 25.8651C20.094 25.4136 20.4135 25.1147 20.881 25.0797C21.9843 24.9954 22.9017 24.5582 23.6124 23.6901C23.8827 23.361 24.242 23.3404 24.6156 23.4612C24.641 23.4691 24.6681 23.4787 24.6951 23.4882C24.6983 23.5121 24.7015 23.5359 24.7062 23.5598C24.7269 23.5614 24.7476 23.5629 24.7666 23.5629C24.7953 23.5661 24.8239 23.5677 24.8525 23.5693C24.8541 23.5963 24.8557 23.625 24.8589 23.652C25.1975 24.0844 25.1975 24.3992 24.8589 24.8317C24.8573 24.8603 24.8557 24.8873 24.8525 24.9159C24.8223 24.9318 24.7921 24.9477 24.7619 24.9636C24.7412 24.9748 24.7189 24.9859 24.6983 24.997C24.6983 24.9986 24.6983 24.9986 24.6983 25.0002C24.6935 25.0209 24.6887 25.0447 24.6872 25.067C24.6903 25.3341 24.6935 25.6012 24.6983 25.8683V25.8715V25.8731C24.7253 25.8746 24.7523 25.8746 24.7794 25.8746C24.8048 25.8746 24.8287 25.8762 24.8525 25.8762C24.8541 25.9017 24.8557 25.9287 24.8589 25.9541C25.5377 26.1497 26.0799 26.5647 26.5759 27.0432C26.913 27.3707 26.8987 27.8477 26.5775 28.2197Z" fill="#F06977"/>
<path d="M25.0926 27.8573C25.2484 27.9797 25.3947 28.1132 25.5616 28.2198C25.8955 28.4312 26.2977 28.3819 26.5267 28.1037C26.789 27.7841 26.781 27.4137 26.4869 27.1037C26.1006 26.6998 25.6475 26.3866 25.1371 26.1545C25.0401 26.11 24.9368 26.0734 24.8589 25.9987C24.8557 25.9955 24.8509 25.9907 24.8477 25.9875C24.835 25.9732 24.8207 25.9589 24.8096 25.9414C24.7969 25.9208 24.7873 25.8985 24.7794 25.8747C24.7523 25.8747 24.7253 25.8747 24.6983 25.8731V25.8715H24.6967L24.6919 25.8667C24.4948 25.8095 24.2976 25.7522 24.0719 25.6886C24.0798 25.7093 24.0512 25.695 24.0528 25.6823C24.0369 25.6775 24.021 25.6727 24.0035 25.668C24.2213 25.4613 24.3724 25.2212 24.6236 25.0956C24.6395 25.0575 24.6617 25.0257 24.6951 25.0002C24.6967 24.9986 24.6967 24.9986 24.6983 24.997C24.719 24.9859 24.7412 24.9748 24.7619 24.9637C24.7651 24.9255 24.7746 24.8889 24.7857 24.854C24.8032 24.8285 24.8191 24.8047 24.835 24.7792V24.7776C24.8446 24.7633 24.8525 24.749 24.8589 24.7363C25.0433 24.404 25.021 24.0749 24.8589 23.7458C24.8525 23.7315 24.8446 23.7172 24.8366 23.7045C24.8191 23.6695 24.8 23.6361 24.7794 23.6011C24.7539 23.6043 24.7301 23.5995 24.7062 23.5868C24.7031 23.5852 24.6999 23.5836 24.6967 23.5805C24.684 23.5725 24.6713 23.5614 24.6585 23.5487C24.6506 23.5359 24.6426 23.5232 24.6363 23.5105C24.5266 23.5439 24.4137 23.5184 24.304 23.5137C24.0464 23.5057 23.8397 23.5979 23.6728 23.7919C22.9669 24.6155 22.0686 25.0686 20.9907 25.1767C20.8985 25.1862 20.8062 25.1958 20.7172 25.2228C20.3897 25.3166 20.1941 25.5344 20.1512 25.8683C20.1067 26.2022 20.2927 26.4279 20.5662 26.5726C20.8841 26.7427 21.2355 26.8222 21.5901 26.8779C22.296 26.9908 23.0035 27.1021 23.7014 27.2531C24.0305 27.3262 24.393 27.3549 24.6426 27.6299C24.6601 27.649 24.6776 27.6697 24.6935 27.6919L24.6999 27.7078C24.7015 27.7078 24.7015 27.7094 24.7031 27.7094C24.7349 27.6903 24.7682 27.6935 24.8016 27.7221H24.8032C24.8207 27.7364 24.8366 27.7555 24.8541 27.7794V27.7857C24.8573 27.7873 24.8589 27.7905 24.8621 27.7921C24.9256 27.7571 25.0067 27.7921 25.0926 27.8573Z" fill="#C34761"/>
<path d="M24.8589 25.9542V25.9987C24.9368 26.0734 25.0401 26.11 25.1371 26.1545C25.6474 26.3866 26.1006 26.6998 26.4869 27.1037C26.781 27.4137 26.789 27.7841 26.5266 28.1037C26.2977 28.3819 25.8955 28.4312 25.5616 28.2198C25.3946 28.1132 25.2484 27.9797 25.0926 27.8573C25.0067 27.7921 24.9256 27.7571 24.862 27.7921C25.0655 27.9558 25.2659 28.1212 25.4726 28.2802C25.8128 28.5377 26.3295 28.5059 26.5775 28.2198C26.8987 27.8477 26.913 27.3708 26.5759 27.0432C26.0799 26.5647 25.5377 26.1497 24.8589 25.9542Z" fill="#C34761"/>
<path d="M24.8318 31.8463C24.8859 31.8924 24.9447 31.9162 25.0067 31.9289H25.0083C25.0973 31.948 25.1927 31.9433 25.285 31.9464H25.3486C25.4646 31.9989 25.63 31.8987 25.7333 31.9894C25.719 31.9719 25.7031 31.9576 25.6856 31.9464C25.657 31.9289 25.6236 31.9194 25.5902 31.9162H25.5568C25.5234 31.9115 25.4932 31.9146 25.4583 31.9146C25.3803 31.9146 25.3072 31.9067 25.2532 31.8367C25.1196 31.832 24.9861 31.8288 24.8525 31.824C24.8366 31.8177 24.8207 31.8097 24.8048 31.8033C24.8128 31.8177 24.8207 31.832 24.8318 31.8463Z" fill="#C66179"/>
<path d="M24.8048 31.8034C24.8207 31.8097 24.8366 31.8177 24.8525 31.824C24.8318 31.7906 24.808 31.7652 24.7794 31.7461H24.7778C24.7523 31.7286 24.7237 31.7175 24.6919 31.7127C24.6935 31.727 24.6967 31.7414 24.6983 31.7557C24.7333 31.7716 24.7682 31.7875 24.8048 31.8034Z" fill="#EB7E8D"/>
<path d="M24.8446 27.7746C24.8477 27.7793 24.8509 27.7825 24.8541 27.7857V27.7793C24.8509 27.7777 24.8477 27.7762 24.8446 27.7746Z" fill="#EB7E8D"/>
<path d="M24.8032 27.7221H24.8016C24.7682 27.6935 24.7349 27.6903 24.7031 27.7094C24.7492 27.7316 24.7969 27.7523 24.843 27.7746H24.8446C24.8477 27.7762 24.8509 27.7777 24.8541 27.7793C24.8366 27.7555 24.8207 27.7364 24.8032 27.7221Z" fill="#C7667D"/>
<path d="M24.8477 25.9875C24.8509 25.9907 24.8557 25.9955 24.8589 25.9987V25.9542C24.8557 25.9287 24.8541 25.9017 24.8525 25.8763C24.8287 25.8763 24.8048 25.8747 24.7794 25.8747C24.7873 25.8985 24.7969 25.9208 24.8096 25.9414C24.8207 25.9589 24.835 25.9732 24.8477 25.9875Z" fill="#C7667D"/>
<path d="M24.8589 24.7363V24.8317C25.1975 24.3992 25.1975 24.0844 24.8589 23.652V23.7458C25.021 24.0749 25.0433 24.404 24.8589 24.7363Z" fill="#C54962"/>
<path d="M24.7794 23.6011C24.8 23.6361 24.8191 23.6695 24.8366 23.7045C24.8446 23.7172 24.8525 23.7315 24.8589 23.7458V23.652C24.8557 23.625 24.8541 23.5964 24.8525 23.5693C24.8239 23.5677 24.7953 23.5661 24.7667 23.563C24.7476 23.563 24.7269 23.5614 24.7062 23.5598V23.5868C24.7301 23.5995 24.7539 23.6043 24.7794 23.6011Z" fill="#C8687F"/>
<path d="M24.835 24.7776V24.7792C24.8191 24.8047 24.8032 24.8285 24.7857 24.8539C24.7746 24.8889 24.7651 24.9255 24.7619 24.9637C24.7921 24.9478 24.8223 24.9319 24.8525 24.916C24.8557 24.8873 24.8573 24.8603 24.8589 24.8317V24.7363C24.8525 24.749 24.8446 24.7633 24.835 24.7776Z" fill="#C8687F"/>
<path d="M2.08209 8.37951C2.08368 7.6577 2.0805 6.93589 2.07891 6.21408C2.07891 6.93589 2.07732 7.6577 2.08209 8.37951Z" fill="#75ABDC"/>
<path d="M2.08209 8.5687C2.08209 8.66568 2.08368 8.76266 2.08368 8.85965C2.08845 8.88826 2.08845 8.91529 2.08368 8.94073H2.18385C2.09481 8.83262 2.08368 8.70225 2.08209 8.5687Z" fill="#75ABDC"/>
<path d="M2.09323 4.03594C2.09323 4.05819 2.09164 4.08204 2.09164 4.1043C2.10754 4.04071 2.13775 3.98188 2.19976 3.93259C2.16955 3.931 2.14252 3.931 2.12026 3.93418C2.10754 3.96757 2.098 4.00096 2.09323 4.03594Z" fill="#75ABDC"/>
<path d="M8.95838 9.09813C8.95679 9.03295 8.97269 8.97412 9.03629 8.94073C9.00449 8.75154 9.09193 8.54803 8.99813 8.36678C8.98859 8.34611 8.97587 8.32703 8.95997 8.30637C8.71513 8.46535 8.59907 8.74041 8.39715 8.93914C8.38602 8.96458 8.37489 8.99002 8.36376 9.01546C8.35105 9.04408 8.33833 9.07269 8.32561 9.10131H8.36694C8.5625 9.09972 8.76124 9.09972 8.95838 9.09813Z" fill="#DD8E70"/>
<path d="M13.4117 33.5077H13.4133C13.4101 33.5014 13.4069 33.495 13.4053 33.4886V33.503C13.4053 33.503 13.4117 33.5061 13.4117 33.5077Z" fill="#F06977"/>
<path d="M22.7745 31.991H22.7364C22.7491 32.0053 22.7634 32.0196 22.7793 32.0323C22.7841 32.0355 22.7888 32.0387 22.7936 32.0403C22.7904 32.0259 22.7904 32.0116 22.7904 31.9957L22.7745 31.991Z" fill="#F06977"/>
<path d="M24.6951 33.5045C24.6919 33.5077 24.6888 33.5109 24.6856 33.5141C24.6903 33.5173 24.6935 33.5204 24.6983 33.522C24.6983 33.5204 24.6983 33.5204 24.6983 33.5189L24.6951 33.5045Z" fill="#F06977"/>
<path d="M24.6951 37.7973L24.6983 37.7925V37.7702C24.6188 37.6844 24.5059 37.6478 24.3867 37.6271C22.2626 37.2456 20.2704 36.4411 18.264 35.6922C16.725 35.1183 15.2591 34.379 13.8044 33.6174C13.6835 33.5554 13.5532 33.4251 13.4228 33.5141C14.7933 34.282 16.1971 34.9879 17.6583 35.5619C19.9525 36.4617 22.2483 37.3759 24.6951 37.7973Z" fill="#F06977"/>
<path d="M2.19975 31.8351C2.20134 31.8781 2.20134 31.921 2.20134 31.9639V31.9925C2.21247 31.9782 2.22201 31.9623 2.22678 31.9464C2.22678 31.9464 2.22678 31.9464 2.22678 31.9448C2.2395 31.9083 2.23473 31.8717 2.21883 31.8351H2.20134H2.19975Z" fill="#98C2E8"/>
<path d="M5.37953 31.8765V31.9146C5.432 31.9671 5.48447 32.0196 5.53693 32.0736C5.56714 32.0641 5.59735 32.0561 5.62915 32.0482C5.61166 32.0323 5.59417 32.0164 5.57827 31.9989C5.5735 31.9925 5.56714 31.9878 5.56237 31.983C5.51309 31.9321 5.45744 31.8924 5.39066 31.8781C5.39225 31.8622 5.39066 31.8495 5.38589 31.8367H5.37794C5.37794 31.851 5.37794 31.8638 5.37953 31.8765Z" fill="#8DB5DF"/>
<path d="M29.2517 36.5587C29.2756 36.5619 29.2978 36.5603 29.3201 36.5524C29.3153 36.5444 29.3106 36.5333 29.3074 36.5238C29.2819 36.5238 29.2565 36.5222 29.2311 36.519C29.2295 36.5317 29.2263 36.5444 29.2231 36.5555C29.2327 36.5571 29.2422 36.5587 29.2517 36.5587Z" fill="#B8506A"/>
<path d="M29.3074 36.5237C29.3106 36.5333 29.3153 36.5444 29.3201 36.5524C29.4282 36.7893 29.7732 36.8433 29.7828 37.1517C29.8018 37.1549 29.8193 37.1565 29.8352 37.1565C30.0276 37.1581 30.053 36.988 30.1007 36.8433C30.2232 36.6271 30.3488 36.4124 30.4728 36.1962C30.4855 36.1756 30.4966 36.1533 30.5093 36.1326C30.0658 36.1342 29.5856 36.0197 29.3074 36.5237Z" fill="#DE6B7D"/>
<path d="M11.0236 31.9973H11.0968C11.0443 31.9671 10.9934 31.9353 10.941 31.9051C10.9076 31.8972 10.8742 31.8924 10.8408 31.8908C10.8758 31.9242 10.9092 31.9576 10.9441 31.991C10.9696 31.9942 10.9966 31.9957 11.0236 31.9973Z" fill="#EA8291"/>
<path d="M13.2511 33.425L13.3083 33.4537C13.3401 33.4696 13.3735 33.4855 13.4053 33.503V33.4886C13.4005 33.4791 13.3958 33.4696 13.3926 33.4584C13.3894 33.4553 13.3878 33.4537 13.3846 33.4505C13.3528 33.4235 13.3179 33.406 13.2765 33.4171C13.267 33.4091 13.2574 33.4012 13.2479 33.3948V33.425H13.2511Z" fill="#EA8291"/>
<path d="M13.2479 33.425V33.3948C13.2384 33.3869 13.2272 33.3773 13.2161 33.371C12.5754 32.8749 11.8806 32.4632 11.1858 32.0498C11.1842 32.0498 11.1842 32.0498 11.1826 32.0482H11.181C11.154 32.0307 11.1254 32.0148 11.0968 31.9973H11.0237C11.7296 32.5283 12.4832 32.9862 13.2479 33.425Z" fill="#F06977"/>
<path d="M7.14113 31.9146C7.15862 31.9433 7.17451 31.9719 7.192 31.9989C7.21744 32.0037 7.24288 32.0069 7.26832 32.0084C7.25401 31.9878 7.23652 31.9687 7.21744 31.9528C7.23016 31.9131 7.21903 31.8813 7.19836 31.8495H7.10138C7.1141 31.8717 7.12841 31.8924 7.14113 31.9146Z" fill="#D97587"/>
<path d="M10.9441 31.991C10.9092 31.9576 10.8758 31.9242 10.8408 31.8908C10.8233 31.8749 10.8074 31.8574 10.7899 31.8415C10.7772 31.8606 10.774 31.8749 10.7772 31.8876C10.7883 31.9417 10.9044 31.9496 10.9441 31.991Z" fill="#D97587"/>
<path d="M24.8573 37.7988C25.8621 37.7925 26.8701 37.8433 27.8653 37.6541C27.894 37.6494 27.9242 37.6446 27.9528 37.6382C27.568 37.2376 27.1769 36.8433 26.8001 36.4363C26.3406 35.9402 26.0036 35.3758 25.9734 34.6811C25.9352 33.8066 25.7285 33.5888 24.8605 33.5777V33.6126C24.9225 33.6572 25.002 33.6667 25.0814 33.6794C25.6602 33.7716 25.843 33.9481 25.8605 34.5189C25.8843 35.3313 26.2357 35.9848 26.7747 36.5571C27.1006 36.9005 27.444 37.2296 27.7779 37.5667C27.7111 37.5524 27.6428 37.554 27.5728 37.5683C26.8271 37.713 26.0735 37.6653 25.3215 37.6764C25.1594 37.6796 24.9908 37.67 24.8541 37.7829V37.7941L24.8573 37.7988Z" fill="#F06977"/>
<path d="M24.6999 37.7925H24.7158C24.7587 37.794 24.8 37.7941 24.843 37.7941H24.8525H24.8541V37.7829C24.8525 37.7845 24.8509 37.7861 24.8493 37.7877C24.8112 37.7416 24.7937 37.6923 24.7857 37.6398C24.7714 37.6907 24.7476 37.7368 24.7078 37.7813C24.7046 37.7766 24.7015 37.7734 24.6983 37.7702V37.7925H24.6999Z" fill="#EB7887"/>
<path d="M24.8509 33.5093C24.8287 33.5109 24.8064 33.5125 24.7841 33.5141C24.7555 33.5157 24.7269 33.5173 24.6983 33.5188C24.6983 33.5204 24.6983 33.5204 24.6983 33.522C24.6999 33.5236 24.7015 33.5236 24.7031 33.5252C24.7492 33.5777 24.7746 33.6365 24.7889 33.6969C24.7985 33.6603 24.8144 33.627 24.8414 33.5968C24.8477 33.6031 24.8541 33.6079 24.8605 33.6127V33.5777C24.8573 33.5554 24.8541 33.5316 24.8509 33.5093Z" fill="#EB7887"/>
<path d="M1.74664 2.72587C1.74029 2.75767 1.73075 2.78947 1.72121 2.82127C1.77526 2.87214 1.82932 2.92461 1.88338 2.97708C1.89609 2.97708 1.90722 2.97708 1.91994 2.97867C1.93107 2.97867 1.9422 2.97867 1.95333 2.98026H1.95969C2.12027 3.06452 2.27926 3.08042 2.45574 3.01047C2.96609 2.80855 3.19821 2.38882 3.05035 1.91185C2.91839 1.48735 2.42553 1.26 1.92153 1.38083C1.90881 1.38401 1.89768 1.38719 1.88497 1.39037C1.83091 1.44283 1.77526 1.4953 1.72121 1.54618C1.73075 1.57797 1.74029 1.60818 1.74664 1.63998C1.84363 2.00088 1.84363 2.36497 1.74664 2.72587Z" fill="#629CD4"/>
<path d="M1.72119 2.82126C1.73073 2.78947 1.74027 2.75767 1.74663 2.72587C1.84361 2.36497 1.84361 2.00088 1.74663 1.63998C1.74027 1.60818 1.73073 1.57797 1.72119 1.54617C1.26331 1.93888 1.26331 2.42856 1.72119 2.82126Z" fill="#609BD3"/>
<path d="M12.2558 8.93597C13.2527 8.95664 13.2527 8.94392 13.2495 7.94547C13.2495 7.88982 13.2479 7.83576 13.2479 7.78012V7.74991C12.8139 8.0663 12.4959 8.48285 12.2192 8.93597H12.2558Z" fill="#DD8765"/>
<path d="M13.5627 8.93437C13.3608 8.9137 13.4117 8.7563 13.4101 8.63706C13.4053 8.28888 13.4069 7.9391 13.4069 7.58932C13.3862 7.59886 13.3655 7.60999 13.3449 7.62112C13.3131 7.63702 13.2813 7.65292 13.2511 7.66882C13.2495 7.69585 13.2495 7.72288 13.2479 7.7499V7.78011C13.2479 7.83576 13.2495 7.88981 13.2495 7.94546C13.2527 8.94391 13.2527 8.95663 12.2558 8.93596H12.2192L12.2129 8.94391C12.2129 8.94391 12.2129 8.94391 12.2145 8.94391C12.1906 8.99161 12.1668 9.0393 12.1429 9.08541C12.1429 9.09018 12.1461 9.09336 12.1493 9.09813C12.1445 9.09813 12.1413 9.09654 12.1366 9.09654L12.1382 9.09813C12.1382 9.09813 12.1382 9.09813 12.1366 9.09813C11.5912 10.0839 11.5499 11.1586 11.5753 12.2477C11.5801 12.4258 11.6723 12.6833 11.5181 12.766C11.3464 12.8582 11.1651 12.6579 11.0046 12.5498C9.7724 11.7294 9.0792 10.599 9.03469 9.09972C9.01879 9.09813 9.00448 9.09654 8.98858 9.09654C8.97904 9.09495 8.96791 9.09495 8.95837 9.09495C8.76123 9.09654 8.56249 9.09654 8.36693 9.09813H8.3256C8.30334 9.1029 8.28267 9.10449 8.262 9.10608C8.24769 9.13152 8.23497 9.15696 8.22066 9.18239C7.7278 10.0998 7.34145 11.0489 7.35099 12.1173C7.33668 12.1587 7.33033 12.1936 7.32874 12.2254C7.33668 12.208 7.34304 12.1873 7.34781 12.1634C7.34781 12.208 7.35735 12.2413 7.37325 12.2668C7.44639 12.3972 7.68328 12.3177 7.76754 12.4353C8.37488 12.6627 8.78348 13.0744 8.95837 13.7072C8.95837 13.7072 8.95837 13.7072 8.95837 13.7088V13.7072C9.10782 13.8742 9.00448 14.0777 9.03946 14.2621C9.03469 14.2891 9.03151 14.3161 9.02674 14.3448C9.02674 14.3448 9.02674 14.3448 9.02833 14.3448C9.05377 14.7693 8.83277 15.1954 9.03787 15.6183C9.10941 15.5801 9.18096 15.5435 9.2525 15.5054C9.28589 15.4879 9.31928 15.4704 9.35266 15.4529C9.43375 15.375 9.51324 15.2987 9.59274 15.2208C10.2192 14.7629 10.8472 14.3082 11.5769 14.0236C11.5817 13.9998 11.5833 13.9775 11.5849 13.9537C11.5849 13.9537 11.5849 13.9537 11.5865 13.9537C11.5865 13.9537 11.5865 13.9537 11.5849 13.9537C11.5578 13.6945 11.526 13.4369 11.5038 13.1778C11.4895 13.0093 11.5531 12.8455 11.7391 12.9377C12.1938 13.1603 12.7073 13.1158 13.1668 13.3002C13.1907 13.3018 13.2161 13.3034 13.2399 13.305C13.2447 12.3813 13.2495 11.4575 13.2527 10.5338C13.2527 10.5322 13.2527 10.5322 13.2527 10.5306H13.2543H13.2558C13.4355 10.3192 13.2193 10.0234 13.4053 9.81517V10.4273C13.4196 10.378 13.4196 10.3192 13.4276 10.2683C13.4498 10.13 13.4339 9.98688 13.4768 9.85015C13.5325 9.61167 13.4848 9.35569 13.5993 9.12675C13.5993 9.12357 13.6009 9.12198 13.6024 9.1188C13.604 9.11085 13.6056 9.10449 13.6072 9.09813C13.6152 9.05361 13.612 9.01069 13.5913 8.97094C13.585 8.9614 13.5786 8.95186 13.5738 8.94232V8.94073H13.5722L13.5627 8.93437Z" fill="#DD8765"/>
<path d="M2.20134 31.8336V20.5485L2.19975 20.5469C1.88813 20.5326 1.96285 20.7647 1.96285 20.9333C1.95967 23.6393 1.96126 26.3468 1.96126 29.0528V31.4917C1.96126 31.6618 1.92788 31.8542 2.19975 31.8351H2.20134V31.8336Z" fill="#75ABDC"/>
<path d="M1.96127 9.09973V9.11086V20.0414C1.96127 20.2099 1.92311 20.407 2.19976 20.3879H2.20135V20.3864V9.09973H2.19976H1.96127Z" fill="#75ABDC"/>
<path d="M2.19975 20.3879V20.5469H2.20134H2.21883C2.24109 20.4929 2.2395 20.4404 2.21883 20.3879H2.20134H2.19975Z" fill="#9BC4E8"/>
<path d="M5.23804 20.5596C5.23963 20.5565 5.24122 20.5549 5.24281 20.5517H5.2285L5.22055 20.5724C5.22055 20.574 5.22214 20.5755 5.22214 20.5755C5.22691 20.5708 5.23327 20.566 5.23804 20.5612V20.5596Z" fill="#9BC4E8"/>
<path d="M24.696 25.8707H24.6973V25.868C24.696 25.868 24.6933 25.8667 24.6919 25.8667L24.696 25.8707Z" fill="#C34761"/>
<path d="M24.6236 25.0956C24.6442 25.0861 24.6649 25.0765 24.6872 25.067C24.6888 25.0447 24.6935 25.0209 24.6983 25.0002C24.6983 24.9986 24.6983 24.9986 24.6983 24.997C24.6967 24.9986 24.6967 24.9986 24.6951 25.0002C24.6617 25.0257 24.6395 25.0575 24.6236 25.0956Z" fill="#C34761"/>
<path d="M23.7014 27.2531C23.0035 27.1021 22.296 26.9908 21.5901 26.8779C21.2355 26.8222 20.8841 26.7427 20.5662 26.5726C20.2927 26.428 20.1067 26.2022 20.1512 25.8683C20.1941 25.5344 20.3897 25.3166 20.7172 25.2228C20.8062 25.1958 20.8985 25.1862 20.9907 25.1767C22.0686 25.0686 22.9669 24.6155 23.6728 23.7919C23.8397 23.5979 24.0464 23.5057 24.304 23.5137C24.4137 23.5185 24.5266 23.5439 24.6363 23.5105C24.6426 23.5232 24.6506 23.5359 24.6585 23.5487C24.6713 23.5614 24.684 23.5725 24.6967 23.5805C24.6999 23.5836 24.7031 23.5852 24.7062 23.5868V23.5598C24.7015 23.5359 24.6983 23.5121 24.6951 23.4882C24.6681 23.4787 24.6411 23.4692 24.6156 23.4612C24.242 23.3404 23.8827 23.3611 23.6124 23.6902C22.9017 24.5582 21.9843 24.9955 20.881 25.0797C20.4135 25.1147 20.094 25.4136 20.0208 25.8651C19.9684 26.199 20.2386 26.5853 20.6377 26.7348C21.0956 26.9065 21.5773 26.9796 22.0559 27.0671C22.9383 27.2277 23.8461 27.2881 24.676 27.684C24.6824 27.6871 24.6872 27.6887 24.6935 27.6919C24.6776 27.6697 24.6601 27.649 24.6426 27.6299C24.393 27.3549 24.0305 27.3262 23.7014 27.2531Z" fill="#C34761"/>
<path d="M19.6854 20.3943C19.6854 20.4166 19.687 20.4404 19.687 20.4627C19.687 20.4897 19.687 20.5151 19.6885 20.5422C19.7156 20.5453 19.7442 20.5485 19.7728 20.5517C20.1687 21.2099 20.6345 21.8173 21.2037 22.3356C21.4947 22.5995 21.9223 22.5979 22.2196 22.3451C22.5472 22.0685 22.7364 21.7632 22.4868 21.3546C22.3278 21.0923 22.1465 20.8474 21.9589 20.6058C21.9446 20.5883 21.9319 20.5692 21.916 20.5517V20.5501L21.9128 20.5422C21.8874 20.4929 21.8619 20.442 21.8365 20.3943C21.8365 20.3927 21.8349 20.3927 21.8349 20.3911C21.8079 20.3879 21.7808 20.3864 21.7522 20.3848H21.695C21.0256 20.3879 20.3563 20.3911 19.6854 20.3943Z" fill="#D9596B"/>
<path d="M2.08369 8.94073H2.04077C2.01374 8.99479 1.9883 9.04726 1.96127 9.09972H2.19976V8.95822V8.94232V8.94073H2.18386H2.08369Z" fill="#8AB6E1"/>
<path d="M14.7551 6.79598C14.2734 6.97087 13.8743 7.29838 13.4148 7.5162C13.4132 7.54005 13.4101 7.5639 13.4069 7.58933C13.4069 7.93911 13.4053 8.28889 13.4101 8.63707C13.4117 8.75631 13.3608 8.91371 13.5627 8.93438C13.5643 8.93279 13.5643 8.92961 13.5659 8.92802C13.8934 8.09333 14.3386 7.33654 15.0715 6.78485C15.0477 6.75782 15.0254 6.74192 15.0031 6.73397C14.9189 6.69741 14.8378 6.76736 14.7551 6.79598Z" fill="#D88464"/>
<path d="M18.3499 15.755C18.4325 17.3115 18.7616 18.8203 19.5502 20.1972C19.582 20.2528 19.5916 20.3212 19.6106 20.3832C19.6329 20.3863 19.6536 20.3895 19.6742 20.3927C19.679 20.3927 19.6822 20.3943 19.6854 20.3943C20.3563 20.3911 21.0256 20.3879 21.695 20.3848H21.7522C20.4008 18.7297 19.927 16.8059 20.0033 14.7073C20.0272 14.0618 20.0065 13.4131 20.0049 12.766C20.0033 12.766 20.0033 12.7644 20.0017 12.7644C19.4787 12.51 18.9095 12.4274 18.3403 12.351C18.3403 13.4862 18.2894 14.623 18.3499 15.755Z" fill="#D9596B"/>
<path d="M20.245 8.93916C20.2466 8.94075 20.2466 8.94075 20.2482 8.94234C20.2466 8.94234 20.2466 8.94234 20.245 8.94234C20.2704 8.9948 20.2959 9.04568 20.3213 9.09655H20.3261C20.3515 9.09814 20.3786 9.09973 20.404 9.10132C20.4199 9.15061 20.4199 9.21421 20.4533 9.24759C21.2307 10.0568 22.3945 9.99166 23.1036 9.10132C23.1243 9.09973 23.145 9.09973 23.1672 9.09814H23.1863C23.1863 9.04727 23.1879 8.99639 23.1879 8.94552C23.2117 8.94234 23.2356 8.93916 23.2578 8.93598H23.2626C23.3024 8.75632 23.3405 8.57825 23.3803 8.39859C23.509 7.80079 23.3024 7.29839 22.889 6.89456C22.3866 6.40328 21.749 6.34128 21.1226 6.56545C20.1989 6.89774 19.7633 7.85803 20.2371 8.92167C20.2402 8.92803 20.2418 8.9328 20.245 8.93916Z" fill="#D5586B"/>
<path d="M18.2227 12.836C18.2179 13.4449 18.229 14.0538 18.2195 14.6627C18.2036 15.7645 18.2735 16.86 18.5518 17.9284C18.7759 18.7837 19.0192 19.6407 19.555 20.3704C19.5613 20.3752 19.5661 20.38 19.5725 20.3832H19.6106C19.5916 20.3212 19.582 20.2528 19.5502 20.1972C18.7616 18.8203 18.4325 17.3115 18.3499 15.755C18.2894 14.623 18.3403 13.4862 18.3403 12.351C18.1988 12.4878 18.2243 12.6674 18.2227 12.836Z" fill="#F06977"/>
<path d="M22.7602 31.4918C22.7348 31.1372 22.6918 30.7843 22.6712 30.4313C22.6394 29.8876 22.9573 29.4853 23.3882 29.4615C23.8159 29.4376 24.1211 29.7683 24.1816 30.32C24.1911 30.4122 24.1911 30.5044 24.1911 30.5966C24.1943 30.7938 24.1625 30.9973 24.2134 31.1865C24.277 31.417 24.3103 31.7 24.641 31.6889C24.6458 31.6969 24.6506 31.7048 24.6569 31.7112C24.6681 31.7271 24.6824 31.743 24.6983 31.7557C24.6967 31.7414 24.6935 31.7271 24.6919 31.7128C24.6903 31.7048 24.6887 31.6953 24.6887 31.6873C24.6665 31.6778 24.6442 31.6682 24.6236 31.6571C24.393 31.5379 24.3024 31.328 24.2992 31.0688C24.2944 30.8049 24.3119 30.541 24.2929 30.2787C24.234 29.4933 23.5647 29.099 22.9526 29.4949C22.6076 29.719 22.5138 30.0974 22.5662 30.4679C22.6298 30.9178 22.5821 31.3789 22.7141 31.8209C22.7157 31.824 22.7157 31.8288 22.7173 31.832C22.7268 31.8209 22.7348 31.8097 22.7395 31.797C22.7936 31.7016 22.7682 31.5967 22.7602 31.4918Z" fill="#C34761"/>
<path d="M24.0035 25.668C24.021 25.6727 24.0369 25.6775 24.0528 25.6823C24.0592 25.6839 24.0655 25.6855 24.0719 25.687V25.6886C24.2976 25.7522 24.4948 25.8095 24.6919 25.8667C24.6935 25.8667 24.6967 25.8683 24.6983 25.8683C24.6935 25.6012 24.6903 25.3341 24.6872 25.067C24.6649 25.0765 24.6442 25.0861 24.6236 25.0956C24.3724 25.2212 24.2213 25.4613 24.0035 25.668Z" fill="#ED6776"/>
<path d="M2.20134 20.3864V20.3879H2.21883C2.21724 20.3848 2.21565 20.3816 2.21406 20.3784C2.21406 20.3768 2.21247 20.3752 2.21247 20.3736C2.22678 20.3593 2.24109 20.345 2.25381 20.3291C2.33171 20.1829 2.32694 20.0223 2.32694 19.8633C2.32853 16.4514 2.32853 13.0395 2.32694 9.62599C2.32694 9.46382 2.33489 9.29847 2.24427 9.15697C2.23155 9.13789 2.21724 9.11881 2.20134 9.09973V20.3864Z" fill="#89BCE5"/>
<path d="M2.20134 20.5485V31.8336V31.8352H2.21883C2.21883 31.8304 2.21724 31.8272 2.21406 31.8224C2.21406 31.8224 2.21406 31.8208 2.21247 31.8193C2.36033 31.6316 2.32694 31.4043 2.32694 31.1897C2.32853 27.8557 2.32853 24.5233 2.32694 21.1893C2.32694 20.9937 2.34761 20.7918 2.25381 20.6058C2.2395 20.5915 2.22519 20.5756 2.21247 20.5612C2.21406 20.5597 2.21406 20.5597 2.21406 20.5581C2.21565 20.5549 2.21724 20.5501 2.21883 20.5469H2.20134V20.5485Z" fill="#89BCE5"/>
<path d="M5.21736 20.5803C5.21895 20.5787 5.22054 20.5772 5.22213 20.5756C5.22213 20.574 5.22054 20.5724 5.22054 20.5724L5.21736 20.5803Z" fill="#75ABDC"/>
<path d="M4.72451 20.6614C4.62752 21.1209 4.31431 21.485 4.12989 21.9079C3.38105 23.6313 2.8071 25.3738 3.06625 27.2992C3.19503 28.242 3.50347 29.1149 3.9391 29.9464C4.28252 30.603 4.7563 31.169 5.22214 31.7398C5.24758 31.7716 5.27461 31.8034 5.30005 31.8352C5.32707 31.8352 5.35251 31.8367 5.37795 31.8367H5.3859C5.3859 31.8352 5.3859 31.8336 5.38431 31.832C5.37795 31.8161 5.36364 31.8002 5.34456 31.7875C5.32866 31.7779 5.31276 31.77 5.29528 31.7636C5.26507 31.5076 5.05043 31.3598 4.90416 31.1785C3.35402 29.2325 2.75145 27.0639 3.31586 24.6043C3.58932 23.4103 4.03131 22.2831 4.60208 21.202C4.69112 21.0319 4.84852 20.8681 4.79287 20.6598C4.86601 20.6598 4.93914 20.6598 5.01069 20.6503L4.74517 20.5485C4.7404 20.5867 4.73404 20.6248 4.72451 20.6614Z" fill="#75ABDC"/>
<path d="M28.2549 38.031C28.1293 37.9165 28.0116 37.7941 27.8876 37.6764L27.8653 37.6541C26.8701 37.8433 25.8621 37.7925 24.8573 37.7988L24.8525 37.7941H24.843C24.8 37.7941 24.7587 37.7941 24.7158 37.7925H24.6999H24.6983L24.6951 37.7972C22.2483 37.3759 19.9525 36.4617 17.6582 35.5619C16.1971 34.9879 14.7933 34.282 13.4228 33.5141C13.4196 33.5157 13.4164 33.5173 13.4132 33.5204C13.3862 33.5411 13.3592 33.5713 13.3322 33.6126C13.3306 33.6301 13.329 33.6492 13.3274 33.6667V33.5697C13.3274 33.53 13.321 33.4918 13.3083 33.4537L13.2511 33.425H13.2479C12.4832 32.9862 11.7295 32.5283 11.0236 31.9973C10.9966 31.9957 10.9696 31.9941 10.9441 31.991C10.9044 31.9496 10.7883 31.9417 10.7772 31.8876C10.774 31.8749 10.7772 31.8606 10.7899 31.8415V31.8399C10.7883 31.8399 10.7883 31.8399 10.7867 31.8383C10.7581 31.8367 10.7311 31.8336 10.7025 31.832C10.6659 31.8034 10.6309 31.7747 10.5944 31.7461C9.68813 31.0338 8.81528 30.2818 8.02829 29.436C7.30489 28.6601 6.71822 27.7905 6.23648 26.8461C6.1697 26.7157 6.22376 26.6807 6.33505 26.6648C5.54965 26.4359 4.76424 26.2069 3.97884 25.9796C4.02176 27.2165 4.48283 28.3183 5.12356 29.3565C5.58939 30.1149 6.1554 30.7985 6.76273 31.4472C6.83746 31.5283 6.92808 31.5998 6.95511 31.7111C7.02189 31.7127 7.0823 31.7366 7.13636 31.7779C7.14272 31.7843 7.14749 31.7906 7.15385 31.7954C7.16975 31.8145 7.18564 31.832 7.19836 31.8495C7.21903 31.8813 7.23016 31.9131 7.21744 31.9528C7.23652 31.9687 7.25401 31.9878 7.26832 32.0084C7.26991 32.0084 7.26991 32.0084 7.2715 32.0084C7.26991 32.01 7.26991 32.0116 7.26991 32.0132C7.28263 32.0609 7.29376 32.1086 7.30648 32.1563C7.55768 32.2072 7.69282 32.4202 7.87089 32.5697C9.49575 33.9227 11.2494 35.0722 13.162 35.9752C13.2431 35.9625 13.2876 35.9323 13.3099 35.8925C13.3242 35.972 13.3608 36.0452 13.4132 36.1104C15.5262 37.1883 17.7187 38.0659 19.9874 38.7528C21.5217 39.2186 23.0655 39.6288 24.6951 39.4619C24.7492 39.4603 24.8032 39.4587 24.8573 39.4571C26.2643 39.4364 27.5649 39.0882 28.6889 38.2027C28.4822 38.3028 28.3757 38.1407 28.2549 38.031Z" fill="#D9596B"/>
<path d="M4.25071 27.7921C4.8024 29.3231 5.76428 30.5791 6.90105 31.7127C6.92172 31.735 6.94398 31.7557 6.96465 31.7763C7.01076 31.8002 7.05686 31.8256 7.10138 31.8495H7.19836C7.18565 31.832 7.16975 31.8145 7.15385 31.7954C7.14749 31.7906 7.14272 31.7843 7.13636 31.7779C7.0823 31.7366 7.02189 31.7127 6.95511 31.7111C6.92808 31.5998 6.83746 31.5283 6.76273 31.4472C6.1554 30.7985 5.5894 30.1149 5.12356 29.3565C4.48283 28.3183 4.02176 27.2165 3.97884 25.9796C3.94386 25.9685 3.90729 25.9573 3.87231 25.9478C3.87549 26.5885 4.03607 27.1974 4.25071 27.7921Z" fill="#D9596B"/>
<path d="M6.23648 26.8461C6.71822 27.7905 7.30489 28.6601 8.02829 29.436C8.81528 30.2818 9.68813 31.0338 10.5944 31.7461C10.6309 31.7747 10.6659 31.8033 10.7025 31.832C10.7311 31.8336 10.7581 31.8367 10.7867 31.8383C10.7534 31.7986 10.7136 31.7716 10.6659 31.7541C10.4894 31.4218 10.1397 31.2676 9.86779 31.0402C8.71194 30.0656 7.64671 29.0115 6.83905 27.7237C6.63236 27.393 6.4066 27.0639 6.34459 26.6664C6.34141 26.6664 6.33823 26.6648 6.33505 26.6648C6.22376 26.6807 6.16971 26.7157 6.23648 26.8461Z" fill="#F06977"/>
<path d="M13.2399 27.137V27.1418C13.2574 27.1529 13.2765 27.172 13.2956 27.2006V26.5488C13.2876 26.5345 13.2749 26.5202 13.2574 26.509C13.2511 26.7189 13.2463 26.9288 13.2399 27.137Z" fill="#EA8695"/>
<path d="M13.3194 30.2469C13.3115 30.2946 13.2972 30.3391 13.2686 30.382C13.2622 30.3836 13.2574 30.3852 13.2527 30.3899V30.4043H13.4053V30.3915C13.4005 30.3884 13.3958 30.3852 13.3894 30.3836C13.3544 30.3407 13.3338 30.2946 13.3194 30.2469Z" fill="#EA8695"/>
<path d="M11.003 12.5514C11.1636 12.6595 11.3448 12.8598 11.5165 12.7676C11.6707 12.6849 11.5785 12.4258 11.5738 12.2493C11.5483 11.1602 11.5897 10.0855 12.135 9.09973C12.1334 9.09973 12.1334 9.09973 12.1318 9.09973C11.0984 9.10132 10.0665 9.10132 9.03311 9.10291C9.07763 10.6022 9.77082 11.731 11.003 12.5514Z" fill="#F19C79"/>
<path d="M15.7933 20.3927V20.4341V20.4675V20.5422C15.8156 20.5183 15.8283 20.4929 15.8283 20.4675C15.8283 20.4563 15.8251 20.4452 15.8203 20.4341C15.8156 20.4198 15.806 20.4054 15.7933 20.3927Z" fill="#EA8C9B"/>
<path d="M19.6854 20.3943C19.6822 20.3943 19.679 20.3927 19.6742 20.3927C19.6536 20.3895 19.6329 20.3864 19.6106 20.3832H19.5725C19.5804 20.3879 19.5868 20.3927 19.5947 20.3959C19.5725 20.4166 19.5502 20.4293 19.5264 20.4404H19.5502C19.5852 20.442 19.6218 20.4468 19.6568 20.4547C19.6583 20.4833 19.6695 20.512 19.6886 20.5422C19.687 20.5151 19.687 20.4897 19.687 20.4627C19.687 20.4404 19.6854 20.4166 19.6854 20.3943Z" fill="#EA8C9B"/>
<path d="M13.2543 23.5661V23.582C13.267 23.59 13.2813 23.5947 13.2956 23.5979C13.329 23.6043 13.3655 23.5932 13.4037 23.5661H13.2956H13.2543Z" fill="#E98A99"/>
<path d="M13.2956 26.5488C13.3687 26.6537 13.2765 26.8191 13.4053 26.9033C13.3401 26.8111 13.383 26.7014 13.3624 26.6028C13.3512 26.5472 13.3306 26.5058 13.2956 26.5011C13.2845 26.4979 13.2718 26.4995 13.2574 26.5074V26.509C13.2749 26.5202 13.2877 26.5345 13.2956 26.5488Z" fill="#E98A99"/>
<path d="M7.47978 12.4337C7.57518 12.4353 7.67216 12.4369 7.76755 12.4385C7.68329 12.3208 7.4464 12.4003 7.37326 12.27C7.35736 12.2445 7.34782 12.2111 7.34782 12.1666C7.34305 12.1905 7.33669 12.2111 7.32875 12.2286C7.26356 12.3701 7.07436 12.3511 6.95671 12.4242C7.03939 12.4258 7.12047 12.4274 7.20314 12.429C7.29536 12.4305 7.38757 12.4321 7.47978 12.4337Z" fill="#DF808A"/>
<path d="M8.95756 16.2527L8.95679 16.2534C8.95756 16.2534 8.95756 16.2527 8.95756 16.2527Z" fill="#D9596B"/>
<path d="M13.1668 13.3002C12.6406 13.518 12.1127 13.7359 11.5865 13.9537C11.5865 13.9537 11.5865 13.9537 11.5849 13.9537C11.5833 13.9775 11.5817 13.9998 11.5769 14.0236V14.0491C11.5785 15.0841 11.5897 16.1191 11.5769 17.1541C11.5626 18.2305 11.6739 19.3148 11.4227 20.38C11.3941 20.3848 11.3671 20.3896 11.34 20.3927V20.5374C11.5579 20.5438 11.7741 20.5501 11.9919 20.5565H11.9935C12.0364 20.5565 12.0778 20.5581 12.1207 20.5597H12.1223C12.1541 20.5549 12.1843 20.5501 12.2161 20.5454C12.2177 20.5438 12.2177 20.5438 12.2193 20.5422C12.2717 20.4929 12.3242 20.442 12.3767 20.3911C12.4021 20.3864 12.4275 20.38 12.453 20.3737C12.4864 20.345 12.5197 20.3148 12.5499 20.2846C12.8202 20.0223 13.0094 19.7123 13.1366 19.3657C13.1764 19.2591 13.2113 19.1478 13.24 19.035C13.2463 18.558 13.2527 18.081 13.2606 17.6057V17.5866C13.259 16.4864 13.259 15.3846 13.259 14.2844V14.2653C13.2527 13.9553 13.2463 13.6421 13.24 13.3304V13.3034C13.2161 13.3034 13.1907 13.3018 13.1668 13.3002Z" fill="#C34761"/>
<path d="M13.1668 13.3002C12.7073 13.1158 12.1938 13.1603 11.7391 12.9377C11.5531 12.8471 11.4895 13.0109 11.5038 13.1778C11.5261 13.437 11.5579 13.6961 11.5849 13.9537C11.5849 13.9537 11.5849 13.9537 11.5865 13.9537C12.1127 13.7359 12.639 13.518 13.1668 13.3002Z" fill="#CB7452"/>
<path d="M9.04105 14.2637C9.00607 14.0793 9.10941 13.8758 8.95996 13.7088V13.7104C8.95678 13.8138 8.9536 13.9187 8.95201 14.022C8.95519 14.1286 8.95996 14.2351 8.96314 14.3416C8.96314 14.3448 8.96155 14.348 8.96155 14.3511C8.96314 14.3511 8.96473 14.3527 8.96632 14.3527C8.96791 14.348 8.9695 14.3448 8.97268 14.34C8.99176 14.3416 9.01084 14.3432 9.02833 14.3432C9.03151 14.3193 9.03628 14.2907 9.04105 14.2637Z" fill="#DF898A"/>
<path d="M11.4227 25.5487C11.1651 25.4756 11.0825 25.3961 11.2605 25.1353C11.4386 24.8778 11.5722 24.5837 11.5801 24.253C11.5896 23.8444 11.3814 23.5216 11.038 23.4262C10.6659 23.3229 10.2223 23.485 10.0331 23.8046C9.95365 23.9413 9.90119 24.0924 9.83282 24.2355C9.53551 24.8619 9.05378 25.2005 8.34786 25.2435C7.3828 25.3023 6.50518 24.9811 5.61802 24.6806C5.087 24.555 4.59095 24.28 4.02972 24.2784C3.99952 24.2768 3.96772 24.2784 3.93751 24.28C3.8135 24.8317 3.77693 25.3881 3.87232 25.9478C3.9073 25.9573 3.94387 25.9685 3.97885 25.9796C4.76425 26.2069 5.54966 26.4359 6.33506 26.6648C6.33824 26.6648 6.34142 26.6664 6.3446 26.6664C6.48292 26.6998 6.62124 26.73 6.75797 26.765C7.50363 26.9653 8.2636 27.1227 9.01562 26.862C9.42104 26.7205 9.76923 26.7411 10.1556 26.8922C10.7089 27.1084 11.2908 27.2563 11.8377 27.4852C12.41 27.7237 12.86 27.6124 13.2384 27.1402C13.2384 27.1386 13.2384 27.1386 13.24 27.137C13.2463 26.9287 13.2511 26.7189 13.2574 26.509V26.5074C13.2495 26.482 13.2447 26.4597 13.2431 26.4343C13.2177 26.4057 13.1923 26.3771 13.1652 26.35C12.693 25.8619 12.0444 25.73 11.4227 25.5487Z" fill="#C34761"/>
<path d="M5.61803 24.6806C5.60849 24.6441 5.60054 24.6075 5.59418 24.5709C5.47494 24.0081 5.53059 23.4405 5.57351 22.8745C5.63393 22.0955 5.92329 21.3705 6.14746 20.6296C6.157 20.6026 6.16495 20.5771 6.1729 20.5501C5.86446 20.5501 5.55602 20.5517 5.24758 20.5517H5.24282C5.24123 20.5549 5.23964 20.5565 5.23805 20.5596V20.5612C5.23487 20.5692 5.2301 20.5771 5.22692 20.5851C4.64025 21.7616 4.19985 22.9906 3.93752 24.28C3.96772 24.2784 3.99952 24.2768 4.02973 24.2784C4.59096 24.28 5.08701 24.555 5.61803 24.6806Z" fill="#D9596B"/>
<path d="M6.17289 20.5501C6.16494 20.5772 6.15699 20.6026 6.14745 20.6296C5.92327 21.3705 5.63391 22.0955 5.5735 22.8745C5.53057 23.4405 5.47492 24.0081 5.59417 24.571C5.60053 24.6075 5.60848 24.6441 5.61801 24.6807C6.50517 24.9811 7.38279 25.3023 8.34786 25.2435C9.05377 25.2006 9.5355 24.8619 9.83281 24.2355C9.90118 24.0924 9.95364 23.9414 10.0331 23.8046C10.2223 23.4851 10.6659 23.3229 11.038 23.4262C11.3814 23.5216 11.5896 23.8444 11.5801 24.253C11.5722 24.5837 11.4386 24.8778 11.2605 25.1354C11.0825 25.3961 11.1651 25.4756 11.4227 25.5487C12.0444 25.73 12.693 25.8619 13.1652 26.35C13.1923 26.3771 13.2177 26.4057 13.2431 26.4343C13.2193 26.3771 13.1923 26.3246 13.1589 26.2753C13.0476 26.1052 12.887 25.9844 12.701 25.881C12.3496 25.6855 11.9585 25.606 11.5817 25.4883C11.3496 25.4152 11.2844 25.3071 11.41 25.0845C11.534 24.8667 11.6342 24.6346 11.6675 24.3818C11.7311 23.8968 11.5181 23.5041 11.1095 23.3579C10.677 23.2037 10.181 23.3801 9.93457 23.7776C9.85825 23.9016 9.8042 24.0368 9.74219 24.1687C9.44488 24.8047 8.9536 25.1131 8.24133 25.1385C7.32556 25.1719 6.49881 24.8555 5.65299 24.59C5.65935 24.5582 5.66253 24.5248 5.65935 24.4899C5.57986 23.2657 5.73408 22.0748 6.17607 20.9253C6.21581 20.8236 6.25715 20.7123 6.20627 20.6042C6.23012 20.5899 6.25079 20.574 6.27146 20.5549C6.27305 20.5501 6.27464 20.5469 6.27623 20.5422H6.25556C6.22853 20.5454 6.2015 20.5485 6.17289 20.5501Z" fill="#F06977"/>
<path d="M13.2447 23.5757C13.2479 23.5773 13.2511 23.5804 13.2543 23.582V23.5661C13.2511 23.5693 13.2479 23.5725 13.2447 23.5757Z" fill="#F06977"/>
<path d="M6.26986 20.3911C6.26509 20.3927 6.26032 20.3927 6.25555 20.3943V20.5422H6.27622C6.2794 20.5358 6.28099 20.5295 6.28099 20.5231C6.29689 20.4802 6.2953 20.4404 6.27622 20.4023C6.3112 20.4118 6.343 20.4054 6.37321 20.3816H6.33028C6.30961 20.3848 6.29053 20.388 6.26986 20.3911Z" fill="#E98A99"/>
<path d="M12.5499 20.2862C12.5197 20.3164 12.4863 20.3466 12.453 20.3752C12.5181 20.345 12.5786 20.3132 12.6326 20.2766C12.8981 20.1033 13.0476 19.8601 13.135 19.5819C13.1891 19.4117 13.2209 19.2273 13.24 19.0365C13.2113 19.1494 13.1764 19.2607 13.1366 19.3672C13.0094 19.7138 12.8202 20.0239 12.5499 20.2862Z" fill="#EE6977"/>
<path d="M6.8009 19.1701C6.57673 19.5326 6.48292 19.9762 6.33029 20.3816H6.37322C6.37481 20.3816 6.3764 20.38 6.37799 20.3784C6.38753 20.3625 6.39707 20.3482 6.40661 20.3323C6.71823 19.8315 6.82475 19.2369 7.12206 18.7281C7.48137 18.1096 7.44322 17.4419 7.3351 16.7694C7.3192 16.763 7.3033 16.7582 7.289 16.7503C7.33669 17.5977 7.2731 18.4117 6.8009 19.1701Z" fill="#F06977"/>
<path d="M9.03311 18.8744C8.90591 18.7567 8.95997 18.6025 8.95838 18.4642C8.95361 17.7281 8.95679 16.9904 8.95679 16.2542C8.94725 16.2701 8.93771 16.2845 8.92817 16.2988C8.92181 17.1271 8.92658 17.9586 8.92658 18.7885C8.9393 19.4245 9.20004 19.9205 9.65952 20.3069H9.66111C9.68973 20.3307 9.71835 20.3546 9.74697 20.3752H9.82964C9.4274 19.9476 9.0347 19.5151 9.03311 18.8744Z" fill="#F06977"/>
<path d="M8.95997 14.3527C8.95997 14.3496 8.96156 14.3464 8.96156 14.3432C8.95838 14.2367 8.95361 14.1301 8.95043 14.0236C8.95361 13.9203 8.95679 13.8153 8.95838 13.712C8.95838 13.712 8.95838 13.712 8.95838 13.7104C8.78349 13.0776 8.37489 12.6659 7.76755 12.4385C7.67216 12.4369 7.57518 12.4353 7.47978 12.4337C7.38757 12.4321 7.29536 12.4306 7.20314 12.429C7.12047 12.4274 7.03939 12.4258 6.95671 12.4242C6.38435 12.5355 6.00278 12.8821 5.74998 13.3893C5.73568 13.429 5.72296 13.4656 5.71342 13.5053V13.5069C5.63551 13.774 5.61961 14.0491 5.61961 14.3257C5.6212 15.887 5.61166 17.4467 5.62279 19.0079C5.62597 19.461 5.61802 19.9014 5.37477 20.3021C5.34774 20.3291 5.3223 20.3546 5.29528 20.3816L5.2285 20.5517H5.24281H5.24758C5.55602 20.5517 5.86446 20.5501 6.1729 20.5501C6.20151 20.5485 6.22854 20.5454 6.25557 20.5422V20.3943C6.26034 20.3927 6.26511 20.3927 6.26988 20.3911C6.29055 20.388 6.30963 20.3848 6.33029 20.3816C6.48292 19.9762 6.57673 19.5326 6.8009 19.1701C7.2731 18.4117 7.33669 17.5977 7.289 16.7503C7.27469 16.7455 7.26038 16.7392 7.24766 16.7344C7.26038 16.7344 7.27469 16.7328 7.28741 16.7328H7.29059C7.29059 16.7312 7.29059 16.7312 7.29059 16.7296C7.29059 16.4132 7.289 16.0968 7.289 15.782C7.29218 15.782 7.29536 15.7805 7.29854 15.7805C7.42891 15.7598 7.57677 15.8297 7.68329 15.6978C7.73735 15.6723 7.7914 15.6453 7.84546 15.6199C7.91382 15.6549 7.96788 15.6596 8.01081 15.6405C8.02671 15.6358 8.04102 15.6262 8.05373 15.6167C8.0585 15.6135 8.06168 15.6087 8.06645 15.6056C8.07599 15.5976 8.08394 15.5881 8.09189 15.5785C8.09666 15.5722 8.10143 15.5642 8.1062 15.5579C8.11097 15.5515 8.11415 15.5451 8.11892 15.5388C8.12369 15.5308 8.13005 15.5213 8.13482 15.5134C8.13482 15.5118 8.13641 15.5118 8.13641 15.5102C8.15549 15.5372 8.18252 15.5563 8.22067 15.5658C8.60861 15.4243 8.7819 15.1524 8.87253 14.8297C8.87253 14.8281 8.87412 14.8265 8.87412 14.8249C8.90274 14.6771 8.9393 14.5292 8.95679 14.3813C8.95679 14.3798 8.95679 14.3782 8.95679 14.3766C8.95838 14.367 8.95997 14.3607 8.95997 14.3527ZM8.00127 13.5514H8.00445C8.16662 13.8297 8.23975 14.1174 8.08235 14.4243C8.08235 14.4513 8.08235 14.4767 8.08235 14.5038C7.97742 14.5483 7.92495 14.6278 7.92336 14.7423C7.89634 14.7423 7.8709 14.7423 7.84387 14.7423C7.62605 14.8869 7.38598 14.9267 7.13001 14.9012C7.10298 14.9012 7.07595 14.9012 7.05051 14.9028C7.01554 14.8392 6.95671 14.8249 6.89153 14.8233C6.89153 14.7963 6.89153 14.7709 6.88994 14.7438C6.5338 14.631 6.48769 14.3448 6.48928 14.03C6.49087 14.003 6.49246 13.9775 6.49246 13.9505C6.50041 13.5896 6.70551 13.3511 7.02667 13.2637C7.39075 13.1651 7.75166 13.2016 8.00127 13.5514Z" fill="#D9596B"/>
<path d="M6.49246 13.9489C6.49246 13.9759 6.49087 14.0014 6.48928 14.0284C6.4861 14.3432 6.53379 14.6294 6.88993 14.7422C6.88993 14.7693 6.88993 14.7947 6.89152 14.8217C6.95671 14.8249 7.01553 14.8376 7.05051 14.9012C7.07754 14.9012 7.10457 14.9012 7.13 14.8996C7.38598 14.9267 7.62605 14.8853 7.84386 14.7407C7.87089 14.7407 7.89633 14.7407 7.92336 14.7407C7.92495 14.6262 7.979 14.5467 8.08235 14.5022C8.08235 14.4751 8.08235 14.4497 8.08235 14.4227C8.23975 14.1158 8.16661 13.8281 8.00444 13.5498H8.00126C7.75324 13.2001 7.39075 13.1635 7.02825 13.2621C6.70709 13.3495 6.502 13.588 6.49246 13.9489Z" fill="#C34761"/>
<path d="M11.2653 20.5565C11.286 20.5517 11.3066 20.5469 11.3257 20.5422C11.3305 20.5406 11.3353 20.5406 11.34 20.539V20.3943C11.3671 20.3911 11.3941 20.3864 11.4227 20.3816C11.6739 19.3164 11.5626 18.2321 11.5769 17.1557C11.5896 16.1207 11.5785 15.0857 11.5769 14.0506V14.0252C10.8472 14.3098 10.2192 14.7645 9.59274 15.2224C9.51325 15.3003 9.43375 15.3766 9.35267 15.4545C9.31928 15.472 9.28589 15.4895 9.25251 15.507C9.18096 15.5451 9.10942 15.5817 9.03787 15.6199V15.6326V15.8949V16.0173C9.03628 16.0698 9.03469 16.1239 9.0331 16.1763C9.03151 16.1779 9.03151 16.1795 9.02992 16.1811C9.03151 16.1795 9.0331 16.1779 9.0331 16.1779C9.0331 17.0778 9.0331 17.9761 9.0331 18.876C9.03469 19.5167 9.42739 19.9491 9.82964 20.3768C9.85667 20.3816 9.88369 20.3879 9.90913 20.3927C9.91072 20.4197 9.91072 20.4452 9.91072 20.4706V20.4754V20.5438C9.99022 20.5708 10.0697 20.5978 10.1508 20.6248C10.1921 20.6074 10.2335 20.593 10.2748 20.5803C10.5991 20.4897 10.9346 20.5756 11.2653 20.5565Z" fill="#D9596B"/>
<path d="M11.243 20.6169C11.251 20.5962 11.2574 20.5771 11.2653 20.5565C10.9346 20.5755 10.5991 20.4897 10.2748 20.5787C10.2335 20.5914 10.1921 20.6058 10.1508 20.6232C10.3225 20.7218 10.499 20.8124 10.7088 20.787C10.8646 20.7886 11.022 20.7902 11.1779 20.7918C11.1842 20.7743 11.1906 20.7568 11.1969 20.7393C11.2128 20.698 11.2271 20.6566 11.243 20.6169Z" fill="#D9596B"/>
<path d="M11.9919 20.5581C11.7741 20.5517 11.5578 20.5454 11.34 20.539C11.3353 20.5406 11.3305 20.5406 11.3257 20.5422C11.3066 20.547 11.286 20.5517 11.2653 20.5565C11.2574 20.5772 11.251 20.5962 11.243 20.6169C11.2271 20.6567 11.2128 20.698 11.1969 20.7393C11.1906 20.7568 11.1842 20.7743 11.1779 20.7918C11.1779 20.795 11.1794 20.7997 11.1794 20.8029C11.1826 20.8236 11.1842 20.8427 11.1858 20.8633C11.4863 20.7298 11.8567 20.8125 12.1207 20.5613C12.0777 20.5597 12.0364 20.5581 11.9935 20.5581H11.9919Z" fill="#C44861"/>
<path d="M5.22849 20.5501L5.29526 20.38C5.32229 20.353 5.34773 20.3275 5.37476 20.3005C5.61801 19.8999 5.62596 19.4595 5.62278 19.0063C5.61165 17.4451 5.62119 15.8854 5.6196 14.3241C5.6196 14.0475 5.6355 13.7724 5.7134 13.5053C5.72294 13.4656 5.73566 13.429 5.74997 13.3893C5.211 13.6261 4.88825 14.0347 4.82148 14.6198C4.77696 15.0173 4.74993 15.4195 4.74675 15.8202C4.7388 17.3036 4.74516 18.7901 4.74516 20.2735V20.3864V20.5485L5.01067 20.6503L5.16648 20.7091L5.21736 20.5803L5.22054 20.5724L5.22849 20.5501Z" fill="#75ABDC"/>
</g>
<defs>
<clipPath id="clip0_1_969">
<rect width="30.9488" height="39" fill="white" transform="translate(0.525604 0.5)"/>
</clipPath>
</defs>
</svg>
