<svg width="44" height="40" viewBox="0 0 44 40" fill="none" xmlns="http://www.w3.org/2000/svg">
<g clip-path="url(#clip0_1_607)">
<path d="M42.3749 33.6828C41.3073 34.1151 40.257 34.5924 39.1721 34.9865C37.6948 35.5212 36.2071 36.0142 34.6742 36.3649L34.6707 36.3614C34.6135 36.3614 34.5562 36.3614 34.4989 36.3631C34.4989 36.3926 34.4971 36.4221 34.4971 36.4499C33.8097 36.5957 33.1223 36.7468 32.4314 36.8839C31.2197 37.1252 29.9993 37.2884 28.7702 37.4186C27.3936 37.5644 26.0135 37.6217 24.6352 37.6408C23.8193 37.6512 22.9947 37.5766 22.1736 37.5783C22.1736 37.5488 22.1719 37.5193 22.1719 37.4898C22.1146 37.4898 22.0573 37.4898 22.0017 37.4898L21.9965 37.4932C20.1252 37.4655 18.2937 37.12 16.4675 36.7572C14.1378 36.2954 11.8828 35.5785 9.67297 34.7122C9.61568 34.6827 9.55839 34.6532 9.50111 34.6254L9.49763 34.6272C8.47516 34.214 7.45094 33.8043 6.4302 33.3877C6.28612 33.3287 6.13162 33.2801 6.02572 33.1516C5.96844 33.1499 5.91115 33.1499 5.8556 33.1481C5.79831 33.0908 5.73929 33.0353 5.682 32.978C5.65249 32.978 5.62124 32.9763 5.59173 32.9763C5.064 32.5944 4.48072 32.2888 4.10575 31.716C3.74467 31.1657 3.49817 30.5911 3.51726 29.9227C2.99301 29.5287 2.54339 29.0808 2.46701 28.3812C1.51918 28.3708 0.776189 28.9141 0.737998 29.7127C0.685919 30.8063 0.652936 31.9069 1.00534 32.9711C1.02617 32.9728 1.04526 32.9763 1.06609 32.9815C1.06957 33.037 1.07304 33.0926 1.07651 33.1499C1.10428 33.1794 1.1338 33.2106 1.16157 33.2401C1.46016 33.9172 1.96879 34.3945 2.62672 34.6983C3.4756 35.0924 4.33837 35.4552 5.20114 35.8163C6.58123 36.3944 7.96131 36.9724 9.39348 37.4151C9.4282 37.4429 9.46292 37.4707 9.49763 37.4984C9.55319 37.4984 9.61047 37.5002 9.66602 37.5002C9.67123 37.5193 9.6747 37.5401 9.67644 37.5609C9.75976 37.58 9.84656 37.5922 9.92815 37.6182C11.9488 38.2588 13.999 38.7744 16.1012 39.066C18.0594 39.3368 20.0245 39.4792 22.0017 39.4965L21.9913 39.4705C22.0538 39.4705 22.1163 39.4687 22.1788 39.4687L22.1684 39.4965C22.1996 39.4878 22.2291 39.4792 22.2604 39.4705C22.8957 39.3142 23.5415 39.4219 24.1821 39.4045C26.3069 39.3056 28.4109 39.0278 30.4871 38.5713C31.7977 38.2831 33.0858 37.9012 34.3843 37.5627C34.4208 37.5332 34.4572 37.5054 34.4954 37.4759C34.551 37.4741 34.6082 37.4724 34.6638 37.4724C34.6673 37.4516 34.669 37.4307 34.6725 37.4099C37.0698 36.6686 39.3752 35.7052 41.6094 34.5716C42.0052 34.372 42.3523 34.0786 42.5676 33.6672C42.4982 33.596 42.4374 33.6568 42.3749 33.6828Z" fill="#D8586B"/>
<path d="M41.6163 28.3656C41.4097 28.6294 41.4358 29.0131 41.1597 29.2405C40.948 29.6207 40.5834 29.8203 40.2258 30.0303C40.0453 30.7317 39.4533 30.9782 38.8631 31.1118C38.1079 31.282 37.424 31.0389 36.8789 30.4591C36.7817 30.3567 36.7452 30.2439 36.7487 30.1085C36.5369 30.4904 36.3859 30.9139 35.9935 31.1674C35.8113 31.4417 35.5196 31.5788 35.261 31.7559C35.4224 31.8635 35.3009 31.9416 35.2332 32.0232C35.077 32.209 34.8669 32.3253 34.6707 32.4589C34.6135 32.4867 34.5544 32.5145 34.4971 32.544C34.4954 32.5718 34.4954 32.6013 34.4937 32.6291C34.5267 32.8721 34.452 33.0058 34.176 32.9832C33.9659 32.9658 33.7542 32.978 33.5424 32.978C33.1674 32.9797 32.7907 32.9815 32.4157 32.9832C32.3289 32.9815 32.2421 32.9797 32.1553 32.978C31.7578 32.728 31.2457 32.6673 30.9245 32.301C30.6589 31.9989 30.3847 31.8166 29.9767 31.9364C29.975 31.9364 29.9732 31.9364 29.9715 31.9382C29.725 32.294 29.4629 32.6343 29.1278 32.9138C29.0705 32.9381 29.0133 32.9641 28.956 32.9884C28.916 33.0388 28.8761 33.0891 28.8362 33.1394C28.7129 33.1776 28.5984 33.2297 28.5116 33.3287C28.5862 33.3807 28.5914 33.4467 28.5359 33.5109C27.9318 34.214 27.1749 34.6428 26.26 34.806C24.6109 35.0993 23.3332 34.3859 22.1771 33.3269C22.1753 33.2974 22.1736 33.2696 22.1701 33.2401C22.1128 33.1533 22.0555 33.0665 21.9983 32.9815C21.9983 32.952 21.9983 32.9242 21.9983 32.8947C21.783 32.7662 21.7118 32.5388 21.658 32.3235C21.5834 32.0267 21.4358 31.8809 21.1233 31.9382C20.8404 32.261 20.5557 32.5839 20.2727 32.9068C20.2172 32.9346 20.1616 32.9624 20.1061 32.9884C20.0661 33.0388 20.0262 33.0891 19.9863 33.1412C19.8787 33.1533 19.7971 33.2089 19.7328 33.2922C19.5749 33.8685 19.0697 34.1185 18.6184 34.3511C16.8564 35.2538 15.0232 35.0108 13.5806 33.5491C13.466 33.4328 13.3862 33.3026 13.3202 33.1568C13.2907 33.1568 13.2612 33.1551 13.2317 33.1551C13.2317 33.0995 13.2299 33.0422 13.2299 32.9867C13.2022 32.9849 13.1727 32.9832 13.1449 32.9815C12.8029 32.3791 12.5911 31.7351 12.5199 31.0459C12.4123 31.1205 12.3047 31.1952 12.197 31.2681C12.0755 31.4764 11.8221 31.5146 11.6658 31.6795C11.3898 32.2888 10.8326 32.5475 10.2701 32.7992C10.1295 32.8617 9.96287 32.8634 9.84309 32.9797C9.7858 32.9797 9.73025 32.9797 9.67297 32.978C9.61394 32.978 9.55492 32.9797 9.49416 32.9797C9.17648 32.9797 8.8588 32.9797 8.54286 32.9797C7.78772 32.7002 7.11417 32.3079 6.68539 31.5927C6.33472 31.0077 6.1021 30.3793 6.02919 29.6953C6.02919 29.6953 6.02919 29.6953 6.02746 29.6936C5.23239 30.2387 4.39566 30.3272 3.51379 29.9279C3.4947 30.5963 3.7412 31.1709 4.10228 31.7212C4.47725 32.294 5.06053 32.5996 5.58826 32.9815C5.61777 32.9815 5.64902 32.9832 5.67853 32.9832C5.73582 33.0405 5.79484 33.096 5.85213 33.1533C5.90941 33.1551 5.9667 33.1551 6.02225 33.1568C6.12814 33.2853 6.28264 33.3339 6.42673 33.3929C7.44747 33.8095 8.47169 34.2192 9.49416 34.6324L9.49764 34.6306C9.55492 34.6601 9.61221 34.6896 9.6695 34.7174C11.8776 35.5854 14.1344 36.3006 16.464 36.7624C18.2903 37.1252 20.1217 37.4689 21.993 37.4984L21.9983 37.495C22.0555 37.495 22.1128 37.495 22.1684 37.495C22.1684 37.5245 22.1701 37.554 22.1701 37.5835C22.9912 37.5835 23.8158 37.6581 24.6317 37.646C26.0101 37.6269 27.3901 37.5713 28.7668 37.4238C29.9958 37.2936 31.2179 37.1304 32.4279 36.8891C33.1171 36.752 33.8045 36.6009 34.4937 36.4551C34.4937 36.4256 34.4954 36.3961 34.4954 36.3683C34.5527 36.3683 34.61 36.3683 34.6673 36.3666L34.6707 36.3701C36.2036 36.0194 37.6913 35.5281 39.1686 34.9917C40.2536 34.5976 41.3038 34.1203 42.3714 33.688C42.4339 33.662 42.4947 33.6012 42.5659 33.6741C42.7186 33.5734 42.7898 33.4207 42.8315 33.2488C42.8645 33.2176 42.8974 33.1863 42.9304 33.1568C42.953 33.07 42.9738 32.9832 42.9964 32.8964C43.0259 32.8652 43.0554 32.8322 43.0849 32.8009C43.3401 31.9104 43.2429 30.9955 43.295 30.0894C43.3557 29.0842 42.5225 28.2736 41.6163 28.3656Z" fill="#EF6876"/>
<path d="M2.51041 13.3044C2.7899 12.4382 3.3836 11.8983 4.28977 11.7247C5.44939 11.6362 6.19411 12.0719 6.63505 13.1013C6.8451 13.4051 6.81906 13.7749 6.95273 14.2262C6.95967 14.2193 6.96835 14.2141 6.97356 14.2071C7.02217 13.235 7.25999 12.4468 7.85022 11.7941C7.55337 11.5754 7.18535 11.6691 6.86072 11.5667C5.1456 11.0251 3.97383 9.97137 3.59712 8.15209H3.59539C3.59539 8.0948 3.59712 8.03578 3.59712 7.97849L3.59365 7.97676C3.50165 7.82052 3.50859 7.64866 3.51032 7.4768C3.51206 6.80325 3.5138 6.13144 3.50859 5.45789C3.50685 5.30686 3.5624 5.13847 3.41311 5.01695C3.07807 5.11243 2.77428 5.27908 2.48437 5.46136C1.5539 6.04637 0.89771 6.82235 0.812649 7.97329C0.791817 7.97676 0.770986 7.97849 0.750154 7.98197C0.74321 8.03752 0.734531 8.09307 0.727587 8.15035C0.711963 8.19549 0.720643 8.23021 0.75189 8.25278C0.581766 9.47315 0.710227 10.6953 0.724115 11.9156C0.734531 12.8357 1.21192 13.3808 2.13024 13.5509C2.1719 13.5648 2.20836 13.5717 2.24308 13.577C2.21183 13.5648 2.17537 13.5561 2.13024 13.5509C2.29516 13.5336 2.43577 13.5353 2.51041 13.3044Z" fill="#D8586B"/>
<path d="M22.2604 39.4722C22.9009 39.4705 23.545 39.5313 24.1821 39.4063C23.5415 39.4236 22.8957 39.316 22.2604 39.4722Z" fill="#D96E80"/>
<path d="M5.62993 29.2162C5.74451 29.2457 5.85734 29.27 5.9424 29.1554C5.94067 28.6971 5.87123 28.2458 5.7879 27.7962C5.64382 27.0219 6.08649 26.1748 6.80691 25.8623C7.04127 25.3606 7.37631 24.9683 7.93528 24.8155C7.80682 24.6749 7.63843 24.7322 7.48741 24.7322C6.10906 24.7287 4.72897 24.7322 3.35062 24.727C3.19959 24.727 3.03121 24.7843 2.90274 24.6437C2.83157 24.6437 2.7656 24.6576 2.72568 24.7253C2.9201 25.7946 2.91316 26.9247 3.59886 27.8535C4.11097 28.5496 4.78973 29.0079 5.62993 29.2162Z" fill="#ECEAF1"/>
<path d="M3.51728 29.9227C4.39915 30.3237 5.23588 30.2352 6.03095 29.6884C6.03095 29.6884 6.03095 29.6884 6.03268 29.6884L6.02227 29.6606C6.00491 29.4905 6.0917 29.3047 5.94415 29.1554C5.85735 29.2683 5.74625 29.244 5.63168 29.2162C4.79147 29.0062 4.11271 28.5496 3.60234 27.857C2.91664 26.9282 2.92358 25.7981 2.72916 24.7288C2.16323 24.9197 2.02436 25.0864 2.03825 25.6644C2.05908 26.588 2.28475 27.482 2.46876 28.3812C2.54341 29.0808 2.99129 29.5287 3.51728 29.9227Z" fill="#D9D6E4"/>
<path d="M8.28418 24.7322C8.51853 26.0967 8.54805 27.4976 8.97683 28.8256C9.1105 29.2405 9.29624 29.6415 9.65559 29.9245C9.66079 29.9227 9.666 29.9192 9.67295 29.9158C9.67295 29.9227 9.67295 29.9314 9.67295 29.9383C9.97153 30.355 10.3899 30.6049 10.8378 30.8376C11.2718 31.0615 11.7648 31.0598 12.1988 31.2629C12.3064 31.1882 12.414 31.1136 12.5216 31.0407C12.5251 31.0164 12.5303 30.9921 12.5373 30.9695C12.4349 30.0998 12.3342 29.2283 12.2283 28.3604C12.1484 27.7059 12.1693 27.0671 12.4921 26.4682C12.6432 26.1887 12.8584 25.989 13.1449 25.8606C13.4053 25.5724 13.6656 25.2825 13.926 24.9943C14.1604 24.9475 14.3652 24.6801 14.5822 24.7669C14.8548 24.8763 14.6378 25.2009 14.7228 25.4127C14.7367 25.4474 14.7645 25.4752 14.7871 25.5064C14.7888 25.5064 14.7905 25.5064 14.794 25.5064C14.794 25.5099 14.794 25.5117 14.794 25.5151C14.7767 26.3085 14.9016 27.0931 14.9815 27.8778C15.0631 28.678 15.1898 29.4905 15.5856 30.2005C16.5664 31.9607 18.0732 32.9068 20.1026 32.9867C20.1581 32.9589 20.2137 32.9311 20.2692 32.9051C20.5522 32.5822 20.8369 32.2593 21.1198 31.9364C21.625 30.8167 21.7413 29.6189 21.8246 28.4159C21.8559 27.9715 21.8854 27.5271 21.9166 27.0827C21.9166 26.9681 21.9166 26.8535 21.9166 26.739C21.9722 26.4751 22.0278 26.2112 22.0833 25.9474C22.0573 25.9231 22.0312 25.8988 22.0017 25.8762C22 25.871 21.9982 25.8658 21.9948 25.8606C21.6806 25.036 21.0261 24.5517 20.2848 24.5985C18.719 24.6228 17.1497 24.6003 15.5821 24.6124C15.4207 24.6142 15.2488 24.5829 15.0961 24.6471C16.8754 24.6471 18.6548 24.6471 20.4341 24.6471C20.3057 24.7878 20.1356 24.7287 19.9845 24.7287C18.3128 24.7322 16.6393 24.7305 14.9676 24.7305C14.9398 24.7027 14.9103 24.6732 14.8826 24.6454C14.9034 24.6454 14.9225 24.6454 14.9433 24.6454C14.9016 24.5985 14.8478 24.569 14.7853 24.5499C13.098 24.4666 11.4106 24.4996 9.72329 24.5343C9.63823 24.5482 9.56532 24.5881 9.49935 24.6437C9.09487 24.6437 8.69039 24.6454 8.28418 24.6454C8.28418 24.6749 8.28418 24.7027 8.28418 24.7322Z" fill="#ECEAF1"/>
<path d="M3.35236 24.7287C4.73071 24.734 6.11079 24.7287 7.48914 24.734C7.64017 24.734 7.80856 24.6767 7.93702 24.8173C8.04638 24.76 8.15748 24.7166 8.28421 24.7322C8.28421 24.7027 8.28421 24.6749 8.28421 24.6454C6.49097 24.6454 4.69772 24.6454 2.90448 24.6454C3.03294 24.786 3.20133 24.7287 3.35236 24.7287Z" fill="#E7E5EE"/>
<path d="M6.72009 15.8407C6.73224 15.9222 6.7496 16.0056 6.76523 16.0872C6.76349 16.009 6.75481 15.9327 6.73919 15.8545C6.73745 15.8459 6.73051 15.8407 6.72009 15.8407Z" fill="#D9D6E4"/>
<path d="M12.5234 17.3075C12.5182 17.2936 12.5147 17.2798 12.5095 17.2659C11.7301 17.2659 10.9524 17.2641 10.1729 17.2659C10.0011 17.2659 9.82748 17.2745 9.67298 17.1773C9.5775 17.1739 9.47508 17.193 9.41259 17.0905C8.54287 16.6531 8.20262 15.8979 8.34324 14.9327C8.48038 14.0005 8.55155 13.0579 8.62273 12.1188C8.64703 11.8045 8.77202 11.5008 8.71473 11.1813C8.38316 11.3237 8.12971 11.5771 7.85023 11.7941C7.26 12.4451 7.02217 13.235 6.97357 14.2071C6.97183 14.2331 6.9701 14.2575 6.96836 14.2835C6.96142 14.2644 6.95794 14.2453 6.95274 14.2262C6.81907 13.7749 6.84511 13.4051 6.63506 13.1013C6.23231 13.6221 6.12469 14.2436 6.03268 14.8685C5.96151 15.3476 5.9129 15.8302 5.85388 16.3111C5.43725 16.3111 5.01888 16.3146 4.60225 16.3111C4.0155 16.3076 3.55373 15.9014 3.64053 15.3459C3.83149 14.1342 3.98425 12.9156 4.28978 11.7247C3.38361 11.8983 2.78991 12.4382 2.51042 13.3044C2.43578 13.5353 2.29516 13.5336 2.12678 13.5544C2.17191 13.5596 2.20837 13.5683 2.23961 13.5804C2.42189 13.6464 2.41495 13.8183 2.37502 14.004C2.22052 14.7036 2.10768 15.4119 2.01741 16.1236C1.93235 16.7937 2.28301 17.2572 2.9583 17.2641C3.89572 17.2728 4.83487 17.2607 5.77229 17.2572C5.75493 16.9291 5.83478 16.6184 5.94241 16.3128C6.20107 16.3354 6.47361 16.2486 6.71665 16.4031C6.71665 16.2156 6.71665 16.0281 6.71665 15.8406C6.71491 15.8406 6.71317 15.8389 6.7097 15.8406C6.67672 15.8476 6.69408 15.8302 6.71665 15.832C6.71665 15.8268 6.71665 15.8215 6.71665 15.8163C6.71665 15.8215 6.71838 15.8268 6.71838 15.832C6.73227 15.8337 6.74963 15.8424 6.7531 15.8702C6.7722 15.957 6.7774 16.042 6.77393 16.1288C6.81907 16.3632 6.84684 16.5958 6.72533 16.8267C6.78088 16.9725 6.83643 17.1166 6.89198 17.2624C7.12807 17.6391 7.43707 17.9203 7.87627 18.0453C8.40747 18.1963 8.94909 18.2363 9.49765 18.2258C9.55667 18.2258 9.61569 18.2258 9.67472 18.2258C10.6069 18.4758 11.5461 18.3769 12.487 18.2814C12.5026 18.2484 12.5147 18.2154 12.5286 18.1824C12.4071 17.8908 12.4141 17.5992 12.5234 17.3075Z" fill="#D9D6E4"/>
<path d="M6.71663 16.4031C6.4736 16.2486 6.20106 16.3354 5.9424 16.3128C5.83477 16.6183 5.75491 16.9291 5.77227 17.2572C6.14551 17.2589 6.51874 17.2589 6.8937 17.2607C6.83815 17.1148 6.7826 16.9707 6.72705 16.8249C6.72358 16.6843 6.72011 16.5437 6.71663 16.4031Z" fill="#C6C4D6"/>
<path d="M43.2481 8.18334C43.2585 8.17466 43.2689 8.16598 43.2776 8.1573C43.2759 8.09828 43.2724 8.03926 43.2706 7.9785C43.2394 7.91948 43.2082 7.86045 43.1786 7.80143C43.1943 7.48896 43.0901 7.20426 42.9634 6.92824C42.5884 6.11755 41.8784 5.68183 41.1267 5.29124C40.014 4.71143 38.8474 4.24966 37.7104 3.7202C37.6201 3.60562 37.4934 3.54486 37.3615 3.49452C37.3024 3.47716 37.2417 3.47369 37.1809 3.48411C37.1531 3.49105 37.1271 3.5032 37.1011 3.51362C37.0993 3.50147 37.0976 3.48758 37.0941 3.47543C37.0524 3.47195 37.0091 3.46848 36.9674 3.46501C36.95 3.44418 36.9396 3.41814 36.9361 3.38516C36.8372 3.27753 36.7191 3.22718 36.5733 3.27579C36.5473 3.281 36.5212 3.28621 36.4952 3.28968C36.4674 3.26017 36.4397 3.22892 36.4101 3.19941C36.3563 3.15427 36.3008 3.15254 36.2435 3.19594C36.2435 3.19594 36.2331 3.20462 36.2296 3.20809C36.2383 3.19594 36.2452 3.18379 36.2539 3.17163C36.247 3.15775 36.24 3.14386 36.2331 3.12997C36.1168 3.1022 36.0022 3.07616 35.8859 3.04838C35.8616 3.03449 35.8355 3.02929 35.8078 3.03102C35.6776 2.92513 35.5196 2.9043 35.3616 2.87826C35.1672 2.79146 34.9728 2.70466 34.7575 2.6873C34.6898 2.59877 34.5926 2.60224 34.4954 2.60398C34.4138 2.56752 34.3305 2.53107 34.2489 2.49287C34.1621 2.35747 34.0336 2.32275 33.8826 2.34705C33.7142 2.3106 33.5458 2.27241 33.3757 2.23595C33.3427 2.20991 33.3045 2.19776 33.2611 2.19776C33.2455 2.20471 33.2316 2.21165 33.216 2.21859C33.032 2.14742 32.848 2.07451 32.664 2.00334C32.5476 1.8714 32.4157 1.80717 32.2438 1.89571C32.0512 1.85751 31.8585 1.81932 31.6675 1.78287C31.6519 1.76551 31.6276 1.75336 31.6068 1.74294C31.5877 1.73773 31.5668 1.73253 31.5477 1.72732C31.1415 1.63705 30.7353 1.54678 30.3291 1.45651C30.3221 1.46172 30.3169 1.4704 30.3117 1.47734C30.1503 1.36798 29.9611 1.39054 29.7805 1.37839C29.7649 1.35235 29.7458 1.32978 29.7215 1.31069C29.6364 1.30201 29.5514 1.29507 29.4663 1.28639C29.4576 1.29507 29.449 1.30201 29.4403 1.31069C29.2875 1.26555 29.1365 1.19438 28.9698 1.22736C28.9612 1.21868 28.9525 1.21 28.9438 1.20132C28.5671 1.16313 28.2025 1.02426 27.8154 1.05203V1.02773C27.3519 0.755183 26.8433 0.748239 26.3277 0.774278C26.2808 0.78643 26.2479 0.803789 26.2218 0.822885C26.1524 0.776014 26.0673 0.788166 25.9875 0.776014C25.7062 0.671857 25.4146 0.671857 25.1212 0.694424C25.0674 0.699632 25.0119 0.70484 24.958 0.708312C24.9442 0.680536 24.9181 0.651025 24.8747 0.62325C24.5501 0.585059 24.2289 0.439239 23.8991 0.595475C23.8696 0.607626 23.8401 0.618042 23.8106 0.630194C23.2655 0.626722 22.7187 0.62325 22.1736 0.621514C22.1128 0.611098 22.0538 0.600682 21.993 0.592003L22.0017 0.621514C19.8578 0.553812 17.733 0.741295 15.6186 1.0746C13.624 1.39054 11.6693 1.86793 9.75974 2.52759C9.73023 2.52065 9.70246 2.51371 9.67294 2.50676C9.5549 2.56752 9.43512 2.62654 9.31707 2.6873C8.95079 2.80708 8.57929 2.91645 8.21821 3.05012C6.59336 3.65076 4.97197 4.26181 3.41309 5.02564C3.56238 5.14542 3.50856 5.31554 3.50856 5.46657C3.51377 6.13838 3.51204 6.81193 3.5103 7.48549C3.5103 7.65735 3.50162 7.82921 3.59363 7.98544L3.5971 7.98718C3.5971 8.04446 3.59536 8.10349 3.59536 8.16077H3.5971C3.9738 9.98006 5.14557 11.0338 6.8607 11.5754C7.18532 11.6778 7.55334 11.5858 7.85019 11.8028C8.12968 11.5858 8.38139 11.3324 8.7147 11.19C8.87961 11.0234 9.08272 10.947 9.31187 10.9314C9.37263 10.9001 9.43512 10.8689 9.49588 10.8394C9.5549 10.8446 9.61392 10.8498 9.67121 10.855C9.75974 10.8289 9.84654 10.8012 9.93507 10.7751C9.93507 10.7734 9.93507 10.7734 9.93507 10.7717C9.93855 10.7717 9.94202 10.7717 9.94549 10.7717C10.9003 10.7612 11.7196 11.1067 12.4331 11.723C12.9956 11.723 13.558 11.723 14.1187 11.7247C14.5145 11.3098 14.827 10.7994 15.3877 10.5651C15.8321 10.0998 16.4276 9.96617 17.0195 9.91062C18.6114 9.75785 19.929 10.2856 20.8872 11.6084C20.9202 11.6535 20.9688 11.6882 21.0087 11.7282C21.3368 11.7247 21.6649 11.723 21.993 11.7195H22C22 11.7195 22 11.7195 22 11.7177C22 11.7177 22.0017 11.7177 22.0017 11.7195C22.0573 11.7195 22.1111 11.7195 22.1666 11.7195H22.1736C22.4322 11.7559 22.7065 11.6362 22.9513 11.8028C23.1839 11.5476 23.4182 11.2924 23.6509 11.0373C24.2498 10.2891 25.0796 9.99568 25.9875 9.90541C27.6384 9.74049 28.9351 10.3776 29.8951 11.7212C30.4437 11.7698 31.0026 11.6205 31.5443 11.8063C31.6797 11.6969 31.8168 11.5858 31.9522 11.4764C31.9592 11.4695 31.9678 11.4643 31.9748 11.4574C32.5338 10.947 33.2056 10.789 33.9399 10.8203C34.1239 10.8289 34.3096 10.8428 34.4937 10.855C34.4954 10.8775 34.4989 10.8984 34.5006 10.9209C34.5579 10.9314 34.6152 10.9418 34.6725 10.9505L34.6638 10.9123C35.2349 11.0789 35.714 11.3983 36.1428 11.8028C36.3164 11.6448 36.5299 11.716 36.7226 11.723C37.4239 11.7473 38.1287 11.6396 38.8266 11.782C39.2363 11.6865 39.646 11.6848 40.0557 11.7889C40.2657 11.6466 40.5018 11.7247 40.7257 11.723C41.5729 11.7125 42.42 11.7177 43.2654 11.7177C43.2845 11.6066 43.3193 11.4938 43.3227 11.3827C43.3574 10.3099 43.3366 9.24575 43.2481 8.18334Z" fill="#EF6876"/>
<path d="M9.67297 17.1791C9.82747 17.2746 10.0011 17.2676 10.1729 17.2676C10.9524 17.2659 11.7301 17.2676 12.5095 17.2676C12.5182 17.2676 12.5286 17.2676 12.5373 17.2676C12.6519 16.2312 12.7769 15.1949 12.8793 14.1585C12.9175 13.7801 13.1293 13.4537 13.1605 13.0787C13.0859 12.5354 12.7421 12.1361 12.4331 11.7178C11.7179 11.1015 10.9003 10.756 9.94551 10.7664C9.94204 10.7682 9.93857 10.7682 9.9351 10.7699C9.84657 10.796 9.75977 10.8237 9.67123 10.8498C9.67297 12.959 9.67297 15.0682 9.67297 17.1791Z" fill="#ECEAF1"/>
<path d="M9.49938 11.2074C9.49764 13.1065 9.49938 15.0057 9.49417 16.9031C9.49417 16.9655 9.44035 17.028 9.41258 17.0923C9.47507 17.1947 9.57749 17.1756 9.67297 17.1791C9.67297 15.0681 9.67297 12.959 9.67297 10.848C9.61395 10.8428 9.55493 10.8376 9.49764 10.8324C9.43688 10.8637 9.37439 10.8949 9.31363 10.9244C9.48722 10.9452 9.49938 11.0685 9.49938 11.2074Z" fill="#E8E7F0"/>
<path d="M34.4971 32.0284C34.0684 32.0059 33.6344 32.0805 33.2073 31.9868C31.9609 31.7108 31.204 30.9313 30.8742 29.7144C30.8256 29.5339 30.7943 29.3499 30.7561 29.1676C30.7041 29.2231 30.652 29.2804 30.5999 29.336C30.5027 30.2283 30.3551 31.1084 29.9715 31.9312C29.9732 31.933 29.9732 31.933 29.975 31.9347C30.3847 31.8149 30.6572 31.9989 30.9228 32.2993C31.244 32.6638 31.7561 32.7246 32.1536 32.9763C32.2404 32.978 32.3272 32.9797 32.414 32.9815C32.789 32.9797 33.1657 32.978 33.5406 32.9763C33.8618 32.8704 34.1465 32.6673 34.4919 32.6274C34.4919 32.5996 34.4937 32.5701 34.4954 32.5423C34.4971 32.3704 34.4971 32.1986 34.4971 32.0284Z" fill="#D8586B"/>
<path d="M34.4972 32.0284C34.4972 32.2003 34.4972 32.3704 34.4972 32.5423C34.5544 32.5145 34.6135 32.4867 34.6708 32.4572C34.8669 32.3236 35.0787 32.209 35.2332 32.0215C35.3009 31.9399 35.4224 31.8618 35.261 31.7542C35.0075 31.8462 34.7523 31.9364 34.4972 32.0284Z" fill="#DA5F72"/>
<path d="M33.5424 32.9746C33.7541 32.9746 33.9659 32.9624 34.176 32.9798C34.452 33.0023 34.5266 32.8687 34.4937 32.6256C34.1482 32.6656 33.8618 32.8687 33.5424 32.9746Z" fill="#ED6675"/>
<path d="M40.9028 24.7287C39.9255 24.7339 38.9464 24.7322 37.9691 24.7322C37.917 25.2617 38.0906 25.7651 38.1618 26.2807C38.2416 26.8622 38.3423 27.4386 38.693 27.9489C39.2936 28.8221 40.08 29.303 41.1598 29.244C41.4358 29.0166 41.4097 28.6312 41.6163 28.369C41.7361 27.5618 41.8472 26.7511 41.9809 25.9456C42.092 25.279 41.9496 24.9631 41.3524 24.6506C41.224 24.786 41.0539 24.727 40.9028 24.7287Z" fill="#ECEAF1"/>
<path d="M35.8877 24.7305C36.6289 24.8607 37.24 25.5655 37.2712 26.3744C37.292 26.9299 37.2677 27.482 37.0473 28.0114C36.9935 28.1399 37.0264 28.3048 37.0264 28.4558C37.0316 28.4576 37.0386 28.4593 37.0438 28.461C37.0959 28.3933 37.0612 28.2701 37.1948 28.2336C37.3163 28.5044 37.3459 28.8082 37.5004 29.0704C38.0524 30.0078 38.9481 30.3272 40.2275 30.0321C40.5834 29.822 40.9497 29.6224 41.1615 29.2422C40.0817 29.3012 39.2953 28.8221 38.6947 27.9472C38.344 27.4368 38.2433 26.8622 38.1635 26.2789C38.0923 25.7634 37.9187 25.2617 37.9708 24.7305C37.9708 24.7027 37.9708 24.6749 37.9691 24.6471C37.2764 24.6471 36.5838 24.6471 35.8894 24.6471C35.8877 24.6749 35.8859 24.7027 35.8877 24.7305Z" fill="#D9D6E4"/>
<path d="M37.969 24.7305C38.9464 24.7305 39.9255 24.7322 40.9028 24.727C41.0538 24.727 41.2222 24.7843 41.3507 24.6454C40.2223 24.6454 39.0939 24.6454 37.9656 24.6472C37.969 24.6749 37.969 24.7027 37.969 24.7305Z" fill="#E6E4EC"/>
<path d="M41.434 13.1569C41.217 12.485 40.7622 11.9938 40.0574 11.7837C39.6477 11.6796 39.2381 11.6813 38.8284 11.7768C38.8041 11.7924 38.778 11.8045 38.752 11.815C38.4465 12.4746 38.3909 13.1985 38.2381 13.8946C38.1288 14.3981 37.9569 14.8911 37.9656 15.4171C37.976 16.0056 38.2711 16.3094 38.8718 16.3111C39.7519 16.3146 40.6338 16.3094 41.5139 16.3146C41.6649 16.3163 41.835 16.2573 41.9635 16.3996C42.0573 16.325 42.0486 16.2278 42.0312 16.1253C41.9201 15.4778 41.8385 14.8251 41.691 14.1863C41.6059 13.82 41.6181 13.5891 42.0503 13.5527C41.7344 13.5926 41.5486 13.5145 41.434 13.1569Z" fill="#ECEAF1"/>
<path d="M37.0768 14.6428C37.0525 14.5022 37.0022 14.3668 37.0178 14.221C37.0074 13.3113 36.7609 12.4885 36.1446 11.7976C35.7158 11.3931 35.2367 11.0737 34.6656 10.907L34.6742 10.9452C34.6725 13.0527 34.6708 15.1601 34.669 17.2676C35.4502 17.2676 36.2331 17.2676 37.0143 17.2693C37.0421 17.2693 37.0716 17.2693 37.0994 17.2676C37.4518 16.3875 37.2244 15.5143 37.0768 14.6428Z" fill="#ECEAF1"/>
<path d="M34.6708 17.2659C34.6135 17.2659 34.5545 17.2659 34.4972 17.2659C34.2524 17.2659 34.0059 17.2676 33.7611 17.2676C32.0443 17.2676 31.2822 16.3597 31.5512 14.6863C31.6971 13.7818 31.7804 12.867 31.895 11.9573C31.9158 11.7959 31.947 11.6344 31.9731 11.4747C31.9661 11.4713 31.9609 11.4713 31.954 11.4678C31.8186 11.5772 31.6814 11.6883 31.546 11.7976C31.02 12.4243 30.7249 13.1447 30.6763 13.9624C30.6173 14.9519 30.7996 15.9275 30.8534 16.91C30.8777 17.3579 30.8378 17.7953 30.6815 18.2172C30.6763 18.2207 30.6711 18.2224 30.6659 18.2259C30.6781 18.2415 30.6919 18.2571 30.7093 18.271C30.81 18.3318 30.9246 18.3526 31.0391 18.3543C32.0581 18.3665 33.0772 18.3647 34.0962 18.3561C34.242 18.3543 34.3826 18.33 34.4972 18.2259C34.5562 18.2259 34.6152 18.2259 34.6725 18.2259C35.0614 18.2658 35.445 18.1807 35.82 18.1182C36.3373 18.0314 36.8025 17.8092 37.016 17.2676C36.2349 17.2659 35.4537 17.2659 34.6708 17.2659Z" fill="#D9D6E4"/>
<path d="M41.5156 16.3146C40.6355 16.3094 39.7536 16.3146 38.8735 16.3111C38.2729 16.3094 37.9777 16.0038 37.9673 15.4171C37.9586 14.8911 38.1305 14.3981 38.2399 13.8946C38.3926 13.1968 38.4465 12.4746 38.7537 11.815C37.8111 12.1327 37.3406 12.8236 37.1931 13.7766C37.1688 13.9363 37.2365 14.1342 37.0212 14.221C37.0056 14.3668 37.0559 14.5022 37.0803 14.6428C37.2278 15.5143 37.4552 16.3875 37.1063 17.2641C38.3753 17.2641 39.646 17.2676 40.915 17.2659C41.4549 17.2659 42.0347 17.009 41.967 16.3996C41.8368 16.2573 41.6667 16.3163 41.5156 16.3146Z" fill="#D9D6E4"/>
<path d="M40.7275 11.716C40.5053 11.7195 40.2692 11.6414 40.0574 11.782C40.7622 11.9938 41.217 12.4833 41.434 13.1551C41.5503 13.5127 41.7343 13.5908 42.0503 13.5509C42.9842 13.2107 43.3002 12.7333 43.2672 11.7108C42.42 11.7108 41.5729 11.7056 40.7275 11.716Z" fill="#D8586B"/>
<path d="M29.909 24.8711C30.7371 25.378 30.9558 26.1505 30.8378 27.0601C30.7579 27.6694 30.6694 28.277 30.6763 28.8933C30.7839 28.961 30.7683 29.0634 30.7562 29.1658C30.7944 29.3481 30.8256 29.5339 30.8742 29.7127C31.204 30.9296 31.9609 31.709 33.2073 31.985C33.6344 32.0788 34.0666 32.0041 34.4972 32.0267C34.7523 31.9364 35.0075 31.8444 35.2627 31.7542C35.5231 31.5771 35.8148 31.4399 35.9953 31.1657C35.5353 31.1171 35.0787 31.0476 34.6708 30.8063C34.5996 30.8046 34.5354 30.789 34.4972 30.7195C33.6188 30.322 33.0563 29.6259 32.8202 28.7232C32.539 27.6469 32.421 26.5359 32.3272 25.4249C32.1536 25.1818 32.2803 24.9041 32.2369 24.6471C32.2439 24.6471 32.2526 24.6471 32.2595 24.6471C32.2439 24.6263 32.2283 24.6055 32.2057 24.5864C31.4315 24.4458 30.6555 24.4874 29.8795 24.5638C29.8413 24.5847 29.8135 24.6055 29.7892 24.6263C29.7962 24.6333 29.8049 24.6385 29.8135 24.6454C29.7337 24.7704 29.8135 24.8121 29.909 24.8711Z" fill="#D9D6E4"/>
<path d="M37.4986 29.0686C37.3441 28.8065 37.3146 28.5027 37.1931 28.2319C37.0594 28.2684 37.0941 28.3916 37.042 28.4593C37.0368 28.4663 37.0316 28.4732 37.0264 28.4784C37.049 29.0409 36.8875 29.5721 36.7521 30.1085C36.7487 30.2421 36.7851 30.355 36.8823 30.4591C37.4257 31.0389 38.1114 31.2837 38.8665 31.1119C39.4568 30.9782 40.047 30.7334 40.2293 30.0304C38.9464 30.3272 38.0506 30.0061 37.4986 29.0686Z" fill="#D8586B"/>
<path d="M4.28977 11.7247C3.9825 12.9156 3.83148 14.1359 3.64052 15.3459C3.55199 15.9014 4.01549 16.3076 4.60224 16.3111C5.01887 16.3146 5.43723 16.3111 5.85386 16.3111C5.91289 15.8302 5.96149 15.3476 6.03267 14.8685C6.12641 14.2436 6.23404 13.6221 6.63504 13.1013C6.19411 12.0719 5.44939 11.6344 4.28977 11.7247Z" fill="#ECEAF1"/>
<path d="M22.0017 27.3327C22.0017 27.3346 22.0017 27.3346 22.0017 27.3366C22.0056 27.3346 22.0095 27.3346 22.0134 27.3346C22.0095 27.3327 22.0056 27.3327 22.0017 27.3327Z" fill="#D9D6E4"/>
<path d="M22.0833 25.9457C22.0278 26.2095 21.9722 26.4734 21.9167 26.7373C22.059 26.9143 22.1042 27.1174 22.0729 27.3379C22.1302 27.8899 22.1892 28.442 22.2465 28.994C22.375 29.8811 22.3385 30.7959 22.7829 31.6222C23.0381 32.0962 23.3679 32.5041 23.7394 32.8843C23.854 32.9728 23.9669 33.0613 24.0814 33.1499C25.5257 34.0474 27.0013 34.129 28.5116 33.3235C28.6001 33.2245 28.7147 33.1724 28.8362 33.1343C28.8761 33.0839 28.9161 33.0336 28.956 32.9832C26.8833 32.9051 25.2046 31.6917 24.5276 29.7665C24.2967 29.1103 24.2515 28.4159 24.1856 27.7337C24.0849 26.706 23.8922 25.6835 23.9061 24.6454C23.9113 24.6402 23.9182 24.635 23.9235 24.6298C23.7516 24.4961 23.5624 24.5465 23.3801 24.6038C22.8472 24.7704 22.4028 25.0568 22.1198 25.5568C22.0642 25.6523 22.0261 25.753 21.9948 25.8589C21.9965 25.8641 21.9983 25.8693 22.0017 25.8745C22.0313 25.8971 22.0573 25.9214 22.0833 25.9457Z" fill="#D9D6E4"/>
<path d="M24.0797 33.1516C23.9651 33.0631 23.8523 32.9745 23.7377 32.886C23.3662 32.5058 23.0364 32.0979 22.7812 31.624C22.3368 30.7976 22.3733 29.8811 22.2448 28.9957C22.1875 28.4437 22.1285 27.8917 22.0712 27.3396C22.0521 27.3379 22.0313 27.3361 22.0104 27.3344C22.007 27.3344 22.0035 27.3361 22 27.3361C21.9983 29.1884 21.9965 31.0389 21.9948 32.8912C21.9948 32.9207 21.9948 32.9485 21.9948 32.978C22.0521 33.0648 22.1094 33.1516 22.1667 33.2367C22.1684 33.2662 22.1701 33.294 22.1736 33.3235C23.3298 34.3824 24.6074 35.0959 26.2566 34.8025C27.1714 34.6393 27.9283 34.2105 28.5324 33.5075C28.588 33.4432 28.5828 33.3773 28.5081 33.3252C26.9996 34.1289 25.524 34.0491 24.0797 33.1516Z" fill="#D8586B"/>
<path d="M9.67471 32.0302C9.67471 32.3444 9.67471 32.6586 9.67645 32.9745C9.73374 32.9745 9.78929 32.9745 9.84657 32.9763C9.96462 32.8599 10.133 32.8582 10.2736 32.7957C10.8361 32.544 11.3933 32.2853 11.6693 31.676C11.0322 31.9555 10.3656 32.0614 9.67471 32.0302Z" fill="#D9596B"/>
<path d="M9.6747 32.0302C9.58617 32.0041 9.49763 31.9764 9.4091 31.9503C7.85195 31.4972 7.13673 30.473 6.9805 28.7301C6.95793 28.4732 6.91974 28.2198 6.89023 27.9628C6.78954 28.3013 6.71142 28.6485 6.57949 28.9732C6.46665 29.2492 6.30868 29.513 6.02225 29.6606L6.03266 29.6884V29.6901C6.10557 30.3723 6.33993 31.0008 6.68885 31.5875C7.1159 32.3027 7.78945 32.695 8.54633 32.9745C8.86401 32.9745 9.18169 32.9745 9.49763 32.9745C9.55666 32.9745 9.61741 32.9728 9.67644 32.9728C9.6747 32.6586 9.6747 32.3444 9.6747 32.0302Z" fill="#D8586B"/>
<path d="M15.5857 30.1988C15.1899 29.487 15.0631 28.6763 14.9815 27.876C14.9017 27.0914 14.7767 26.3067 14.7941 25.5134C14.7923 25.5099 14.7888 25.5082 14.7871 25.5047C14.7645 25.4735 14.7368 25.4457 14.7229 25.411C14.6378 25.1975 14.8548 24.8746 14.5823 24.7652C14.3653 24.6784 14.1604 24.9458 13.9261 24.9926C13.6657 25.2808 13.4053 25.5707 13.1449 25.8589C13.2734 26.0498 13.138 26.2425 13.1345 26.4335C13.1223 27.3848 13.2595 28.3205 13.4001 29.2561C13.4956 30.6327 13.8254 31.9156 14.8774 32.9051C14.9607 32.9746 15.0423 33.0457 15.1256 33.1152C15.136 33.1238 15.1465 33.1325 15.1569 33.1412C15.7315 33.4762 16.3217 33.7505 16.9952 33.8564C17.9882 34.0127 18.8736 33.7332 19.7329 33.2888C19.7971 33.2054 19.8787 33.1499 19.9863 33.1377C20.0262 33.0874 20.0662 33.037 20.1061 32.985C18.075 32.9051 16.5665 31.959 15.5857 30.1988Z" fill="#D9D6E4"/>
<path d="M16.9935 33.8564C16.3217 33.7505 15.7297 33.4762 15.1551 33.1412C15.1412 33.1412 15.1273 33.1412 15.1134 33.1412C15.1187 33.1308 15.1204 33.1238 15.1239 33.1152C15.0405 33.0457 14.9589 32.9745 14.8756 32.9051C13.8236 31.9156 13.4938 30.6327 13.3983 29.2561C13.2612 29.2978 13.2508 29.4124 13.2334 29.5287C13.1483 30.0807 12.8984 30.5529 12.5356 30.9695C12.5286 30.9921 12.5234 31.0164 12.5199 31.0407C12.5911 31.7299 12.8012 32.3739 13.1449 32.9763C13.1726 32.978 13.2022 32.9797 13.2299 32.9815C13.2299 33.037 13.2317 33.0943 13.2317 33.1499C13.2612 33.1499 13.2907 33.1516 13.3202 33.1516C13.3862 33.2957 13.466 33.4276 13.5806 33.5439C15.0232 35.0056 16.8563 35.2504 18.6183 34.3459C19.0697 34.1151 19.5749 33.8633 19.7328 33.287C18.8718 33.7332 17.9865 34.0126 16.9935 33.8564Z" fill="#D8586B"/>
<path d="M10.8378 30.8376C10.3899 30.6067 9.97155 30.3567 9.67297 29.9384C9.66776 29.9331 9.66255 29.9279 9.65561 29.9245C9.29453 29.6415 9.11052 29.2405 8.97685 28.8256C8.54807 27.4959 8.51856 26.0949 8.2842 24.7322C8.15748 24.7166 8.04638 24.76 7.93701 24.8173C7.37804 24.97 7.043 25.3624 6.80864 25.8641C6.64025 26.4595 6.75483 27.0688 6.72358 27.6712C6.71664 27.8083 6.85378 27.8552 6.89023 27.9628C6.92148 28.218 6.95793 28.4732 6.9805 28.7301C7.13674 30.473 7.85195 31.4955 9.4091 31.9503C9.49764 31.9764 9.58617 32.0041 9.67471 32.0302C10.3656 32.0632 11.0322 31.9555 11.6693 31.6743C11.8238 31.5094 12.079 31.4712 12.2005 31.2629C11.7648 31.0615 11.2718 31.0615 10.8378 30.8376Z" fill="#D9D6E4"/>
<path d="M6.57775 28.9749C6.70969 28.6503 6.7878 28.3013 6.88849 27.9646C6.85377 27.8552 6.71489 27.8101 6.72184 27.6729C6.75308 27.0706 6.63851 26.4612 6.8069 25.8658C6.08474 26.1783 5.64381 27.0272 5.78789 27.7997C5.87122 28.2475 5.93892 28.7006 5.94239 29.1589C6.08995 29.3082 6.00315 29.4939 6.02051 29.6641C6.30694 29.513 6.46492 29.2492 6.57775 28.9749Z" fill="#C5C3D6"/>
<path d="M14.9676 24.7305C16.6394 24.7305 18.3128 24.7322 19.9845 24.7287C20.1356 24.7287 20.3057 24.786 20.4342 24.6471C18.6548 24.6471 16.8754 24.6471 15.0961 24.6471C15.044 24.6471 14.9937 24.6471 14.9416 24.6471C14.9208 24.6471 14.9017 24.6471 14.8808 24.6471C14.9103 24.6749 14.9399 24.7027 14.9676 24.7305Z" fill="#E6E4EC"/>
<path d="M8.62445 12.1205C8.55327 13.0614 8.48036 14.0023 8.34496 14.9345C8.20435 15.8997 8.54459 16.6548 9.41431 17.0923C9.44208 17.0298 9.4959 16.9673 9.4959 16.9031C9.50111 15.0039 9.49937 13.1048 9.50111 11.2074C9.50111 11.0685 9.48895 10.9453 9.31362 10.9244C9.08448 10.94 8.87963 11.0164 8.71645 11.1831C8.772 11.5042 8.64701 11.8063 8.62445 12.1205Z" fill="#ECEAF1"/>
<path d="M13.1466 17.6981C13.1466 17.5835 13.1449 17.469 13.1449 17.3544C12.9557 17.2329 12.7439 17.2745 12.5373 17.2676C12.5321 17.2815 12.5269 17.2954 12.5217 17.3093C12.414 17.6009 12.4071 17.8925 12.5252 18.1842C12.5286 18.1946 12.5321 18.205 12.5373 18.2154C12.7977 18.2172 13.0564 18.2206 13.3167 18.2224C13.3428 18.0193 13.2161 17.8682 13.1466 17.6981Z" fill="#C6C4D7"/>
<path d="M6.72704 16.8249C6.84682 16.5958 6.81904 16.3614 6.77564 16.1271C6.77217 16.1132 6.77044 16.0993 6.7687 16.0854C6.75308 16.0038 6.73572 15.9205 6.72356 15.8389C6.72356 15.8354 6.72183 15.832 6.72183 15.8285C6.72183 15.8233 6.72009 15.8181 6.72009 15.8129C6.72009 15.8181 6.72009 15.8233 6.72009 15.8285C6.72009 15.832 6.72009 15.8354 6.72009 15.8372C6.72009 16.0247 6.72009 16.2121 6.72009 16.3996C6.72009 16.5437 6.72356 16.6843 6.72704 16.8249Z" fill="#EEEDF3"/>
<path d="M21.9965 16.0264C21.9965 16.1514 22.0382 16.2885 21.9219 16.3909C21.9219 16.4482 21.9219 16.5073 21.9236 16.5645C21.974 16.5645 22.0243 16.5628 22.0746 16.5628C22.1319 15.9552 22.1909 15.3459 22.2482 14.7383C22.3281 13.7193 22.4027 12.6986 22.953 11.7924C22.7083 11.6257 22.434 11.7455 22.1753 11.7091H22.1684C22.1128 11.7091 22.059 11.7091 22.0035 11.7091H22.0017H21.9948C21.9965 13.1499 21.9983 14.589 21.9965 16.0264Z" fill="#D8596C"/>
<path d="M31.8949 11.9556C31.7804 12.8652 31.6971 13.7801 31.5512 14.6845C31.2822 16.358 32.0425 17.2659 33.7611 17.2659C34.0059 17.2659 34.2524 17.2659 34.4971 17.2641C34.4989 15.1463 34.5024 13.0284 34.5041 10.9105C34.5024 10.888 34.4989 10.8671 34.4971 10.8446C34.3131 10.8324 34.1274 10.8168 33.9434 10.8098C33.2108 10.7786 32.5373 10.9348 31.9783 11.4469C31.9765 11.4556 31.9748 11.4643 31.9731 11.4712C31.947 11.6344 31.9158 11.7941 31.8949 11.9556Z" fill="#ECEAF1"/>
<path d="M34.4972 17.2659C34.5544 17.2659 34.6135 17.2659 34.6708 17.2659C34.6725 15.1584 34.6742 13.051 34.676 10.9435C34.6187 10.9331 34.5614 10.9227 34.5041 10.914C34.5024 13.0301 34.4989 15.148 34.4972 17.2659Z" fill="#E8E7F0"/>
<path d="M37.0195 14.221C37.2347 14.1342 37.167 13.9346 37.1913 13.7766C37.3372 12.8236 37.8093 12.1326 38.752 11.815C38.778 11.8046 38.804 11.7924 38.8284 11.7768C38.1305 11.6362 37.4257 11.7421 36.7244 11.7178C36.5334 11.7108 36.3199 11.6379 36.1446 11.7976C36.7626 12.4868 37.0091 13.3114 37.0195 14.221Z" fill="#D8586B"/>
<path d="M21.9965 17.0124C21.8698 16.8805 21.9253 16.7191 21.9219 16.5663C21.9219 16.509 21.9219 16.45 21.9201 16.3927C21.8212 15.3112 21.7517 14.2262 21.5695 13.1517C21.4809 12.6326 21.2448 12.1778 21.0105 11.7212C20.9688 11.6813 20.922 11.6466 20.889 11.6015C19.9307 10.2804 18.6131 9.75267 17.0213 9.90369C16.4293 9.96098 15.8339 10.0929 15.3895 10.5582C15.3252 11.2213 15.2697 11.8862 15.1881 12.5476C15.169 12.7021 15.1447 12.8566 15.1412 13.0128C15.1412 13.0423 15.1412 13.0718 15.1395 13.1013C15.0596 13.4433 15.0371 13.7905 15.0527 14.1412C14.9208 14.3599 14.978 14.6012 14.9676 14.8355C14.8409 15.2609 14.8461 15.7035 14.7923 16.1375C14.7923 16.1948 14.7923 16.2538 14.7923 16.3111C14.8166 17.443 15.662 18.212 16.9119 18.2189C18.3423 18.2259 19.7728 18.2189 21.2032 18.2224C21.3542 18.2224 21.5243 18.1651 21.6528 18.3092C21.8403 18.1825 21.7917 17.9012 21.9965 17.7867C22.0243 17.7867 22.0538 17.7867 22.0816 17.7867C22.066 17.528 21.9549 17.278 21.9965 17.0124Z" fill="#ECEAF1"/>
<path d="M21.2067 18.2224C19.7762 18.2189 18.3458 18.2258 16.9154 18.2189C15.6655 18.212 14.8183 17.4429 14.7958 16.3111C14.7958 16.2538 14.7958 16.1948 14.7958 16.1375C14.8496 15.7035 14.8427 15.2608 14.9711 14.8355C14.9815 14.6012 14.926 14.3599 15.0562 14.1411C15.0406 13.7905 15.0631 13.4433 15.143 13.1013C15.143 13.0718 15.143 13.0423 15.1447 13.0128C15.1482 12.8565 15.1725 12.702 15.1916 12.5475C15.2732 11.8861 15.3287 11.2213 15.393 10.5581C14.8322 10.7942 14.5198 11.3028 14.124 11.7177C13.7959 12.3566 13.4956 13.0041 13.3706 13.7262C13.3029 13.5092 13.2334 13.294 13.1657 13.077C13.1345 13.452 12.9209 13.7783 12.8845 14.1568C12.7821 15.1949 12.6571 16.2295 12.5425 17.2659C12.7474 17.2728 12.9609 17.2311 13.1501 17.3527C13.1501 17.0141 13.1501 16.6739 13.1501 16.3354C13.2004 16.7902 13.3272 17.2468 13.1518 17.6964C13.2195 17.8665 13.348 18.0175 13.3237 18.2189C13.5337 18.6442 13.907 18.83 14.3444 18.9254C14.7645 19.0174 15.1881 19.0869 15.6204 19.0869C17.089 19.0869 18.5593 19.0747 20.028 19.0938C20.7171 19.1025 21.2587 18.8681 21.6598 18.3074C21.5278 18.1668 21.3577 18.2241 21.2067 18.2224ZM13.1345 16.3701C13.1067 16.377 13.1154 16.3649 13.1345 16.3701V16.3701ZM13.1813 16.6045C13.1744 16.5315 13.1657 16.4586 13.1536 16.3857C13.1536 16.3823 13.1518 16.3805 13.1501 16.3788C13.1657 16.3909 13.1831 16.417 13.19 16.4708C13.1848 16.5142 13.1813 16.5593 13.1813 16.6045Z" fill="#D9D6E4"/>
<path d="M21.5695 13.1516C21.7518 14.2245 21.8212 15.3094 21.9202 16.3927C22.0365 16.2903 21.9948 16.1514 21.9948 16.0281C21.9965 14.589 21.9948 13.1516 21.9931 11.7125C21.665 11.716 21.3369 11.7177 21.0088 11.7212C21.2466 12.1778 21.481 12.6326 21.5695 13.1516Z" fill="#D8586B"/>
<path d="M13.1622 13.077C13.2299 13.294 13.2994 13.5093 13.3671 13.7263C13.4921 13.0041 13.7924 12.3549 14.1205 11.7178C13.558 11.7178 12.9956 11.7178 12.4349 11.716C12.7439 12.1344 13.0859 12.5354 13.1622 13.077Z" fill="#D8596B"/>
<path d="M24.1856 27.7354C24.2533 28.4194 24.2967 29.112 24.5275 29.7682C25.2046 31.6934 26.8832 32.9051 28.956 32.9849C29.0133 32.9606 29.0705 32.9346 29.1278 32.9103C29.4629 32.6325 29.725 32.2906 29.9715 31.9347C29.9715 31.933 29.9732 31.9312 29.9732 31.9312C30.3569 31.1084 30.5044 30.2282 30.6017 29.336C30.5548 29.1763 30.6676 29.0443 30.678 28.895C30.6711 28.2788 30.7596 27.6712 30.8395 27.0619C30.9575 26.1522 30.7405 25.3797 29.9107 24.8728C29.8153 24.8138 29.7354 24.7721 29.8153 24.6489C29.8083 24.6419 29.7996 24.635 29.791 24.6298C29.633 24.4909 29.4334 24.5083 29.2441 24.5083C27.6557 24.5031 26.0673 24.5031 24.4789 24.5083C24.2862 24.5083 24.0849 24.4892 23.9252 24.635C23.92 24.6402 23.913 24.6437 23.9078 24.6506C23.8904 25.6852 24.0831 26.706 24.1856 27.7354Z" fill="#ECEAF1"/>
<path d="M30.7562 29.1659C30.7683 29.0634 30.7839 28.961 30.6763 28.8933C30.6676 29.0426 30.5531 29.1745 30.5999 29.3342C30.652 29.2787 30.7041 29.2231 30.7562 29.1659Z" fill="#DA8FA0"/>
<path d="M32.3272 25.4266C32.4227 26.5359 32.539 27.6486 32.8202 28.7249C33.0563 29.6276 33.617 30.3255 34.4971 30.7213C34.5353 30.7907 34.5996 30.8063 34.6707 30.8081C35.0787 31.0511 35.5352 31.1188 35.9953 31.1674C36.3876 30.914 36.5386 30.4904 36.7504 30.1085C36.8858 29.5721 37.049 29.0409 37.0247 28.4784C37.0247 28.4715 37.0247 28.4628 37.0247 28.4541C37.0247 28.3031 36.9934 28.1382 37.0455 28.0097C37.266 27.4802 37.292 26.9265 37.2695 26.3727C37.2382 25.5655 36.6272 24.8589 35.8859 24.7288C35.8859 24.701 35.8859 24.6732 35.8876 24.6454C35.4814 24.6437 35.0769 24.642 34.6707 24.6402C34.6117 24.6402 34.5544 24.6402 34.4954 24.6402C33.8097 24.4163 33.1205 24.4475 32.4296 24.6176C32.4244 24.6315 32.4227 24.642 32.4209 24.6524C32.4192 24.6489 32.4157 24.6472 32.414 24.6437C32.3619 24.6437 32.3116 24.6454 32.2595 24.6454C32.2525 24.6454 32.2439 24.6454 32.2369 24.6454C32.2803 24.9058 32.1536 25.1836 32.3272 25.4266Z" fill="#ECEAF1"/>
<path d="M30.8534 16.9083C30.7995 15.9257 30.6173 14.9501 30.6763 13.9606C30.5253 13.8773 30.5374 13.7141 30.5166 13.5839C30.4159 12.9225 30.2163 12.2976 29.8951 11.7108C28.9351 10.3672 27.6401 9.73008 25.9875 9.895C25.0796 9.98527 24.2498 10.2786 23.6509 11.0268C23.6266 12.1326 23.4269 13.2194 23.3124 14.3165C23.2516 14.8998 23.1648 15.483 23.1301 16.0681C23.052 17.3631 23.8974 18.212 25.2566 18.2172C26.8572 18.2241 28.4595 18.2172 30.06 18.2206C30.211 18.2206 30.3812 18.1651 30.5079 18.3074C30.56 18.2797 30.6121 18.2502 30.6641 18.2224C30.6693 18.2189 30.6745 18.2172 30.6798 18.2137C30.8377 17.7936 30.8777 17.3561 30.8534 16.9083Z" fill="#ECEAF1"/>
<path d="M30.5166 13.5839C30.5357 13.7141 30.5236 13.8773 30.6763 13.9606C30.7249 13.143 31.02 12.4226 31.546 11.7959C31.0044 11.6101 30.4454 11.7594 29.8969 11.7108C30.218 12.2976 30.4159 12.9242 30.5166 13.5839Z" fill="#D8586B"/>
<path d="M22.0017 27.3327C22.0052 27.3327 22.0087 27.3327 22.0122 27.3344C22.033 27.3362 22.0521 27.3379 22.0729 27.3396C22.1042 27.1174 22.059 26.9161 21.9167 26.739C21.9167 26.8536 21.9167 26.9681 21.9167 27.0827C22.0156 27.14 21.9931 27.2424 22.0017 27.3327Z" fill="#DF8E9D"/>
<path d="M13.4001 29.2561C13.2595 28.3204 13.1241 27.3848 13.1345 26.4335C13.1362 26.2425 13.2734 26.0515 13.1449 25.8589C12.8585 25.9873 12.6415 26.187 12.4922 26.4664C12.1693 27.0653 12.1485 27.7042 12.2283 28.3586C12.3342 29.2283 12.4349 30.0981 12.5373 30.9678C12.9001 30.5511 13.1501 30.0772 13.2352 29.5269C13.2525 29.4124 13.2629 29.296 13.4001 29.2561Z" fill="#C5C3D6"/>
<path d="M22.0017 27.3361C22.0017 27.3344 22.0017 27.3344 22.0017 27.3327C21.9913 27.2424 22.0139 27.1417 21.9166 27.081C21.8854 27.5254 21.8559 27.9698 21.8246 28.4142C21.7413 29.6172 21.625 30.815 21.1198 31.9347C21.4323 31.8774 21.5799 32.0232 21.6545 32.3201C21.7083 32.5353 21.7795 32.7627 21.9948 32.8912C22 31.0389 22 29.1867 22.0017 27.3361Z" fill="#D8596B"/>
<path d="M30.0618 18.2224C28.4612 18.2189 26.8589 18.2259 25.2584 18.2189C23.8991 18.2137 23.0537 17.3631 23.1318 16.0698C23.1666 15.4848 23.2534 14.9015 23.3141 14.3182C23.4287 13.2228 23.6283 12.1344 23.6526 11.0286C23.42 11.2838 23.1857 11.539 22.953 11.7941C22.4027 12.7003 22.3281 13.721 22.2482 14.7401C22.191 15.3476 22.1319 15.957 22.0746 16.5645C22.0764 16.719 22.1337 16.8822 21.9983 17.0124C21.9566 17.278 22.0677 17.528 22.0851 17.7884C22.1423 17.9325 22.2014 18.0783 22.2587 18.2224C22.6909 18.8317 23.2638 19.1129 24.0293 19.1008C25.6594 19.073 27.2929 19.0747 28.923 19.1008C29.6087 19.1112 30.1156 18.8473 30.5097 18.3127C30.3829 18.1668 30.2128 18.2241 30.0618 18.2224Z" fill="#D9D6E4"/>
<path d="M13.1466 17.6981C13.322 17.2468 13.1935 16.7919 13.1449 16.3371C13.1449 16.6756 13.1449 17.0159 13.1449 17.3544C13.1449 17.469 13.1466 17.5835 13.1466 17.6981Z" fill="#E0DEE9"/>
<path d="M21.9219 16.5663C21.9236 16.719 21.8698 16.8805 21.9965 17.0124C22.1319 16.8822 22.0746 16.719 22.0729 16.5645C22.0226 16.5645 21.9722 16.5663 21.9219 16.5663Z" fill="#E0A5B3"/>
<path d="M40.0071 4.74962C40.0071 4.74962 32.039 0.173635 23.1266 0.517354C14.2142 0.861073 7.2652 3.39731 7.2652 3.39731" fill="#EF6876"/>
</g>
<defs>
<clipPath id="clip0_1_607">
<rect width="42.6768" height="39" fill="white" transform="translate(0.661621 0.5)"/>
</clipPath>
</defs>
</svg>
