<svg width="34" height="40" viewBox="0 0 34 40" fill="none" xmlns="http://www.w3.org/2000/svg">
<g clip-path="url(#clip0_1_590)">
<path d="M10.5177 0.507956C18.1805 0.506364 25.8433 0.507956 33.5046 0.5C33.8037 0.5 33.9135 0.563645 33.9183 0.893007C34.0679 12.33 33.9501 23.7686 33.9788 35.2072C33.9803 35.6543 33.8833 36.0998 33.9056 36.5501C33.8149 36.8317 33.8944 37.126 33.8324 37.4124C33.7512 37.7768 33.6144 37.9137 33.2437 37.9232C32.6056 37.9391 32.2015 37.5859 32.1378 36.9287C31.9835 35.3615 31.6541 33.842 31.0081 32.3972C30.4353 31.118 29.7114 29.9358 28.7662 28.8968C27.374 27.3677 25.7606 26.1441 23.8226 25.3756C22.4574 24.8346 21.0557 24.4734 19.5807 24.4003C16.2027 24.2316 12.8216 24.3684 9.44364 24.3239C8.79606 24.3159 8.22166 24.16 7.76978 23.6476C7.21607 23.0192 7.07287 22.1981 7.42292 21.4296C7.62658 20.9825 7.9098 20.5784 8.1071 20.1265C8.45237 19.3357 8.56216 18.5497 8.08164 17.7669C7.62022 17.0174 6.91217 16.6833 6.07047 16.6929C3.92086 16.7199 2.57477 14.3603 3.75856 12.4016C5.65996 9.26072 7.55976 6.11666 9.42773 2.95669C9.88439 2.18341 10.306 1.39421 10.5177 0.507956Z" fill="#FEDDC9"/>
<path d="M10.5176 0.507923C10.5733 1.08073 10.3267 1.57557 10.0594 2.04176C8.58443 4.62257 7.05059 7.16836 5.50083 9.70461C4.90893 10.6736 4.28521 11.6283 3.75378 12.6307C2.91367 14.2154 3.64399 16.0723 5.50083 16.5576C5.84451 16.6467 6.2057 16.5639 6.5637 16.6387C8.04026 16.9442 8.81991 18.2362 8.38554 19.673C8.20256 20.2776 7.88115 20.8106 7.56929 21.3453C6.87079 22.5386 7.74272 24.2316 9.32907 24.2204C12.1915 24.2029 15.0555 24.2125 17.9179 24.2172C19.4247 24.2188 20.922 24.3302 22.3763 24.763C24.1917 25.3024 25.8576 26.1202 27.3151 27.3581C28.7758 28.5992 29.9802 30.036 30.8267 31.7544C31.538 33.1975 32.0137 34.7139 32.1569 36.3257C32.1792 36.5739 32.2046 36.8237 32.2444 37.0703C32.3303 37.6081 33.0129 38.025 33.4823 37.7991C33.7783 37.6574 33.7751 37.3233 33.826 37.0417C33.8546 36.8778 33.7639 36.6948 33.904 36.5484C33.9055 37.4235 33.9008 38.2987 33.9135 39.1738C33.9167 39.4125 33.8435 39.4984 33.5969 39.4968C32.1124 39.4872 30.6262 39.4856 29.1417 39.4984C28.8681 39.5 28.8171 39.3918 28.8108 39.1467C28.7424 36.0775 27.7177 33.3439 25.7972 30.97C24.2108 29.0065 22.2124 27.5841 19.813 26.7439C18.2887 26.2109 16.731 25.942 15.1128 25.9563C12.3952 25.9786 9.67753 25.9627 6.9583 25.9659C6.40141 25.9659 5.85565 25.8768 5.30353 25.8259C4.55889 25.7574 3.80788 24.51 3.93517 23.7558C4.0545 23.0509 4.52229 22.5211 4.76414 21.8815C5.04259 21.1496 5.31308 20.424 5.1126 19.6125C5.00918 19.1972 4.79278 18.8615 4.52388 18.5481C4.37909 18.3794 4.19293 18.3158 3.96063 18.3189C3.30031 18.3285 2.6384 18.3683 1.98604 18.2044C0.334458 17.7907 -0.512019 15.8623 0.331276 14.3936C2.34564 10.8964 4.45228 7.45317 6.53029 3.99407C7.19538 2.88665 7.37517 1.76332 6.80237 0.507923C8.0689 0.507923 9.29407 0.507923 10.5176 0.507923Z" fill="#F5CCB2"/>
<path d="M5.9798 29.3836C6.11504 29.2563 6.28211 29.312 6.43486 29.3104C9.57255 29.3057 12.7102 29.2818 15.8463 29.32C17.0938 29.3343 18.2839 29.7066 19.4248 30.219C21.8751 31.3232 23.6078 33.1323 24.6675 35.5858C24.9858 36.3209 25.2467 37.0863 25.3103 37.8993C25.1035 37.9821 24.8903 37.928 24.6819 37.928C23.1194 37.9327 21.5553 37.928 19.9928 37.9311C18.6101 37.9343 17.3372 37.6272 16.3046 36.6391C15.8591 36.2127 15.2863 36.2111 14.7389 36.192C14.0404 36.1666 13.3387 36.1889 12.6371 36.2366C10.8741 36.3575 9.37207 35.8038 8.29647 34.3352C7.86528 33.7465 7.64252 33.0655 7.56296 32.3431C7.52955 32.0424 7.42613 31.7862 7.26065 31.538C6.88674 30.9795 6.45713 30.4417 6.41895 29.7257C6.40144 29.452 6.09595 29.5364 5.9798 29.3836Z" fill="#FEDDC9"/>
<path d="M5.97982 29.3837C6.36805 29.3343 6.60354 29.4107 6.55262 29.896C6.51921 30.2158 6.69582 30.5293 6.88835 30.7711C7.41342 31.4267 7.668 32.1649 7.81756 32.986C8.10874 34.5898 9.8908 35.9805 11.5392 36.0966C12.5098 36.165 13.4613 35.9964 14.4239 36.0568C14.8328 36.0823 15.237 36.1332 15.6443 36.1634C16.0946 36.1969 16.3905 36.5485 16.7024 36.8206C17.3484 37.3838 18.1074 37.6527 18.9347 37.7339C20.8886 37.9264 22.8505 37.7721 24.8076 37.8182C24.9778 37.823 25.1544 37.7943 25.3088 37.8994C25.4011 38.329 25.3676 38.7681 25.4106 39.2009C25.4361 39.4571 25.3358 39.5048 25.129 39.4952C25.0892 39.4937 25.0494 39.4952 25.0096 39.4952C21.6174 39.4952 18.2267 39.4937 14.8344 39.4984C14.5846 39.4984 14.4334 39.4698 14.3634 39.1723C14.1582 38.3035 13.5408 37.8278 12.645 37.8198C11.5726 37.8103 10.4986 37.8198 9.42619 37.8166C7.4341 37.8118 5.77138 36.5485 5.22722 34.6296C5.20653 34.5548 5.18744 34.4753 5.18426 34.3973C5.15721 33.842 4.97741 33.3519 4.62577 32.9112C4.3696 32.5914 4.23276 32.1952 4.04183 31.834C3.48653 30.7823 4.67828 29.2548 5.77615 29.3853C5.84616 29.3964 5.91299 29.3853 5.97982 29.3837Z" fill="#F5CCB2"/>
</g>
<defs>
<clipPath id="clip0_1_590">
<rect width="33.9927" height="39" fill="white" transform="translate(0.00363159 0.5)"/>
</clipPath>
</defs>
</svg>
