<svg width="42" height="44" viewBox="0 0 42 44" fill="none" xmlns="http://www.w3.org/2000/svg">
<g clip-path="url(#clip0_1_796)">
<path d="M21.1664 39.3485C21.1629 39.3503 21.1593 39.3538 21.1576 39.3573C21.1629 39.3626 21.1664 39.3661 21.1699 39.3713V39.3485C21.1681 39.3485 21.1681 39.3485 21.1664 39.3485Z" fill="#D9596B"/>
<path d="M3.56247 31.1656C2.92564 31.5303 2.36926 31.9976 1.88821 32.5643C2.0303 32.4205 2.71849 31.7323 3.56247 31.1656Z" fill="#D9596B"/>
<path d="M6.31179 30.2805C6.21079 30.2925 6.10979 30.3079 6.01221 30.3233C6.46415 30.2822 6.90583 30.2429 7.29614 30.212C6.96746 30.2206 6.64048 30.2394 6.31179 30.2805Z" fill="#D9596B"/>
<path d="M41.793 18.9203C41.5396 17.3453 41.2315 15.7841 40.3584 14.4043C38.9444 12.1685 36.9089 11.054 34.2657 11.0403C34.2914 11.2732 34.1561 11.3673 33.9524 11.393C33.7401 11.4204 33.6083 11.3314 33.5792 11.1105V11.1037C33.5809 11.0814 33.5826 11.0609 33.5844 11.0403C33.5553 11.0301 33.5244 11.0215 33.4953 11.0129C33.4388 11.0147 33.3806 11.0147 33.3241 11.0164C33.2009 10.965 33.0776 10.9171 33.0639 11.1088C33.0622 11.1088 33.0622 11.1088 33.0605 11.1088C32.8688 10.9428 32.6548 11.0164 32.4528 11.0677C31.9135 11.1995 31.388 11.3827 30.871 11.5813C29.6059 12.0709 27.9915 11.684 27.2622 10.6072C27.1921 10.5028 27.1116 10.3984 26.9798 10.3607C26.9473 10.3282 26.9147 10.2957 26.8822 10.2614L26.7333 9.9995C26.5313 9.37122 26.4662 8.72583 26.4731 8.06674C26.4833 7.14231 26.4679 6.21616 26.4628 5.29002C26.4713 5.23352 26.4816 5.17703 26.4902 5.12054V2.89505C26.4816 2.83855 26.4713 2.78206 26.4628 2.72557C26.4679 2.23938 26.4662 1.75491 26.4782 1.27044C26.4833 1.08041 26.4354 0.984547 26.2197 0.986259C24.4804 1.00167 22.7394 1.0068 21.0001 1.01707C21.0035 2.63997 21.0086 4.26287 21.012 5.88576C21.0617 5.88919 21.113 5.8909 21.1627 5.89432C21.1644 5.28317 21.173 4.67373 21.1661 4.06257C21.1627 3.78524 21.2568 3.71163 21.5273 3.79551C21.8252 3.88624 22.0358 4.09681 22.2789 4.26115C22.2806 4.26287 22.2806 4.26458 22.2806 4.26629C22.4535 4.57957 22.6247 4.89285 22.7959 5.20442V5.20613C22.7976 5.20613 22.7976 5.20784 22.7976 5.20784V9.96012V10.0834V10.258C22.7976 10.2991 22.7959 10.3419 22.7976 10.383C22.789 11.2783 22.8113 12.1616 23.2187 13.0022C23.7545 14.1132 25.5675 15.1815 27.1955 14.4796C28.3801 13.9677 29.6196 13.6801 30.9206 13.7691C31.7132 13.8239 32.4853 13.9968 33.2385 14.2536C33.2659 14.2622 33.2933 14.2707 33.3207 14.281C33.3224 14.3084 33.3259 14.3358 33.3293 14.3632C33.3584 14.3632 33.3858 14.3632 33.4132 14.3649C33.4388 14.3632 33.4662 14.3649 33.4919 14.3649C33.4936 14.3923 33.4953 14.4214 33.497 14.4505C34.2246 14.6011 34.7587 15.0788 35.2997 15.5324C36.8901 16.8677 37.5885 18.6721 37.9429 20.6476C38.0473 21.2314 38.1175 21.822 38.2031 22.4092V22.4126V22.4143C38.2356 22.4468 38.275 22.4742 38.3246 22.4999C38.4068 22.505 38.4873 22.5102 38.5695 22.5119C38.4685 22.5153 38.3692 22.5204 38.2699 22.5256C38.2425 22.5427 38.2202 22.5615 38.2031 22.5804L38.2048 22.5821C38.2819 23.5253 38.4479 24.4635 38.3075 25.417C38.2322 25.9357 38.2647 26.463 38.2236 26.9886C38.1295 28.1561 37.8778 29.2877 37.5697 30.4055C37.1999 31.7494 36.6863 33.0453 36.0666 34.2967C35.9913 34.4491 35.8937 34.5895 35.8064 34.735L35.8081 34.7401C35.8064 34.7418 35.8064 34.7452 35.8047 34.747C35.8321 34.7795 35.8681 34.8034 35.9091 34.8189C35.9348 34.8206 35.9588 34.8223 35.9845 34.824C35.9434 34.824 35.904 34.8257 35.8629 34.8257C35.8253 34.8274 35.7893 34.8326 35.7551 34.8445C35.7431 34.8651 35.7328 34.8856 35.7225 34.9062L35.7191 34.9096C35.084 36.0651 34.3564 37.1573 33.497 38.1588C33.4953 38.1879 33.4936 38.217 33.4936 38.2478C33.4714 38.2581 33.4508 38.2701 33.4286 38.2821C33.4234 38.2838 33.42 38.2872 33.4149 38.2889H33.4132C33.3858 38.3043 33.3567 38.318 33.3293 38.3334C33.3276 38.3608 33.3259 38.3899 33.3241 38.4173V38.52C33.3224 38.6809 33.3224 38.8419 33.3207 39.0028C33.4012 38.9771 33.4611 38.9292 33.497 38.8504C35.0309 37.7668 36.3782 36.488 37.5166 34.9935C37.5046 34.8839 37.4567 34.8394 37.3985 34.8257C37.5012 34.8052 37.6039 34.7795 37.7066 34.7452C38.6379 33.6376 39.3467 32.3896 39.9681 31.0937C41.2554 28.4043 41.9385 25.5711 41.959 22.5838C41.9094 22.5376 41.8563 22.5136 41.7947 22.505C41.8563 22.4879 41.9128 22.4571 41.9625 22.4092C42.0241 21.2399 41.9796 20.0741 41.793 18.9203Z" fill="#F06977"/>
<path d="M21.1627 5.90628V5.8943C21.113 5.89088 21.0617 5.88917 21.012 5.88574C21.0634 5.93025 21.113 5.93368 21.1627 5.90628Z" fill="#D9596B"/>
<path d="M8.74613 39.1209C8.73586 39.174 8.7136 39.2253 8.67252 39.2733C8.75811 39.2989 8.84371 39.3229 8.9293 39.3469C8.82316 39.2887 8.77181 39.2099 8.74613 39.1209Z" fill="#DA6D80"/>
<path d="M38.2699 22.5256C38.3692 22.5204 38.4685 22.5153 38.5695 22.5119C38.4873 22.5102 38.4068 22.505 38.3247 22.4999C38.275 22.4742 38.2357 22.4468 38.2031 22.4143V22.5804C38.2202 22.5615 38.2425 22.5427 38.2699 22.5256Z" fill="#EB7A89"/>
<path d="M41.959 22.5838C41.959 22.5256 41.9607 22.4674 41.9624 22.4092C41.9128 22.4571 41.8563 22.4879 41.7947 22.505C41.8563 22.5136 41.9094 22.5376 41.959 22.5838Z" fill="#EB7A89"/>
<path d="M0.619674 34.6408C0.540926 34.7093 0.530654 34.8035 0.522095 34.8993C0.583724 34.8514 0.650488 34.824 0.718965 34.8086C0.671031 34.7846 0.633369 34.735 0.619674 34.6408Z" fill="#DA697C"/>
<path d="M33.3241 38.4173C32.8671 38.9052 32.4117 39.3914 31.9563 39.8776C32.4494 39.6448 32.8808 39.3178 33.3207 39.0028C33.3224 38.8419 33.3224 38.681 33.3241 38.52V38.4173Z" fill="#EF6A78"/>
<path d="M35.8629 34.8257C35.904 34.8257 35.9434 34.824 35.9845 34.824C35.9588 34.8222 35.9348 34.8205 35.9091 34.8188C35.8681 34.8034 35.8321 34.7794 35.8047 34.7469C35.7876 34.7794 35.7705 34.812 35.7551 34.8445C35.7893 34.8325 35.8253 34.8274 35.8629 34.8257Z" fill="#EB7A88"/>
<path d="M37.5166 34.9934C37.58 34.9096 37.6433 34.8274 37.7066 34.7452C37.6039 34.7794 37.5012 34.8051 37.3985 34.8257C37.4567 34.8394 37.5046 34.8839 37.5166 34.9934Z" fill="#EB7A88"/>
<path d="M33.5792 11.1105C33.6083 11.3314 33.7401 11.4204 33.9524 11.393C34.1561 11.3673 34.2914 11.2732 34.2657 11.0403H33.5844C33.5826 11.0609 33.5809 11.0814 33.5792 11.1037V11.1105Z" fill="#F06977"/>
<path d="M33.7607 14.6268C35.4161 15.4999 36.6127 16.7907 37.2615 18.5522C37.6416 19.5845 37.8607 20.6613 38.0182 21.7501C38.049 21.9761 38.0216 22.238 38.1997 22.4126H38.2014H38.2031V22.4092C38.1175 21.822 38.0473 21.2314 37.9429 20.6476C37.5885 18.6721 36.8901 16.8677 35.2997 15.5324C34.7587 15.0787 34.2246 14.6011 33.497 14.4505V14.4864C33.5741 14.5515 33.6717 14.5806 33.7607 14.6268Z" fill="#D9596B"/>
<path d="M33.4286 14.3991C33.4303 14.4077 33.4337 14.4163 33.4388 14.4231C33.4508 14.4402 33.4628 14.4556 33.4782 14.4693C33.4834 14.4762 33.4902 14.4813 33.4971 14.4864V14.4505C33.4953 14.4214 33.4936 14.3923 33.4919 14.3649C33.4662 14.3649 33.4388 14.3632 33.4132 14.3649C33.3858 14.3632 33.3584 14.3632 33.3293 14.3632V14.382C33.3618 14.4009 33.3943 14.406 33.4286 14.3991Z" fill="#D97487"/>
<path d="M20.9933 36.6151C20.9952 36.6132 20.9971 36.6114 20.9989 36.6095H20.9915L20.9933 36.6151Z" fill="#F19C79"/>
<path d="M20.5755 39.2459C20.1475 39.2544 19.7264 39.1996 19.3018 39.1586C17.316 38.9634 15.4295 38.4156 13.6166 37.5939C12.6921 37.1744 12.0912 36.5308 12.0039 35.4745C11.9885 35.2828 12.0005 35.0585 11.8499 34.9079L11.8344 34.9096C11.8276 36.25 12.3532 37.2446 13.6593 37.7411C13.9247 37.8421 14.1815 37.9654 14.4434 38.0715C16.5439 38.9309 18.73 39.3554 20.9983 39.3708V39.3486C20.9983 39.3469 20.9983 39.3469 20.9983 39.3452C20.8836 39.239 20.7261 39.2424 20.5755 39.2459Z" fill="#F19C79"/>
<path d="M8.72222 35.4814V35.4437C8.70681 35.4643 8.69141 35.4882 8.67429 35.5054C8.68969 35.4968 8.70681 35.4899 8.72222 35.4814Z" fill="#DA7083"/>
<path d="M8.68457 32.3452C8.72394 32.3708 8.75989 32.376 8.79413 32.3657C8.81125 32.3623 8.82837 32.3537 8.84378 32.34L8.79413 32.3417L8.68457 32.3452Z" fill="#DA7083"/>
<path d="M11.8607 34.9083C11.8607 34.9013 11.859 34.8961 11.859 34.8891C11.8537 34.8926 11.8485 34.8978 11.8432 34.9013L11.8344 34.9101L11.8502 34.9083H11.8607Z" fill="#DA7083"/>
<path d="M4.25237 34.7863C4.24552 34.7709 4.23525 34.7555 4.22156 34.7384V34.7863V34.8223V34.9061C4.24724 34.877 4.25922 34.8496 4.25922 34.8223C4.25922 34.8103 4.25751 34.7983 4.25237 34.7863Z" fill="#DA6D80"/>
<path d="M7.95013 34.8223C7.95013 34.8496 7.96383 34.877 7.9878 34.9061V34.8223V34.7863V34.7401C7.9741 34.7555 7.96383 34.7709 7.95869 34.7863C7.95356 34.7983 7.95013 34.8103 7.95013 34.8223Z" fill="#DA6D80"/>
<path d="M25.2747 38.6929C24.0216 38.9325 22.7788 39.2527 21.4863 39.2441C21.3716 39.2441 21.2534 39.2612 21.1696 39.3451C21.1696 39.3468 21.1696 39.3468 21.1696 39.3485V39.3708C22.599 39.3828 23.9908 39.1363 25.3637 38.7631C25.4596 38.7083 25.5555 38.6552 25.6514 38.6021C25.5264 38.6347 25.4014 38.6655 25.2747 38.6929Z" fill="#F19C79"/>
<path d="M30.669 34.9044C30.645 34.9079 30.6176 34.9096 30.5919 34.913C30.5902 34.913 30.5902 34.913 30.5885 34.913C29.6281 36.0275 28.4692 36.9057 27.2366 37.688C26.723 38.015 26.1837 38.3043 25.6513 38.6022C25.5555 38.6553 25.4596 38.7083 25.3637 38.7631C25.4904 38.7426 25.6188 38.734 25.7404 38.7015C27.1698 38.3026 28.5291 37.7274 29.7976 36.9605C30.7802 36.3664 31.7612 35.7604 32.5572 34.913H32.4596C31.8622 34.9096 31.2664 34.9079 30.669 34.9044Z" fill="#DD8765"/>
<path d="M33.4388 38.1725C33.4354 38.1793 33.4303 38.1845 33.4269 38.1913C33.4234 38.205 33.4217 38.2204 33.42 38.2341C33.3789 38.2461 33.3584 38.2992 33.3293 38.3334C33.3567 38.318 33.3858 38.3043 33.4132 38.2889H33.4149C33.42 38.2872 33.4234 38.2838 33.4286 38.282C33.4508 38.2701 33.4714 38.2581 33.4936 38.2478C33.4936 38.217 33.4953 38.1879 33.4971 38.1588V38.0852C33.4765 38.1143 33.4577 38.1434 33.4388 38.1725Z" fill="#D96E81"/>
<path d="M35.8013 34.7435C35.7397 34.7675 35.6986 34.8034 35.7123 34.8685C35.6969 34.8822 35.6832 34.8959 35.6695 34.9096H35.7191L35.7225 34.9061C35.7328 34.8856 35.7431 34.8651 35.7551 34.8445C35.7705 34.812 35.7876 34.7795 35.8047 34.7469C35.8064 34.7452 35.8064 34.7418 35.8081 34.7401L35.8064 34.735H35.7944C35.7961 34.7384 35.7979 34.7418 35.8013 34.7435Z" fill="#D96E81"/>
<path d="M30.8453 34.735C30.8145 34.7367 30.7854 34.7367 30.7563 34.7384C30.7408 34.7675 30.7254 34.7966 30.71 34.8257C30.6963 34.8514 30.6826 34.8788 30.6689 34.9044C31.2664 34.9079 31.8621 34.9096 32.4596 34.913H32.5572C32.5829 34.9096 32.6103 34.9079 32.6376 34.9061C32.6565 34.8719 32.6753 34.8377 32.6941 34.8051C32.7061 34.7829 32.7181 34.7623 32.7301 34.7401H32.6719C32.0624 34.7384 31.4547 34.7367 30.8453 34.735Z" fill="#DD8765"/>
<path d="M38.1552 22.9502C38.1432 23.8712 38.2339 24.787 38.1945 25.7166C38.0781 28.4694 37.4019 31.0595 36.2721 33.5538C36.0992 33.9372 35.8629 34.2984 35.791 34.723C35.7893 34.7247 35.7893 34.7281 35.7893 34.7298C35.791 34.7316 35.7927 34.7333 35.7944 34.735H35.8064C35.8937 34.5895 35.9913 34.4491 36.0666 34.2967C36.6863 33.0453 37.1999 31.7494 37.5697 30.4056C37.8778 29.2877 38.1295 28.1561 38.2237 26.9886C38.2647 26.463 38.2322 25.9357 38.3075 25.417C38.4479 24.4635 38.2819 23.5254 38.2048 22.5821L38.2031 22.5804C38.1141 22.6848 38.1569 22.8218 38.1552 22.9502Z" fill="#D9596B"/>
<path d="M21.1712 5.9029C21.1798 5.89776 21.19 5.89092 21.1986 5.88407C21.2928 5.7454 21.2825 5.58791 21.2842 5.43383C21.2893 5.05379 21.2791 4.67203 21.2893 4.29199C21.2996 3.89996 21.404 3.8486 21.755 4.03178C21.9262 4.12251 22.0563 4.29712 22.2771 4.28343C22.2771 4.28 22.2788 4.27829 22.2788 4.27487C22.2891 4.67374 22.5151 4.95621 22.7958 5.20615V5.20444C22.6246 4.89287 22.4534 4.57959 22.2805 4.26631C22.2805 4.2646 22.2805 4.26288 22.2788 4.26117C22.0357 4.09683 21.8252 3.88626 21.5273 3.79553C21.2568 3.71165 21.1627 3.78526 21.1661 4.06259C21.1729 4.67374 21.1644 5.28319 21.1627 5.89434V5.90632C21.1661 5.90632 21.1678 5.90461 21.1712 5.9029Z" fill="#D5596B"/>
<path d="M22.7069 5.32424C22.6897 5.37731 22.6743 5.43209 22.6726 5.48858C22.6469 6.88893 22.6606 8.28928 22.6658 9.68962C22.6658 9.78207 22.6778 9.87451 22.7137 9.95668H22.7154C22.7342 10.0012 22.7616 10.044 22.7976 10.0834V9.96011V5.20783C22.7976 5.20783 22.7976 5.20612 22.7959 5.20612C22.7651 5.22323 22.7342 5.25919 22.7069 5.32424Z" fill="#D5596B"/>
<path d="M35.6284 34.9541C35.3784 35.2263 35.2346 35.5721 35.0395 35.8819C34.5858 36.6027 34.0483 37.2617 33.5758 37.9671C33.5484 38.0064 33.5227 38.0458 33.497 38.0852V38.1588C34.3564 37.1573 35.084 36.0651 35.7191 34.9096H35.6695C35.6558 34.925 35.6421 34.9387 35.6284 34.9541Z" fill="#D9596B"/>
<path d="M22.7496 11.8501C22.9533 14.0379 25.3774 15.4075 27.3187 14.5601C29.1368 13.7675 31.0113 13.651 32.9116 14.2793C33.0263 14.317 33.1461 14.3666 33.2642 14.3118C33.2694 14.3255 33.2779 14.3392 33.2865 14.3512C33.2967 14.3615 33.307 14.37 33.319 14.3769C33.3224 14.3786 33.3258 14.3803 33.3293 14.382V14.3632C33.3258 14.3358 33.3224 14.3084 33.3207 14.281C33.2933 14.2708 33.2659 14.2622 33.2385 14.2536C32.4853 13.9969 31.7132 13.8239 30.9206 13.7692C29.6195 13.6801 28.3801 13.9677 27.1955 14.4796C25.5674 15.1815 23.7545 14.1133 23.2187 13.0022C22.8113 12.1617 22.789 11.2783 22.7976 10.383C22.7958 10.3419 22.7976 10.2991 22.7976 10.258C22.7787 10.3008 22.7616 10.3419 22.7496 10.3847C22.5853 10.8675 22.7034 11.3588 22.7496 11.8501Z" fill="#D9596B"/>
<path d="M37.443 22.5855C37.4516 22.5684 37.4635 22.5496 37.4772 22.5307C37.4858 22.529 37.4961 22.5273 37.5046 22.5273C37.4413 22.5222 37.3797 22.517 37.318 22.5153C37.3488 22.5393 37.3779 22.5633 37.4088 22.5855H37.443Z" fill="#DA7284"/>
<path d="M38.1997 22.4126C38.198 22.416 38.198 22.416 38.1963 22.416C38.1312 22.4588 38.0645 22.4862 37.996 22.505C38.0662 22.517 38.1347 22.541 38.2031 22.5804V22.4143V22.4126H38.2014H38.1997Z" fill="#DA7284"/>
<path d="M21.084 36.731C21.0857 36.7567 21.0891 36.7824 21.0891 36.8081C21.0891 36.7824 21.0908 36.755 21.0908 36.7293C21.0942 36.6882 21.1028 36.6506 21.1199 36.6163C21.0857 36.6146 21.0497 36.6129 21.0138 36.6112C21.0446 36.6437 21.0685 36.6831 21.084 36.731Z" fill="#ECA890"/>
<path d="M21.1695 39.3486C21.1695 39.3469 21.1695 39.3469 21.1695 39.3452C21.1678 39.3452 21.1678 39.3452 21.1678 39.3469C21.125 39.2972 21.1028 39.2425 21.0925 39.186C21.0754 39.2459 21.0463 39.299 21.0001 39.3469L20.9984 39.3452C20.9984 39.3469 20.9984 39.3469 20.9984 39.3486C21.0001 39.3486 21.0001 39.3486 21.0018 39.3486H21.0155H21.1507H21.1661C21.1678 39.3486 21.1678 39.3486 21.1695 39.3486Z" fill="#ECA890"/>
<path d="M27.7673 22.6728C27.7176 22.7567 27.6663 22.8423 27.6166 22.9262H33.2385C33.2385 22.9262 33.2385 22.9262 33.2403 22.9279V22.9262C34.2451 23.0768 34.995 23.5596 35.298 24.573C35.4811 25.1859 35.3853 25.8056 35.2569 26.4202C35.0908 27.2111 34.8477 27.9797 34.6081 28.7501C35.4041 28.6508 36.1471 28.3649 36.8969 28.1047C36.9859 28.0739 37.0767 28.0448 37.1657 28.0157C37.1965 28.0071 37.2273 27.9969 37.2581 27.9866C37.6878 27.1272 37.8299 26.1874 38.061 25.2681C38.3144 24.2529 38.1226 23.3798 37.431 22.6129C37.4242 22.6043 37.4173 22.5958 37.4088 22.5872C37.378 22.565 37.3488 22.541 37.318 22.517C37.2718 22.4828 37.2239 22.4468 37.1777 22.4109C36.4997 21.947 35.7242 21.9778 34.9556 21.9692H33.5895H30.1793H30.152C29.4158 21.9949 28.6814 22.0291 28.0223 22.416L27.9196 22.5187C27.87 22.5701 27.8186 22.6214 27.7673 22.6728Z" fill="#DBD7E5"/>
<path d="M11.8721 34.8753C11.8841 34.824 11.8755 34.7777 11.8464 34.7384H11.8396C11.8464 34.788 11.8516 34.8394 11.8584 34.889C11.8584 34.8959 11.8601 34.901 11.8601 34.9079C11.8652 34.8959 11.8687 34.8856 11.8721 34.8753Z" fill="#EBAA92"/>
<path d="M20.9915 36.5873C20.9949 36.1747 20.9743 35.7621 21.0052 35.3513C21.0274 35.0637 20.9504 34.9147 20.7295 34.8959C20.6816 34.8908 20.6285 34.8925 20.5669 34.901C20.5395 34.9027 20.5104 34.9062 20.483 34.9096C19.7777 35.6526 19.9831 36.339 20.9932 36.6147L20.9915 36.6095V36.5873Z" fill="#CB7452"/>
<path d="M16.3659 28.7073C15.1368 29.6746 13.8032 30.4757 12.3823 31.1348C11.2439 31.6638 10.0438 31.9942 8.84546 32.34C9.14162 32.4256 9.40526 32.287 9.67403 32.2133C11.0504 31.8401 12.3669 31.3163 13.6234 30.6332C14.9929 29.8868 16.2512 28.9932 17.4222 27.9695C17.5437 27.8634 17.7012 27.7589 17.6601 27.5501C17.2972 28.0106 16.8196 28.3495 16.3659 28.7073Z" fill="#D9596B"/>
<path d="M11.8588 34.7406C11.8606 34.7336 11.8606 34.7248 11.8641 34.7178C11.8571 34.7231 11.8501 34.7301 11.8431 34.7354C11.8413 34.7371 11.8413 34.7371 11.8396 34.7389H11.8466L11.8588 34.7406Z" fill="#D9596B"/>
<path d="M25.5058 34.9079C24.9357 34.9096 24.364 34.9113 23.7939 34.913H23.7459L23.7408 34.9113C23.9599 35.466 24.2321 35.6902 24.6704 35.6782C25.1309 35.6645 25.3552 35.466 25.5383 34.9062L25.5332 34.9079H25.5058Z" fill="#CB7452"/>
<path d="M21.5136 34.9096C21.4845 34.9061 21.4571 34.9027 21.4297 34.901C21.3955 34.8805 21.363 34.8582 21.3287 34.8377C21.2859 34.8103 21.2431 34.7846 21.2003 34.7572C21.1901 34.7504 21.1798 34.7435 21.1695 34.7384C21.113 34.7384 21.0548 34.7367 20.9966 34.7367C20.9401 34.7367 20.8853 34.7367 20.8288 34.7384C20.8254 34.7401 20.8203 34.7435 20.8169 34.7469C20.733 34.7966 20.6508 34.8479 20.5669 34.901C20.6286 34.8924 20.6816 34.8907 20.7296 34.8959C20.9504 34.9147 21.0274 35.0636 21.0052 35.3512C20.9744 35.7621 20.9949 36.1747 20.9915 36.5872V36.6095H20.9983C21.0035 36.6095 21.0086 36.6112 21.0137 36.6112C21.0497 36.6129 21.0856 36.6146 21.1199 36.6163C21.137 36.6181 21.1524 36.6181 21.1678 36.6198C21.1952 36.5941 21.2243 36.5684 21.2517 36.541C22.046 36.1798 22.1436 35.5755 21.5136 34.9096Z" fill="#CB7452"/>
<path d="M25.5506 34.7419C25.5471 34.7385 25.5436 34.7367 25.5384 34.735L25.5366 34.7367L25.5506 34.7419Z" fill="#EBA991"/>
<path d="M25.5382 34.9061C25.5365 34.9044 25.5349 34.9027 25.5332 34.9027V34.9078L25.5382 34.9061Z" fill="#EBA991"/>
<path d="M30.6621 34.8479C30.6347 34.8651 30.6108 34.8856 30.5902 34.9113L30.5885 34.913C30.5902 34.913 30.5902 34.913 30.5919 34.913C30.6176 34.9096 30.645 34.9079 30.669 34.9044C30.6827 34.8788 30.6964 34.8514 30.71 34.8257C30.7255 34.7966 30.7409 34.7675 30.7563 34.7384H30.7049C30.6792 34.7692 30.6621 34.8034 30.6621 34.8479Z" fill="#EBA991"/>
<path d="M21.5137 34.9096C21.4726 34.8685 21.4229 34.8445 21.3681 34.836C21.3544 34.836 21.3407 34.836 21.3288 34.8377C21.363 34.8582 21.3955 34.8805 21.4298 34.901C21.4572 34.9027 21.4846 34.9062 21.5137 34.9096Z" fill="#EAAA92"/>
<path d="M23.7379 34.7332C23.7343 34.7368 23.7308 34.7386 23.7272 34.7404L23.7397 34.735C23.7397 34.735 23.7397 34.735 23.7379 34.7332Z" fill="#EAAA92"/>
<path d="M23.7464 34.9062C23.7446 34.908 23.7427 34.9099 23.7408 34.9118L23.7464 34.9136V34.9062Z" fill="#EAAA92"/>
<path d="M33.2471 34.3566C33.2711 34.3395 33.295 34.3207 33.3173 34.3019C33.3173 34.2728 33.3207 34.2454 33.3241 34.218V34.17C33.3241 33.2593 33.3224 32.3486 33.3224 31.4378C33.3173 31.4327 33.3121 31.4293 33.307 31.4241C32.7729 32.1774 32.3124 32.9837 31.7098 33.689C31.4444 33.9989 31.1877 34.3173 30.9309 34.6323H30.9292C30.9018 34.6665 30.8727 34.7007 30.8453 34.735C31.4547 34.7367 32.0624 34.7384 32.6719 34.7401H32.7301C32.7575 34.7384 32.7849 34.735 32.8123 34.7333C32.8277 34.7042 32.8448 34.6785 32.8636 34.6545C32.9646 34.5244 33.1136 34.4508 33.2471 34.3566Z" fill="#DD8765"/>
<path d="M33.3173 34.3018C33.295 34.3206 33.271 34.3395 33.2471 34.3566C33.1136 34.4508 32.9646 34.5244 32.8636 34.6545C32.8448 34.6784 32.8277 34.7041 32.8123 34.7332C33.1324 34.7657 33.4166 34.7589 33.3173 34.3018Z" fill="#DA5C6C"/>
<path d="M33.3259 31.3094C33.3807 31.2529 33.4354 31.1964 33.4902 31.1399C33.4902 31.1382 33.4902 31.1382 33.4902 31.1365C33.4919 31.0817 33.4954 31.0252 33.4971 30.9722V30.9704C33.4954 30.3131 33.4936 29.654 33.4919 28.9966C33.4919 28.9966 33.4919 28.9966 33.4919 28.9949C33.3772 28.9932 33.2642 28.9932 33.1495 28.9932C33.1478 28.9915 33.1478 28.9915 33.1461 28.9932C33.1444 28.9915 33.1444 28.9915 33.1427 28.9932C33.141 28.9915 33.141 28.9915 33.1393 28.9932C33.1153 28.9915 33.0896 28.9915 33.0657 28.9932C33.064 28.9915 33.064 28.9915 33.0622 28.9932C33.0605 28.9915 33.0605 28.9915 33.0588 28.9932C33.0571 28.9915 33.0571 28.9915 33.0554 28.9932C33.0023 28.9915 32.951 28.9915 32.8979 28.9915H32.8962C32.5538 28.9932 32.2114 28.9949 31.869 28.9966C31.1398 28.8922 30.4909 28.5926 29.8421 28.2485C28.4212 27.4953 26.8874 27.1666 25.2764 27.2128C25.1053 27.2162 24.9341 27.2111 24.7629 27.2111C23.6998 28.3855 22.5031 29.4075 21.1747 30.272L21.1661 30.296C21.1405 30.3182 21.1199 30.3576 21.0908 30.3747C21.0857 30.4089 21.0823 30.4449 21.0788 30.4808C21.0771 30.5168 21.0754 30.5527 21.0754 30.5887C21.0651 30.539 21.0446 30.498 21.0035 30.4569C20.9984 30.462 20.9915 30.4654 20.9864 30.4706C20.4694 30.8814 19.8668 31.1451 19.2728 31.4207C17.9066 32.049 16.4532 32.3913 14.993 32.7046C14.5188 32.8073 14.0531 32.9357 13.5875 33.0675C12.8428 33.2764 12.2881 33.6958 12.0348 34.4525C12.0074 34.5364 11.9646 34.61 11.9115 34.6767C11.8944 34.699 11.8773 34.7195 11.8584 34.7401L11.8465 34.7384C11.8756 34.7777 11.8841 34.824 11.8721 34.8753C11.8687 34.8856 11.8653 34.8959 11.8602 34.9078H11.8499C12.0005 35.0585 11.9886 35.2828 12.004 35.4745C12.0913 36.5307 12.6922 37.1744 13.6166 37.5938C15.4295 38.4156 17.316 38.9634 19.3019 39.1585C19.7264 39.1996 20.1475 39.2544 20.5755 39.2458C20.7262 39.2424 20.8837 39.239 20.9984 39.3451L21.0001 39.3468C21.0463 39.2989 21.0754 39.2458 21.0925 39.1859C21.1028 39.2424 21.1251 39.2972 21.1678 39.3468C21.1678 39.3451 21.1678 39.3451 21.1696 39.3451C21.2534 39.2613 21.3716 39.2441 21.4863 39.2441C22.7788 39.2527 24.0216 38.9326 25.2747 38.6929C25.4014 38.6655 25.5264 38.6347 25.6514 38.6022C26.1838 38.3043 26.723 38.015 27.2366 37.688C28.4692 36.9057 29.6281 36.0274 30.5885 34.913L30.5902 34.9113C30.6108 34.8856 30.6347 34.8651 30.6621 34.8479C30.6621 34.8034 30.6793 34.7692 30.7049 34.7384H30.7563C30.7854 34.7367 30.8145 34.7367 30.8453 34.7349C30.8727 34.7007 30.9018 34.6665 30.9292 34.6322H30.9309C31.1877 34.3172 31.4445 33.9988 31.7098 33.689C32.3124 32.9837 32.7729 32.1773 33.307 31.4241C33.3122 31.4173 33.3173 31.4087 33.3225 31.4018C33.3242 31.371 33.3242 31.3402 33.3259 31.3094ZM21.2517 36.541C21.2243 36.5684 21.1952 36.5941 21.1678 36.6198C21.1524 36.6181 21.137 36.6181 21.1199 36.6163C21.1028 36.6506 21.0942 36.6882 21.0908 36.7293C21.0908 36.755 21.0891 36.7824 21.0891 36.8081C21.0891 36.7824 21.0857 36.7567 21.084 36.731C21.0686 36.6831 21.0446 36.6437 21.0138 36.6112C21.0086 36.6112 21.0035 36.6095 20.9984 36.6095C20.9967 36.6112 20.9949 36.6129 20.9932 36.6146C19.9832 36.339 19.7778 35.6525 20.4831 34.9096C20.5105 34.9061 20.5396 34.9027 20.567 34.901C20.6509 34.8479 20.733 34.7966 20.8169 34.7469C20.8169 34.7452 20.8135 34.7418 20.8118 34.7384H20.8289C20.8631 34.6904 20.9128 34.6716 20.9693 34.663H20.9967C21.0121 34.663 21.0275 34.6648 21.0429 34.6682C21.0583 34.6357 21.0686 34.5997 21.0737 34.5655C21.0925 34.6271 21.1233 34.6853 21.1678 34.7367H21.1696H21.2124C21.2072 34.7452 21.2038 34.7521 21.2004 34.7572C21.2432 34.7846 21.286 34.8103 21.3288 34.8377C21.3408 34.836 21.3544 34.8359 21.3681 34.8359C21.4229 34.8445 21.4726 34.8685 21.5137 34.9096V34.9113C22.1436 35.5755 22.0461 36.1798 21.2517 36.541ZM25.5384 34.9061C25.3552 35.4659 25.1309 35.6645 24.6704 35.6782C24.2322 35.6902 23.96 35.4659 23.7409 34.9113C23.7426 34.9096 23.7443 34.9079 23.746 34.9061C23.7443 34.8942 23.7426 34.8822 23.7409 34.8702C23.7374 34.8274 23.7323 34.7846 23.7272 34.7401C23.7306 34.7384 23.734 34.7367 23.7374 34.7332C23.7409 34.7315 23.7443 34.7298 23.7477 34.7264H23.7494C23.8333 34.146 24.1757 33.8533 24.7406 33.879C25.2131 33.9012 25.4973 34.2077 25.5315 34.7298C25.5349 34.7298 25.5367 34.7315 25.5384 34.7349C25.5435 34.7367 25.5469 34.7384 25.5504 34.7418C25.5452 34.788 25.5401 34.8342 25.5367 34.8805C25.5349 34.8873 25.5349 34.8959 25.5332 34.9027C25.5349 34.9027 25.5367 34.9044 25.5384 34.9061ZM25.5281 32.001C24.9991 31.9959 24.6756 31.6552 24.6756 31.1074C24.6756 30.5664 25.0402 30.2001 25.5777 30.2001C26.0605 30.2018 26.4714 30.6092 26.4765 31.092C26.4816 31.6347 26.093 32.0062 25.5281 32.001ZM29.2173 33.8721C28.767 33.8739 28.2774 33.3791 28.2843 32.9306C28.2894 32.4752 28.7842 31.9925 29.2327 32.0062C29.6521 32.0181 30.1383 32.5077 30.1468 32.9272C30.1571 33.374 29.6692 33.8704 29.2173 33.8721Z" fill="#F19C79"/>
<path d="M36.8969 28.103C36.1471 28.3632 35.4041 28.6491 34.6081 28.7484C34.5773 28.7724 34.5465 28.7963 34.5174 28.8186C34.2486 29.5701 33.9233 30.2943 33.4988 30.9705C33.4971 31.0235 33.4936 31.08 33.4919 31.1348C33.4919 31.1365 33.4919 31.1365 33.4919 31.1382C33.4371 31.1947 33.3824 31.2512 33.3276 31.3077C33.3259 31.3385 33.3259 31.3694 33.3242 31.4002V31.4361C33.3242 32.3469 33.3259 33.2576 33.3259 34.1683V34.2163C33.3807 34.1872 33.4371 34.1581 33.4919 34.129C33.4919 34.1273 33.4919 34.1273 33.4919 34.1255C33.4971 34.0759 33.5005 34.0245 33.5056 33.9749C33.8326 33.7198 34.086 33.3963 34.3462 33.0778C35.5993 31.5405 36.6162 29.868 37.2599 27.9832C37.229 27.9935 37.1982 28.0037 37.1674 28.0123C37.0767 28.0431 36.9859 28.0722 36.8969 28.103Z" fill="#DD8765"/>
<path d="M21.1747 30.272V30.1949C21.1421 30.2326 21.1165 30.2754 21.101 30.3251C21.1233 30.3148 21.1438 30.3062 21.1661 30.296L21.1747 30.272Z" fill="#D97F91"/>
<path d="M33.3293 38.3334C33.3584 38.2992 33.3789 38.2461 33.42 38.2341C33.4217 38.2204 33.4234 38.205 33.4268 38.1913C33.4303 38.1845 33.4354 38.1793 33.4388 38.1725C33.4576 38.1434 33.4765 38.1143 33.497 38.0852C33.5227 38.0458 33.5484 38.0064 33.5758 37.9671C34.0483 37.2617 34.5858 36.6027 35.0395 35.8819C35.2346 35.5721 35.3784 35.2263 35.6284 34.9541C35.6421 34.9387 35.6558 34.925 35.6694 34.9096C35.6831 34.8959 35.6968 34.8822 35.7122 34.8685C35.6985 34.8034 35.7396 34.7675 35.8013 34.7435C35.7978 34.7418 35.7961 34.7384 35.7944 34.735C35.7927 34.7332 35.791 34.7315 35.7893 34.7298C35.7893 34.7281 35.7893 34.7247 35.791 34.723C35.8629 34.2984 36.0991 33.9372 36.272 33.5537C37.4019 31.0595 38.0781 28.4693 38.1945 25.7166C38.2339 24.787 38.1432 23.8711 38.1551 22.9501C38.1569 22.8217 38.1141 22.6848 38.2031 22.5804C38.1346 22.541 38.0661 22.517 37.9959 22.505C38.0644 22.4862 38.1312 22.4588 38.1962 22.416C38.1979 22.416 38.1979 22.416 38.1997 22.4126C38.0216 22.238 38.049 21.976 38.0182 21.7501C37.8607 20.6613 37.6416 19.5845 37.2615 18.5522C36.6127 16.7907 35.4161 15.4999 33.7607 14.6268C33.6716 14.5806 33.5741 14.5515 33.497 14.4864C33.4902 14.4813 33.4833 14.4761 33.4782 14.4693C33.4628 14.4556 33.4508 14.4402 33.4388 14.4231C33.4337 14.4162 33.4303 14.4077 33.4285 14.3991C33.3943 14.406 33.3618 14.4008 33.3293 14.382C33.3258 14.3803 33.3224 14.3786 33.319 14.3769C33.307 14.37 33.2967 14.3614 33.2865 14.3512C33.2779 14.3392 33.2693 14.3255 33.2642 14.3118C33.1461 14.3666 33.0262 14.3169 32.9115 14.2793C31.0113 13.651 29.1368 13.7674 27.3187 14.56C25.3774 15.4074 22.9533 14.0379 22.7496 11.8501C22.7034 11.3587 22.5853 10.8674 22.7496 10.3847C22.7616 10.3419 22.7787 10.3008 22.7976 10.258V10.0834C22.7616 10.044 22.7342 10.0012 22.7154 9.95669H22.7137C22.6777 9.87451 22.6657 9.78207 22.6657 9.68963C22.6606 8.28928 22.6469 6.88893 22.6726 5.48859C22.6743 5.43209 22.6897 5.37731 22.7068 5.32424C22.7342 5.25919 22.765 5.22324 22.7958 5.20612C22.5151 4.95618 22.2891 4.67371 22.2788 4.27484C22.2788 4.27826 22.2771 4.27997 22.2771 4.2834C22.0563 4.29709 21.9262 4.12248 21.755 4.03175C21.4041 3.84857 21.2996 3.89993 21.2894 4.29196C21.2791 4.672 21.2894 5.05376 21.2842 5.4338C21.2825 5.58788 21.2928 5.74537 21.1986 5.88404C21.1901 5.89089 21.1798 5.89773 21.1712 5.90287C21.1678 5.90458 21.1661 5.90629 21.1627 5.90629C21.113 5.93368 21.0634 5.93026 21.012 5.88575C21.0017 7.2861 20.9915 8.68473 20.9812 10.0851V10.2563L20.9007 14.1457C21.012 14.2741 20.8785 14.572 21.1507 14.5891V14.6422C21.1781 14.7792 21.2072 14.9178 21.2346 15.0548C21.3304 15.7156 21.7345 16.1829 22.2087 16.6041C22.9362 17.2512 23.8281 17.4549 24.7645 17.5576C25.5435 17.6415 25.9646 18.3553 25.6907 19.0949C25.6119 19.3072 25.5075 19.5109 25.4031 19.7146C25.0025 20.5055 24.4992 21.2314 23.9771 21.9452C23.8915 22.0616 23.7425 22.1815 23.7922 22.339V22.3407C23.8059 22.3783 23.8298 22.4177 23.8692 22.4605C23.8949 22.4759 23.9223 22.4879 23.9497 22.4965C23.8384 22.4948 23.7271 22.4948 23.6278 22.5649C23.5799 22.6009 23.5303 22.6351 23.4823 22.6711C23.3899 22.6814 23.3317 22.7413 23.2769 22.8063C22.7616 23.4295 22.1504 23.9584 21.5941 24.5388C21.4503 24.6894 21.2363 24.7785 21.1798 25.0044C21.1815 25.0267 21.1781 25.0455 21.1712 25.0661C21.113 25.0917 21.0548 25.1157 20.9949 25.1414C20.9898 25.1636 20.9881 25.1876 20.9915 25.2116C19.9198 26.0453 18.8208 26.8413 17.6601 27.55C17.7012 27.7589 17.5437 27.8633 17.4221 27.9695C16.2512 28.9932 14.9929 29.8868 13.6234 30.6332C12.3668 31.3163 11.0504 31.8401 9.674 32.2133C9.40523 32.2869 9.1416 32.4256 8.84544 32.34V32.3417C8.84372 32.3417 8.84373 32.34 8.84373 32.34C8.82832 32.3537 8.8112 32.3622 8.79408 32.3657C8.75984 32.3759 8.72389 32.3708 8.68452 32.3451L8.67424 32.3468L1.86424 32.5916H1.86253C1.37121 33.1737 0.958641 33.8585 0.619681 34.6408C0.633377 34.735 0.671039 34.7846 0.718973 34.8086C0.650496 34.824 0.583731 34.8514 0.522102 34.8993C0.186567 35.543 0.0479016 36.2449 0.0359182 36.9502C0.00339182 38.8401 0.0273586 40.7318 0.0119514 42.6218C0.00852756 42.9162 0.114666 42.9727 0.380013 42.9693C1.25994 42.9539 2.14157 42.9607 3.02321 42.959C3.1071 42.846 3.19098 42.733 3.27486 42.62C3.34847 42.8255 3.12764 42.8563 3.02321 42.959C4.01099 42.9778 5.00047 43.0018 5.98996 43.0138C6.24504 43.0172 6.50867 42.9932 6.35974 42.6115C6.36487 42.127 6.36145 41.6442 6.37343 41.1598C6.3974 40.3363 6.85448 39.6704 7.57691 39.4119C7.92956 39.2852 8.30276 39.2818 8.67253 39.2732C8.71362 39.2253 8.73587 39.174 8.74615 39.1209C8.77182 39.2099 8.82318 39.2887 8.92932 39.3469C9.31108 39.4701 9.66887 39.6362 10.0095 39.8502C11.54 40.8037 13.1732 41.5398 14.8971 42.0654C16.8846 42.6697 18.9132 43.0052 20.9966 42.9453C21.0411 42.8974 21.0788 42.8426 21.0942 42.781C21.101 42.8409 21.1301 42.8957 21.1712 42.9436C21.6557 42.9727 22.1368 42.9265 22.6195 42.8888C25.9697 42.6183 29.0751 41.5997 31.9563 39.8775C32.4117 39.3914 32.867 38.9052 33.3241 38.4173C33.3258 38.3899 33.3275 38.3608 33.3293 38.3334ZM3.36388 42.6098C3.33649 42.6115 3.30739 42.6115 3.28 42.6132C3.27829 42.6149 3.27657 42.6166 3.27486 42.6183C3.27486 42.6166 3.27486 42.6149 3.27315 42.6132H3.28C3.30568 42.5807 3.33649 42.5567 3.37415 42.5413C3.38785 42.5396 3.40326 42.5379 3.41695 42.5362C3.44777 42.5327 3.47687 42.5293 3.50768 42.5242C3.45804 42.5499 3.4101 42.579 3.36388 42.6098ZM4.22155 34.8223V34.7863V34.7384C4.23525 34.7555 4.24552 34.7709 4.25237 34.7863C4.2575 34.7983 4.25921 34.8103 4.25921 34.8223C4.25921 34.8497 4.24723 34.877 4.22155 34.9061V34.8223ZM4.30886 42.1013C4.29174 42.1065 4.27633 42.1099 4.25921 42.115C4.26777 42.1065 4.27462 42.0962 4.28147 42.0859C4.32084 42.0671 4.35851 42.0705 4.39274 42.0962C4.36535 42.0979 4.33796 42.0996 4.30886 42.1013ZM7.98777 34.7863V34.8223V34.9061C7.9638 34.877 7.9501 34.8497 7.9501 34.8223C7.9501 34.8103 7.95353 34.7983 7.95866 34.7863C7.9638 34.7709 7.97407 34.7555 7.98777 34.7401V34.7863ZM8.72218 35.4814C8.70677 35.4899 8.68965 35.4968 8.67424 35.5053C8.69136 35.4882 8.70677 35.4642 8.72218 35.4437V35.4814ZM32.8123 34.7332C32.7849 34.735 32.7575 34.7384 32.7301 34.7401C32.7181 34.7623 32.7061 34.7829 32.6941 34.8051C32.6753 34.8377 32.6565 34.8719 32.6376 34.9061C32.6103 34.9079 32.5829 34.9096 32.5572 34.913C31.7611 35.7604 30.7802 36.3664 29.7976 36.9604C28.529 37.7274 27.1698 38.3026 25.7403 38.7015C25.6188 38.734 25.4904 38.7425 25.3637 38.7631C23.9908 39.1363 22.599 39.3828 21.1695 39.3708C21.1661 39.3657 21.1627 39.3623 21.1575 39.3571C21.1558 39.3537 21.1541 39.352 21.1507 39.3486H21.0154C21.0137 39.352 21.012 39.3537 21.0086 39.3571C21.0069 39.3537 21.0052 39.3503 21.0017 39.3486C21 39.3486 21 39.3486 20.9983 39.3486V39.3708C18.73 39.3554 16.5439 38.9309 14.4434 38.0715C14.1815 37.9653 13.9247 37.8421 13.6593 37.7411C12.3532 37.2446 11.8276 36.25 11.8344 34.9096L11.843 34.901C11.8481 34.8976 11.8533 34.8925 11.8584 34.889C11.8516 34.8394 11.8464 34.788 11.8396 34.7384C11.8413 34.7367 11.8413 34.7367 11.843 34.735C11.8498 34.7298 11.8567 34.723 11.8635 34.7178C12.0279 33.7181 12.6801 33.184 13.6131 32.9443C14.5992 32.6909 15.5955 32.4769 16.5833 32.2253C17.8655 31.9 19.1032 31.4515 20.2588 30.7924C20.4916 30.6589 20.7432 30.5579 20.9863 30.4415C20.9898 30.4158 20.9949 30.3918 21.0017 30.3679C21.0343 30.3542 21.0651 30.3405 21.0976 30.3268V30.3251C21.0993 30.3251 21.0993 30.3251 21.101 30.3251C21.1164 30.2754 21.1421 30.2326 21.1747 30.195C21.1952 30.1693 21.2192 30.147 21.2466 30.1265V30.1248C21.2534 30.1196 21.262 30.1145 21.2705 30.1076C22.4569 29.2551 23.6022 28.3564 24.5762 27.2573C24.643 27.182 24.7303 27.1323 24.8313 27.1118C24.8382 27.1118 24.8433 27.1101 24.8501 27.1101C25.9543 25.8467 26.8616 24.4532 27.6046 22.9501C27.5361 22.8765 27.5909 22.7806 27.6577 22.6814C27.6731 22.6591 27.6902 22.6386 27.709 22.6197C27.7193 22.6095 27.7296 22.6009 27.7399 22.5923C27.7227 22.5581 27.7039 22.5376 27.6782 22.5204C27.7313 22.5222 27.7844 22.5204 27.8391 22.5187C27.8991 22.4828 27.9624 22.4502 28.0223 22.4143C28.6814 22.0274 29.4158 21.9932 30.1519 21.9675C30.1622 21.9572 30.1742 21.9487 30.1862 21.9435C30.1828 21.9504 30.181 21.9589 30.1793 21.9675H33.5895H34.9556C35.7242 21.976 36.4997 21.9452 37.1776 22.4092C37.2239 22.4451 37.2718 22.4811 37.318 22.5153C37.3797 22.517 37.4413 22.5222 37.5046 22.5273C37.4961 22.5273 37.4858 22.529 37.4772 22.5307C37.4635 22.5495 37.4515 22.5684 37.443 22.5855C37.4379 22.594 37.4344 22.6026 37.431 22.6112C38.1226 23.3781 38.3144 24.2512 38.061 25.2663C37.8299 26.1856 37.6878 27.1255 37.2581 27.9849C36.6144 29.8697 35.5975 31.5422 34.3444 33.0795C34.0842 33.3979 33.8308 33.7215 33.5039 33.9766C33.4987 34.0262 33.4953 34.0776 33.4902 34.1272C33.4902 34.1289 33.4902 34.1289 33.4902 34.1306C33.4354 34.1598 33.3789 34.1889 33.3241 34.218C33.3207 34.2453 33.3173 34.2727 33.3173 34.3018C33.4166 34.7589 33.1324 34.7658 32.8123 34.7332Z" fill="#D9596B"/>
<path d="M27.7673 22.6728C27.7484 22.6505 27.7296 22.6334 27.7091 22.6197C27.6902 22.6386 27.6731 22.6591 27.6577 22.6813C27.591 22.7806 27.5362 22.8765 27.6046 22.9501C27.6081 22.9416 27.6132 22.9347 27.6166 22.9262C27.6663 22.8423 27.7176 22.7567 27.7673 22.6728Z" fill="#D9596B"/>
<path d="M24.7629 27.2111C24.792 27.1769 24.8211 27.1443 24.8502 27.1101C24.8433 27.1101 24.8382 27.1118 24.8313 27.1118C24.7303 27.1324 24.643 27.182 24.5763 27.2573C23.6022 28.3564 22.4569 29.2551 21.2705 30.1077C21.262 30.1145 21.2534 30.1197 21.2466 30.1248V30.1265C21.2192 30.147 21.1952 30.1693 21.1747 30.195V30.272C22.5031 29.4075 23.6998 28.3855 24.7629 27.2111Z" fill="#D9596B"/>
<path d="M23.8692 22.4605C23.8299 22.4177 23.8059 22.3784 23.7922 22.3407C23.7546 22.3664 23.7169 22.3955 23.6809 22.4229C23.6638 22.4691 23.645 22.517 23.6279 22.565C23.7272 22.4948 23.8384 22.4948 23.9497 22.4965C23.9223 22.4879 23.8949 22.4759 23.8692 22.4605Z" fill="#D98092"/>
<path d="M27.9196 22.517L28.0223 22.4143C27.9624 22.4503 27.8991 22.4828 27.8392 22.5187C27.7844 22.5204 27.7313 22.5222 27.6783 22.5204C27.7039 22.5376 27.7228 22.5581 27.7399 22.5923C27.7296 22.6009 27.7193 22.6095 27.7091 22.6197C27.7296 22.6334 27.7484 22.6506 27.7673 22.6728C27.8186 22.6214 27.87 22.5701 27.9196 22.517Z" fill="#D98092"/>
<path d="M25.2764 27.2128C26.8873 27.1666 28.4212 27.4952 29.8421 28.2485C30.4909 28.5926 31.1397 28.8922 31.869 28.9966C32.2114 28.9949 32.5538 28.9932 32.8962 28.9915C32.9116 28.9521 32.9304 28.8802 32.9424 28.8802C33.3995 28.911 33.3259 28.5926 33.3259 28.3135C33.3224 26.6975 33.3241 25.0797 33.3241 23.4637C33.3241 23.2805 33.3447 23.0939 33.2403 22.9279C33.2403 22.9279 33.2403 22.9279 33.2385 22.9261H27.6166C27.6132 22.9347 27.6081 22.9416 27.6046 22.9501C26.8617 24.4532 25.9543 25.8467 24.8502 27.1101C24.8211 27.1443 24.792 27.1768 24.7628 27.2111C24.934 27.2111 25.1052 27.2162 25.2764 27.2128Z" fill="#EDEBF1"/>
<path d="M33.0588 28.9932C33.0605 28.9915 33.0605 28.9915 33.0622 28.9932C33.0639 28.9915 33.0639 28.9915 33.0657 28.9932C33.0896 28.9915 33.1153 28.9915 33.1393 28.9932C33.141 28.9915 33.141 28.9915 33.1427 28.9932C33.1444 28.9915 33.1444 28.9915 33.1461 28.9932C33.1478 28.9915 33.1478 28.9915 33.1495 28.9932C33.2642 28.9932 33.3772 28.9932 33.4919 28.9949C33.4919 28.9949 33.4919 28.9949 33.4919 28.9966V28.9949C33.8258 28.8939 34.1698 28.8528 34.5157 28.8203C34.5465 28.7963 34.5773 28.7723 34.6064 28.7501C34.8461 27.9797 35.0891 27.2111 35.2552 26.4202C35.3836 25.8073 35.4795 25.1859 35.2963 24.573C34.9933 23.5613 34.2435 23.0768 33.2386 22.9261V22.9279C33.343 23.0939 33.3224 23.2805 33.3224 23.4637C33.3224 25.0797 33.3207 26.6975 33.3242 28.3135C33.3242 28.5926 33.3995 28.911 32.9407 28.8802C32.927 28.8785 32.9099 28.9521 32.8945 28.9915H32.8962C32.9493 28.9915 33.0006 28.9915 33.0537 28.9932C33.0571 28.9915 33.0571 28.9915 33.0588 28.9932Z" fill="#EDEBF1"/>
<path d="M11.9115 34.6767C11.9646 34.61 12.0074 34.5364 12.0348 34.4525C12.2881 33.6958 12.8428 33.2764 13.5875 33.0675C14.0531 32.9357 14.5187 32.8073 14.9929 32.7046C16.4532 32.3913 17.9066 32.049 19.2727 31.4207C19.8668 31.1451 20.4694 30.8814 20.9864 30.4706V30.4415C20.7433 30.5579 20.4916 30.6589 20.2588 30.7924C19.1033 31.4515 17.8655 31.9 16.5833 32.2253C15.5955 32.4769 14.5992 32.6909 13.6131 32.9443C12.6801 33.184 12.0279 33.7181 11.8636 34.7178C11.8601 34.7247 11.8601 34.7332 11.8584 34.7401C11.8773 34.7195 11.8944 34.699 11.9115 34.6767Z" fill="#F19C79"/>
<path d="M20.9967 34.6631H20.9693C20.9128 34.6716 20.8631 34.6904 20.8289 34.7384C20.8854 34.7367 20.9402 34.7367 20.9967 34.7367V34.6631Z" fill="#F19C79"/>
<path d="M21.0035 30.4569C21.0446 30.498 21.0651 30.5391 21.0754 30.5887C21.0754 30.5528 21.0771 30.5168 21.0788 30.4809C21.0822 30.4449 21.0856 30.409 21.0908 30.3747C21.1199 30.3576 21.1404 30.3182 21.1661 30.296C21.1439 30.3063 21.1233 30.3148 21.1011 30.3251C21.0993 30.3251 21.0993 30.3251 21.0976 30.3251V30.3268C21.0651 30.3405 21.0343 30.3542 21.0018 30.3679C20.9949 30.3919 20.9898 30.4158 20.9864 30.4415V30.4706C20.9915 30.4655 20.9983 30.462 21.0035 30.4569Z" fill="#EAAB96"/>
<path d="M21.1695 34.7384V34.7367H21.1678C21.1233 34.6854 21.0925 34.6272 21.0737 34.5655C21.0685 34.5998 21.0583 34.6357 21.0429 34.6682C21.0275 34.6648 21.0121 34.6631 20.9966 34.6631V34.7367C21.0548 34.7367 21.1131 34.7384 21.1695 34.7384Z" fill="#EAAB96"/>
<path d="M25.5504 34.7418L25.5367 34.7367L25.5315 34.735V34.7298C25.4973 34.2077 25.2131 33.9013 24.7406 33.879C24.1757 33.8533 23.8333 34.1461 23.7494 34.7264H23.7477V34.7316L23.7392 34.735L23.7272 34.7401C23.7323 34.7846 23.7374 34.8274 23.7409 34.8702C23.7426 34.8822 23.7443 34.8942 23.746 34.9062V34.913H23.7939C24.364 34.9113 24.9358 34.9096 25.5059 34.9079H25.5332V34.9028C25.535 34.8959 25.535 34.8873 25.5367 34.8805C25.5401 34.8343 25.5452 34.7881 25.5504 34.7418Z" fill="#CB7452"/>
<path d="M25.5777 30.2001C25.0402 30.2001 24.6756 30.5664 24.6756 31.1074C24.6756 31.6552 24.9991 31.9959 25.5281 32.001C26.093 32.0061 26.4816 31.6347 26.4765 31.092C26.4714 30.6092 26.0605 30.2018 25.5777 30.2001Z" fill="#CB7452"/>
<path d="M29.2327 32.0062C28.7841 31.9925 28.2894 32.4752 28.2843 32.9306C28.2774 33.3791 28.767 33.8739 29.2172 33.8722C29.6692 33.8705 30.1571 33.374 30.1468 32.9272C30.1383 32.5078 29.6521 32.0182 29.2327 32.0062Z" fill="#CB7452"/>
<path d="M33.4919 28.9949C33.4936 29.654 33.4953 30.3131 33.497 30.9704V30.9722C33.9233 30.296 34.2469 29.5701 34.5156 28.8203C34.1715 28.8528 33.8257 28.8939 33.4919 28.9949Z" fill="#F09C79"/>
<path d="M8.6845 32.3452L8.79406 32.3417L8.84371 32.34H8.84542C10.0438 31.9942 11.2438 31.6638 12.3822 31.1348C13.8031 30.4758 15.1367 29.6746 16.3659 28.7073C16.8195 28.3496 17.2971 28.0106 17.6601 27.5501C17.5043 27.533 17.3964 27.6391 17.2749 27.7059C14.8388 29.0292 12.247 29.8064 9.50964 30.0786V30.0769L8.84884 30.0991L8.67252 30.1043C8.67252 30.1043 8.09218 30.1454 7.29614 30.2121C6.90582 30.2429 6.46415 30.2823 6.0122 30.3234C5.80506 30.3439 5.5962 30.3645 5.38906 30.385C4.7916 30.4449 4.14108 30.7771 3.56245 31.1657C2.71847 31.7323 2.03028 32.4205 1.88819 32.5643C1.87963 32.5746 1.87279 32.5814 1.86765 32.5865C1.86594 32.5865 1.86594 32.5883 1.86423 32.5917L8.67423 32.3469L8.6845 32.3452Z" fill="#F06977"/>
</g>
<defs>
<clipPath id="clip0_1_796">
<rect width="41.9762" height="42.0275" fill="white" transform="translate(0.0119019 0.986237)"/>
</clipPath>
</defs>
</svg>
