<svg width="32" height="40" viewBox="0 0 32 40" fill="none" xmlns="http://www.w3.org/2000/svg">
<g clip-path="url(#clip0_1_690)">
<path d="M5.58092 8.68791C5.37678 8.37866 5.16008 7.97744 4.95908 7.46837C5.07528 7.92352 5.27471 8.33426 5.58092 8.68791Z" fill="#D9596B"/>
<path d="M4.44402 5.62715C4.40476 5.4194 4.37178 5.20214 4.34038 4.97377C4.3655 5.19421 4.40005 5.41147 4.44402 5.62715Z" fill="#D9596B"/>
<path d="M19.1643 37.7508C18.7654 37.2734 18.5126 36.7453 18.5141 36.1078C18.5157 35.4005 18.5581 34.69 18.2849 34.0097C17.9284 33.1263 17.2987 32.5142 16.4664 32.0987C16.4445 32.0876 16.4209 32.0796 16.3958 32.0749C16.3958 32.0749 16.3016 32.0368 16.1602 31.9908C16.1461 31.9861 16.1335 31.9813 16.1194 31.9781C16.1005 31.9718 16.0801 31.9655 16.0597 31.9607C16.0283 31.9512 15.9953 31.9417 15.9624 31.9322C15.8948 31.9131 15.8226 31.8973 15.7488 31.8814C15.6263 31.856 15.5007 31.8402 15.3829 31.8386C15.3813 31.8354 15.3782 31.8354 15.3766 31.8322V31.8307H15.3751C15.3703 31.8259 15.3656 31.8243 15.3625 31.8196C13.0039 31.8196 10.6437 31.818 8.28191 31.818H7.2879C7.15599 31.8164 7.02565 31.8164 6.89375 31.8148C6.68489 31.791 6.48075 31.7545 6.28132 31.7054C5.91072 31.615 5.55583 31.4802 5.21821 31.2819C5.11614 31.2217 5.01721 31.1614 4.94183 31.0758C4.90886 31.0393 4.88059 30.9965 4.85704 30.9473L4.85076 30.9426C4.83191 30.9331 4.8115 30.9235 4.79265 30.9124C4.76125 30.8966 4.73141 30.8807 4.7 30.8649C4.69686 30.8395 4.69529 30.8141 4.69215 30.7887C3.43746 29.8911 2.7104 28.643 2.61619 27.1238C2.54866 26.0279 2.9381 25.0114 3.84104 24.2739C4.10799 24.0567 4.38437 23.8695 4.69372 23.7268C4.69686 23.7014 4.69843 23.6761 4.70157 23.6507C4.7267 23.6507 4.75182 23.6507 4.77852 23.6491C4.80365 23.6491 4.82877 23.6475 4.8539 23.6475L4.85704 23.6459H4.85861L4.86018 23.6443C5.29045 23.4921 5.727 23.4017 6.19181 23.4049C9.45965 23.416 12.7275 23.4112 15.9938 23.4096H16.0095H16.0173H16.1539H16.1587C16.1587 23.4128 16.1602 23.416 16.1602 23.4191C16.1634 23.416 16.1665 23.4128 16.1696 23.4096C19.6165 23.4096 23.0649 23.4096 26.5118 23.4128C26.7599 23.4144 26.997 23.3874 27.2232 23.2923C27.2514 23.2796 27.2797 23.2669 27.3079 23.2526C27.3095 23.2273 27.3127 23.2019 27.3158 23.1765C27.3378 23.1765 27.3582 23.1749 27.3802 23.1749C27.4084 23.1749 27.4367 23.1749 27.4634 23.1733C27.465 23.148 27.4665 23.121 27.4681 23.094V23.0147C27.4681 22.6992 27.4681 22.382 27.4697 22.0664V21.995C27.4666 21.9681 27.465 21.9411 27.4634 21.9141C27.4367 21.9141 27.4084 21.9141 27.3818 21.9126C27.3598 21.9141 27.3378 21.9126 27.3158 21.9126C27.3127 21.8872 27.3095 21.8618 27.3079 21.8364C27.3048 21.8301 27.3001 21.8253 27.297 21.8206C27.2734 21.8079 27.2498 21.7968 27.2247 21.7873C27.0112 21.6969 26.7882 21.6636 26.5511 21.6636C23.0916 21.6683 19.6306 21.6683 16.1696 21.6683C16.1665 21.6652 16.1649 21.6636 16.1618 21.6604C16.1602 21.662 16.1571 21.6636 16.1555 21.6652C16.1555 21.6652 16.1555 21.6636 16.1539 21.6636V21.6683C16.1524 21.6683 16.1524 21.6683 16.1508 21.6683H16.022H16.0095H15.9938C13.1374 21.6667 10.2809 21.6636 7.42451 21.6683C6.50588 21.6699 5.67203 21.4051 4.90729 20.9087C4.89001 20.8992 4.87431 20.8881 4.85704 20.877L4.85233 20.8738C4.83034 20.8627 4.80679 20.8516 4.7848 20.8389C4.75654 20.8246 4.72827 20.8088 4.7 20.7945C4.69686 20.7691 4.69372 20.7438 4.69058 20.7184C4.58223 20.7136 4.50528 20.6597 4.46132 20.5598C4.43462 20.5582 4.40949 20.5566 4.3828 20.5535C4.36867 20.5265 4.3561 20.498 4.3404 20.471C4.3137 20.4678 4.28701 20.4694 4.25874 20.4726C4.21634 20.4726 4.17238 20.4742 4.12998 20.4726C4.17238 20.4472 4.20221 20.4202 4.22106 20.3949C3.57722 19.7098 3.02447 18.966 2.80934 18.0287C2.52354 16.7917 2.50626 15.5785 3.27101 14.4764C3.62747 13.9625 4.1237 13.6406 4.69372 13.4202L4.70157 13.4218H4.73455C4.77381 13.4218 4.81307 13.4218 4.85076 13.4202C4.85233 13.3948 4.8539 13.3678 4.85547 13.3409C4.88373 13.3139 4.91357 13.2901 4.94497 13.2711C5.13812 13.141 5.36896 13.1379 5.59352 13.1379C8.91161 13.1315 12.2297 13.1331 15.5478 13.1363C15.6781 13.1363 15.8085 13.1395 15.9341 13.1886C15.9577 13.1981 15.9781 13.2108 15.9969 13.2283C16 13.2299 16.0016 13.2314 16.0048 13.2346C16.0142 13.2425 16.0236 13.2521 16.033 13.2632H16.1539L16.1649 13.2616C16.1791 13.2489 16.1932 13.2378 16.2089 13.2283C16.4005 13.0951 16.6266 13.1363 16.8417 13.1363C19.4391 13.1331 22.0364 13.1268 24.6321 13.1395C25.3655 13.1426 26.0909 13.0633 26.8196 13.0285C26.9703 13.0221 27.1211 12.9825 27.2561 13.0649C27.2593 13.0586 27.264 13.0522 27.2671 13.0459C27.2797 13.0316 27.2938 13.0189 27.3079 13.0126C27.0991 12.5939 27.1792 12.161 27.2608 11.728C27.2718 11.7169 27.2828 11.7058 27.2938 11.6947C27.2891 11.69 27.2844 11.6852 27.2813 11.6789C26.9264 11.7391 26.5762 11.636 26.2197 11.6376C23.1026 11.6487 19.9855 11.644 16.8684 11.6424C16.6486 11.6424 16.424 11.6725 16.2136 11.571C16.1995 11.5583 16.1853 11.5441 16.1712 11.5314V11.5298C16.1696 11.5282 16.1681 11.5282 16.1665 11.5266C16.1649 11.5234 16.1618 11.5219 16.1602 11.5203C16.1257 11.5441 16.0833 11.5536 16.033 11.5457C16.0236 11.5409 16.0158 11.5346 16.0079 11.5298V11.5282C16.0063 11.5282 16.0048 11.5282 16.0048 11.5266C16.0016 11.525 16 11.5234 15.9985 11.5203H15.9969C14.6841 11.5647 13.3886 11.4886 12.1559 10.97C11.165 10.5529 10.2244 10.0549 9.49263 9.23819C9.45494 9.23502 9.41726 9.22551 9.38114 9.21124C9.3513 9.19696 9.32461 9.17952 9.30419 9.16049C9.29477 9.15256 9.28692 9.14463 9.28064 9.13511C9.26336 9.11608 9.25237 9.09388 9.24766 9.06692C9.2351 9.06375 9.22254 9.05899 9.20997 9.05582C9.18642 9.03996 9.16286 9.02251 9.14088 9.00348C9.12832 8.99714 9.11732 8.98763 9.10476 8.97652C8.49234 8.50869 8.10446 7.85372 7.73858 7.18924C7.01466 5.86978 6.66605 4.45518 6.70688 2.94224C6.72258 2.35071 6.70688 2.36181 6.12743 2.34437C5.71286 2.33168 5.29359 2.42366 4.8853 2.27935C4.87588 2.27617 4.86489 2.27142 4.85547 2.26825C4.85233 2.26666 4.85076 2.26666 4.84761 2.26507C4.8429 2.26032 4.83819 2.25556 4.83505 2.2508C4.80522 2.27142 4.77538 2.27776 4.74397 2.26825C4.72827 2.26349 4.71257 2.25397 4.69686 2.2397V2.23811C4.58066 2.2397 4.46289 2.24129 4.34668 2.24287L6.41009 9.60771C7.79668 11.1413 9.5366 12.0452 11.6141 12.3671C11.4744 12.3893 11.3378 12.3862 11.2027 12.3893C9.09534 12.4337 6.98954 12.2656 4.88373 12.4036C4.87431 12.3941 4.86646 12.383 4.85704 12.3735C4.80208 12.3751 4.74868 12.3751 4.69529 12.3751C4.58537 12.4004 4.46132 12.3687 4.36867 12.4607C3.8803 12.4845 3.41391 12.6082 2.9805 12.827C1.28298 13.6818 0.340787 15.0742 0.138215 16.9741C0.00473781 18.2206 0.251279 19.3783 0.976768 20.4139C1.05528 20.4567 1.13694 20.4932 1.22488 20.5027C1.18876 20.5281 1.16207 20.5725 1.15107 20.6502C1.59548 21.2957 2.20319 21.7318 2.90355 22.0585C3.37779 22.2805 3.89443 22.3598 4.37966 22.5422C4.42991 22.5533 4.47545 22.558 4.51628 22.558C4.47388 22.5659 4.4252 22.5834 4.37181 22.6119C3.25374 22.7103 2.32882 23.2384 1.5625 24.0202C0.359631 25.2477 -0.116177 26.7543 0.155489 28.4607C0.383186 29.8927 1.12281 31.0187 2.32568 31.8243C2.43717 31.8957 2.54866 31.9686 2.66015 32.04C3.17051 32.3381 3.70913 32.5522 4.30114 32.6109C4.47388 32.7346 4.66703 32.6839 4.85547 32.6744C7.15599 32.6791 9.45651 32.6823 11.757 32.6902C12.1873 32.6902 12.6144 32.6981 13.0463 32.7489C14.4941 32.917 15.6813 34.043 15.9357 35.5369C15.9985 35.5178 16.0377 35.4893 16.0597 35.4544C16.0739 36.6676 16.0911 37.8808 16.077 39.094C16.0739 39.3906 16.1775 39.4762 16.4649 39.473C17.8907 39.4603 19.3166 39.4667 20.7424 39.4667C20.8319 39.4667 20.9262 39.4889 21.0062 39.4239C21.0094 39.1638 21.0125 38.9069 21.0141 38.6468C21.011 38.642 21.0062 38.6389 21.0031 38.6341C20.298 38.5374 19.6495 38.328 19.1643 37.7508Z" fill="#D9596B"/>
<path d="M16.3957 32.0749C16.4209 32.0797 16.4444 32.0876 16.4664 32.0987C17.2987 32.5142 17.9284 33.1263 18.2848 34.0097C18.5581 34.69 18.5157 35.4005 18.5141 36.1078C18.5125 36.7453 18.7654 37.2734 19.1642 37.7508C19.6479 38.328 20.298 38.5374 21.0031 38.6341C20.9026 38.5025 20.7518 38.4835 20.6026 38.4549C19.4453 38.2361 18.6272 37.2433 18.6193 36.0523C18.6193 36.0491 18.6193 36.0444 18.6193 36.0412C18.6177 35.8271 18.624 35.613 18.6225 35.3989C18.6225 35.3275 18.6193 35.2546 18.6162 35.1832C18.5408 33.7528 17.8467 32.7251 16.5999 32.0701C16.5308 32.0337 16.457 32.0004 16.3863 31.9877H16.3847C16.3455 31.9798 16.3078 31.9798 16.2717 31.9877H16.1602C16.1602 31.9893 16.1602 31.9893 16.1602 31.9909C16.3015 32.0368 16.3957 32.0749 16.3957 32.0749Z" fill="#F06977"/>
<path d="M27.4634 18.3348H27.4681L27.4634 18.3301V18.3348Z" fill="#F06977"/>
<path d="M16.1602 31.9908C16.1602 31.9893 16.1602 31.9893 16.1602 31.9877C16.1586 31.9861 16.1586 31.9861 16.1571 31.9845C16.1523 31.9813 16.1476 31.9797 16.1429 31.9766C16.1351 31.9766 16.1272 31.9766 16.1194 31.9766C16.1335 31.9813 16.1476 31.9861 16.1602 31.9908Z" fill="#D97486"/>
<path d="M20.7424 39.4667C19.3166 39.4667 17.8907 39.4603 16.4649 39.473C16.1775 39.4762 16.0738 39.3906 16.077 39.094C16.0911 37.8808 16.0738 36.6676 16.0597 35.4544C16.0377 35.4893 15.9985 35.5178 15.9357 35.5369C15.9576 35.8636 15.9938 36.1903 15.9969 36.5169C16.0063 37.3733 16.011 38.2313 15.9938 39.0877C15.9875 39.3811 16.0471 39.5032 16.3738 39.5C17.8216 39.4825 19.271 39.4921 20.7204 39.4889C20.8162 39.4889 20.9324 39.5365 21.0062 39.4239C20.9261 39.4889 20.8319 39.4667 20.7424 39.4667Z" fill="#D97486"/>
<path d="M27.5058 26.8018C27.4917 26.7939 27.4791 26.786 27.4681 26.7749C27.4618 26.7717 27.4571 26.7669 27.4524 26.7622C27.4446 26.7558 27.4383 26.7479 27.4336 26.74C27.3974 26.74 27.3598 26.7416 27.3236 26.7416C27.3174 26.7447 27.3127 26.7463 27.3064 26.7495V26.7511H27.3048C27.3001 26.7479 27.2954 26.7447 27.2922 26.7416H16.1634L16.1555 26.74H16.1508C16.1162 26.7067 16.0817 26.6988 16.0472 26.7146C16.0456 26.7146 16.0456 26.7146 16.0456 26.7146C16.033 26.721 16.0205 26.7289 16.0095 26.74L15.9969 26.7416V26.7749C15.9843 26.7876 15.9686 26.7987 15.9514 26.8066C15.7378 26.8922 15.5132 26.8669 15.2918 26.8684C12.6914 26.87 10.0909 26.8684 7.49046 26.87C6.88903 26.87 6.28916 26.8589 5.6893 26.9319C5.43177 26.9636 5.15382 27.0112 4.90885 26.8589C4.89315 26.8827 4.87587 26.9017 4.85389 26.916C4.85232 26.916 4.84918 26.9176 4.84761 26.9192C4.82248 26.9319 4.79108 26.9382 4.75496 26.9335C4.74083 26.9239 4.72669 26.916 4.71256 26.9097H4.7L4.69843 26.9113C4.65446 26.9541 4.59636 26.981 4.53197 27.0001C4.28229 27.073 4.05459 27.1793 4.05302 27.4885C4.05302 27.7962 4.18336 28.0483 4.43618 28.226C4.51627 28.283 4.61834 28.3084 4.69372 28.375C4.69686 28.3766 4.7 28.3782 4.70157 28.3814C4.72198 28.3988 4.73926 28.421 4.75496 28.4464C4.75653 28.4512 4.75967 28.4559 4.75967 28.4607C4.79265 28.4559 4.82248 28.4638 4.85075 28.4845C4.85232 28.4829 4.85546 28.4813 4.85703 28.4797C4.8586 28.4781 4.8586 28.4781 4.8586 28.4781C4.87587 28.4623 4.89158 28.448 4.90728 28.4337C5.09101 28.3386 5.29044 28.3592 5.48516 28.3592C8.77656 28.3576 12.068 28.3576 15.3578 28.3608C15.4865 28.3608 15.6185 28.3465 15.7441 28.3687L15.5996 28.4004L15.9953 28.4845C15.9985 28.4845 16.256 28.4987 16.523 28.5971C16.4492 28.559 16.3691 28.5178 16.2921 28.4765C16.1586 28.4067 16.0424 28.3449 16.0016 28.3243C15.9922 28.3195 15.9859 28.3164 15.9859 28.3164C15.2447 27.9389 14.4423 27.7724 13.632 27.6011H15.9953H16.1618C17.0616 27.6075 17.9614 27.617 18.8612 27.617C21.6658 27.6122 24.4719 27.7486 27.2765 27.5995C27.2844 27.6091 27.2938 27.6202 27.3032 27.6297C27.3566 27.6281 27.41 27.6265 27.4634 27.6265C27.5215 27.5995 27.5812 27.5742 27.6393 27.5472C28.3569 27.5044 29.007 27.2697 29.5818 26.832C29.5802 26.8304 29.5786 26.8288 29.5786 26.8272C28.8893 26.8605 28.1967 26.9128 27.5058 26.8018Z" fill="#D9596B"/>
<path d="M27.5058 26.8018C28.1967 26.9129 28.8893 26.8605 29.5786 26.8272C29.4797 26.7146 29.3462 26.7558 29.2269 26.7543C28.6411 26.7511 28.0538 26.7527 27.4681 26.7543V26.7749C27.4791 26.786 27.4917 26.7939 27.5058 26.8018Z" fill="#D95A6C"/>
<path d="M27.8293 18.219C27.6989 18.219 27.567 18.2301 27.4634 18.3221V18.3301L27.4681 18.3348C27.8701 18.3348 28.2721 18.3507 28.6741 18.3316C28.9772 18.3174 29.2913 18.4189 29.5833 18.2603C29.0007 18.1746 28.415 18.2222 27.8293 18.219Z" fill="#DA5A6C"/>
<path d="M27.8104 16.7077C28.3977 16.7061 28.9866 16.7505 29.5723 16.6697C29.4718 16.5666 29.3383 16.6062 29.2174 16.6062C28.6348 16.6015 28.0522 16.6046 27.4681 16.6046H27.465V16.6078C27.5639 16.6919 27.6879 16.7077 27.8104 16.7077Z" fill="#DA5A6C"/>
<path d="M4.30742 2.24288V2.22861C4.30585 1.76078 4.30742 1.29453 4.30428 0.826691C4.30271 0.677618 4.33412 0.569778 4.51627 0.579294C4.6843 0.587223 4.69529 0.698235 4.69529 0.823519V2.23813V2.23971H4.72042H4.72199C4.75653 2.23971 4.78794 2.23813 4.82249 2.23813H4.85075L4.85389 2.2413C5.36268 2.2413 5.87303 2.26033 6.38025 2.23178C6.72101 2.21275 6.84192 2.31108 6.82151 2.66949C6.75555 3.7685 6.90317 4.84214 7.27376 5.88407C7.66163 6.97357 8.21753 7.9584 9.02153 8.79257C9.07649 8.84808 9.11889 8.91469 9.16757 8.97654C9.19427 8.97812 9.22253 8.97971 9.24923 8.98129C9.2665 9.0146 9.28221 9.04632 9.29791 9.07803C9.3089 9.09706 9.31832 9.11609 9.32774 9.13512C9.35287 9.1383 9.37957 9.14147 9.40469 9.14147C11.4775 9.14147 13.5519 9.14464 15.6247 9.13195C15.9074 9.13037 16.0189 9.19856 16.0079 9.50463C15.9859 10.1755 15.9985 10.8479 15.9969 11.5203L16.0032 11.5187C16.0534 11.5187 16.1037 11.5171 16.1555 11.5171C16.1555 10.8463 16.1728 10.1755 16.1524 9.50463C16.1429 9.20015 16.2513 9.13037 16.534 9.13195C18.1624 9.14305 19.7908 9.13671 21.4192 9.13512C21.3941 9.08438 21.3674 9.03363 21.3423 8.98288C21.3423 8.98288 21.3423 8.98288 21.3407 8.98288C19.7468 8.98129 18.1514 8.97336 16.5575 8.98605C16.2607 8.98764 16.1288 8.9242 16.1524 8.59275C16.1806 8.17249 16.1602 7.74906 16.1618 7.32722H15.9953L16.0048 7.30502C14.8945 7.3066 13.7843 7.31929 12.6741 7.30819C12.3914 7.30502 12.0994 7.25903 11.8277 7.18132C10.2621 6.73093 9.33246 5.47174 9.32617 3.82242C9.32146 2.74085 9.31204 1.65928 9.30576 0.577708C9.29477 0.571364 9.28378 0.565021 9.27278 0.558677C9.23981 0.538061 9.2084 0.514272 9.17542 0.514272C7.60667 0.507929 6.03792 0.511101 4.46916 0.499999C4.23205 0.498414 4.2289 0.625284 4.23047 0.799731C4.23205 1.28025 4.22576 1.76236 4.2289 2.24288H4.30742Z" fill="#F06977"/>
<path d="M1.22487 20.5027C1.13693 20.4932 1.05528 20.4567 0.976761 20.4139C1.03486 20.4916 1.09296 20.5709 1.15107 20.6502C1.16206 20.5725 1.18875 20.5281 1.22487 20.5027Z" fill="#DA7386"/>
<path d="M4.12837 20.4726C4.17077 20.4742 4.21474 20.4726 4.25714 20.4726C4.2854 20.4694 4.3121 20.4678 4.3388 20.471C4.3278 20.4472 4.31524 20.4234 4.30268 20.3996C4.28069 20.3981 4.25871 20.3965 4.23829 20.3965C4.23358 20.3996 4.2273 20.4012 4.22102 20.4044C4.22259 20.4012 4.22416 20.3981 4.22573 20.3949C4.22416 20.3949 4.22102 20.3949 4.21945 20.3949C4.20061 20.4203 4.17077 20.4472 4.12837 20.4726Z" fill="#DA7386"/>
<path d="M4.37966 22.5422C4.38123 22.5659 4.37809 22.5897 4.37181 22.6119C4.4252 22.5834 4.47388 22.5659 4.51628 22.558C4.47545 22.558 4.42991 22.5533 4.37966 22.5422Z" fill="#D97588"/>
<path d="M4.85594 20.8707C4.85421 20.8724 4.85247 20.8724 4.85074 20.8741L4.85594 20.8776V20.8707Z" fill="#D97588"/>
<path d="M4.85634 23.648V23.6459L4.85229 23.648L4.85432 23.65C4.85432 23.65 4.85634 23.65 4.85634 23.648Z" fill="#D97588"/>
<path d="M27.4524 26.7622C27.4571 26.767 27.4618 26.7717 27.4681 26.7749V26.7543L27.4603 26.7511C27.454 26.7463 27.4461 26.7432 27.4398 26.74H27.4336C27.4383 26.7479 27.4446 26.7558 27.4524 26.7622Z" fill="#DB7586"/>
<path d="M27.3064 17.3818C27.3064 17.3835 27.3048 17.3835 27.3048 17.3851L27.318 17.3868C27.3147 17.3851 27.313 17.3818 27.3097 17.3801C27.3081 17.3801 27.3081 17.3818 27.3064 17.3818Z" fill="#E88D9A"/>
<path d="M27.3097 17.5485C27.313 17.5469 27.3147 17.5452 27.318 17.5419L27.3048 17.5435C27.3048 17.5452 27.3064 17.5452 27.3064 17.5469C27.3081 17.5469 27.3081 17.5485 27.3097 17.5485Z" fill="#E88D9A"/>
<path d="M16.1524 8.59276C16.1288 8.92421 16.2607 8.98764 16.5575 8.98606C18.1514 8.97337 19.7468 8.9813 21.3407 8.98289C21.3407 8.98289 21.3407 8.98289 21.3423 8.98289C21.3674 9.03363 21.3941 9.08438 21.4192 9.13513C19.7908 9.13672 18.1624 9.14306 16.5339 9.13196C16.2513 9.13037 16.1429 9.20015 16.1524 9.50464C16.1728 10.1755 16.1555 10.8463 16.1555 11.5171L16.1602 11.5187H16.1649C19.64 11.5187 23.1136 11.5203 26.5887 11.5155C26.8306 11.514 27.052 11.5584 27.2655 11.6583C27.2781 11.663 27.2922 11.6694 27.3048 11.6757V11.6805C27.3064 11.6789 27.3095 11.6757 27.3111 11.6741C27.3299 11.6836 27.3503 11.6947 27.3692 11.7043C27.4006 11.7217 27.432 11.7376 27.4634 11.7534C27.4634 11.3776 27.4665 11.0033 27.4665 10.6274C27.4681 10.2548 27.4665 9.88208 27.4603 9.50781C27.4603 9.50623 27.4603 9.50464 27.4603 9.50305C27.4603 9.50147 27.4603 9.4983 27.4603 9.49671C27.454 9.22552 27.5325 9.1272 27.812 9.13196C28.7919 9.14782 29.7718 9.13989 30.7517 9.14147C30.703 9.03681 30.6323 8.95117 30.5334 8.89249C29.7404 8.05039 28.7935 7.51277 27.6377 7.38432C27.5812 7.35736 27.5231 7.3304 27.4665 7.30344C27.421 7.30978 27.3755 7.31612 27.3299 7.32405C27.3236 7.31771 27.3189 7.31137 27.3126 7.30344C26.2307 7.30661 25.1487 7.31137 24.0652 7.31295C21.4302 7.31771 18.7968 7.32088 16.1618 7.32564C16.1602 7.74907 16.1806 8.1725 16.1524 8.59276Z" fill="#F06977"/>
<path d="M9.29791 9.07803C9.28221 9.04631 9.26651 9.0146 9.24924 8.98129C9.22254 8.97971 9.19427 8.97812 9.16758 8.97654C9.1189 8.91469 9.0765 8.84808 9.02154 8.79257C8.21753 7.9584 7.66164 6.97357 7.27377 5.88407C6.90317 4.84214 6.75556 3.7685 6.82151 2.66948C6.84193 2.31108 6.72101 2.21275 6.38025 2.23178C5.87304 2.26033 5.36268 2.2413 4.8539 2.2413L4.85076 2.23813H4.82249C4.78795 2.23813 4.75654 2.23971 4.72199 2.23971H4.72042H4.6953C4.711 2.25398 4.7267 2.2635 4.74241 2.26826C4.77381 2.27777 4.80365 2.27143 4.83349 2.25081C4.83663 2.25557 4.84134 2.26033 4.84605 2.26509C4.84919 2.26667 4.85076 2.26667 4.8539 2.26826C4.86332 2.27143 4.87431 2.27619 4.88374 2.27936C5.29202 2.42367 5.7113 2.33169 6.12586 2.34438C6.70531 2.36182 6.72101 2.35072 6.70531 2.94226C6.66448 4.45519 7.01309 5.86979 7.73701 7.18925C8.1029 7.85373 8.49077 8.5087 9.10319 8.97654C9.11576 8.98764 9.12675 8.99715 9.13931 9.0035C9.1613 9.02253 9.18485 9.03997 9.20841 9.05583C9.22097 9.059 9.23353 9.06376 9.24609 9.06693C9.25081 9.09389 9.2618 9.11609 9.27907 9.13512H9.32775C9.31833 9.11609 9.30891 9.09706 9.29791 9.07803Z" fill="#D9596B"/>
<path d="M27.4665 12.9444C27.6361 12.8477 27.7209 12.6637 27.7225 12.4591C27.7209 12.253 27.6361 12.0262 27.4665 11.8454V12.9444Z" fill="#DA5A6C"/>
<path d="M27.3692 11.7043C27.3503 11.6947 27.3299 11.6836 27.3111 11.6741C27.3095 11.6757 27.3064 11.6789 27.3048 11.6805V11.6757C27.2922 11.6694 27.2781 11.663 27.2655 11.6583C27.052 11.5584 26.8306 11.514 26.5887 11.5155C23.1136 11.5203 19.64 11.5187 16.1649 11.5187H16.1602L16.1555 11.5171C16.1037 11.5171 16.0534 11.5187 16.0032 11.5187V11.5266C16.0032 11.5282 16.0047 11.5282 16.0063 11.5282V11.5298C16.0142 11.5346 16.022 11.5409 16.0314 11.5457C16.0817 11.5536 16.1241 11.5441 16.1586 11.5203C16.1602 11.5219 16.1633 11.5235 16.1649 11.5266C16.1665 11.5282 16.1681 11.5282 16.1696 11.5298V11.5314C16.1838 11.5441 16.1979 11.5584 16.212 11.571C16.4225 11.6725 16.647 11.6424 16.8669 11.6424C19.9839 11.644 23.101 11.6488 26.2181 11.6377C26.5746 11.6361 26.9248 11.7392 27.2797 11.6789C27.2828 11.6852 27.2875 11.69 27.2922 11.6947C27.2812 11.7058 27.2702 11.717 27.2593 11.7281C27.1776 12.161 27.0975 12.5939 27.3064 13.0126C27.2922 13.019 27.2781 13.0316 27.2655 13.0459C27.2624 13.0523 27.2577 13.0586 27.2545 13.065C27.1195 12.9825 26.9687 13.0221 26.818 13.0285C26.0894 13.0634 25.3639 13.1427 24.6305 13.1395C22.0348 13.1268 19.4375 13.1331 16.8402 13.1363C16.625 13.1363 16.3989 13.0951 16.2073 13.2283C16.1916 13.2378 16.1775 13.2489 16.1633 13.2616H16.1806C19.8646 13.1902 23.5533 13.4281 27.2341 13.1078C27.2577 13.1062 27.2812 13.103 27.3048 13.1014C27.3064 13.0761 27.3095 13.0507 27.3126 13.0253H27.3849H27.4618C27.4634 12.9983 27.465 12.9714 27.4665 12.9444V11.8454C27.465 11.8184 27.465 11.7915 27.4634 11.7645C27.4634 11.7614 27.4634 11.7582 27.4634 11.7534C27.432 11.7376 27.4006 11.7217 27.3692 11.7043Z" fill="#D9596B"/>
<path d="M27.4398 26.74C27.432 26.7353 27.4241 26.7305 27.4163 26.7273C27.3833 26.7162 27.3535 26.7241 27.3236 26.7416C27.3598 26.7416 27.3974 26.74 27.4336 26.74H27.4398Z" fill="#EA8190"/>
<path d="M27.4665 23.0148V23.0941C27.633 22.9164 27.7178 22.7309 27.7193 22.5438C27.7178 22.3582 27.6345 22.1727 27.4681 21.995V22.0664C27.4665 22.382 27.4665 22.6992 27.4665 23.0148Z" fill="#DA5A6C"/>
<path d="M4.1221 24.1725C4.30269 24.0313 4.54138 23.9695 4.69213 23.7918V23.7268C4.38278 23.8696 4.1064 24.0567 3.83944 24.274C2.93651 25.0114 2.54707 26.0279 2.61459 27.1238C2.70881 28.6431 3.43587 29.8911 4.69056 30.7888V30.7158C4.64031 30.654 4.5775 30.6048 4.51625 30.554C3.77506 29.934 3.25057 29.1585 2.92866 28.245C2.79518 27.8644 2.72452 27.4806 2.71352 27.1032C2.67898 25.9804 3.17834 24.9146 4.1221 24.1725Z" fill="#F06977"/>
<path d="M4.72197 23.7554C4.73925 23.7332 4.75338 23.7078 4.76751 23.6808C4.76751 23.6792 4.76908 23.6777 4.76908 23.6761C4.80049 23.6777 4.82719 23.6681 4.85388 23.6491L4.85231 23.6475C4.82719 23.6475 4.80206 23.6491 4.77694 23.6491C4.75024 23.6507 4.72512 23.6507 4.69999 23.6507C4.69685 23.6761 4.69528 23.7014 4.69214 23.7268V23.7918C4.70313 23.7807 4.71255 23.768 4.72197 23.7554Z" fill="#EA8190"/>
<path d="M4.69843 30.8649C4.72984 30.8807 4.75968 30.8966 4.79108 30.9125C4.80993 30.9236 4.83034 30.9331 4.84918 30.9426V30.9061C4.8272 30.8887 4.80365 30.876 4.77695 30.8696C4.77538 30.8633 4.77381 30.8554 4.77067 30.849C4.75968 30.8173 4.74397 30.7888 4.7267 30.7618C4.71571 30.7459 4.70314 30.7301 4.69058 30.7158V30.7888C4.69372 30.8141 4.69529 30.8395 4.69843 30.8649Z" fill="#EB7E8D"/>
<path d="M2.74966 16.4667C2.79834 15.1948 3.30398 14.2337 4.43618 13.639C4.53197 13.5899 4.6309 13.5423 4.7 13.4646V13.4249C4.7 13.4234 4.7 13.4234 4.7 13.4218L4.69215 13.4202C4.12212 13.6406 3.6259 13.9626 3.26943 14.4764C2.50469 15.5786 2.52196 16.7918 2.80776 18.0288C3.02289 18.966 3.57565 19.7098 4.21948 20.3949C4.22105 20.3949 4.22419 20.3949 4.22576 20.3949C4.22733 20.3933 4.22733 20.3917 4.2289 20.3885C4.22576 20.3901 4.22419 20.3901 4.22105 20.3917C4.24304 20.3632 4.24932 20.3346 4.24775 20.3093C4.23675 20.222 4.13468 20.1475 4.07815 20.0841C3.19563 19.1278 2.7528 18.0208 2.74495 16.7299C2.74495 16.6443 2.74652 16.5555 2.74966 16.4667Z" fill="#F06977"/>
<path d="M4.3341 20.4028C4.32782 20.3981 4.32154 20.3917 4.31526 20.387C4.28542 20.3774 4.26187 20.3822 4.23831 20.3965C4.2603 20.3981 4.28071 20.3996 4.30269 20.3996C4.31369 20.4012 4.32468 20.4012 4.3341 20.4028Z" fill="#F06977"/>
<path d="M15.8964 31.902C15.8477 31.8909 15.7974 31.8846 15.7488 31.8798C15.8226 31.8941 15.8948 31.9116 15.9623 31.9306C15.9419 31.9195 15.9199 31.91 15.8964 31.902Z" fill="#EA8391"/>
<path d="M16.1445 31.9766C16.1162 31.9591 16.088 31.9528 16.0613 31.9591C16.0817 31.9655 16.1021 31.9718 16.121 31.9766C16.1272 31.9766 16.1367 31.9766 16.1445 31.9766Z" fill="#EA8391"/>
<path d="M4.689 20.7184C4.689 20.7041 4.68743 20.6914 4.68586 20.6772V20.6756C4.67173 20.601 4.62305 20.5773 4.56337 20.5725C4.55709 20.5677 4.54924 20.5646 4.54139 20.5598C4.51469 20.5582 4.488 20.5582 4.45973 20.5598C4.5037 20.6597 4.58065 20.7136 4.689 20.7184Z" fill="#EC6775"/>
<path d="M4.69525 0.823514C4.69525 0.69823 4.68426 0.587218 4.51623 0.579289C4.33407 0.569773 4.30267 0.677613 4.30424 0.826686C4.30738 1.29452 4.30581 1.76077 4.30738 2.22861V2.24288H4.34507C4.46127 2.24129 4.57905 2.23971 4.69525 2.23812V0.823514Z" fill="#F06B79"/>
<path d="M27.4634 18.3221C27.4618 18.3237 27.4603 18.3237 27.4603 18.3269C27.4587 18.3269 27.4571 18.3285 27.4555 18.3301C27.4006 18.2968 27.3519 18.3015 27.3079 18.3332V18.3348L27.3111 18.3364C27.3582 18.3364 27.4053 18.3364 27.4508 18.3348H27.4634V18.3301V18.3221Z" fill="#D97588"/>
<path d="M27.4272 17.5688C27.4398 17.5641 27.4524 17.5562 27.4649 17.5435H27.4398C27.4351 17.5514 27.432 17.5609 27.4272 17.5688Z" fill="#D97588"/>
<path d="M27.8104 16.7077C27.6879 16.7077 27.5639 16.6918 27.465 16.6078V16.6046H27.4477C27.4021 16.6046 27.3566 16.603 27.3111 16.603L27.3095 16.6046H27.3079L27.3032 16.6062V16.5999C27.3016 16.6014 27.2985 16.6046 27.2969 16.6062H27.2891C27.1415 16.7299 26.9593 16.7188 26.7834 16.7188C23.4182 16.722 20.053 16.722 16.6878 16.7188C16.5072 16.7188 16.3204 16.7299 16.1602 16.611C16.1586 16.6094 16.1555 16.6062 16.1555 16.6046V16.603V16.5919H16.1445H16.0189H16.0047V16.6046V16.6062C15.9247 16.676 15.8273 16.7045 15.7268 16.7045C14.3685 16.7109 13.0117 16.7585 11.6565 16.6823C11.5921 16.6601 11.5544 16.6332 11.5309 16.603C11.5293 16.603 11.5277 16.603 11.5262 16.603C11.5246 16.6014 11.5215 16.5999 11.5199 16.5999C11.5152 16.5967 11.5105 16.5951 11.5058 16.5919C11.4853 16.5919 11.4649 16.5935 11.4461 16.5935C10.8447 16.8235 10.2432 16.8615 9.64179 16.5935C9.59625 16.5935 9.54757 16.5919 9.50203 16.5919C9.49732 16.5951 9.49261 16.5983 9.48633 16.603C9.48476 16.603 9.48476 16.603 9.48319 16.603C9.46277 16.6268 9.43451 16.649 9.39368 16.6696C9.09846 16.7474 8.79853 16.7125 8.50016 16.714C7.30515 16.7188 6.10856 16.7109 4.91198 16.7236C4.8947 16.7172 4.87743 16.7109 4.8633 16.6982C4.86016 16.6982 4.85701 16.6966 4.85544 16.6934C4.85073 16.6903 4.84759 16.6871 4.84445 16.6855C4.84288 16.6855 4.84288 16.6871 4.84131 16.6871C4.82404 16.7315 4.78949 16.76 4.74081 16.7696C4.72825 16.7648 4.71726 16.7616 4.70312 16.7553C4.70155 16.7569 4.70155 16.7585 4.69998 16.76C4.69841 16.76 4.69841 16.7616 4.69684 16.7616L4.69213 16.7632L4.69056 16.7648C4.37021 17.2326 4.35922 17.7021 4.69684 18.1746V18.1762C4.71883 18.1731 4.74238 18.1715 4.76437 18.1683C4.80048 18.181 4.83189 18.2 4.85701 18.2254C4.86015 18.227 4.8633 18.2301 4.86487 18.2333V18.2349C4.86958 18.2365 4.87115 18.2397 4.87115 18.2413C4.88528 18.2333 4.89941 18.2238 4.91355 18.2143C5.21191 18.1651 5.51184 18.2127 5.81177 18.2127C8.98382 18.2079 12.1543 18.2079 15.3264 18.2111C15.5556 18.2111 15.7975 18.1699 16.0047 18.3237V18.3364H16.011H16.1414H16.1555V18.3237C16.3204 18.1921 16.5167 18.2095 16.7082 18.2095C20.053 18.2064 23.3978 18.2064 26.7426 18.2095C26.9373 18.2095 27.1399 18.1873 27.3032 18.3332V18.3285C27.2922 18.3174 27.2781 18.3031 27.2655 18.2904C27.1792 18.0557 27.176 17.8194 27.2687 17.5847C27.2797 17.5752 27.2907 17.5641 27.3032 17.5546V17.5435H27.3048L27.3173 17.5419C27.3142 17.545 27.3126 17.5466 27.3095 17.5482C27.3079 17.5514 27.3048 17.553 27.3032 17.5546V18.3285C27.3048 18.3301 27.3064 18.3316 27.3079 18.3332C27.3519 18.3015 27.4006 18.2968 27.4555 18.3301C27.4571 18.3285 27.4587 18.3269 27.4602 18.3269C27.4602 18.3237 27.4618 18.3237 27.4634 18.3221C27.567 18.2301 27.6989 18.219 27.8293 18.219C28.415 18.2222 29.0007 18.1746 29.5833 18.2603C29.0196 17.8543 28.3914 17.6212 27.7052 17.5387V17.3896C28.3883 17.3072 29.0149 17.0756 29.577 16.6728C29.5755 16.6712 29.5739 16.6712 29.5739 16.6696C28.9882 16.7521 28.3977 16.7061 27.8104 16.7077ZM27.3048 17.3849H27.3032V17.3738C27.3048 17.3754 27.3079 17.3769 27.3095 17.3801C27.3126 17.3817 27.3142 17.3849 27.3173 17.3865L27.3048 17.3849ZM27.4273 17.5688C27.432 17.5609 27.4351 17.5514 27.4398 17.5435H27.465C27.4524 17.5562 27.4398 17.5641 27.4273 17.5688Z" fill="#D9596B"/>
<path d="M4.85542 30.9473C4.87269 30.96 4.88996 30.9711 4.90724 30.9822C4.89939 30.9664 4.89153 30.9505 4.87897 30.9331C4.87269 30.9267 4.86641 30.9204 4.85856 30.9156V30.914C4.85542 30.9125 4.85228 30.9093 4.84914 30.9061V30.9426L4.85542 30.9473Z" fill="#F06977"/>
<path d="M7.28632 31.818H8.28033C10.6405 31.818 13.0007 31.8196 15.3609 31.8196C15.2164 31.6848 15.0327 31.7022 14.8568 31.7006C12.5061 31.6975 10.1553 31.6975 7.80295 31.7006C7.65534 31.7022 7.49988 31.6879 7.36797 31.7672C7.34285 31.7609 7.31929 31.7546 7.29417 31.7466C7.15912 31.7213 7.0225 31.7102 6.88431 31.7133C6.78381 31.7165 6.68331 31.7181 6.58438 31.7181C6.68645 31.7514 6.79009 31.7831 6.89216 31.8148C7.02407 31.8164 7.15441 31.8164 7.28632 31.818Z" fill="#F06977"/>
<path d="M4.94025 31.0758C5.01563 31.1614 5.11456 31.2217 5.21663 31.282C5.55425 31.4802 5.90914 31.615 6.27974 31.7054C6.47917 31.7546 6.68331 31.791 6.89216 31.8148C6.79009 31.7815 6.68645 31.7498 6.58438 31.7181C6.57339 31.7181 6.5624 31.7181 6.5514 31.7181C5.98138 31.5389 5.41763 31.3438 4.9167 30.9997C4.91356 30.9933 4.90884 30.987 4.90727 30.9822C4.89 30.9711 4.87273 30.96 4.85545 30.9473C4.87901 30.9965 4.90727 31.0393 4.94025 31.0758Z" fill="#D9596C"/>
<path d="M16.0079 21.6683C16.0079 21.6636 16.0063 21.6604 16.0063 21.6557C16.0063 21.6588 16.0063 21.662 16.0063 21.6636C16.0063 21.6636 16.0063 21.6652 16.0048 21.6652C16.0032 21.6636 16 21.662 15.9985 21.662C15.9969 21.6636 15.9953 21.6668 15.9922 21.6683H16.0079Z" fill="#D9596B"/>
<path d="M16.0079 23.4239V23.4097H15.9922C15.9969 23.4144 16.0016 23.4208 16.0063 23.4255L16.0079 23.4239Z" fill="#D9596B"/>
<path d="M9.32775 9.13513H9.27907C9.28535 9.14465 9.2932 9.15258 9.30262 9.16051C9.32304 9.17954 9.34973 9.19698 9.37957 9.21125C9.41569 9.22553 9.45337 9.23504 9.49106 9.23821C9.46123 9.2065 9.43296 9.17478 9.40469 9.14148C9.37957 9.14148 9.35287 9.1383 9.32775 9.13513Z" fill="#D9596B"/>
<path d="M6.99577 13.2632C9.99666 13.2584 12.996 13.2616 15.9953 13.2616V13.2283C15.9765 13.2108 15.956 13.1982 15.9325 13.1886C15.8069 13.1395 15.6765 13.1363 15.5462 13.1363C12.2281 13.1331 8.91 13.1315 5.5919 13.1379C5.36735 13.1379 5.13651 13.1411 4.94336 13.2711C4.91195 13.2901 4.88212 13.3139 4.85385 13.3409C4.87898 13.3361 4.9041 13.3314 4.92923 13.3282C5.61546 13.214 6.3064 13.2648 6.99577 13.2632Z" fill="#D9596B"/>
<path d="M15.9969 11.5203C15.9985 11.5236 16.0001 11.5252 16.0033 11.5268V11.5187L15.9969 11.5203Z" fill="#D9596B"/>
<path d="M4.70001 13.4646C4.70629 13.4582 4.711 13.4519 4.71729 13.444C4.75026 13.4868 4.77068 13.5344 4.78324 13.5851C4.78481 13.5344 4.80365 13.4884 4.83192 13.4471C4.8382 13.4471 4.84291 13.444 4.84919 13.4408C4.87118 13.4297 4.89159 13.4107 4.90729 13.3837C4.91672 13.3647 4.923 13.3472 4.92928 13.3282C4.90415 13.3314 4.87903 13.3361 4.8539 13.3409C4.85233 13.3678 4.85076 13.3948 4.84919 13.4202C4.81151 13.4218 4.77225 13.4218 4.73299 13.4218H4.70001C4.70001 13.4234 4.70001 13.4234 4.70001 13.4249V13.4646Z" fill="#F06977"/>
<path d="M16.1555 26.74L16.1633 26.7416L16.1586 26.7368C16.157 26.7384 16.1555 26.7384 16.1555 26.74Z" fill="#D9596B"/>
<path d="M16.0079 9.50464C16.0189 9.19856 15.9074 9.13037 15.6247 9.13195C13.5519 9.14464 11.4775 9.14147 9.40469 9.14147C9.43296 9.17477 9.46123 9.20649 9.49106 9.23821C10.2228 10.0549 11.1635 10.5529 12.1543 10.97C13.387 11.4886 14.6825 11.5647 15.9953 11.5203H15.9969C15.9985 10.8479 15.9859 10.1755 16.0079 9.50464Z" fill="#F06977"/>
<path d="M16.0079 13.2632H16.0314C16.022 13.2521 16.0126 13.2426 16.0032 13.2346C16 13.2315 15.9984 13.2299 15.9953 13.2283V13.2616L16.0079 13.2632Z" fill="#D9596B"/>
<path d="M16.1575 16.603H16.1555V16.6051L16.1575 16.603Z" fill="#F06977"/>
<path d="M16.1813 13.2616H16.1636L16.1524 13.2632V13.281C16.162 13.2761 16.1717 13.2697 16.1813 13.2616Z" fill="#F06977"/>
<path d="M16.1555 18.3371L16.1654 18.3337C16.1621 18.3304 16.1588 18.327 16.1555 18.3237V18.3371Z" fill="#F06977"/>
<path d="M26.5494 21.6636C26.7866 21.6636 27.0096 21.6969 27.2231 21.7873C27.2482 21.7968 27.2702 21.8079 27.2953 21.8206C27.2687 21.7794 27.2404 21.7445 27.2074 21.7143C27.0253 21.5415 26.774 21.5542 26.5369 21.5542C23.2502 21.5478 19.9619 21.5494 16.6753 21.5526C16.4978 21.5526 16.3141 21.5415 16.1602 21.6604C16.1633 21.6636 16.1649 21.6652 16.168 21.6683C19.629 21.6683 23.09 21.6683 26.5494 21.6636Z" fill="#F06977"/>
<path d="M16.6627 28.6557C16.5418 28.5923 16.4193 28.5336 16.2937 28.4765C16.3706 28.5162 16.4507 28.5574 16.5245 28.5971C16.5716 28.6145 16.6172 28.6335 16.6627 28.6557Z" fill="#F06977"/>
<path d="M31.5211 20.5757C31.4552 20.517 31.3829 20.4869 31.3076 20.4726C31.3107 20.471 31.3154 20.4662 31.3186 20.4647C31.3892 20.4805 31.4583 20.5091 31.5211 20.5646C31.4787 20.4821 31.4363 20.3996 31.3924 20.3172C31.3924 20.3203 31.3908 20.3219 31.3908 20.3235C31.0123 19.437 30.3921 18.7693 29.5833 18.2714C29.2913 18.43 28.9772 18.3285 28.6741 18.3427C28.2721 18.3618 27.8701 18.3459 27.4681 18.3459H27.4508C27.4053 18.3475 27.3582 18.3475 27.3111 18.3475L27.3079 18.3459L27.3032 18.3443H16.1649L16.1555 18.3475H16.1414C16.0848 18.4205 16.0644 18.5013 16.055 18.5854C16.055 18.5838 16.055 18.5806 16.055 18.579C16.055 18.5822 16.055 18.5854 16.055 18.5886C16.044 18.5077 16.0283 18.4284 16.011 18.3475H16.0048L15.9953 18.3443C12.448 18.3459 8.90061 18.3443 5.35325 18.3507C5.18994 18.3507 5.04233 18.311 4.89001 18.2746C4.87902 18.2714 4.86802 18.2698 4.85703 18.2666L4.84761 18.2682C4.79893 18.2413 4.74868 18.2175 4.7 18.1905C4.69843 18.1905 4.69843 18.1889 4.69686 18.1889L4.69372 18.1873C4.42519 18.0034 4.29172 17.7369 4.29329 17.4689C4.29172 17.2025 4.42362 16.9345 4.69215 16.7521L4.69686 16.7505C4.69843 16.7505 4.69843 16.7489 4.7 16.7489C4.74554 16.7251 4.78951 16.7014 4.83662 16.6776C4.84133 16.676 4.84447 16.6728 4.84918 16.6712L4.85546 16.6728C5.05489 16.6078 5.25903 16.5888 5.46946 16.5903C6.80737 16.5951 8.14686 16.5919 9.48634 16.5919H9.4942C9.49106 16.5951 9.48634 16.5999 9.4832 16.603C9.48477 16.603 9.48477 16.603 9.48634 16.603C9.49106 16.5983 9.49577 16.5951 9.50205 16.5919C9.54916 16.5919 9.59627 16.5935 9.64181 16.5935H9.86165H11.2058H11.4461C11.465 16.5935 11.4854 16.5919 11.5058 16.5919C11.5105 16.5951 11.5152 16.5967 11.5199 16.5999C11.5215 16.5999 11.5246 16.6014 11.5262 16.603C11.5278 16.603 11.5293 16.603 11.5309 16.603C11.5278 16.5999 11.5246 16.5951 11.5231 16.5919C11.5246 16.5919 11.5246 16.5919 11.5262 16.5919C13.0164 16.5935 14.5051 16.5935 15.9953 16.5951C15.9985 16.5983 16.0016 16.6014 16.0048 16.6046V16.5919H16.0189H16.1445H16.1555V16.603H16.1571L16.1649 16.5951H27.3032C27.2985 16.5999 27.2938 16.6014 27.2891 16.6062H27.297C27.2985 16.6046 27.3017 16.6014 27.3032 16.5999V16.6062L27.3079 16.6046H27.3095L27.3111 16.603C27.3566 16.603 27.4022 16.6046 27.4477 16.6046H27.465H27.4681C28.0523 16.6046 28.6349 16.6014 29.2175 16.6062C29.3384 16.6062 29.4718 16.5666 29.5724 16.6696C29.5739 16.6712 29.5755 16.6712 29.5755 16.6728C29.5771 16.676 29.5802 16.676 29.5818 16.6792C29.7639 16.6237 29.8943 16.4873 30.0309 16.3699C31.4191 15.1916 32.0456 13.6993 31.8823 11.8597C31.7928 10.8653 31.3845 10.0185 30.8427 9.21441C30.8113 9.1938 30.7815 9.17318 30.7501 9.15256C29.7702 9.15098 28.7903 9.15891 27.8104 9.14305C27.5325 9.13829 27.454 9.23661 27.4587 9.50304C27.4587 9.50463 27.4587 9.50621 27.4587 9.5078C27.465 9.88207 27.4665 10.2548 27.465 10.6274C27.4634 11.0033 27.4618 11.3791 27.4618 11.7534C27.4618 11.7566 27.4618 11.7598 27.4618 11.7645C27.4634 11.7915 27.4634 11.8184 27.465 11.8454C27.6346 12.0262 27.7194 12.253 27.7209 12.4591C27.7225 12.6685 27.6377 12.8572 27.465 12.9555C27.4634 12.9825 27.4618 13.0094 27.4603 13.0364H27.3111C27.3079 13.0618 27.3048 13.0871 27.3032 13.1125C27.2797 13.1141 27.2561 13.1173 27.2326 13.1189C23.5517 13.4392 19.863 13.2013 16.1791 13.2727C16.1696 13.2806 16.1602 13.287 16.1508 13.2917C16.1445 13.2949 16.1398 13.2981 16.1335 13.2996H16.132C16.11 13.3377 16.0974 13.3774 16.0896 13.4186C16.0801 13.3789 16.066 13.3393 16.0487 13.2996L16.0472 13.2981C16.033 13.2917 16.0205 13.2854 16.0063 13.2743L15.9938 13.2727C12.9944 13.2727 9.99513 13.2695 6.99424 13.2743C6.30487 13.2759 5.61393 13.2251 4.9277 13.3393C4.92142 13.3583 4.91513 13.3758 4.90571 13.3948C4.89001 13.4218 4.86959 13.4408 4.84761 13.4519C4.84133 13.4551 4.83662 13.4582 4.83034 13.4582C4.80207 13.4995 4.78323 13.5455 4.78166 13.5962C4.76909 13.5455 4.74868 13.4979 4.7157 13.4551C4.70942 13.463 4.70471 13.4693 4.69843 13.4757C4.62933 13.5534 4.5304 13.601 4.43461 13.6501C3.30241 14.2448 2.79677 15.2059 2.74809 16.4777C2.74495 16.5634 2.74338 16.6474 2.74338 16.7315C2.74966 18.0224 3.19406 19.1309 4.07658 20.0856C4.13311 20.1475 4.23675 20.2236 4.24618 20.3108C4.24932 20.3362 4.24304 20.3632 4.22576 20.3901C4.22419 20.3917 4.22419 20.3933 4.22262 20.3965C4.22105 20.3996 4.21948 20.4028 4.21791 20.406C4.22262 20.4012 4.2289 20.4012 4.23518 20.398C4.25874 20.3838 4.28386 20.379 4.31213 20.3885C4.31841 20.3933 4.32469 20.3996 4.33097 20.4044C4.31998 20.4028 4.31056 20.4028 4.29957 20.4012C4.31213 20.425 4.32469 20.4488 4.33568 20.4726C4.35139 20.4995 4.36395 20.5281 4.37808 20.555C4.40478 20.5582 4.4299 20.5598 4.4566 20.5614C4.48487 20.5598 4.51156 20.5598 4.53826 20.5614C4.54611 20.5662 4.55239 20.5693 4.56024 20.5741C4.61991 20.5788 4.66859 20.6026 4.68273 20.6772V20.6787C4.6843 20.6914 4.68587 20.7041 4.68587 20.72C4.68901 20.7454 4.69215 20.7707 4.69529 20.7961C4.72355 20.8104 4.75182 20.8262 4.78009 20.8405C4.80207 20.8532 4.82563 20.8643 4.84761 20.8754C4.84918 20.8738 4.85075 20.8738 4.85232 20.8722C4.84918 20.8611 4.84918 20.85 4.84761 20.8389C4.85546 20.8453 4.86331 20.8532 4.86959 20.8627H4.87116C4.87273 20.8659 4.87588 20.8706 4.87902 20.8738C5.05175 20.8405 5.1868 20.9468 5.32499 21.0213C6.02221 21.3908 6.7634 21.551 7.54857 21.5478C10.1443 21.5415 12.7401 21.5446 15.3358 21.5478C15.5619 21.5478 15.799 21.505 16.0016 21.6557C16 21.6588 15.9969 21.6604 15.9953 21.6636C15.9969 21.6652 16 21.6652 16.0016 21.6668C16.0032 21.6668 16.0032 21.6652 16.0032 21.6652C16.0032 21.662 16.0032 21.6588 16.0032 21.6572C15.9985 21.6208 15.9969 21.5843 15.9969 21.5462C15.9969 21.5827 15.9985 21.6192 16.0032 21.6541C16.0032 21.6557 16.0032 21.6572 16.0032 21.6572C16.0032 21.662 16.0048 21.6652 16.0048 21.6699H16.0173H16.1461C16.1477 21.6699 16.1477 21.6699 16.1492 21.6699V21.6652C16.1508 21.6652 16.1508 21.6668 16.1508 21.6668C16.1524 21.6652 16.1555 21.6636 16.1571 21.662C16.311 21.5415 16.4931 21.5542 16.6721 21.5542C19.9588 21.551 23.2471 21.5494 26.5338 21.5557C26.7709 21.5557 27.0221 21.5431 27.2043 21.7159C27.2357 21.7445 27.2655 21.7809 27.2922 21.8222C27.2954 21.8285 27.3001 21.8333 27.3032 21.838C27.3048 21.8634 27.3079 21.8888 27.3111 21.9142C27.3331 21.9142 27.3551 21.9157 27.377 21.9142C27.4037 21.9157 27.432 21.9157 27.4587 21.9157C27.4603 21.9427 27.4618 21.9697 27.465 21.9966C27.6314 22.1742 27.7147 22.3598 27.7162 22.5453C27.7178 22.7341 27.6346 22.9244 27.4634 23.1067C27.4618 23.1337 27.4603 23.1607 27.4587 23.186C27.432 23.1876 27.4037 23.1876 27.3755 23.1876C27.3535 23.1876 27.3331 23.1892 27.3111 23.1892C27.3079 23.2146 27.3048 23.2399 27.3032 23.2653C27.275 23.3161 27.242 23.3573 27.2059 23.3906C27.0771 23.508 26.9028 23.5286 26.7285 23.5413C26.3893 23.5635 26.0485 23.5508 25.7094 23.5508C22.754 23.5524 19.8002 23.5524 16.8449 23.5492C16.6125 23.5492 16.3706 23.5888 16.1586 23.4445C16.1571 23.4398 16.1571 23.4366 16.1555 23.4318C16.1524 23.4334 16.1508 23.435 16.1492 23.4382C16.1351 23.4493 16.1225 23.462 16.11 23.4762C16.0754 23.5349 16.0597 23.5999 16.0503 23.6634C16.0487 23.6015 16.044 23.5397 16.0409 23.4778C16.0283 23.4651 16.0173 23.4525 16.0048 23.4398C16.0048 23.4398 16.0048 23.4398 16.0032 23.4382C15.7975 23.5888 15.5588 23.5476 15.3279 23.5492C12.404 23.5524 9.48006 23.5508 6.55455 23.5508C6.09759 23.5508 5.64062 23.527 5.19622 23.6729C5.08473 23.711 4.96695 23.7189 4.85389 23.6586L4.85232 23.6602C4.85232 23.6618 4.85232 23.6618 4.85232 23.6634C4.85075 23.6634 4.85075 23.6618 4.85075 23.6618C4.82405 23.6808 4.79736 23.6903 4.76595 23.6888C4.76595 23.6903 4.76438 23.6919 4.76438 23.6935C4.75025 23.7205 4.73612 23.7458 4.71884 23.768C4.70942 23.7807 4.7 23.7934 4.68901 23.8045C4.53826 23.9821 4.29957 24.044 4.11898 24.1851C3.17679 24.9257 2.67899 25.9867 2.7104 27.1047C2.72139 27.4822 2.79049 27.866 2.92553 28.2466C3.24745 29.16 3.77194 29.9355 4.51313 30.5556C4.57437 30.6064 4.63719 30.6555 4.68744 30.7174C4.7 30.7317 4.71256 30.7475 4.72355 30.7634C4.74083 30.7903 4.75653 30.8189 4.76752 30.8506C4.77066 30.8569 4.77223 30.8649 4.7738 30.8712C4.8005 30.8776 4.82405 30.8902 4.84604 30.9077C4.84918 30.9109 4.85232 30.914 4.85546 30.9156V30.9172C4.86331 30.922 4.86959 30.9283 4.87588 30.9346C4.88687 30.9505 4.89472 30.9664 4.90414 30.9838C4.90728 30.9902 4.91199 30.9949 4.91356 31.0013C5.4145 31.3454 5.97824 31.5405 6.54827 31.7197C6.55926 31.7197 6.57025 31.7197 6.58125 31.7197C6.68018 31.7197 6.78068 31.7181 6.88118 31.7149C7.01937 31.7117 7.15598 31.7228 7.29103 31.7482C7.31616 31.7561 7.33971 31.7625 7.36484 31.7688C7.49675 31.6895 7.65221 31.7038 7.79982 31.7022C10.1522 31.699 12.5029 31.699 14.8537 31.7022C15.0296 31.7038 15.2133 31.6864 15.3578 31.8212C15.3625 31.8259 15.3672 31.8275 15.3703 31.8323H15.3719V31.8338C15.3735 31.837 15.3766 31.837 15.3782 31.8402C15.496 31.8402 15.6216 31.8576 15.7441 31.883C15.7943 31.8878 15.843 31.8941 15.8917 31.9052C15.9152 31.9131 15.9372 31.9227 15.9576 31.9338C15.9922 31.9433 16.0236 31.9528 16.055 31.9623C16.0833 31.956 16.11 31.9623 16.1382 31.9797C16.1429 31.9829 16.1477 31.9845 16.1524 31.9877C16.1539 31.9893 16.1539 31.9893 16.1555 31.9908H16.267C16.3031 31.9829 16.3408 31.9829 16.3801 31.9908H16.3816C16.4523 32.0035 16.5261 32.0368 16.5952 32.0733C17.842 32.7283 18.5361 33.7559 18.6115 35.1864C18.6146 35.2578 18.6162 35.3307 18.6178 35.4021C18.6193 35.6162 18.6131 35.8303 18.6146 36.0444C18.6146 36.0475 18.6146 36.0523 18.6146 36.0555C18.6225 37.2465 19.4406 38.2392 20.5979 38.4581C20.7487 38.4866 20.8979 38.5056 20.9984 38.6373C21.0015 38.642 21.0062 38.6452 21.0094 38.65C21.0141 38.1488 21.0235 37.6477 21.0204 37.145C21.0172 36.2362 21.0549 35.3291 20.8728 34.4268C20.7079 33.6069 20.4079 32.8409 20.0703 32.086C20.0546 32.013 20.0185 31.9591 19.9541 31.9274C19.9431 31.8957 19.9321 31.864 19.9196 31.8323C19.8944 31.8021 19.8646 31.7783 19.8301 31.7625C19.6636 31.3835 19.4061 31.0631 19.1485 30.7507C18.4733 29.9308 17.6976 29.2378 16.7821 28.7303C16.7915 28.7398 16.6706 28.6779 16.5198 28.6002C16.2544 28.5019 15.9969 28.4876 15.9922 28.4876C15.9922 28.4908 15.9922 28.4956 15.9922 28.4987H15.9011C12.2171 28.4971 8.53473 28.4971 4.85232 28.4971L4.84604 28.4987V28.5003H4.69215C4.69058 28.4734 4.69058 28.4464 4.68901 28.4194C4.26659 28.3481 3.91641 27.9326 3.91798 27.5313C3.91798 27.5028 3.91798 27.4743 3.92112 27.4473C3.96352 27.0873 4.16923 26.9414 4.69058 26.9017H4.69372H4.70628H4.8429C4.84604 26.8764 4.84918 26.851 4.85075 26.8256C4.87431 26.824 4.89943 26.824 4.92299 26.8225C8.61167 26.6655 12.3019 26.7781 15.9922 26.7447L16.0048 26.7432C16.0157 26.7321 16.0283 26.7241 16.0409 26.7178C16.0409 26.7178 16.0409 26.7178 16.0424 26.7178C16.077 26.7019 16.1115 26.7099 16.1461 26.7432C16.1461 26.7432 16.1508 26.7416 16.1555 26.7368C16.1586 26.7305 16.1618 26.7225 16.1665 26.7162C16.3424 26.5988 16.5418 26.6179 16.7365 26.6179C20.0593 26.6147 23.3806 26.6147 26.7034 26.6179C26.9091 26.6179 27.1242 26.5893 27.3001 26.7432H27.3017V26.7447C27.3001 26.7447 27.3001 26.7447 27.2985 26.7447H27.2875C27.2922 26.7479 27.297 26.7511 27.3001 26.7543H27.3017V26.7527C27.3079 26.7479 27.3127 26.7479 27.3189 26.7447C27.3488 26.7273 27.3786 26.7194 27.4116 26.7305C27.4194 26.7336 27.4273 26.7384 27.4351 26.7432C27.4414 26.7463 27.4493 26.7495 27.4556 26.7543L27.4634 26.7574C28.0491 26.7558 28.6364 26.7543 29.2222 26.7574C29.3415 26.759 29.4766 26.7194 29.5739 26.8304C29.5755 26.832 29.5771 26.8336 29.5771 26.8351C29.5786 26.8383 29.5818 26.8399 29.5833 26.8415C31.664 25.5204 32.4743 22.8974 31.5211 20.5757ZM16.0472 19.2435C16.0472 19.3926 16.0472 19.5417 16.0487 19.6892C16.0487 19.8922 16.0487 20.0444 16.0613 20.1586C16.0723 19.8319 16.0958 19.5052 16.0943 19.1785C16.0958 19.5084 16.0723 19.8398 16.0613 20.1697C16.0487 20.0555 16.0487 19.9033 16.0487 19.7003C16.0487 19.548 16.0472 19.3958 16.0472 19.2435Z" fill="#F06977"/>
<path d="M4.70166 26.9083C4.70166 26.9099 4.70001 26.9099 4.70001 26.9099H4.71322C4.70992 26.9083 4.70662 26.9066 4.70496 26.9049C4.70496 26.9066 4.70331 26.9083 4.70166 26.9083Z" fill="#F06977"/>
<path d="M4.84132 16.688C4.84335 16.688 4.84335 16.686 4.84537 16.686C4.84537 16.686 4.84335 16.686 4.84335 16.6839C4.84335 16.686 4.84132 16.686 4.84132 16.688Z" fill="#F06977"/>
<path d="M4.69719 16.7537C4.69388 16.757 4.69223 16.762 4.69058 16.7654L4.69223 16.7637L4.69719 16.762C4.69884 16.762 4.69884 16.7604 4.70049 16.7604C4.70214 16.7587 4.70214 16.757 4.70379 16.7554C4.70214 16.7554 4.70049 16.7537 4.69884 16.7537C4.69884 16.7537 4.69884 16.7537 4.69719 16.7537Z" fill="#F06977"/>
<path d="M16.848 23.5365C19.8034 23.5397 22.7571 23.5397 25.7125 23.5381C26.0517 23.5381 26.3924 23.5508 26.7316 23.5286C26.9059 23.5159 27.0802 23.4953 27.209 23.3779C27.2451 23.3446 27.2781 23.3034 27.3064 23.2526C27.2781 23.2669 27.2498 23.2796 27.2216 23.2923C26.9954 23.3874 26.7583 23.4144 26.5102 23.4128C23.0633 23.4096 19.6149 23.4096 16.1681 23.4096C16.1649 23.4128 16.1618 23.416 16.1586 23.4192C16.1602 23.4239 16.1602 23.4271 16.1618 23.4318C16.3738 23.5762 16.6156 23.5365 16.848 23.5365Z" fill="#F06977"/>
<path d="M16.1633 26.7416H27.2922H27.3032C27.3048 26.7416 27.3048 26.7416 27.3064 26.7416V26.74H27.3048C27.1289 26.5862 26.9138 26.6147 26.7081 26.6147C23.3853 26.6115 20.064 26.6115 16.7412 26.6147C16.5465 26.6147 16.3471 26.5957 16.1712 26.713C16.1665 26.7194 16.1633 26.7273 16.1602 26.7337C16.1602 26.7352 16.1586 26.7352 16.1586 26.7368L16.1633 26.7416Z" fill="#F06977"/>
<path d="M4.6937 28.4052V28.375C4.61833 28.3084 4.51626 28.2831 4.43617 28.226C4.18335 28.0484 4.05301 27.7962 4.05301 27.4885C4.05458 27.1793 4.28228 27.073 4.53196 27.0001C4.59634 26.9811 4.65444 26.9541 4.69841 26.9113V26.9002V26.8986H4.69527C4.17393 26.9382 3.96821 27.0841 3.92581 27.4441C3.92267 27.4727 3.9211 27.4996 3.92267 27.5282C3.92896 27.9262 4.276 28.3338 4.6937 28.4052Z" fill="#D9596B"/>
<path d="M4.69839 26.9113C4.69997 26.9113 4.69997 26.9097 4.69997 26.9097L4.70154 26.9081C4.70311 26.9081 4.70468 26.9065 4.70468 26.9049C4.70782 26.9065 4.71096 26.9081 4.71253 26.9097C4.72666 26.916 4.73922 26.924 4.75493 26.9335C4.79104 26.9382 4.82245 26.9319 4.84758 26.9192V26.8986H4.71096H4.69839V26.9002V26.9113Z" fill="#DA7385"/>
<path d="M4.69684 28.4861H4.77064H4.85073V28.4845C4.82246 28.4639 4.79263 28.4559 4.75965 28.4607C4.75965 28.4559 4.75651 28.4512 4.75494 28.4464C4.73923 28.421 4.72196 28.3988 4.70155 28.3814C4.69998 28.3782 4.69684 28.3766 4.6937 28.375V28.4052C4.69527 28.4321 4.69527 28.4591 4.69684 28.4861Z" fill="#DA7385"/>
<path d="M4.85767 28.4797C4.85594 28.4814 4.85247 28.4832 4.85074 28.4849L4.85767 28.4832C4.85767 28.4814 4.85767 28.4814 4.85767 28.4797Z" fill="#DA7385"/>
<path d="M4.85748 23.6459H4.85545V23.648L4.85748 23.6459Z" fill="#F06977"/>
<path d="M5.19934 23.6602C5.64374 23.5143 6.10071 23.5381 6.55767 23.5381C9.48318 23.5381 12.4071 23.5397 15.3311 23.5365C15.5619 23.5349 15.8006 23.5762 16.0063 23.4255C16.0016 23.4207 15.9969 23.4144 15.9922 23.4096C12.7259 23.4112 9.45806 23.416 6.19021 23.4049C5.7254 23.4017 5.28885 23.4921 4.85858 23.6444L4.85701 23.6459C4.97007 23.7062 5.08785 23.6983 5.19934 23.6602Z" fill="#F06977"/>
<path d="M4.8476 26.9192C4.84917 26.9176 4.85231 26.916 4.85388 26.916C4.87586 26.9018 4.89313 26.8827 4.90884 26.8589C5.15381 27.0112 5.43176 26.9636 5.68929 26.9319C6.28915 26.8589 6.88902 26.87 7.49045 26.87C10.0909 26.8685 12.6914 26.87 15.2918 26.8685C15.5132 26.8669 15.7378 26.8923 15.9514 26.8066C15.9686 26.7987 15.9843 26.7876 15.9969 26.7749V26.7416C12.3066 26.7749 8.61637 26.6623 4.92768 26.8193C4.90413 26.8209 4.879 26.8209 4.85545 26.8225C4.85388 26.8478 4.85074 26.8732 4.8476 26.8986V26.9192Z" fill="#D9596B"/>
<path d="M16.0032 28.3243C15.9985 28.3211 15.9922 28.3195 15.9875 28.3164C15.9875 28.3164 15.9938 28.3195 16.0032 28.3243Z" fill="#D9596B"/>
<path d="M15.9058 28.4845H15.9969L15.6011 28.4004L15.7456 28.3687C15.62 28.3465 15.4865 28.3608 15.3593 28.3608C12.0695 28.3576 8.77809 28.3576 5.4867 28.3592C5.29198 28.3592 5.09254 28.3386 4.90882 28.4337C4.89311 28.448 4.87741 28.4623 4.86014 28.4781C4.86014 28.4781 4.86014 28.4781 4.85857 28.4797C4.85857 28.4813 4.85857 28.4813 4.85857 28.4829C8.5394 28.4829 12.2218 28.4829 15.9058 28.4845Z" fill="#D9596B"/>
<path d="M4.69371 18.1762L4.69685 18.1778V18.1762V18.1746C4.35923 17.702 4.36865 17.2326 4.69056 16.7648C4.69371 16.7616 4.69528 16.7569 4.69685 16.7537C4.69685 16.7521 4.69685 16.7521 4.69685 16.7505L4.69213 16.7521C4.42361 16.9361 4.2917 17.2025 4.29327 17.4689C4.29641 17.7322 4.42832 17.9954 4.69371 18.1762Z" fill="#D9596C"/>
<path d="M16.0052 18.3371V18.3237L15.9953 18.3337L16.0052 18.3371Z" fill="#F06977"/>
<path d="M4.9057 20.9087C5.67045 21.4051 6.50429 21.6699 7.42293 21.6683C10.2793 21.6636 13.1358 21.6668 15.9922 21.6683C15.9938 21.6668 15.9969 21.6636 15.9985 21.662C16 21.6588 16.0032 21.6572 16.0047 21.6541C15.8022 21.5034 15.5651 21.5462 15.3389 21.5462C12.7432 21.5431 10.1474 21.5399 7.55169 21.5462C6.76653 21.5494 6.02534 21.3892 5.32812 21.0197C5.18993 20.9452 5.05488 20.8389 4.88214 20.8722C4.879 20.8691 4.87586 20.8643 4.87429 20.8611H4.87272C4.86644 20.8516 4.85859 20.8437 4.85074 20.8373C4.85231 20.8484 4.85231 20.8595 4.85545 20.8706V20.877C4.87272 20.8881 4.88843 20.8992 4.9057 20.9087Z" fill="#F06977"/>
<path d="M4.69842 16.7537C4.69999 16.7537 4.70156 16.7553 4.70314 16.7553C4.7157 16.76 4.72826 16.7648 4.74082 16.7696C4.7895 16.7585 4.82405 16.7299 4.84132 16.6871C4.84132 16.6855 4.84289 16.6855 4.84289 16.6839C4.84289 16.6839 4.84446 16.6839 4.84446 16.6855C4.8476 16.6887 4.85075 16.6919 4.85546 16.6934V16.6728L4.84918 16.6712C4.84446 16.6728 4.84132 16.676 4.83661 16.6776C4.7895 16.7014 4.74553 16.7252 4.69999 16.7489C4.69842 16.7489 4.69842 16.7505 4.69685 16.7505C4.69685 16.7521 4.69685 16.7521 4.69685 16.7537C4.69842 16.7537 4.69842 16.7537 4.69842 16.7537Z" fill="#D97588"/>
<path d="M4.69999 18.1794C4.74867 18.2064 4.79892 18.2302 4.8476 18.2571L4.85703 18.2555V18.2254C4.8319 18.2 4.8005 18.181 4.76438 18.1683C4.74239 18.1715 4.71884 18.1731 4.69685 18.1762V18.1778C4.69842 18.1778 4.69842 18.1794 4.69999 18.1794Z" fill="#D97588"/>
<path d="M26.7426 18.2095C23.3978 18.2064 20.053 18.2064 16.7082 18.2095C16.5166 18.2095 16.3204 18.1921 16.1555 18.3237C16.1586 18.3269 16.1618 18.3301 16.1649 18.3332H27.3032C27.1399 18.1873 26.9373 18.2095 26.7426 18.2095Z" fill="#D9596B"/>
<path d="M16.1602 16.611C16.3204 16.7299 16.5072 16.7188 16.6878 16.7188C20.053 16.722 23.4182 16.722 26.7834 16.7188C26.9577 16.7188 27.1399 16.7299 27.2891 16.6062C27.2938 16.6015 27.2985 16.5999 27.3032 16.5951H16.1649L16.157 16.603L16.1555 16.6046C16.1555 16.6062 16.1586 16.6094 16.1602 16.611Z" fill="#D9596B"/>
<path d="M27.2687 17.5847C27.176 17.8194 27.1791 18.0557 27.2655 18.2904C27.2781 18.3031 27.2922 18.3174 27.3032 18.3285V17.5546C27.2906 17.5641 27.2796 17.5752 27.2687 17.5847Z" fill="#D9596B"/>
<path d="M4.85701 18.2555C4.868 18.2587 4.87899 18.2603 4.88999 18.2634C5.04231 18.2999 5.18992 18.3396 5.35323 18.3396C8.90059 18.3332 12.448 18.3348 15.9953 18.3332L16.0047 18.3237C15.7975 18.1699 15.5556 18.2111 15.3264 18.2111C12.1543 18.2079 8.98382 18.2079 5.81177 18.2127C5.51183 18.2127 5.2119 18.1651 4.91354 18.2143C4.89941 18.2238 4.88528 18.2333 4.87114 18.2412C4.87114 18.2397 4.86957 18.2365 4.86486 18.2349V18.2333C4.86329 18.2301 4.86015 18.227 4.85701 18.2254V18.2555Z" fill="#D9596B"/>
<path d="M11.6565 16.6823C13.0117 16.7585 14.3685 16.7109 15.7268 16.7045C15.8273 16.7045 15.9246 16.676 16.0047 16.6062V16.6046C16.0016 16.6014 15.9984 16.5983 15.9953 16.5951C14.5051 16.5935 13.0164 16.5935 11.5262 16.5919C11.5246 16.5919 11.5246 16.5919 11.523 16.5919C11.5246 16.5951 11.5293 16.5999 11.5309 16.603C11.5544 16.6332 11.5921 16.6601 11.6565 16.6823Z" fill="#D9596B"/>
<path d="M4.85545 16.6934C4.85702 16.6966 4.86016 16.6982 4.86331 16.6982C4.87744 16.7109 4.89471 16.7172 4.91199 16.7236C6.10857 16.7109 7.30516 16.7188 8.50017 16.7141C8.79854 16.7125 9.09847 16.7474 9.39369 16.6697C9.43452 16.649 9.46278 16.6268 9.4832 16.603C9.48634 16.5999 9.49105 16.5951 9.49419 16.5919H9.48634C8.14685 16.5919 6.80737 16.5951 5.46945 16.5904C5.25903 16.5888 5.05488 16.6078 4.85545 16.6728V16.6934Z" fill="#D9596B"/>
<path d="M16.0487 13.287L16.0503 13.2885C16.0676 13.3282 16.0817 13.3678 16.0911 13.4075C16.099 13.3663 16.1115 13.3266 16.1335 13.2885H16.1351C16.1414 13.287 16.1461 13.2838 16.1524 13.2806V13.2632H16.0314H16.0079C16.022 13.2743 16.0346 13.2806 16.0487 13.287Z" fill="#F06977"/>
<path d="M16.055 18.5791C16.0629 18.4934 16.0833 18.4109 16.1414 18.3364H16.011C16.0283 18.4173 16.044 18.4982 16.055 18.5791Z" fill="#F06977"/>
<path d="M16.0079 23.4271C16.0205 23.4398 16.0314 23.4525 16.044 23.4652C16.0471 23.527 16.0519 23.5889 16.0534 23.6507C16.0629 23.5873 16.0786 23.5222 16.1131 23.4636C16.1257 23.4493 16.1382 23.4366 16.1524 23.4255V23.4097H16.0157H16.0079V23.4239C16.0079 23.4255 16.0079 23.4255 16.0079 23.4271Z" fill="#F06977"/>
<path d="M11.4461 16.5935H11.2058H9.86164H9.6418C10.2432 16.8616 10.8447 16.8235 11.4461 16.5935Z" fill="#CF6076"/>
<path d="M16.7868 28.7271C16.7836 28.7239 16.7664 28.7128 16.7271 28.6906C16.7067 28.6779 16.6847 28.6668 16.6627 28.6557C16.6172 28.6335 16.5701 28.6129 16.5245 28.5971C16.6753 28.6748 16.7962 28.735 16.7868 28.7271Z" fill="#D9596B"/>
<path d="M4.34665 2.24287H4.30896H4.23045L4.22574 3.32445V3.46242L4.22417 3.68127C4.24772 4.14593 4.28855 4.57571 4.34194 4.97376C4.37178 5.20054 4.40632 5.4194 4.44558 5.62715C4.5822 6.35824 4.76279 6.96563 4.96065 7.46835C5.16165 7.97742 5.37835 8.37865 5.5825 8.6879C6.02847 9.36665 6.41163 9.61088 6.41163 9.61088V9.60771L4.34665 2.24287Z" fill="#D9596B"/>
</g>
<defs>
<clipPath id="clip0_1_690">
<rect width="31.8367" height="39" fill="white" transform="translate(0.0816345 0.5)"/>
</clipPath>
</defs>
</svg>
